<svg width="18" height="20" viewBox="0 0 18 20" fill="none" xmlns="http://www.w3.org/2000/svg">
<path d="M13.1667 11.6667C13.1667 11.8877 13.079 12.0996 12.9227 12.2559C12.7664 12.4122 12.5544 12.5 12.3334 12.5H5.66675C5.44573 12.5 5.23377 12.4122 5.07749 12.2559C4.92121 12.0996 4.83341 11.8877 4.83341 11.6667C4.83341 11.4457 4.92121 11.2337 5.07749 11.0774C5.23377 10.9211 5.44573 10.8333 5.66675 10.8333H12.3334C12.5544 10.8333 12.7664 10.9211 12.9227 11.0774C13.079 11.2337 13.1667 11.4457 13.1667 11.6667ZM9.83341 14.1667H5.66675C5.44573 14.1667 5.23377 14.2545 5.07749 14.4107C4.92121 14.567 4.83341 14.779 4.83341 15C4.83341 15.221 4.92121 15.433 5.07749 15.5893C5.23377 15.7455 5.44573 15.8333 5.66675 15.8333H9.83341C10.0544 15.8333 10.2664 15.7455 10.4227 15.5893C10.5789 15.433 10.6667 15.221 10.6667 15C10.6667 14.779 10.5789 14.567 10.4227 14.4107C10.2664 14.2545 10.0544 14.1667 9.83341 14.1667ZM17.3334 8.7375V15.8333C17.3321 16.938 16.8927 17.997 16.1116 18.7782C15.3305 19.5593 14.2714 19.9987 13.1667 20H4.83341C3.72875 19.9987 2.66971 19.5593 1.8886 18.7782C1.10748 17.997 0.668071 16.938 0.666748 15.8333V4.16667C0.668071 3.06201 1.10748 2.00297 1.8886 1.22185C2.66971 0.440739 3.72875 0.00132716 4.83341 3.94844e-06H8.59591C9.36226 -0.00196849 10.1214 0.147994 10.8294 0.44122C11.5375 0.734446 12.1804 1.16512 12.7209 1.70834L15.6242 4.61334C16.1678 5.15354 16.5987 5.79622 16.8921 6.50415C17.1855 7.21208 17.3355 7.97119 17.3334 8.7375ZM11.5426 2.88667C11.2803 2.63264 10.9859 2.41411 10.6667 2.23667V5.83334C10.6667 6.05435 10.7545 6.26631 10.9108 6.42259C11.0671 6.57887 11.2791 6.66667 11.5001 6.66667H15.0967C14.9192 6.34766 14.7004 6.05346 14.4459 5.79167L11.5426 2.88667ZM15.6667 8.7375C15.6667 8.6 15.6401 8.46834 15.6276 8.33334H11.5001C10.837 8.33334 10.2012 8.06995 9.73231 7.6011C9.26347 7.13226 9.00008 6.49638 9.00008 5.83334V1.70584C8.86508 1.69334 8.73258 1.66667 8.59591 1.66667H4.83341C4.17037 1.66667 3.53449 1.93006 3.06565 2.3989C2.59681 2.86774 2.33341 3.50363 2.33341 4.16667V15.8333C2.33341 16.4964 2.59681 17.1323 3.06565 17.6011C3.53449 18.0699 4.17037 18.3333 4.83341 18.3333H13.1667C13.8298 18.3333 14.4657 18.0699 14.9345 17.6011C15.4034 17.1323 15.6667 16.4964 15.6667 15.8333V8.7375Z" fill="#3F3F40"/>
</svg>
