<svg width="42" height="42" viewBox="0 0 42 42" fill="none" xmlns="http://www.w3.org/2000/svg">
<circle cx="21" cy="21" r="21" fill="#68473C"/>
<g clip-path="url(#clip0_304_5219)">
<path d="M12.75 15.5624H14.802C14.963 16.1547 15.3144 16.6776 15.802 17.0504C16.2896 17.4232 16.8863 17.6251 17.5001 17.6251C18.1139 17.6251 18.7106 17.4232 19.1983 17.0504C19.6859 16.6776 20.0373 16.1547 20.1982 15.5624H29.25C29.4489 15.5624 29.6397 15.4834 29.7803 15.3428C29.921 15.2021 30 15.0114 30 14.8124C30 14.6135 29.921 14.4228 29.7803 14.2821C29.6397 14.1415 29.4489 14.0624 29.25 14.0624H20.1982C20.0373 13.4702 19.6859 12.9473 19.1983 12.5745C18.7106 12.2017 18.1139 11.9998 17.5001 11.9998C16.8863 11.9998 16.2896 12.2017 15.802 12.5745C15.3144 12.9473 14.963 13.4702 14.802 14.0624H12.75C12.5511 14.0624 12.3603 14.1415 12.2197 14.2821C12.079 14.4228 12 14.6135 12 14.8124C12 15.0114 12.079 15.2021 12.2197 15.3428C12.3603 15.4834 12.5511 15.5624 12.75 15.5624ZM17.4998 13.4999C17.7593 13.4999 18.0131 13.5769 18.2289 13.7211C18.4448 13.8654 18.613 14.0703 18.7123 14.3102C18.8117 14.55 18.8377 14.8139 18.787 15.0685C18.7364 15.3231 18.6114 15.557 18.4278 15.7405C18.2443 15.9241 18.0104 16.0491 17.7558 16.0997C17.5012 16.1504 17.2373 16.1244 16.9975 16.025C16.7576 15.9257 16.5527 15.7575 16.4084 15.5416C16.2642 15.3258 16.1873 15.072 16.1873 14.8124C16.1876 14.4645 16.3261 14.1309 16.5721 13.8848C16.8182 13.6388 17.1518 13.5003 17.4998 13.4999Z" fill="white"/>
<path d="M29.25 20.2499H27.198C27.0373 19.6575 26.686 19.1345 26.1985 18.7615C25.7109 18.3886 25.1141 18.1865 24.5002 18.1865C23.8864 18.1865 23.2896 18.3886 22.802 18.7615C22.3145 19.1345 21.9632 19.6575 21.8025 20.2499H12.75C12.5511 20.2499 12.3603 20.329 12.2197 20.4696C12.079 20.6103 12 20.801 12 20.9999C12 21.1989 12.079 21.3896 12.2197 21.5303C12.3603 21.6709 12.5511 21.7499 12.75 21.7499H21.8025C21.9632 22.3424 22.3145 22.8654 22.802 23.2384C23.2896 23.6113 23.8864 23.8134 24.5002 23.8134C25.1141 23.8134 25.7109 23.6113 26.1985 23.2384C26.686 22.8654 27.0373 22.3424 27.198 21.7499H29.25C29.4489 21.7499 29.6397 21.6709 29.7803 21.5303C29.921 21.3896 30 21.1989 30 20.9999C30 20.801 29.921 20.6103 29.7803 20.4696C29.6397 20.329 29.4489 20.2499 29.25 20.2499ZM24.5002 22.3124C24.2407 22.3124 23.9869 22.2355 23.7711 22.0913C23.5552 21.947 23.387 21.742 23.2877 21.5022C23.1883 21.2624 23.1623 20.9985 23.213 20.7439C23.2636 20.4893 23.3886 20.2554 23.5722 20.0719C23.7557 19.8883 23.9896 19.7633 24.2442 19.7127C24.4988 19.662 24.7627 19.688 25.0025 19.7874C25.2424 19.8867 25.4473 20.0549 25.5916 20.2708C25.7358 20.4866 25.8127 20.7404 25.8127 20.9999C25.8124 21.3479 25.6739 21.6815 25.4279 21.9276C25.1818 22.1736 24.8482 22.3121 24.5002 22.3124Z" fill="white"/>
<path d="M29.25 26.4375H20.1982C20.0373 25.8452 19.6859 25.3223 19.1983 24.9495C18.7106 24.5767 18.1139 24.3748 17.5001 24.3748C16.8863 24.3748 16.2896 24.5767 15.802 24.9495C15.3144 25.3223 14.963 25.8452 14.802 26.4375H12.75C12.5511 26.4375 12.3603 26.5165 12.2197 26.6571C12.079 26.7978 12 26.9885 12 27.1875C12 27.3864 12.079 27.5771 12.2197 27.7178C12.3603 27.8584 12.5511 27.9375 12.75 27.9375H14.802C14.963 28.5297 15.3144 29.0526 15.802 29.4254C16.2896 29.7982 16.8863 30.0001 17.5001 30.0001C18.1139 30.0001 18.7106 29.7982 19.1983 29.4254C19.6859 29.0526 20.0373 28.5297 20.1982 27.9375H29.25C29.4489 27.9375 29.6397 27.8584 29.7803 27.7178C29.921 27.5771 30 27.3864 30 27.1875C30 26.9885 29.921 26.7978 29.7803 26.6571C29.6397 26.5165 29.4489 26.4375 29.25 26.4375ZM17.4998 28.5C17.2402 28.5 16.9864 28.423 16.7706 28.2788C16.5547 28.1345 16.3865 27.9296 16.2872 27.6897C16.1878 27.4499 16.1618 27.186 16.2125 26.9314C16.2631 26.6768 16.3881 26.4429 16.5717 26.2594C16.7552 26.0758 16.9891 25.9508 17.2437 25.9002C17.4983 25.8495 17.7622 25.8755 18.002 25.9749C18.2418 26.0742 18.4468 26.2424 18.5911 26.4583C18.7353 26.6741 18.8123 26.9279 18.8123 27.1875C18.8117 27.5354 18.6732 27.8689 18.4272 28.1149C18.1812 28.3609 17.8477 28.4994 17.4998 28.5Z" fill="white"/>
</g>
<defs>
<clipPath id="clip0_304_5219">
<rect width="18" height="18" fill="white" transform="translate(12 12)"/>
</clipPath>
</defs>
</svg>
