<svg width="92" height="92" viewBox="0 0 92 92" fill="none" xmlns="http://www.w3.org/2000/svg">
<path fill-rule="evenodd" clip-rule="evenodd" d="M46 0.6875C37.0381 0.6875 28.2773 3.34503 20.8257 8.32403C13.3741 13.303 7.56632 20.3799 4.13673 28.6597C0.707133 36.9394 -0.190206 46.0503 1.55819 54.84C3.30658 63.6298 7.62218 71.7037 13.9592 78.0408C20.2963 84.3778 28.3702 88.6934 37.16 90.4418C45.9498 92.1902 55.0606 91.2929 63.3404 87.8633C71.6201 84.4337 78.697 78.6259 83.676 71.1743C88.655 63.7227 91.3125 54.962 91.3125 46C91.3067 33.9842 86.5309 22.4621 78.0344 13.9656C69.5379 5.46914 58.0159 0.693297 46 0.6875ZM46 88.1875C37.6561 88.1875 29.4996 85.7132 22.5619 81.0776C15.6242 76.442 10.2169 69.8532 7.02385 62.1445C3.83078 54.4357 2.99533 45.9532 4.62314 37.7696C6.25096 29.5861 10.2689 22.069 16.169 16.1689C22.069 10.2689 29.5861 6.25094 37.7696 4.62312C45.9532 2.99531 54.4357 3.83076 62.1445 7.02383C69.8532 10.2169 76.442 15.6242 81.0776 22.5619C85.7133 29.4996 88.1875 37.6561 88.1875 46C88.1825 57.1873 83.7362 67.915 75.8256 75.8256C67.915 83.7362 57.1873 88.1825 46 88.1875Z" fill="#3F3F40"/>
<path fill-rule="evenodd" clip-rule="evenodd" d="M66.2939 22.2688C65.8538 21.9967 65.3514 21.8417 64.8345 21.8188C64.3175 21.7958 63.8033 21.9055 63.3408 22.1375L59.4377 24.0844L54.0689 21.4C53.6476 21.1903 53.1834 21.0811 52.7127 21.0811C52.242 21.0811 51.7778 21.1903 51.3564 21.4L46.0002 24.0844L40.6346 21.4C40.2132 21.1903 39.749 21.0811 39.2783 21.0811C38.8077 21.0811 38.3434 21.1903 37.9221 21.4L32.5627 24.0844L28.6689 22.1375C28.2072 21.9091 27.6948 21.8022 27.1802 21.8269C26.6656 21.8515 26.1658 22.0069 25.7279 22.2784C25.2901 22.5498 24.9286 22.9284 24.6777 23.3784C24.4268 23.8284 24.2947 24.3348 24.2939 24.85V67.15C24.2947 67.6652 24.4268 68.1717 24.6777 68.6216C24.9286 69.0716 25.2901 69.4502 25.7279 69.7216C26.1658 69.9931 26.6656 70.1485 27.1802 70.1732C27.6948 70.1978 28.2072 70.0909 28.6689 69.8625L32.5627 67.9156L37.9314 70.6C38.3528 70.8097 38.817 70.9189 39.2877 70.9189C39.7584 70.9189 40.2226 70.8097 40.6439 70.6L46.0002 67.9156L51.3658 70.6C51.7872 70.8097 52.2514 70.9189 52.7221 70.9189C53.1927 70.9189 53.657 70.8097 54.0783 70.6L59.4471 67.9156L63.3408 69.8625C63.8032 70.0945 64.3173 70.2043 64.8341 70.1815C65.3509 70.1586 65.8533 70.0039 66.2934 69.732C66.7335 69.4601 67.0967 69.0801 67.3484 68.6281C67.6001 68.1762 67.732 67.6673 67.7314 67.15V24.85C67.7316 24.3329 67.5997 23.8244 67.3481 23.3726C67.0965 22.9209 66.7336 22.5409 66.2939 22.2688ZM64.6064 67.0031L60.8033 65.1C60.3824 64.8889 59.918 64.7789 59.4471 64.7789C58.9762 64.7789 58.5117 64.8889 58.0908 65.1L52.7221 67.7844L47.3564 65.1C46.9355 64.8889 46.4711 64.7789 46.0002 64.7789C45.5293 64.7789 45.0649 64.8889 44.6439 65.1L39.2783 67.7844L33.9096 65.1C33.4886 64.8889 33.0242 64.7789 32.5533 64.7789C32.0824 64.7789 31.618 64.8889 31.1971 65.1L27.3939 67.0031V24.9969L31.1971 26.9C31.618 27.1111 32.0824 27.2211 32.5533 27.2211C33.0242 27.2211 33.4886 27.1111 33.9096 26.9L39.2783 24.2156L44.6439 26.9C45.0649 27.1111 45.5293 27.2211 46.0002 27.2211C46.4711 27.2211 46.9355 27.1111 47.3564 26.9L52.7221 24.2156L58.0908 26.9C58.5117 27.1111 58.9762 27.2211 59.4471 27.2211C59.918 27.2211 60.3824 27.1111 60.8033 26.9L64.6064 24.9969V67.0031Z" fill="#3F3F40"/>
<path fill-rule="evenodd" clip-rule="evenodd" d="M53.6532 33.2156L46 40.8719L41.2657 36.1375C40.971 35.8529 40.5763 35.6954 40.1666 35.6989C39.7569 35.7025 39.365 35.8668 39.0753 36.1565C38.7856 36.4462 38.6213 36.8381 38.6177 37.2478C38.6142 37.6575 38.7717 38.0522 39.0563 38.3469L44.8938 44.1844C45.0389 44.3299 45.2114 44.4453 45.4012 44.5241C45.591 44.6029 45.7945 44.6434 46 44.6434C46.2056 44.6434 46.4091 44.6029 46.5989 44.5241C46.7887 44.4453 46.9611 44.3299 47.1063 44.1844L55.8563 35.4344C56.1409 35.1397 56.2984 34.745 56.2948 34.3353C56.2913 33.9256 56.127 33.5337 55.8373 33.244C55.5476 32.9543 55.1557 32.79 54.746 32.7864C54.3363 32.7829 53.9416 32.9404 53.6469 33.225L53.6532 33.2156Z" fill="#3F3F40"/>
<path fill-rule="evenodd" clip-rule="evenodd" d="M51.8404 47.3563H40.1592C39.7448 47.3563 39.3474 47.5209 39.0543 47.8139C38.7613 48.1069 38.5967 48.5044 38.5967 48.9188C38.5967 49.3332 38.7613 49.7306 39.0543 50.0236C39.3474 50.3166 39.7448 50.4813 40.1592 50.4813H51.8404C52.2548 50.4813 52.6523 50.3166 52.9453 50.0236C53.2383 49.7306 53.4029 49.3332 53.4029 48.9188C53.4029 48.5044 53.2383 48.1069 52.9453 47.8139C52.6523 47.5209 52.2548 47.3563 51.8404 47.3563Z" fill="#3F3F40"/>
<path fill-rule="evenodd" clip-rule="evenodd" d="M51.8404 53.1875H40.1592C39.7448 53.1875 39.3474 53.3521 39.0543 53.6452C38.7613 53.9382 38.5967 54.3356 38.5967 54.75C38.5967 55.1644 38.7613 55.5618 39.0543 55.8549C39.3474 56.1479 39.7448 56.3125 40.1592 56.3125H51.8404C52.2548 56.3125 52.6523 56.1479 52.9453 55.8549C53.2383 55.5618 53.4029 55.1644 53.4029 54.75C53.4029 54.3356 53.2383 53.9382 52.9453 53.6452C52.6523 53.3521 52.2548 53.1875 51.8404 53.1875Z" fill="#3F3F40"/>
</svg>
