<svg width="328" height="268" viewBox="0 0 328 268" fill="none" xmlns="http://www.w3.org/2000/svg">
<g clip-path="url(#clip0_81_638)">
<path d="M334.058 247.15C334.058 247.203 257.929 247.31 164 247.31C70.0713 247.31 -6.05811 247.257 -6.05811 247.15C-6.05811 247.042 70.0713 246.989 164 246.989C257.929 246.989 334.058 247.096 334.058 247.15Z" fill="#3F3F40"/>
<path d="M150.704 26.8536H113.819V65.2848H150.704V26.8536Z" fill="#E0E0E0"/>
<path d="M148.238 26.8538H111.353V65.285H148.238V26.8538Z" fill="#F5F5F5"/>
<path d="M148.238 65.2848H111.353V26.8H148.238V65.2848ZM111.353 65.2848H148.238V26.8536H111.353V65.2848Z" fill="#E0E0E0"/>
<path d="M143.252 31.9992H116.285V60.0856H143.252V31.9992Z" fill="white"/>
<path d="M116.285 60.3C116.285 60.3 116.071 60.6216 115.642 61.0504C115.213 61.4792 114.623 62.1224 113.926 62.7656C113.229 63.4088 112.639 64.052 112.157 64.4272C111.674 64.856 111.406 65.124 111.353 65.0704C111.353 65.0704 111.567 64.7488 111.996 64.32C112.425 63.8912 113.015 63.248 113.712 62.6048C114.409 61.9616 114.998 61.3184 115.481 60.8896C115.963 60.5144 116.285 60.2464 116.285 60.3Z" fill="#E0E0E0"/>
<path d="M143.252 60.2464C143.252 60.2464 143.574 60.4608 144.003 60.8896C144.432 61.3184 145.075 61.908 145.718 62.6048C146.362 63.3016 147.005 63.8912 147.38 64.3736C147.809 64.856 148.077 65.124 148.024 65.1776C148.024 65.1776 147.702 64.9632 147.273 64.5344C146.844 64.1056 146.201 63.516 145.558 62.8192C144.914 62.1224 144.271 61.5328 143.842 61.0504C143.467 60.5144 143.252 60.2464 143.252 60.2464Z" fill="#E0E0E0"/>
<path d="M143.198 32.0528C143.198 32.0528 143.413 31.7312 143.842 31.3024C144.271 30.8736 144.86 30.2304 145.557 29.5872C146.254 28.944 146.844 28.3008 147.327 27.9256C147.809 27.4968 148.077 27.2288 148.131 27.2824C148.131 27.2824 147.916 27.604 147.487 28.0328C147.059 28.4616 146.469 29.1048 145.772 29.748C145.075 30.3912 144.485 31.0344 144.003 31.4632C143.52 31.8384 143.198 32.1064 143.198 32.0528Z" fill="#E0E0E0"/>
<path d="M116.231 32.16C116.231 32.16 115.91 31.9456 115.481 31.5168C115.052 31.088 114.409 30.4984 113.765 29.8016C113.122 29.1048 112.479 28.5152 112.103 28.0328C111.674 27.5504 111.406 27.2824 111.46 27.2288C111.46 27.2288 111.782 27.4432 112.21 27.872C112.639 28.3008 113.283 28.8904 113.926 29.5872C114.623 30.284 115.213 30.8736 115.642 31.356C116.017 31.8384 116.231 32.1064 116.231 32.16Z" fill="#E0E0E0"/>
<path d="M143.199 60.0856C143.199 60.0856 143.199 60.032 143.199 59.9248C143.199 59.8176 143.199 59.7104 143.199 59.5496C143.199 59.1744 143.199 58.692 143.199 58.0488C143.199 56.7088 143.199 54.7792 143.145 52.3136C143.145 47.3824 143.091 40.3608 143.091 31.9992L143.199 32.1064C135.371 32.1064 126.15 32.1064 116.285 32.1064L116.392 31.9992C116.392 42.2904 116.392 51.992 116.392 60.0856L116.285 59.9784C124.327 59.9784 131.029 60.032 135.746 60.032C138.105 60.032 139.928 60.032 141.215 60.032C141.858 60.032 142.341 60.032 142.662 60.032C142.823 60.032 142.931 60.032 143.038 60.032C143.145 60.0856 143.199 60.0856 143.199 60.0856C143.199 60.0856 143.145 60.0856 143.091 60.0856C142.984 60.0856 142.877 60.0856 142.716 60.0856C142.394 60.0856 141.912 60.0856 141.269 60.0856C139.982 60.0856 138.159 60.0856 135.8 60.1392C131.082 60.1392 124.327 60.1928 116.285 60.1928H116.178V60.0856C116.178 51.9384 116.178 42.2904 116.178 31.9992V31.892H116.285C126.096 31.892 135.318 31.892 143.199 31.892H143.306V31.9992C143.306 40.4144 143.252 47.436 143.252 52.4208C143.252 54.8864 143.252 56.816 143.199 58.1024C143.199 58.7456 143.199 59.228 143.199 59.6032C143.199 59.764 143.199 59.8712 143.199 59.9784C143.199 60.0856 143.199 60.0856 143.199 60.0856Z" fill="#E0E0E0"/>
<path d="M134.299 41.54H125.292V50.5448H134.299V41.54Z" fill="#E0E0E0"/>
<path d="M32.8645 135.126C30.5592 133.678 27.9322 132.767 25.198 132.499C23.9649 132.392 22.571 132.392 21.5523 133.142C21.3379 133.303 21.1234 133.518 21.177 133.786C21.2306 134 21.3915 134.107 21.5523 134.214C24.6618 136.626 29.3797 136.948 32.8645 135.126Z" fill="#E0E0E0"/>
<path d="M32.6501 134.911C30.9345 133.571 29.1653 132.178 27.7178 130.57C26.2702 128.908 25.0372 126.978 24.6083 124.834C24.501 124.191 24.4474 123.441 24.8763 122.905C28.79 125.96 31.8995 129.98 32.6501 134.911Z" fill="#E0E0E0"/>
<path d="M32.8108 135.072C32.4891 132.928 32.3819 130.677 32.918 128.586C33.4005 126.442 34.58 124.459 36.4028 123.226C37.0998 124.834 36.7781 126.657 36.2956 128.318C35.545 130.891 34.3655 133.357 32.8644 135.554" fill="#E0E0E0"/>
<path d="M36.6709 142.04C34.3119 142.308 32.2747 143.541 30.5055 145.149C28.7362 146.757 27.5032 148.901 26.967 151.206C29.2724 151.045 31.2024 149.437 32.6499 147.614C34.0975 145.792 35.1161 143.755 36.6709 142.04Z" fill="#E0E0E0"/>
<path d="M37.5289 143.166C35.6524 138.502 36.2958 132.874 39.2981 128.801C40.6384 133.571 40.1023 138.931 37.5289 143.166Z" fill="#E0E0E0"/>
<path d="M42.6219 149.222C40.4774 149.115 38.3329 149.598 36.4565 150.67C34.5801 151.742 33.0789 153.35 32.1139 155.279C32.0067 155.547 31.8458 155.869 32.0603 156.083C32.2211 156.298 32.4892 156.298 32.7573 156.298C34.8481 156.19 36.6709 154.904 38.1721 153.51C39.6732 152.063 41.0135 150.455 42.6219 149.222Z" fill="#E0E0E0"/>
<path d="M42.4612 148.901C41.3353 145.363 41.2817 141.558 42.2467 138.02C42.622 136.626 43.2654 135.126 44.5521 134.482C44.6593 134.429 44.7665 134.375 44.9273 134.429C45.0346 134.482 45.0882 134.59 45.1418 134.697C45.6243 135.662 45.7315 136.734 45.6779 137.806C45.6243 138.878 45.4099 139.95 45.1954 140.968C44.7665 142.898 44.5521 144.988 43.5334 146.65C43.2654 147.025 43.0509 147.454 42.8365 147.882C42.622 148.311 42.622 148.472 42.4612 148.794" fill="#E0E0E0"/>
<path d="M56.0249 150.884C55.0063 147.078 56.0785 142.469 58.4911 139.306C58.6519 139.092 58.92 138.824 59.1881 138.878C59.617 138.931 59.7242 139.521 59.7242 139.95C59.5633 143.862 58.223 147.722 56.0249 150.884Z" fill="#E0E0E0"/>
<path d="M57.2046 151.742C61.8152 152.921 67.1765 151.795 70.9829 148.954C68.6776 147.775 65.997 147.454 63.5308 148.043C61.0647 148.579 58.7593 149.705 57.2046 151.742Z" fill="#E0E0E0"/>
<path d="M58.2766 149.222C60.85 144.988 65.8359 142.254 70.8219 141.986C70.2322 144.023 68.5702 145.578 66.7474 146.542C64.8709 147.507 62.78 147.882 60.7428 148.311C59.885 148.418 58.7591 148.579 58.2766 149.222Z" fill="#E0E0E0"/>
<path d="M56.2931 136.894C56.99 134.482 57.687 132.07 57.9014 129.551C58.1159 127.032 57.7406 124.459 56.4539 122.315C54.0414 127.032 53.7733 132.499 56.2395 137.162" fill="#E0E0E0"/>
<path d="M64.4421 132.767C67.2836 127.622 73.0737 123.494 78.9175 122.905C76.6657 128.533 70.5003 132.874 64.4421 132.767Z" fill="#E0E0E0"/>
<path d="M62.6729 133.786C66.9082 134.429 70.5002 137.109 74.4676 138.77C75.3253 139.146 76.2368 139.414 77.1482 139.306C78.0596 139.199 78.971 138.556 79.1318 137.698C79.2927 136.948 78.971 136.198 78.4349 135.608C77.8987 135.072 77.2018 134.75 76.5048 134.429C72.2158 132.66 67.6052 132.606 63.0481 133.678" fill="#E0E0E0"/>
<path d="M60.2068 136.734C61.1718 137.002 61.4935 137.484 62.2441 138.127C64.8174 140.325 67.8733 141.879 71.1973 142.737C71.519 142.844 72.0015 142.844 72.1623 142.522C72.3232 142.254 72.1087 141.933 71.9479 141.665C70.554 139.95 68.6239 138.77 66.533 138.02C64.4958 137.27 62.673 136.305 60.2068 136.519" fill="#E0E0E0"/>
<path d="M57.4189 118.831C60.8501 122.047 65.6752 123.709 70.3931 123.226C70.6076 123.226 70.822 123.173 70.9829 123.012C71.3045 122.637 70.9292 122.101 70.554 121.833C66.7475 118.831 62.1368 117.598 57.4189 118.831Z" fill="#E0E0E0"/>
<path d="M60.6892 117.652C65.2463 114.222 71.4653 113.203 76.8801 114.972C74.8429 116.955 72.0014 118.081 69.16 118.349C66.3185 118.617 63.477 118.349 60.6892 117.652Z" fill="#E0E0E0"/>
<path d="M59.4027 109.398C59.0274 105.592 59.2955 102.59 59.0274 98.7848C59.0274 98.4632 58.9202 98.088 58.6521 97.9808C58.2768 97.82 57.9016 98.3024 57.7943 98.7312C56.6685 102.269 57.2582 106.289 59.4027 109.29" fill="#E0E0E0"/>
<path d="M59.1345 109.826C61.7079 108.218 63.638 106.128 65.4608 103.716C66.6939 102.001 67.7661 99.964 67.498 97.8736C65.7288 97.82 64.0669 98.7848 62.941 100.125C61.8151 101.465 61.1182 103.126 60.6357 104.788C60.0995 106.45 59.7243 108.165 59.1345 109.826Z" fill="#E0E0E0"/>
<path d="M65.3536 108.111C71.0365 106.021 76.2905 102.912 80.8475 98.9456C78.9711 98.1952 76.8802 98.624 75.0038 99.3744C70.7684 101.09 67.3372 103.984 65.2463 108.004" fill="#E0E0E0"/>
<path d="M60.9038 111.917C63.7453 112.238 66.6939 112.453 69.5354 111.97C72.3232 111.488 74.9502 110.416 77.5772 109.29C77.7917 109.183 78.0061 109.076 78.1134 108.862C78.2206 108.647 78.1134 108.326 77.8989 108.165C77.6845 108.004 77.47 107.897 77.2019 107.843C74.3605 107.039 71.3046 107.414 68.5168 108.379C65.7289 109.29 63.4236 110.416 60.9038 111.917Z" fill="#E0E0E0"/>
<path d="M44.552 118.938C42.622 114.972 42.7292 110.416 44.3912 106.342C45.5706 108.165 45.7315 110.47 45.517 112.614C45.3026 114.758 44.6592 117.009 44.6056 119.153" fill="#E0E0E0"/>
<path d="M36.7245 115.026C31.8457 114.918 26.967 117.009 23.6431 120.6C26.0556 120.975 28.5754 120.332 30.7735 119.26C32.9716 118.188 34.9553 116.687 36.8853 115.133" fill="#E0E0E0"/>
<path d="M31.4706 113.257C29.1116 113.042 26.8063 112.774 24.501 113.471C22.1956 114.168 20.1048 115.776 19.1934 117.974C21.4451 118.242 23.6968 117.652 25.7341 116.741C27.7713 115.83 29.6478 114.543 31.4706 113.257Z" fill="#E0E0E0"/>
<path d="M39.2443 113.364C37.0998 111.97 34.9017 110.523 32.3819 109.934C29.8621 109.344 26.9671 109.773 25.2515 111.649C27.2887 112.828 29.7549 112.989 32.0602 112.989C34.4192 112.989 37.2606 112.935 39.5123 113.739" fill="#E0E0E0"/>
<path d="M39.2444 113.471C35.5987 109.88 34.2048 103.394 35.6523 98.4632C38.5474 102.858 39.8341 108.272 39.2444 113.471Z" fill="#E0E0E0"/>
<path d="M49.3772 103.234C50.0742 101.626 50.5567 99.964 51.2 98.3024C51.8434 96.6408 52.5939 95.0328 53.7734 93.7464C54.9529 92.46 56.5612 91.4952 58.3305 91.388C57.2582 96.3192 53.9342 100.768 49.538 103.234" fill="#E0E0E0"/>
<path d="M47.5006 105.378C46.3747 103.823 45.0344 101.679 43.4797 100.5C41.9249 99.3208 39.8877 98.624 38.0112 99.0528C39.9413 102.483 43.5869 104.949 47.5006 105.378Z" fill="#E0E0E0"/>
<path d="M47.8758 103.394C47.1253 101.465 46.3747 99.5352 46.053 97.552C45.7313 95.5152 45.9458 93.3712 46.9644 91.6024C49.0017 95.408 49.645 99.4816 47.9831 103.448" fill="#E0E0E0"/>
<path d="M49.3772 91.5488C50.5031 87.7968 53.9879 85.0096 57.6871 83.7232C58.1696 83.5624 58.6521 83.4552 59.1346 83.5088C59.6171 83.5624 60.0997 83.9376 60.2069 84.42C60.3677 85.0632 59.8316 85.6528 59.2955 86.0816C56.454 88.5472 53.0228 90.4232 49.3772 91.5488Z" fill="#E0E0E0"/>
<path d="M49.4308 88.4936C49.5916 86.0816 49.7525 83.616 50.5031 81.3112C51.2536 79.0064 52.8084 76.8624 55.0601 75.844C55.4354 78.3096 54.3631 80.7216 53.0228 82.8656C51.7361 84.956 50.1278 86.9928 49.3772 89.3512" fill="#E0E0E0"/>
<path d="M49.3771 90.1552C48.412 87.4216 48.3584 83.9376 46.6964 81.5256C45.5706 79.864 43.6941 78.6848 42.7291 76.916C42.0858 78.5776 42.2466 80.5072 42.9436 82.1152C43.6405 83.7768 44.7664 85.1704 45.9995 86.4568C47.1789 87.7968 48.1976 88.7616 49.3771 90.1552Z" fill="#E0E0E0"/>
<path d="M49.3771 171.145C49.3235 171.145 49.2163 152.814 49.2163 130.194C49.2163 107.575 49.2699 89.244 49.3235 89.244C49.3771 89.244 49.4844 107.575 49.4844 130.194C49.4844 152.814 49.4308 171.145 49.3771 171.145Z" fill="#E0E0E0"/>
<path d="M65.4071 116.205C65.4071 116.205 65.1927 116.312 64.7102 116.473C64.2277 116.634 63.5843 116.848 62.8337 117.116C61.2254 117.652 59.0273 118.456 56.6683 119.421C54.3094 120.439 52.0577 121.243 50.8246 122.369C50.1812 122.905 49.806 123.494 49.6451 123.923C49.4843 124.352 49.4307 124.62 49.4307 124.62C49.4307 124.62 49.4307 124.566 49.4307 124.406C49.4307 124.298 49.4843 124.084 49.5915 123.87C49.7523 123.441 50.074 122.798 50.7174 122.208C51.3607 121.618 52.2185 121.082 53.2371 120.654C54.2558 120.171 55.3816 119.689 56.5611 119.206C58.9737 118.242 61.1718 117.438 62.7801 116.955C63.5843 116.687 64.2277 116.526 64.7102 116.419C65.1391 116.205 65.4071 116.151 65.4071 116.205Z" fill="#E0E0E0"/>
<path d="M70.6611 103.287C70.6611 103.287 70.6075 103.341 70.4466 103.502C70.2858 103.662 70.0714 103.823 69.8569 104.038C69.3208 104.52 68.5702 105.217 67.6588 106.021C65.7824 107.736 63.209 109.987 60.3675 112.506C57.5261 115.026 55.0599 117.491 53.3443 119.314C52.4865 120.225 51.7896 120.975 51.3607 121.511C51.1462 121.779 50.9854 121.94 50.8246 122.101C50.7173 122.262 50.6101 122.315 50.6101 122.315C50.6101 122.315 50.6637 122.208 50.7709 122.101C50.8782 121.94 51.039 121.726 51.2535 121.458C51.6824 120.922 52.3257 120.118 53.1835 119.206C54.8455 117.33 57.3116 114.865 60.1531 112.346C62.9945 109.826 65.6215 107.522 67.498 105.914C68.4094 105.11 69.2136 104.466 69.7497 103.984C70.0178 103.77 70.2322 103.609 70.393 103.448C70.5539 103.341 70.6611 103.287 70.6611 103.287Z" fill="#E0E0E0"/>
<path d="M57.258 115.133C57.2044 115.079 57.7942 113.739 58.3839 111.97C58.9736 110.255 59.2417 108.754 59.3489 108.754C59.4025 108.754 59.2417 110.255 58.652 112.024C58.3303 112.882 58.0086 113.686 57.7405 114.222C57.5261 114.811 57.3116 115.133 57.258 115.133Z" fill="#E0E0E0"/>
<path d="M49.3771 126.228C49.3771 126.228 49.2162 126.067 48.9482 125.692C48.6265 125.317 48.2512 124.834 47.8223 124.245C46.8573 123.012 45.5706 121.35 44.1231 119.474C42.6755 117.652 41.2816 115.99 40.3166 114.758C39.8341 114.168 39.4588 113.686 39.1907 113.31C38.9227 112.989 38.7618 112.774 38.8154 112.774C38.8154 112.774 38.9763 112.935 39.298 113.257C39.566 113.578 39.9949 114.061 40.531 114.65C41.5497 115.83 42.9436 117.438 44.3911 119.314C45.8387 121.19 47.1254 122.851 48.0368 124.138C48.4657 124.781 48.8409 125.263 49.109 125.638C49.2698 126.014 49.3771 126.228 49.3771 126.228Z" fill="#E0E0E0"/>
<path d="M45.8922 121.726C45.8386 121.779 44.9272 120.654 44.4447 118.992C44.0694 117.813 44.0694 116.687 44.123 116.205H44.2303C44.1766 116.419 44.123 116.526 44.123 116.526C44.123 116.526 44.123 116.419 44.123 116.205H44.2303C44.2839 116.687 44.3375 117.759 44.7128 118.885C45.1417 120.546 45.9458 121.672 45.8922 121.726Z" fill="#E0E0E0"/>
<path d="M41.3353 116.044C41.2816 116.098 41.0136 115.722 40.3166 115.454C39.6197 115.186 38.601 115.133 37.4752 115.24C36.3493 115.347 35.3307 115.508 34.5801 115.722C33.8295 115.883 33.4006 116.044 33.4006 115.99C33.4006 115.937 33.8295 115.776 34.5265 115.508C35.2235 115.294 36.2957 115.026 37.4216 114.972C38.5474 114.865 39.6733 114.972 40.3702 115.294C41.1208 115.562 41.3353 115.99 41.3353 116.044Z" fill="#E0E0E0"/>
<path d="M40.2629 114.65C40.2629 114.704 39.6732 114.436 38.7082 114.061C37.7431 113.739 36.3492 113.364 34.7945 113.257C33.2397 113.15 31.7922 113.257 30.7736 113.471C29.7549 113.632 29.1652 113.846 29.1116 113.793C29.1116 113.793 29.2724 113.739 29.5405 113.632C29.8085 113.525 30.2374 113.418 30.7199 113.31C31.7386 113.096 33.1861 112.882 34.7945 113.042C36.4028 113.15 37.7968 113.578 38.7618 113.954C39.2443 114.168 39.6196 114.329 39.8876 114.49C40.1021 114.543 40.2629 114.597 40.2629 114.65Z" fill="#E0E0E0"/>
<path d="M49.3771 108.808C49.3234 108.808 48.7873 107.039 48.2512 104.842C47.6615 102.644 47.2862 100.822 47.3398 100.768C47.3934 100.768 47.9295 102.537 48.4657 104.734C49.0018 106.932 49.4307 108.754 49.3771 108.808Z" fill="#E0E0E0"/>
<path d="M49.4307 108.808C49.3771 108.808 49.0018 107.629 48.144 106.396C47.2862 105.163 46.2139 104.52 46.2676 104.466C46.2676 104.413 46.5892 104.574 46.9645 104.842C47.3934 105.11 47.8759 105.592 48.3584 106.235C49.2698 107.522 49.4843 108.754 49.4307 108.808Z" fill="#E0E0E0"/>
<path d="M49.3772 161.336C49.3236 161.336 49.2699 160.907 49.1091 160.103C48.8947 159.299 48.5194 158.227 47.876 156.941C46.5893 154.368 44.284 151.045 41.3889 147.775C39.9414 146.114 38.5475 144.559 37.3144 143.058C36.1349 141.558 35.1163 140.11 34.4193 138.878C33.7224 137.591 33.2399 136.519 32.9718 135.769C32.811 135.394 32.7574 135.072 32.7037 134.858C32.6501 134.643 32.5965 134.536 32.6501 134.536C32.6501 134.536 32.811 134.965 33.1326 135.715C33.4543 136.466 33.9368 137.538 34.6874 138.77C35.438 140.003 36.403 141.397 37.6361 142.898C38.8155 144.398 40.2631 145.953 41.7106 147.614C44.6593 150.938 46.9646 154.261 48.1977 156.887C48.841 158.227 49.1627 159.353 49.3772 160.103C49.4844 160.478 49.538 160.8 49.538 161.014C49.3772 161.229 49.3772 161.336 49.3772 161.336Z" fill="#E0E0E0"/>
<path d="M63.8525 144.988C63.8525 144.988 63.5845 145.149 63.1019 145.417C62.6194 145.685 61.9225 146.114 61.1183 146.703C60.3141 147.293 59.4563 148.097 58.5449 149.062C57.6335 150.026 56.7221 151.152 55.7571 152.331C53.827 154.743 52.0578 156.834 50.9856 158.549C50.4494 159.406 50.0742 160.103 49.8061 160.586C49.538 161.068 49.4308 161.336 49.3772 161.336C49.3772 161.336 49.3772 161.282 49.4308 161.122C49.4844 160.961 49.538 160.8 49.6989 160.532C49.9133 159.996 50.2886 159.299 50.8247 158.442C51.8434 156.726 53.6126 154.582 55.5426 152.17C56.5076 150.991 57.419 149.866 58.3841 148.901C59.2955 147.936 60.2069 147.132 61.0111 146.542C61.8153 145.953 62.5658 145.524 63.0483 145.31C63.3164 145.202 63.5308 145.095 63.6381 145.042C63.7989 144.988 63.8525 144.988 63.8525 144.988Z" fill="#E0E0E0"/>
<path d="M64.1205 150.294C64.1205 150.348 63.5307 150.402 62.5121 150.509C61.5471 150.616 60.1532 150.777 58.7056 151.259C57.2581 151.742 56.0786 152.438 55.2744 153.028C54.4703 153.618 54.095 154.154 54.095 154.1C54.095 154.1 54.1486 153.939 54.3094 153.725C54.4703 153.51 54.7383 153.189 55.1672 152.867C55.9178 152.224 57.1509 151.474 58.5984 150.991C60.0995 150.509 61.4935 150.402 62.4585 150.294C63.5307 150.294 64.1205 150.294 64.1205 150.294Z" fill="#E0E0E0"/>
<path d="M54.5775 153.564C54.4702 153.51 55.2208 152.438 55.7569 150.938C56.2931 149.437 56.4003 148.15 56.5075 148.15C56.5611 148.15 56.5611 148.472 56.5075 149.008C56.4539 149.544 56.2931 150.241 56.025 151.045C55.7569 151.795 55.3817 152.438 55.1136 152.921C54.8455 153.35 54.6311 153.618 54.5775 153.564Z" fill="#E0E0E0"/>
<path d="M68.5703 130.73C68.5703 130.73 68.463 130.784 68.3022 130.891C68.0877 130.998 67.8733 131.106 67.5516 131.213C67.2299 131.374 66.8011 131.534 66.3722 131.749C65.9433 131.963 65.4071 132.231 64.8174 132.553C64.5493 132.714 64.2277 132.874 63.9596 133.035C63.6379 133.196 63.3699 133.41 63.0482 133.625C62.4048 134 61.7615 134.482 61.0645 134.965C59.7242 135.983 58.2767 137.216 56.9364 138.61C55.5961 140.003 54.4166 141.504 53.4516 142.844C52.9691 143.541 52.5402 144.238 52.1649 144.881C51.9504 145.202 51.7896 145.524 51.6288 145.846C51.4679 146.167 51.3071 146.435 51.1463 146.757C50.8246 147.293 50.6101 147.829 50.3957 148.311C50.1812 148.794 50.0204 149.169 49.8596 149.49C49.7523 149.812 49.6451 150.08 49.5379 150.241C49.4843 150.402 49.4307 150.509 49.4307 150.509C49.4307 150.509 49.4307 150.402 49.4843 150.241C49.5379 150.026 49.6451 149.758 49.7523 149.437C49.8596 149.115 50.0204 148.686 50.2348 148.204C50.4493 147.722 50.6637 147.186 50.9318 146.596C51.0926 146.328 51.2535 146.006 51.3607 145.685C51.5215 145.363 51.736 145.042 51.8968 144.72C52.2721 144.077 52.701 143.38 53.1835 142.683C54.1485 141.29 55.328 139.789 56.6683 138.395C58.0622 137.002 59.4562 135.769 60.8501 134.75C61.547 134.268 62.1904 133.786 62.8337 133.41C63.1554 133.196 63.4771 133.035 63.7451 132.821C64.0668 132.66 64.3349 132.499 64.6566 132.338C65.1927 132.017 65.7288 131.802 66.2113 131.588C66.6938 131.374 67.0691 131.213 67.4444 131.052C67.7661 130.945 68.0341 130.838 68.195 130.73C68.463 130.784 68.5703 130.73 68.5703 130.73Z" fill="#E0E0E0"/>
<path d="M57.0972 138.449C57.0972 138.449 57.2044 138.02 57.7405 137.484C58.2766 137.002 59.188 136.519 60.2603 136.519C61.3325 136.466 62.2976 136.787 62.9409 137.055C63.5843 137.323 63.9595 137.538 63.9595 137.538C63.9595 137.591 63.5306 137.43 62.8873 137.216C62.2439 137.002 61.3325 136.734 60.2603 136.787C59.2417 136.841 58.3303 137.216 57.8477 137.645C57.3116 138.074 57.1508 138.449 57.0972 138.449Z" fill="#E0E0E0"/>
<path d="M55.3816 140.218C55.328 140.164 55.9713 139.253 56.0785 137.859C56.2394 136.519 55.8105 135.447 55.9177 135.394C55.9713 135.394 56.0785 135.608 56.2394 136.09C56.3466 136.519 56.4538 137.162 56.3466 137.913C56.2394 138.61 56.0249 139.253 55.8105 139.628C55.596 140.003 55.3816 140.218 55.3816 140.218Z" fill="#E0E0E0"/>
<path d="M36.7246 163.962C37.0999 170.984 39.2444 178.113 42.4611 185.295H56.6148C59.7243 178.166 61.6543 171.038 62.0296 163.962H36.7246Z" fill="#E0E0E0"/>
<path d="M59.7242 175.326C59.7242 175.379 55.0599 175.433 49.3234 175.433C43.5869 175.433 38.9226 175.379 38.9226 175.326C38.9226 175.272 43.5869 175.218 49.3234 175.218C55.0599 175.218 59.7242 175.272 59.7242 175.326Z" fill="#FAFAFA"/>
<path d="M59.4026 177.845C59.4026 177.898 55.06 177.952 49.6451 177.952C44.2839 177.952 39.8877 177.898 39.8877 177.845C39.8877 177.791 44.2303 177.738 49.6451 177.738C55.06 177.738 59.4026 177.791 59.4026 177.845Z" fill="#FAFAFA"/>
<path d="M42.6756 168.572C42.7292 168.572 42.7828 170.019 42.7828 171.842C42.7828 173.664 42.7292 175.111 42.6756 175.111C42.622 175.111 42.5684 173.664 42.5684 171.842C42.5684 170.073 42.622 168.572 42.6756 168.572Z" fill="#FAFAFA"/>
<path d="M50.2349 168.572C50.2885 168.572 50.3421 170.073 50.3421 171.949C50.3421 173.825 50.2885 175.326 50.2349 175.326C50.1813 175.326 50.1277 173.825 50.1277 171.949C50.1277 170.073 50.1813 168.572 50.2349 168.572Z" fill="#FAFAFA"/>
<path d="M57.3653 168.518C57.4189 168.518 57.4725 170.073 57.4725 171.949C57.4725 173.825 57.4189 175.379 57.3653 175.379C57.3117 175.379 57.2581 173.825 57.2581 171.949C57.2581 170.073 57.3117 168.518 57.3653 168.518Z" fill="#FAFAFA"/>
<path d="M61.547 168.572C61.547 168.626 56.0786 168.679 49.377 168.679C42.6219 168.679 37.207 168.626 37.207 168.572C37.207 168.518 42.6755 168.465 49.377 168.465C56.0786 168.465 61.547 168.518 61.547 168.572Z" fill="#FAFAFA"/>
<path d="M229.032 99.696H193.165V137.055H229.032V99.696Z" fill="#E0E0E0"/>
<path d="M226.62 99.696H190.753V137.055H226.62V99.696Z" fill="#F5F5F5"/>
<path d="M226.62 137.055H190.753V99.696H226.62V137.055ZM190.753 137.055H226.566V99.696H190.753V137.055Z" fill="#E0E0E0"/>
<path d="M221.794 104.734H195.578V132.07H221.794V104.734Z" fill="white"/>
<path d="M195.578 132.231C195.578 132.231 195.363 132.553 194.935 132.982C194.506 133.41 193.916 134 193.273 134.697C192.629 135.34 191.986 135.93 191.557 136.358C191.128 136.787 190.806 137.002 190.806 137.002C190.806 137.002 191.021 136.68 191.45 136.251C191.879 135.822 192.468 135.233 193.112 134.536C193.755 133.893 194.398 133.303 194.827 132.874C195.256 132.446 195.524 132.178 195.578 132.231Z" fill="#E0E0E0"/>
<path d="M221.794 132.178C221.794 132.178 222.116 132.392 222.545 132.821C222.974 133.25 223.564 133.839 224.261 134.482C224.904 135.126 225.494 135.769 225.923 136.198C226.351 136.626 226.566 136.948 226.566 136.948C226.566 136.948 226.244 136.734 225.815 136.305C225.386 135.876 224.797 135.286 224.1 134.643C223.456 134 222.867 133.357 222.438 132.928C222.009 132.446 221.741 132.178 221.794 132.178Z" fill="#E0E0E0"/>
<path d="M221.687 104.788C221.687 104.788 221.901 104.466 222.33 104.038C222.759 103.609 223.349 103.019 223.992 102.322C224.636 101.679 225.279 101.09 225.708 100.661C226.137 100.232 226.459 100.018 226.459 100.018C226.459 100.018 226.244 100.339 225.815 100.768C225.386 101.197 224.797 101.786 224.153 102.483C223.51 103.126 222.866 103.716 222.438 104.145C222.009 104.574 221.741 104.788 221.687 104.788Z" fill="#E0E0E0"/>
<path d="M195.471 104.842C195.471 104.842 195.149 104.627 194.72 104.198C194.291 103.77 193.702 103.18 193.005 102.537C192.361 101.894 191.771 101.25 191.343 100.822C190.914 100.393 190.699 100.071 190.699 100.071C190.699 100.071 191.021 100.286 191.45 100.714C191.879 101.143 192.468 101.733 193.165 102.376C193.809 103.019 194.398 103.662 194.827 104.091C195.256 104.574 195.524 104.842 195.471 104.842Z" fill="#E0E0E0"/>
<path d="M221.687 132.017C221.687 132.017 221.687 131.963 221.687 131.91C221.687 131.802 221.687 131.695 221.687 131.534C221.687 131.213 221.687 130.677 221.687 130.034C221.687 128.747 221.687 126.871 221.687 124.459C221.687 119.689 221.633 112.882 221.633 104.681L221.741 104.788C214.128 104.788 205.121 104.788 195.578 104.788L195.685 104.681C195.685 114.704 195.685 124.084 195.685 132.017L195.578 131.91C203.405 131.91 209.946 131.963 214.503 131.963C216.808 131.963 218.578 131.963 219.811 131.963C220.4 131.963 220.883 131.963 221.205 131.963C221.365 131.963 221.473 131.963 221.58 131.963C221.633 132.017 221.687 132.017 221.687 132.017C221.687 132.017 221.633 132.017 221.58 132.017C221.473 132.017 221.365 132.017 221.205 132.017C220.883 132.017 220.4 132.017 219.811 132.017C218.578 132.017 216.808 132.017 214.503 132.017C209.892 132.017 203.352 132.07 195.524 132.07H195.417V131.963C195.417 124.03 195.417 114.65 195.417 104.627V104.52H195.524C205.067 104.52 214.02 104.52 221.687 104.52H221.794V104.627C221.794 112.828 221.741 119.635 221.741 124.459C221.741 126.818 221.741 128.694 221.741 129.98C221.741 130.623 221.741 131.106 221.741 131.427C221.741 131.588 221.741 131.695 221.741 131.802C221.687 132.017 221.687 132.017 221.687 132.017Z" fill="#E0E0E0"/>
<path d="M213.055 114.007H204.317V122.744H213.055V114.007Z" fill="#E0E0E0"/>
<path d="M93.5 108.165C92.9639 106.45 91.2483 105.163 89.4255 105.11C89.908 103.77 88.9966 102.269 87.7099 101.679C86.4232 101.143 84.9221 101.358 83.6354 101.947C82.7239 102.376 81.9198 102.966 80.9547 103.18C79.668 103.448 78.3814 103.073 77.0947 103.019C74.4677 102.912 71.787 104.466 70.554 106.825C70.1251 107.629 69.857 108.54 69.3745 109.344C68.9992 109.987 68.4631 110.523 68.0878 111.166C67.0155 113.042 67.1764 115.562 68.5167 117.223L86.7985 113.042C88.2996 114.061 90.4441 114.061 91.8916 112.989C93.3928 111.917 94.0361 109.88 93.5 108.165Z" fill="#3F3F40"/>
<path d="M135.586 175.433L117.947 173.718L116.929 182.83L136.872 182.186L135.586 175.433Z" fill="#FFBF9D"/>
<path d="M148.989 180.793C148.774 181.114 148.346 181.275 147.97 181.168C147.917 181.168 147.809 181.114 147.756 181.061C147.22 180.793 147.434 179.667 147.434 179.667L144.861 178.81C144.861 178.81 141.054 180.471 139.607 181.758C138.159 183.044 135.211 181.329 135.211 181.329L134.996 175.486L140.572 171.842C140.572 171.842 140.25 172.056 140.679 171.306C141.162 170.555 142.609 171.091 142.609 171.091C142.931 170.716 143.949 170.716 143.949 170.716L148.131 171.895C148.989 172.11 149.686 172.753 150.061 173.557L151.401 176.719C151.401 176.719 152.045 178.917 151.777 179.399C151.455 180.096 150.704 179.828 150.704 179.828C150.704 179.828 150.276 181.168 149.9 181.114C149.632 181.222 148.989 180.793 148.989 180.793Z" fill="#FFBF9D"/>
<path d="M140.679 181.061C140.679 181.061 140.786 181.007 140.947 180.9C141.162 180.793 141.43 180.632 141.751 180.418C142.448 180.042 143.521 179.506 144.861 178.917H144.807C145.558 179.185 146.469 179.453 147.381 179.774L147.327 179.667C147.273 179.882 147.273 180.096 147.273 180.31C147.273 180.525 147.327 180.793 147.488 181.007C147.595 181.114 147.702 181.168 147.81 181.222C147.917 181.275 148.024 181.329 148.185 181.329C148.453 181.329 148.721 181.222 148.882 181.061C148.935 181.007 148.989 180.954 149.043 180.9L149.096 180.846C149.15 180.846 148.775 180.9 148.935 180.9L148.989 180.954C149.096 181.007 149.203 181.061 149.311 181.114C149.418 181.168 149.525 181.222 149.686 181.275C149.74 181.275 149.793 181.329 149.9 181.329C149.954 181.329 150.061 181.382 150.168 181.329C150.329 181.222 150.383 181.114 150.49 181.007C150.544 180.9 150.651 180.793 150.705 180.686C150.812 180.471 150.919 180.203 150.973 179.989L150.812 180.096C151.133 180.203 151.562 180.203 151.83 179.935C151.938 179.828 152.099 179.614 152.099 179.453C152.099 179.292 152.099 179.078 152.099 178.917C151.991 178.22 151.83 177.577 151.67 176.88C151.455 176.344 151.187 175.754 150.973 175.218C150.812 174.843 150.651 174.522 150.49 174.146C150.329 173.825 150.222 173.45 149.954 173.128C149.74 172.806 149.418 172.538 149.096 172.324C148.775 172.11 148.399 172.002 148.024 171.949C146.63 171.574 145.29 171.198 144.057 170.877C143.789 170.877 143.574 170.877 143.306 170.93C143.092 170.984 142.824 171.038 142.609 171.252H142.77C142.341 170.984 141.805 170.93 141.376 171.091C140.947 171.306 140.679 171.681 140.518 172.056L140.572 172.002C138.964 173.021 137.677 173.878 136.712 174.468C136.283 174.736 135.961 175.004 135.693 175.165C135.479 175.326 135.318 175.433 135.318 175.433C135.318 175.433 135.479 175.379 135.693 175.218C135.961 175.058 136.337 174.843 136.765 174.575C137.73 173.986 139.017 173.182 140.679 172.163V172.11C140.84 171.788 141.054 171.413 141.43 171.252C141.805 171.091 142.234 171.145 142.609 171.359L142.716 171.413L142.77 171.359C142.877 171.252 143.092 171.145 143.306 171.091C143.521 171.038 143.735 171.038 144.003 171.038H143.949C145.183 171.413 146.523 171.734 147.917 172.163C148.292 172.27 148.614 172.324 148.882 172.538C149.203 172.699 149.472 172.967 149.632 173.235C149.847 173.503 149.954 173.878 150.115 174.254C150.276 174.629 150.437 174.95 150.597 175.326C150.865 175.915 151.08 176.451 151.348 176.987C151.509 177.63 151.67 178.327 151.777 178.97C151.777 179.131 151.83 179.292 151.777 179.453C151.777 179.56 151.67 179.721 151.616 179.774C151.402 179.989 151.133 179.989 150.865 179.882L150.758 179.828L150.705 179.935C150.651 180.15 150.544 180.418 150.437 180.632C150.329 180.846 150.222 181.114 150.061 181.168C150.061 181.168 150.008 181.168 149.954 181.168C149.9 181.168 149.847 181.168 149.793 181.114C149.686 181.061 149.579 181.007 149.472 181.007C149.364 180.954 149.257 180.9 149.15 180.846L149.096 180.793C149.257 180.739 148.882 180.846 148.935 180.846V180.9C148.882 180.954 148.882 180.954 148.828 181.007C148.667 181.168 148.453 181.222 148.292 181.222C148.185 181.222 148.078 181.222 148.024 181.168C147.917 181.114 147.863 181.114 147.81 181.007C147.595 180.686 147.649 180.203 147.702 179.882V179.774L147.595 179.721C146.63 179.399 145.772 179.131 145.022 178.863H144.968H144.914C143.574 179.453 142.502 180.042 141.805 180.418C141.483 180.632 141.215 180.793 141.001 180.9C140.733 181.007 140.679 181.061 140.679 181.061Z" fill="#FF9A6C"/>
<path d="M143.145 172.806C143.145 172.86 143.628 173.128 144.432 173.45C145.29 173.771 146.523 174.093 147.917 174.254L147.809 174.146C147.863 174.361 147.917 174.629 147.97 174.843C148.345 176.398 148.989 177.684 149.632 178.542C149.954 178.97 150.222 179.292 150.383 179.506C150.597 179.721 150.704 179.828 150.704 179.828C150.758 179.774 150.329 179.346 149.739 178.434C149.203 177.577 148.56 176.29 148.185 174.79C148.131 174.575 148.077 174.307 148.024 174.093V173.986H147.917C146.523 173.878 145.29 173.557 144.485 173.289C143.681 173.021 143.145 172.806 143.145 172.806Z" fill="#FF9A6C"/>
<path d="M146.791 175.969C146.737 175.969 146.791 177.202 147.488 178.542C148.131 179.882 149.043 180.739 149.096 180.686C149.15 180.632 148.399 179.721 147.756 178.434C147.112 177.094 146.898 175.915 146.791 175.969Z" fill="#FF9A6C"/>
<path d="M134.621 179.56C134.621 179.56 134.674 179.614 134.728 179.667C134.835 179.721 134.943 179.828 135.103 179.882C135.479 180.042 136.015 180.257 136.765 180.364C137.516 180.418 138.427 180.31 139.339 179.882C140.25 179.399 141.108 178.595 141.59 177.47L141.43 177.523C142.341 177.845 143.413 178.113 144.486 178.166C144.861 178.166 145.29 178.22 145.665 178.166C146.04 178.166 146.416 178.113 146.791 178.006C146.952 177.952 147.166 177.791 147.273 177.63C147.381 177.416 147.381 177.202 147.327 176.987C147.273 176.773 147.113 176.612 146.898 176.558C146.737 176.505 146.576 176.398 146.416 176.344C145.182 175.808 144.003 175.433 143.038 175.111C142.073 174.79 141.269 174.575 140.733 174.414C140.197 174.254 139.875 174.2 139.875 174.254C139.875 174.254 140.197 174.361 140.733 174.522C141.269 174.682 142.073 174.95 143.038 175.272C144.003 175.594 145.129 176.022 146.362 176.558C146.523 176.612 146.684 176.719 146.844 176.773C146.952 176.826 147.059 176.934 147.113 177.094C147.166 177.202 147.166 177.362 147.113 177.523C147.059 177.63 146.952 177.738 146.791 177.791C146.469 177.898 146.094 177.952 145.719 177.952C145.343 177.952 144.968 177.952 144.593 177.952C143.52 177.898 142.502 177.684 141.59 177.362L141.483 177.309L141.43 177.416C141.001 178.488 140.143 179.292 139.339 179.721C138.481 180.203 137.623 180.31 136.873 180.257C136.176 180.203 135.586 180.042 135.264 179.882C134.835 179.667 134.621 179.56 134.621 179.56Z" fill="#FF9A6C"/>
<path d="M78.435 152.814C74.146 152.76 70.6612 149.222 70.6076 144.827L70.2859 118.295C69.9643 111.166 73.7707 105.056 80.6867 104.949L81.3301 105.002C87.7636 105.27 92.9639 110.577 93.232 117.223C93.4465 123.387 93.7145 129.39 93.5537 132.66C93.1784 139.521 86.4232 140.164 86.4232 140.164C86.4232 140.164 86.4232 142.737 86.4232 144.72C86.3696 149.222 82.8312 152.867 78.435 152.814Z" fill="#FFBF9D"/>
<path d="M86.4232 140.164C86.4232 140.164 82.2414 140.218 77.8452 137.162C77.8452 137.162 79.7217 142.415 86.3696 142.04L86.4232 140.164Z" fill="#FF9A6C"/>
<path d="M90.7657 123.226C90.7657 123.762 90.3368 124.191 89.8007 124.191C89.2646 124.191 88.8357 123.762 88.8357 123.28C88.8357 122.744 89.2646 122.315 89.8007 122.315C90.3368 122.315 90.7657 122.744 90.7657 123.226Z" fill="#3F3F40"/>
<path d="M91.6773 120.118C91.5701 120.225 90.8731 119.635 89.8545 119.635C88.8358 119.582 88.0853 120.064 87.978 119.957C87.9244 119.903 88.0316 119.689 88.4069 119.421C88.7286 119.206 89.3183 118.992 89.9081 118.992C90.5514 119.046 91.0875 119.26 91.3556 119.528C91.6237 119.85 91.7309 120.064 91.6773 120.118Z" fill="#3F3F40"/>
<path d="M81.4908 123.226C81.4908 123.762 81.0619 124.191 80.5258 124.191C79.9897 124.191 79.5608 123.762 79.5608 123.28C79.5608 122.744 79.9897 122.315 80.5258 122.315C81.0619 122.315 81.4908 122.744 81.4908 123.226Z" fill="#3F3F40"/>
<path d="M81.6516 119.957C81.5444 120.064 80.8475 119.528 79.8288 119.474C78.8102 119.421 78.0596 119.903 77.9524 119.796C77.8988 119.742 78.006 119.528 78.3813 119.26C78.703 119.046 79.2927 118.831 79.8824 118.831C80.5258 118.885 81.0619 119.099 81.33 119.367C81.598 119.635 81.7053 119.903 81.6516 119.957Z" fill="#3F3F40"/>
<path d="M84.9757 128.158C84.9757 128.104 85.6191 127.997 86.6377 127.943C86.9058 127.943 87.1738 127.89 87.1738 127.729C87.2274 127.514 87.1202 127.246 87.013 126.925C86.7985 126.282 86.5841 125.585 86.316 124.834C85.351 121.886 84.7076 119.474 84.8149 119.421C84.9221 119.367 85.7799 121.726 86.7449 124.727C86.9594 125.478 87.1738 126.174 87.3883 126.818C87.4955 127.139 87.6563 127.461 87.4955 127.89C87.4419 128.104 87.2274 128.211 87.0666 128.265C86.9058 128.318 86.7449 128.318 86.6377 128.318C85.6191 128.265 84.9757 128.211 84.9757 128.158Z" fill="#3F3F40"/>
<path d="M82.0806 116.687C81.9197 116.955 80.9547 116.634 79.7216 116.526C78.5422 116.419 77.5235 116.58 77.4163 116.312C77.3627 116.151 77.5771 115.937 78.006 115.722C78.4349 115.508 79.0783 115.401 79.8289 115.454C80.5258 115.508 81.1692 115.722 81.5981 115.99C81.9733 116.258 82.1878 116.526 82.0806 116.687Z" fill="#3F3F40"/>
<path d="M91.8381 117.062C91.6237 117.277 90.8195 117.009 89.8008 117.009C88.7822 116.955 87.9244 117.116 87.7636 116.848C87.6563 116.741 87.8172 116.473 88.1925 116.258C88.5678 116.044 89.1575 115.883 89.8545 115.937C90.5514 115.99 91.1411 116.205 91.4628 116.473C91.8381 116.687 91.9453 116.902 91.8381 117.062Z" fill="#3F3F40"/>
<path d="M70.6076 123.334C70.5003 123.28 66.1041 121.726 66.0505 126.442C65.9969 131.106 70.6076 130.194 70.6076 130.087C70.6076 129.926 70.6076 123.334 70.6076 123.334Z" fill="#FFBF9D"/>
<path d="M69.2136 128.318C69.2136 128.318 69.1599 128.372 68.9991 128.426C68.8919 128.479 68.6238 128.533 68.4094 128.426C67.9269 128.265 67.5516 127.461 67.498 126.603C67.498 126.174 67.6052 125.746 67.7124 125.424C67.8732 125.102 68.0877 124.834 68.3021 124.781C68.5702 124.727 68.731 124.888 68.7847 124.995C68.8383 125.102 68.8383 125.21 68.8383 125.21C68.8383 125.21 68.9455 125.156 68.8919 124.942C68.8919 124.834 68.8383 124.727 68.731 124.62C68.6238 124.513 68.463 124.459 68.3021 124.513C67.9269 124.513 67.6052 124.888 67.4443 125.21C67.2835 125.585 67.1227 126.014 67.1763 126.496C67.1763 127.461 67.6588 128.318 68.3021 128.533C68.6238 128.64 68.8919 128.533 69.0527 128.426C69.2136 128.426 69.2672 128.318 69.2136 128.318Z" fill="#FF9A6C"/>
<path d="M73.8779 111.649C74.0924 110.416 75.0038 109.451 76.1296 109.076C77.0947 108.754 78.2205 108.754 79.1855 109.13C81.7589 110.041 86.1015 111.434 87.281 110.577C88.943 109.29 89.3183 108.433 89.3183 108.433L90.2297 109.398C90.9802 108.969 88.7821 106.503 86.9593 105.699C84.2251 104.413 80.0433 103.609 77.5236 104.359C74.4677 105.217 71.9479 106.771 70.4467 109.612C68.9456 112.453 68.3559 115.776 68.4095 118.992C68.4095 119.957 68.2486 122.798 69.2137 123.066C69.9642 123.226 70.9292 123.548 70.8756 124.995C70.8756 125.531 70.9829 126.067 71.3581 126.442C72.2159 127.354 73.2346 126.496 73.6635 125.638C74.6821 123.816 74.7893 121.618 74.8429 119.528C74.8966 118.027 74.9502 116.526 74.5749 115.079C74.5749 115.079 73.8779 113.257 73.8243 112.185C73.8243 112.024 73.8779 111.863 73.8779 111.649Z" fill="#3F3F40"/>
<path d="M85.1364 130.73C85.19 130.784 84.9756 130.998 84.5467 131.052C84.1178 131.159 83.4744 131.106 82.8847 130.784C82.295 130.462 81.9197 129.926 81.7588 129.551C81.598 129.176 81.6516 128.854 81.7052 128.854C81.8661 128.801 82.1877 129.766 83.1528 130.248C84.1714 130.784 85.1364 130.57 85.1364 130.73Z" fill="#3F3F40"/>
<path d="M89.908 193.121L68.1414 188.35L54.1486 153.671C54.1486 153.671 35.4379 157.798 32.382 168.25C29.7014 177.309 24.1794 217.187 36.7246 241.79C39.9414 248.114 46.5357 252.027 53.6125 252.027H148.882C160.891 252.027 171.023 242.969 172.364 231.016C172.9 226.192 173.275 221.636 173.222 218.634L157.942 206.896L89.908 193.121Z" fill="#455A64"/>
<g opacity="0.3">
<path d="M148.131 205.234C154.832 213.971 162.981 221.85 172.739 226.996L173.221 215.097L155.208 202.286L148.131 205.234Z" fill="#3F3F40"/>
</g>
<path d="M76.1833 146.918C76.1833 147.561 81.1157 149.598 83.3674 148.686C86.7986 147.346 86.3697 144.666 86.3697 144.666L88.2461 146.65L107.225 175.54L121.325 184.866L98.7541 191.995L75.1111 164.82L76.1833 146.918Z" fill="#F5F5F5"/>
<path d="M70.2323 137.27L69.7498 138.181L67.4981 142.362L58.116 148.311L77.3628 171.198L86.1552 191.995L107.225 198.588C107.225 198.588 97.1993 183.151 94.0898 175.272C90.9803 167.393 90.6586 167.768 87.8172 161.979C85.083 156.458 82.6704 149.437 82.6704 149.437L70.2323 137.27Z" fill="#FF5922"/>
<path d="M115.374 178.488L119.502 182.347L120.681 184.706L105.295 177.577L94.197 162.033C94.197 162.033 90.2297 153.242 88.8894 150.134C87.4419 146.81 86.3696 144.988 86.3696 144.988V142.362L91.9989 147.4L96.6632 148.794L104.491 161.122L115.374 178.488Z" fill="#FF5922"/>
<path d="M110.602 163.962C110.602 163.962 108.726 159.996 107.225 156.673C103.793 149.222 95.698 148.526 95.698 148.526L104.651 173.342L115.588 181.114C115.588 181.114 118.698 182.186 119.073 181.114C119.073 181.114 121.378 172.914 121.271 172.86C121.217 172.806 113.497 170.502 113.497 170.502L110.388 163.534" fill="#FF5922"/>
<path d="M127.115 156.19L116.446 173.932L127.597 173.61L137.408 157.209C137.784 156.566 137.355 155.762 136.604 155.762H127.919C127.597 155.762 127.276 155.922 127.115 156.19Z" fill="#3F3F40"/>
<path d="M86.155 176.237L112.8 173.074L117.304 165.249L120.789 163.319C121.378 162.998 122.129 163.051 122.665 163.426L122.987 163.641L125.614 163.319C126.043 163.266 126.525 163.373 126.9 163.587L128.723 164.659C128.991 164.82 129.152 165.088 129.152 165.41C129.152 165.946 128.67 166.374 128.133 166.267L126.364 165.946L123.63 166.857C123.63 166.857 125.399 167.071 125.614 168.411C125.828 169.751 124.917 169.805 124.917 169.805C124.917 169.805 126.793 170.877 125.453 172.485C125.453 172.485 127.008 173.503 125.292 175.486C124.113 176.826 115.642 181.168 115.642 181.168L86.2086 192.102V176.237H86.155Z" fill="#FFBF9D"/>
<path d="M125.399 172.431C125.399 172.431 125.614 172.431 125.828 172.699C126.043 172.914 126.257 173.45 126.096 174.039C125.935 174.629 125.453 175.165 124.97 175.701C124.434 176.237 123.791 176.773 123.094 177.255C121.7 178.22 120.252 178.917 119.234 179.399C118.215 179.882 117.572 180.096 117.572 180.096C117.572 180.042 118.162 179.721 119.18 179.238C120.199 178.702 121.539 178.006 122.933 177.041C123.63 176.558 124.273 176.022 124.809 175.54C125.346 175.058 125.774 174.522 125.935 174.039C126.096 173.557 125.935 173.074 125.774 172.86C125.56 172.538 125.399 172.485 125.399 172.431Z" fill="#FF9A6C"/>
<path d="M122.879 163.748C122.879 163.802 122.29 164.07 121.539 164.23C120.789 164.445 120.145 164.552 120.145 164.445C120.145 164.391 120.735 164.123 121.486 163.962C122.236 163.802 122.879 163.694 122.879 163.748Z" fill="#FF9A6C"/>
<path d="M126.311 165.946C126.311 165.999 125.507 166.374 124.488 166.696C123.416 167.018 122.558 167.286 122.558 167.178C122.558 167.125 123.362 166.75 124.434 166.428C125.453 166.106 126.311 165.892 126.311 165.946Z" fill="#FF9A6C"/>
<path d="M123.148 169.537C123.094 169.537 123.04 169.269 122.933 169.054C122.826 168.786 122.719 168.572 122.772 168.518C122.826 168.465 123.094 168.626 123.201 168.947C123.308 169.269 123.201 169.537 123.148 169.537Z" fill="#FF9A6C"/>
<path d="M124.059 172.592C124.005 172.592 124.005 172.217 123.898 171.734C123.791 171.306 123.576 170.984 123.63 170.93C123.684 170.877 124.005 171.145 124.166 171.681C124.273 172.217 124.113 172.592 124.059 172.592Z" fill="#FF9A6C"/>
<path d="M58.8665 147.882C57.955 148.418 50.4493 153.564 51.5216 161.979C52.6474 170.394 69.2672 189.476 72.752 189.798L86.1015 191.995V176.237L79.668 175.862L71.3045 159.406L58.8665 147.882Z" fill="#FF5922"/>
<path d="M86.1552 175.486C86.1552 175.486 85.9943 175.54 85.6726 175.54C85.2974 175.54 84.8685 175.594 84.3323 175.594C83.0993 175.594 81.4909 175.647 79.5608 175.701H79.5072L79.4536 175.647C78.435 174.307 77.3091 172.753 76.076 171.091C74.0388 168.358 72.216 165.892 70.9293 164.07C70.2859 163.212 69.8034 162.462 69.3745 161.926C68.9992 161.39 68.8384 161.122 68.8384 161.122C68.8384 161.122 69.0528 161.39 69.4817 161.872C69.9106 162.408 70.4468 163.105 71.0901 163.962C72.4304 165.731 74.2532 168.197 76.2905 170.93C77.5236 172.592 78.6494 174.146 79.6681 175.486L79.5608 175.433C81.4909 175.433 83.1529 175.433 84.3323 175.433C84.8685 175.433 85.351 175.433 85.6726 175.433C85.9943 175.486 86.1552 175.486 86.1552 175.486Z" fill="#3F3F40"/>
<path d="M82.9384 151.581C82.9384 151.581 82.8312 151.42 82.6703 151.098C82.5095 150.723 82.295 150.294 82.027 149.705H82.1878C81.8125 150.294 81.33 151.045 80.9011 151.902C80.4722 152.814 79.9361 153.832 79.2392 154.85L79.1319 155.011L79.0247 154.85C78.1669 153.778 77.1483 152.653 76.076 151.474C73.7171 148.954 71.519 146.757 69.9106 145.149C69.16 144.345 68.5167 143.702 68.0342 143.219C67.6053 142.737 67.3372 142.522 67.3908 142.469C67.3908 142.469 67.6589 142.683 68.1414 143.112C68.6239 143.594 69.3209 144.184 70.0714 144.934C71.6798 146.489 73.9315 148.686 76.2905 151.206C77.3627 152.385 78.3277 153.51 79.1855 154.582H78.9711C79.7217 153.618 80.2042 152.599 80.6867 151.688C81.1692 150.777 81.6517 150.026 82.027 149.49L82.1342 149.383L82.1878 149.49C82.4023 150.08 82.6167 150.509 82.7776 150.884C82.8848 151.42 82.9384 151.581 82.9384 151.581Z" fill="#3F3F40"/>
<path d="M92.0524 147.561C92.0524 147.561 92.2668 147.829 92.4813 148.365C92.6957 148.901 92.9102 149.651 93.1782 150.562L93.3391 151.206L92.9102 150.67C92.3741 150.026 91.7307 149.33 90.9265 148.579C90.2832 147.99 89.6934 147.507 89.1573 147.025L89.3718 146.918C89.2109 147.99 89.3182 148.901 89.2645 149.544C89.2645 150.187 89.1573 150.562 89.1573 150.562C89.1037 150.562 89.1573 150.187 89.1037 149.544C89.1037 148.901 88.9429 147.99 89.1037 146.864L89.1573 146.596L89.3718 146.757C89.9079 147.239 90.5512 147.722 91.1946 148.311C91.9452 149.008 92.6421 149.758 93.1782 150.455L92.9638 150.562C92.7493 149.651 92.5349 148.847 92.3741 148.311C92.106 147.882 91.9988 147.561 92.0524 147.561Z" fill="#3F3F40"/>
<path d="M111.407 173.235C111.407 173.235 111.192 173.021 110.763 172.646C110.334 172.217 109.798 171.627 109.101 170.984C108.404 170.287 107.6 169.43 106.689 168.465C106.26 167.929 105.938 167.339 105.456 166.803C105.027 166.214 104.651 165.57 104.33 164.874C103.686 163.48 103.204 162.14 102.775 160.907C102.346 159.674 101.971 158.549 101.596 157.638C101.22 156.726 100.952 155.976 100.684 155.494C100.416 155.011 100.255 154.743 100.309 154.743C100.309 154.743 100.362 154.797 100.47 154.904C100.523 155.011 100.684 155.226 100.791 155.44C101.059 155.922 101.435 156.673 101.81 157.584C102.185 158.495 102.614 159.621 103.043 160.854C103.472 162.086 103.954 163.426 104.598 164.82C104.92 165.517 105.241 166.16 105.67 166.696C106.099 167.286 106.474 167.875 106.85 168.358C107.707 169.322 108.512 170.18 109.208 170.93C109.852 171.627 110.388 172.217 110.763 172.699C111.246 173.021 111.407 173.235 111.407 173.235Z" fill="#3F3F40"/>
<path d="M119.127 182.133L169.683 180.686C170.488 180.686 171.292 180.793 172.042 181.114C173.865 181.918 177.189 183.902 179.441 188.726C182.711 195.694 198.044 225.174 198.044 225.174L182.55 233.16L163.518 197.891L104.92 192.906L105.617 188.243L119.127 182.133Z" fill="#3F3F40"/>
<path d="M177.939 226.942L186.035 240.825L186.571 244.309C186.893 246.453 188.93 247.9 191.074 247.578L215.683 243.826C216.916 243.612 217.72 242.326 217.184 241.2C216.969 240.771 216.648 240.396 216.004 240.235C213.967 239.699 198.098 233.91 198.098 233.91L191.503 220.671L177.939 226.942Z" fill="#E0E0E0"/>
<path d="M184.748 230.158C184.695 230.212 183.89 229.194 182.925 227.907C181.96 226.621 181.263 225.549 181.317 225.495C181.371 225.442 182.175 226.46 183.14 227.746C184.105 229.033 184.802 230.105 184.748 230.158Z" fill="#3F3F40"/>
<path d="M189.573 228.229C189.52 228.282 188.662 227.264 187.858 225.87C187.053 224.477 186.571 223.244 186.678 223.244C186.732 223.19 187.321 224.37 188.126 225.71C188.876 227.103 189.627 228.175 189.573 228.229Z" fill="#3F3F40"/>
<path d="M192.951 247.15C192.897 247.15 192.79 246.667 192.415 245.97C192.04 245.274 191.396 244.309 190.431 243.558C189.466 242.808 188.394 242.379 187.643 242.218C186.839 242.058 186.357 242.004 186.357 241.95C186.357 241.897 186.893 241.843 187.697 241.95C188.501 242.058 189.627 242.486 190.646 243.237C191.664 244.041 192.308 245.059 192.629 245.81C192.897 246.614 192.951 247.15 192.951 247.15Z" fill="#3F3F40"/>
<path d="M209.517 244.791C209.463 244.791 209.303 244.47 209.142 243.88C208.981 243.29 208.927 242.379 209.249 241.468C209.571 240.557 210.107 239.86 210.536 239.431C210.965 239.002 211.286 238.788 211.286 238.788C211.34 238.842 211.072 239.11 210.697 239.592C210.321 240.074 209.839 240.771 209.571 241.575C209.249 242.433 209.303 243.237 209.356 243.826C209.41 244.416 209.571 244.738 209.517 244.791Z" fill="#3F3F40"/>
<path d="M103.633 189.047C103.633 189.047 155.798 183.794 158.371 184.009C163.035 184.384 171.667 191.781 187 202.072C199.706 210.594 208.981 220.51 208.981 220.51L204.102 231.659C204.102 231.659 169.79 219.17 164.376 214.668C159.926 210.916 151.723 205.61 151.723 205.61L131.618 205.824L116.661 207.164C109.155 207.807 101.864 204.591 97.253 198.642L91.4629 191.084L103.633 189.047Z" fill="#3F3F40"/>
<path d="M151.509 205.502C151.509 205.502 151.616 205.556 151.777 205.663C151.938 205.77 152.152 205.931 152.474 206.146C153.117 206.574 154.028 207.218 155.208 208.022C157.567 209.683 160.998 212.095 165.233 215.311C165.501 215.526 165.769 215.74 166.038 215.901C166.306 216.062 166.627 216.276 166.895 216.437C167.539 216.758 168.128 217.08 168.772 217.402C169.415 217.723 170.112 218.045 170.809 218.366C171.506 218.688 172.203 219.01 172.954 219.278C175.849 220.51 178.958 221.85 182.336 223.19C189.037 225.924 196.543 228.872 204.638 231.981L204.478 232.088C205.871 228.497 207.373 224.745 208.927 220.832L208.981 220.993C207.051 219.01 204.96 216.919 202.869 214.775C201.422 213.542 199.921 212.202 198.312 210.916C188.287 202.608 178.208 195.479 169.04 189.476C167.646 188.297 166.145 187.225 164.59 186.367C163.035 185.51 161.481 184.759 159.872 184.33C159.443 184.223 159.068 184.116 158.639 184.009C158.21 183.955 157.835 183.902 157.406 183.848C156.977 183.848 156.602 183.794 156.173 183.794C155.744 183.794 155.369 183.794 154.94 183.794C153.331 183.794 151.777 183.794 150.276 183.794C144.217 183.794 138.91 183.794 134.514 183.741C130.117 183.741 126.686 183.687 124.274 183.687C123.094 183.687 122.183 183.687 121.539 183.687C121.218 183.687 121.003 183.687 120.842 183.687C120.682 183.687 120.628 183.687 120.628 183.687C120.628 183.687 120.682 183.687 120.842 183.687C121.003 183.687 121.218 183.687 121.539 183.687C122.183 183.687 123.094 183.687 124.274 183.687C126.633 183.687 130.117 183.687 134.514 183.634C138.91 183.634 144.217 183.634 150.276 183.58C151.777 183.58 153.331 183.58 154.94 183.58C155.315 183.58 155.744 183.58 156.173 183.58C156.602 183.58 156.977 183.634 157.406 183.634C157.835 183.687 158.21 183.741 158.639 183.794C159.068 183.902 159.443 183.955 159.872 184.116C161.534 184.598 163.142 185.295 164.644 186.206C166.198 187.118 167.7 188.136 169.147 189.369C178.315 195.372 188.394 202.501 198.419 210.809C199.974 212.095 201.529 213.435 202.976 214.668C205.067 216.812 207.105 218.902 209.088 220.886L209.142 220.939L209.088 221.046C207.533 224.906 206.086 228.711 204.638 232.302L204.585 232.41L204.478 232.356C196.382 229.247 188.876 226.246 182.175 223.512C178.851 222.172 175.688 220.832 172.793 219.546C172.096 219.224 171.345 218.902 170.648 218.581C169.951 218.259 169.308 217.938 168.611 217.616C167.968 217.294 167.324 216.973 166.681 216.651C166.359 216.437 166.091 216.276 165.823 216.115C165.555 215.954 165.287 215.686 165.019 215.526C160.784 212.31 157.352 209.898 155.047 208.182C153.868 207.325 152.956 206.682 152.366 206.253C152.045 206.038 151.83 205.878 151.669 205.77C151.562 205.556 151.509 205.502 151.509 205.502Z" fill="#455A64"/>
<path d="M193.005 228.872L207.48 234.554L209.893 237.18C211.34 238.788 213.86 238.895 215.468 237.394L233.75 220.51C234.661 219.653 234.608 218.152 233.536 217.455C233.107 217.187 232.624 217.08 232.034 217.348C230.051 218.045 213.645 222.118 213.645 222.118L202.548 213.328L193.005 228.872Z" fill="#E0E0E0"/>
<path d="M193.005 228.872C193.005 228.872 193.058 228.765 193.165 228.604C193.273 228.39 193.434 228.122 193.648 227.8C194.077 227.103 194.72 226.031 195.524 224.691C197.186 221.958 199.545 218.098 202.494 213.274L202.548 213.167L202.655 213.221C205.872 215.794 209.624 218.742 213.645 221.958H213.538C216.648 221.154 219.918 220.35 223.349 219.492C225.065 219.063 226.78 218.581 228.55 218.152C229.407 217.938 230.319 217.67 231.177 217.402C231.391 217.348 231.605 217.294 231.82 217.187C232.034 217.134 232.302 217.026 232.517 217.026C232.999 216.973 233.536 217.187 233.911 217.562C234.661 218.259 234.715 219.492 234.125 220.242C233.964 220.457 233.804 220.618 233.643 220.778L233.16 221.261C232.839 221.582 232.517 221.85 232.142 222.172C230.801 223.405 229.515 224.584 228.228 225.763C225.655 228.122 223.188 230.373 220.883 232.57C219.704 233.642 218.578 234.714 217.452 235.733C216.916 236.269 216.326 236.751 215.79 237.234C215.522 237.502 215.254 237.716 214.932 237.93C214.61 238.091 214.289 238.306 213.913 238.359C212.52 238.788 210.965 238.359 210 237.394C209.088 236.43 208.231 235.518 207.426 234.607H207.48C203.03 232.838 199.385 231.391 196.865 230.373C195.632 229.89 194.667 229.515 194.023 229.247C193.702 229.14 193.487 229.033 193.273 228.926C193.058 228.926 193.005 228.872 193.005 228.872C193.005 228.872 193.112 228.926 193.273 228.979C193.434 229.033 193.702 229.14 194.023 229.247C194.72 229.515 195.685 229.89 196.918 230.373C199.438 231.338 203.03 232.731 207.48 234.446C208.284 235.304 209.142 236.269 210.053 237.18C210.965 238.091 212.412 238.466 213.753 238.091C214.074 237.984 214.396 237.823 214.718 237.662C215.039 237.448 215.254 237.234 215.522 236.966C216.058 236.483 216.594 235.947 217.184 235.465C218.31 234.446 219.435 233.374 220.615 232.302C222.974 230.158 225.44 227.854 227.96 225.495C229.247 224.316 230.533 223.137 231.874 221.904C232.195 221.582 232.517 221.314 232.839 220.993C233.16 220.671 233.536 220.403 233.804 220.082C234.34 219.385 234.286 218.313 233.643 217.777C233.321 217.455 232.892 217.294 232.463 217.348C232.249 217.348 232.034 217.402 231.82 217.509C231.605 217.562 231.391 217.67 231.177 217.723C230.265 217.991 229.407 218.206 228.55 218.474C226.78 218.902 225.065 219.385 223.349 219.814C219.972 220.671 216.648 221.475 213.538 222.279H213.485L213.431 222.226C209.41 219.01 205.657 216.008 202.44 213.435L202.601 213.382C199.653 218.098 197.24 221.958 195.578 224.691C194.72 226.031 194.077 227.05 193.648 227.8C193.434 228.175 193.273 228.443 193.112 228.604C193.058 228.765 193.005 228.872 193.005 228.872Z" fill="#3F3F40"/>
<path d="M216.701 235.947C216.648 236.001 216.272 235.626 215.575 235.25C214.878 234.875 213.806 234.446 212.573 234.339C211.34 234.232 210.214 234.5 209.464 234.822C208.713 235.09 208.284 235.411 208.23 235.358C208.23 235.304 208.606 234.982 209.356 234.607C210.107 234.232 211.286 233.964 212.573 234.018C213.86 234.125 214.986 234.607 215.629 235.036C216.38 235.518 216.755 235.947 216.701 235.947Z" fill="#3F3F40"/>
<path d="M229.086 224.691C229.086 224.745 228.71 224.584 228.228 224.155C227.745 223.726 227.209 223.03 226.995 222.065C226.727 221.154 226.834 220.242 226.888 219.653C226.995 219.063 227.102 218.688 227.156 218.688C227.209 218.688 227.156 219.063 227.102 219.653C227.048 220.242 227.048 221.1 227.263 221.958C227.477 222.815 227.96 223.512 228.389 223.941C228.818 224.423 229.139 224.638 229.086 224.691Z" fill="#3F3F40"/>
<path d="M142.609 205.502C141.483 200.196 139.178 194.782 134.674 191.781C131.243 189.53 127.008 188.94 122.88 188.458C94.3578 184.974 65.8897 181.436 37.3679 177.952C36.6174 191.406 42.3539 208.182 48.2512 220.35C49.1626 222.226 50.2349 224.155 51.9505 225.334C54.095 226.728 56.8292 226.728 59.349 226.674C88.0852 225.924 116.875 224.745 145.504 221.582C143.949 216.33 143.735 210.809 142.609 205.502Z" fill="#455A64"/>
<path d="M68.8383 181.758C68.8383 181.758 68.4631 181.758 67.8197 181.704C67.1228 181.65 66.2113 181.543 65.0855 181.436C62.7802 181.168 59.617 180.793 56.0786 180.31C52.5938 179.828 49.3771 179.346 47.1254 178.917C45.9995 178.702 45.0345 178.542 44.4448 178.381C43.8014 178.22 43.4797 178.166 43.4797 178.166C43.4797 178.166 43.855 178.166 44.4984 178.274C45.1953 178.381 46.1067 178.542 47.2326 178.702C49.5379 179.024 52.7011 179.506 56.1859 179.989C59.6706 180.471 62.8338 180.9 65.1391 181.222C66.265 181.382 67.1764 181.49 67.8733 181.597C68.5167 181.704 68.8383 181.758 68.8383 181.758Z" fill="#3F3F40"/>
<path d="M69.3208 252.081C69.3208 252.081 69.2672 252.027 69.2136 251.92C69.1599 251.813 69.0527 251.652 68.9991 251.438C68.7847 251.009 68.5166 250.366 68.1413 249.508C67.9269 249.079 67.766 248.65 67.498 248.114C67.2835 247.578 67.0691 247.042 66.8546 246.453C66.3721 245.22 65.836 243.88 65.2999 242.326C65.0318 241.575 64.7637 240.718 64.4957 239.914C64.2276 239.056 64.0132 238.145 63.7451 237.234C63.209 235.411 62.7265 233.374 62.244 231.284C61.3862 227.05 60.6356 222.386 60.2603 217.402C59.9386 212.417 59.9922 207.646 60.3139 203.358C60.5284 201.214 60.6892 199.178 60.9573 197.248C61.1181 196.283 61.2253 195.372 61.3326 194.514C61.4934 193.657 61.6542 192.799 61.8151 191.995C62.0831 190.387 62.4584 188.94 62.7801 187.707C62.9409 187.064 63.0481 186.474 63.209 185.938C63.3698 185.402 63.5307 184.92 63.6379 184.491C63.9059 183.634 64.1204 182.937 64.2276 182.454C64.2812 182.24 64.3348 182.079 64.3885 181.918C64.4421 181.811 64.4421 181.758 64.4421 181.758C64.4421 181.758 64.4421 181.811 64.3885 181.918C64.3348 182.079 64.3348 182.24 64.2276 182.454C64.1204 182.937 63.9059 183.634 63.6915 184.491C63.5843 184.92 63.4234 185.402 63.3162 185.938C63.1554 186.474 63.0481 187.064 62.8873 187.707C62.6192 188.994 62.244 190.387 61.9759 191.995C61.8151 192.799 61.6542 193.657 61.547 194.514C61.3862 195.372 61.2789 196.337 61.1717 197.248C60.9037 199.124 60.7428 201.161 60.5284 203.305C60.2603 207.593 60.2067 212.363 60.5284 217.294C60.9037 222.226 61.6006 226.942 62.4584 231.177C62.9409 233.267 63.3698 235.25 63.9059 237.126C64.174 238.038 64.3885 238.949 64.6565 239.806C64.9246 240.664 65.1926 241.468 65.4607 242.218C65.9432 243.773 66.4793 245.166 66.9618 246.346C67.1763 246.935 67.3907 247.525 67.6052 248.007C67.8196 248.49 68.0341 248.972 68.1949 249.401C68.5702 250.205 68.8383 250.848 68.9991 251.33C69.1063 251.545 69.1599 251.706 69.2136 251.813C69.2672 252.027 69.3208 252.081 69.3208 252.081Z" fill="#3F3F40"/>
<path d="M68.4094 224.959C68.4094 225.066 66.9083 225.066 65.0319 224.959C63.1554 224.852 61.6543 224.745 61.6543 224.638C61.6543 224.53 63.1554 224.53 65.0319 224.638C66.9083 224.745 68.4094 224.852 68.4094 224.959Z" fill="#3F3F40"/>
<path d="M67.6052 228.818C67.6052 228.872 65.9969 228.658 64.1741 227.907C62.3512 227.157 61.0109 226.192 61.0645 226.138C61.1182 226.085 62.4585 226.889 64.2813 227.586C66.1041 228.39 67.6589 228.765 67.6052 228.818Z" fill="#3F3F40"/>
<path d="M60.1532 202.018C60.2068 202.072 59.2418 202.554 57.9015 202.715C56.6148 202.822 55.5426 202.554 55.5962 202.501C55.5962 202.394 56.6148 202.554 57.9015 202.447C59.1346 202.286 60.0996 201.911 60.1532 202.018Z" fill="#3F3F40"/>
<path d="M61.8151 200.732C61.8151 200.786 60.6892 201 59.3489 200.41C58.0622 199.874 57.3653 198.91 57.4189 198.856C57.4725 198.802 58.2231 199.606 59.4562 200.142C60.7429 200.678 61.8151 200.625 61.8151 200.732Z" fill="#3F3F40"/>
<path d="M91.9454 108.915C91.5701 107.79 90.5515 106.986 89.372 106.664C88.2461 106.342 87.0131 106.45 85.8336 106.771L74.7358 109.29C76.3442 110.362 79.6682 111.381 81.5446 111.595C84.3324 111.863 86.2625 111.917 87.9245 110.952C88.2461 112.078 89.8009 112.614 90.8195 112.024C91.8918 111.434 92.3207 110.041 91.9454 108.915Z" fill="#3F3F40"/>
<path d="M202.923 225.388C202.923 225.442 201.368 225.12 199.599 224.423C197.83 223.726 196.436 223.03 196.489 222.976C196.543 222.922 197.937 223.512 199.706 224.155C201.475 224.852 202.923 225.334 202.923 225.388Z" fill="#3F3F40"/>
<path d="M205.389 220.671C205.335 220.725 204.102 220.082 202.547 219.331C200.993 218.581 199.706 218.045 199.706 217.938C199.706 217.884 201.1 218.313 202.655 219.063C204.209 219.814 205.389 220.564 205.389 220.671Z" fill="#3F3F40"/>
<path d="M116.875 187.01L139.285 187.278L166.306 181.918C167.163 181.758 167.86 181.061 167.968 180.15L171.667 155.815C171.828 154.636 170.809 153.564 169.63 153.778L141.966 158.281C141.161 158.388 140.572 159.031 140.464 159.835L137.355 184.598L116.875 184.491C116.178 184.491 115.588 185.027 115.588 185.778C115.642 186.421 116.178 187.01 116.875 187.01Z" fill="#E0E0E0"/>
<path d="M116.875 187.01C116.875 187.01 116.714 187.01 116.446 186.957C116.178 186.85 115.749 186.582 115.642 186.046C115.588 185.778 115.588 185.456 115.803 185.134C115.964 184.813 116.285 184.545 116.714 184.491C117.519 184.438 118.484 184.491 119.502 184.491C123.738 184.491 129.849 184.491 137.355 184.545L137.248 184.652C138.106 177.523 139.178 169.108 140.304 159.728C140.411 159.085 140.893 158.549 141.483 158.334C141.805 158.227 142.073 158.174 142.395 158.12L143.306 157.959C144.485 157.745 145.719 157.584 146.898 157.37C149.311 156.994 151.83 156.566 154.35 156.137C156.87 155.708 159.443 155.333 162.07 154.904C163.357 154.69 164.697 154.475 165.984 154.261C166.627 154.154 167.324 154.046 167.968 153.939L168.986 153.778C169.308 153.725 169.63 153.618 170.005 153.671C170.756 153.725 171.452 154.261 171.667 155.011C171.774 155.386 171.774 155.762 171.721 156.137L171.56 157.155C171.345 158.549 171.131 159.942 170.916 161.282C170.487 164.016 170.112 166.696 169.683 169.322C169.308 171.949 168.879 174.575 168.504 177.094C168.397 177.738 168.289 178.381 168.236 178.97C168.182 179.292 168.129 179.614 168.075 179.882C168.021 180.203 167.968 180.525 167.807 180.846C167.485 181.436 166.949 181.865 166.306 182.026C165.716 182.133 165.073 182.24 164.483 182.401C154.886 184.277 146.308 185.992 139.232 187.386C132.262 187.278 126.686 187.225 122.826 187.118C120.896 187.064 119.395 187.064 118.376 187.064C117.894 187.064 117.519 187.064 117.25 187.01C117.036 187.01 116.875 187.01 116.875 187.01C116.875 187.01 116.982 187.01 117.25 187.01C117.519 187.01 117.894 187.01 118.376 187.01C119.395 187.01 120.896 187.01 122.826 187.064C126.686 187.118 132.316 187.171 139.232 187.225C146.308 185.831 154.886 184.116 164.483 182.186C165.073 182.079 165.662 181.972 166.306 181.811C166.895 181.704 167.378 181.275 167.646 180.793C167.807 180.525 167.86 180.257 167.86 179.935C167.914 179.614 167.968 179.292 168.021 179.024C168.129 178.381 168.236 177.791 168.289 177.148C168.665 174.629 169.04 172.002 169.469 169.376C169.844 166.75 170.273 164.016 170.702 161.336C170.916 159.996 171.131 158.602 171.345 157.209L171.506 156.19C171.56 155.815 171.56 155.547 171.506 155.226C171.292 154.582 170.702 154.1 170.059 154.046C169.737 154.046 169.415 154.1 169.094 154.154L168.075 154.314C167.432 154.422 166.735 154.529 166.091 154.636C164.751 154.85 163.464 155.065 162.178 155.279C159.551 155.708 156.977 156.137 154.457 156.512C151.938 156.941 149.471 157.316 147.005 157.745C145.772 157.959 144.593 158.12 143.413 158.334L142.502 158.495C142.18 158.549 141.912 158.549 141.644 158.656C141.108 158.87 140.733 159.299 140.625 159.835C139.446 169.162 138.374 177.63 137.516 184.706V184.813H137.409C129.849 184.759 123.791 184.706 119.556 184.706C118.484 184.706 117.572 184.652 116.768 184.706C116.393 184.759 116.071 185.027 115.91 185.295C115.749 185.563 115.696 185.885 115.749 186.153C115.857 186.689 116.285 186.957 116.5 187.064C116.714 187.01 116.875 187.01 116.875 187.01Z" fill="#3F3F40"/>
<path d="M142.877 159.085C142.931 159.085 142.234 165.57 141.215 173.503C140.25 181.49 139.338 187.922 139.285 187.922C139.231 187.922 139.928 181.436 140.947 173.503C141.912 165.517 142.823 159.031 142.877 159.085Z" fill="#3F3F40"/>
<path d="M154.886 169.108C154.35 170.287 154.618 171.574 155.583 172.056C156.548 172.485 157.728 171.949 158.317 170.77C158.853 169.59 158.585 168.304 157.62 167.822C156.655 167.339 155.476 167.929 154.886 169.108Z" fill="white"/>
<path d="M284.36 159.031C284.36 159.031 284.36 159.085 284.306 159.246C284.252 159.406 284.199 159.567 284.092 159.835C283.931 160.371 283.663 161.122 283.341 162.086C282.644 164.016 281.625 166.803 280.285 170.18C277.551 176.987 273.584 186.314 267.901 195.908C266.56 198.32 265.274 200.786 264.362 203.198C263.397 205.663 262.808 208.129 262.486 210.487C261.842 215.258 262.111 219.653 262.486 223.298C262.861 226.942 263.397 229.837 263.719 231.874C263.88 232.892 264.041 233.642 264.094 234.178C264.148 234.446 264.148 234.607 264.201 234.768C264.201 234.929 264.255 234.982 264.201 234.982C264.201 234.982 264.201 234.929 264.148 234.768C264.094 234.607 264.094 234.446 264.041 234.178C263.933 233.642 263.773 232.838 263.612 231.874C263.236 229.837 262.7 226.942 262.271 223.298C261.842 219.653 261.574 215.258 262.218 210.434C262.539 208.022 263.129 205.556 264.094 203.09C265.059 200.625 266.292 198.213 267.633 195.747C273.316 186.153 277.336 176.826 280.124 170.073C281.518 166.696 282.537 163.909 283.234 161.979C283.609 161.014 283.877 160.264 284.038 159.782C284.145 159.514 284.199 159.353 284.252 159.192C284.306 159.085 284.36 159.031 284.36 159.031Z" fill="#3F3F40"/>
<path d="M279.213 191.138C279.213 191.138 279.159 191.245 279.052 191.459C278.891 191.674 278.73 191.942 278.516 192.317C278.033 193.067 277.337 194.139 276.479 195.479C274.763 198.106 272.243 201.697 269.777 205.824C268.544 207.914 267.418 209.898 266.507 211.774C265.595 213.65 264.845 215.365 264.255 216.866C263.665 218.313 263.237 219.546 262.968 220.403C262.808 220.778 262.7 221.1 262.647 221.368C262.593 221.582 262.54 221.69 262.54 221.69C262.54 221.69 262.54 221.582 262.593 221.368C262.647 221.1 262.754 220.778 262.861 220.403C263.076 219.546 263.505 218.313 264.041 216.866C264.63 215.365 265.327 213.65 266.239 211.774C267.15 209.898 268.222 207.861 269.509 205.77C272.029 201.643 274.495 198.052 276.264 195.426C277.122 194.139 277.873 193.121 278.409 192.317C278.623 191.995 278.838 191.674 278.999 191.459C279.106 191.245 279.159 191.138 279.213 191.138Z" fill="#3F3F40"/>
<path d="M284.306 159.031C284.413 157.745 283.019 156.405 281.786 155.976C280.553 155.494 279.159 155.654 277.873 155.976C270.421 157.584 264.309 164.016 262.969 171.52C266.4 169.805 269.938 168.304 273.584 167.018C273.369 167.071 273.155 167.125 272.994 167.178C276.479 166.482 279.642 164.177 281.358 161.068C281.679 160.478 282.001 159.835 282.483 159.353C282.912 158.924 283.716 158.656 284.306 159.031Z" fill="#455A64"/>
<path d="M284.306 158.978C287.684 156.673 291.973 155.601 296.047 156.351C300.068 157.102 303.821 159.621 305.805 163.212C307.788 166.803 307.896 171.413 305.858 175.004C303.982 171.038 301.945 166.964 298.406 164.391C297.602 163.802 296.637 163.212 296.154 162.301C295.618 161.229 295.833 159.942 295.35 158.817C294.761 157.477 293.206 157.102 291.758 156.994C290.311 156.994 286.075 158.334 284.306 158.978Z" fill="#455A64"/>
<path d="M284.199 158.924C287.684 157.906 291.651 159.621 294.064 162.247C296.476 164.874 297.656 168.411 298.085 171.949C298.513 175.486 298.138 179.024 297.817 182.562C295.082 178.488 293.045 173.932 291.758 169.162C291.169 167.018 290.793 164.766 289.775 162.783C288.756 160.8 286.397 159.246 284.199 158.924Z" fill="#455A64"/>
<path d="M284.092 159.031C286.879 157.745 288.488 154.797 288.809 151.742C289.185 148.686 287.844 145.47 285.432 143.541C282.644 146.06 281.572 150.348 282.805 153.886C283.448 155.547 284.521 157.262 284.092 159.031Z" fill="#455A64"/>
<path d="M261.682 215.847C261.682 215.847 261.628 215.686 261.521 215.418C261.414 215.15 261.253 214.722 261.038 214.186C260.61 213.114 259.966 211.613 259.108 209.79C257.393 206.146 254.659 201.214 251.174 196.069C247.743 190.923 244.311 186.474 241.577 183.473C240.237 181.972 239.004 180.846 238.146 180.15C237.717 179.774 237.342 179.56 237.074 179.399C236.806 179.238 236.698 179.185 236.698 179.185C236.698 179.185 236.859 179.238 237.127 179.346C237.395 179.506 237.771 179.721 238.253 180.042C239.165 180.739 240.398 181.865 241.792 183.312C244.579 186.26 248.064 190.709 251.495 195.854C254.927 201 257.661 205.931 259.376 209.63C260.234 211.452 260.824 213.006 261.199 214.078C261.414 214.614 261.521 215.043 261.628 215.311C261.682 215.686 261.682 215.847 261.682 215.847Z" fill="#3F3F40"/>
<path d="M271.761 247.9H252.621L249.619 225.71H275.353L271.761 247.9Z" fill="#FF5922"/>
<path d="M289.721 199.07C287.791 194.943 282.805 192.21 278.248 192.585C279.267 193.014 279.91 194.032 280.124 195.104C280.393 196.176 280.339 197.302 280.393 198.374C280.821 203.626 284.199 208.075 287.416 212.256C289.667 215.15 291.973 218.098 294.707 220.618C294.439 213.114 293.956 205.234 289.721 199.07Z" fill="#455A64"/>
<path d="M278.248 192.638C281.143 190.387 284.896 189.476 288.542 189.422C292.187 189.369 295.833 190.173 299.371 191.084C301.516 191.62 303.66 192.21 305.483 193.442C307.306 194.675 308.753 196.658 308.807 198.856C305.805 195.533 300.926 194.89 296.637 193.657C293.742 192.799 290.901 191.62 287.952 190.977C285.003 190.387 280.875 191.138 278.248 192.638Z" fill="#455A64"/>
<path d="M278.784 192.049C277.497 190.709 278.194 187.6 279.32 186.099C280.446 184.652 282.162 183.794 283.931 183.205C286.236 182.401 288.595 181.865 291.008 181.543C290.74 183.044 289.882 184.384 288.756 185.456C287.63 186.528 286.343 187.332 285.057 188.136C282.912 189.476 280.821 190.762 278.784 192.049Z" fill="#455A64"/>
<path d="M266.829 190.28C263.183 191.888 260.395 194.836 257.661 197.73C261.682 196.766 265.542 195.158 269.08 193.014C270.474 192.156 271.868 191.191 273.477 190.816C275.085 190.441 276.908 191.191 278.248 192.263C275.996 188.94 270.474 188.672 266.829 190.28Z" fill="#455A64"/>
<path d="M265.113 214.025C267.15 209.362 266.293 203.734 268.866 199.338C270.85 195.962 274.495 193.978 278.141 192.585C278.999 195.104 278.57 197.945 277.497 200.357C276.425 202.822 274.763 204.913 272.94 206.896C270.474 209.63 267.794 212.149 265.113 214.668" fill="#455A64"/>
<path d="M276.479 225.71H247.85V230.694H276.479V225.71Z" fill="#FF5922"/>
<path d="M275.567 230.855C275.567 230.909 269.348 231.016 261.735 231.016C254.069 231.016 247.903 230.962 247.903 230.855C247.903 230.802 254.122 230.694 261.735 230.694C269.348 230.694 275.567 230.802 275.567 230.855Z" fill="#3F3F40"/>
<path d="M285.647 159.192C284.628 157.477 283.609 155.708 282.323 154.207C280.982 152.706 279.374 151.42 277.444 150.83C274.87 150.08 272.083 150.67 269.509 151.42C266.507 152.331 263.558 153.457 260.717 154.797C264.416 156.19 268.651 156.298 272.404 155.011C274.388 154.314 276.264 154.422 278.355 154.636C280.821 154.958 283.985 157.262 285.647 159.192Z" fill="#455A64"/>
<path d="M217.184 188.779C212.68 194.514 211.179 202.179 211.661 209.469C214.288 199.821 219.971 190.977 227.692 184.598C230.64 182.133 234.393 180.203 238.039 180.203C230.533 179.56 221.794 182.83 217.184 188.779Z" fill="#455A64"/>
<path d="M227.638 177.202C225.118 177.362 222.813 178.649 220.722 180.096C217.559 182.294 214.557 185.027 213.163 188.672C218.738 181.972 227.799 178.434 236.377 179.506C233.642 178.113 230.694 176.987 227.638 177.202Z" fill="#455A64"/>
<path d="M234.715 168.572C233.267 169.59 232.141 171.252 232.195 173.021C232.249 174.254 232.838 175.379 233.642 176.29C234.447 177.202 235.733 178.488 236.698 179.185C237.61 175.111 238.736 170.823 239.647 166.696C237.931 167.125 236.162 167.554 234.715 168.572Z" fill="#455A64"/>
<path d="M243.239 168.197C241.256 169.483 239.486 171.145 238.575 173.289C237.61 175.433 237.235 178.113 238.414 180.096C241.845 175.004 245.598 169.858 249.565 165.195C247.367 166.053 245.223 166.91 243.239 168.197Z" fill="#455A64"/>
<path d="M250.477 175.218C245.973 174.843 241.309 176.88 238.521 180.471C240.398 179.506 242.864 178.97 244.955 179.238C250.53 179.935 255.999 180.954 261.467 182.294C259.269 178.327 254.98 175.594 250.477 175.218Z" fill="#455A64"/>
<path d="M239.004 180.15C234.768 180.364 231.015 183.634 229.568 187.654C228.067 191.62 228.603 196.176 230.211 200.142C231.82 204.109 234.447 207.539 237.234 210.755C238.628 205.931 240.022 201.107 240.666 196.176C241.255 191.138 240.773 184.813 239.004 180.15Z" fill="#455A64"/>
<g opacity="0.3">
<path d="M217.184 188.779C212.68 194.514 211.179 202.179 211.661 209.469C214.288 199.821 219.971 190.977 227.692 184.598C230.64 182.133 234.393 180.203 238.039 180.203C230.533 179.56 221.794 182.83 217.184 188.779Z" fill="#3F3F40"/>
<path d="M227.638 177.202C225.118 177.362 222.813 178.649 220.722 180.096C217.559 182.294 214.557 185.027 213.163 188.672C218.738 181.972 227.799 178.434 236.377 179.506C233.642 178.113 230.694 176.987 227.638 177.202Z" fill="#3F3F40"/>
<path d="M234.715 168.572C233.267 169.59 232.141 171.252 232.195 173.021C232.249 174.254 232.838 175.379 233.642 176.29C234.447 177.202 235.733 178.488 236.698 179.185C237.61 175.111 238.736 170.823 239.647 166.696C237.931 167.125 236.162 167.554 234.715 168.572Z" fill="#3F3F40"/>
<path d="M243.239 168.197C241.256 169.483 239.486 171.145 238.575 173.289C237.61 175.433 237.235 178.113 238.414 180.096C241.845 175.004 245.598 169.858 249.565 165.195C247.367 166.053 245.223 166.91 243.239 168.197Z" fill="#3F3F40"/>
<path d="M250.477 175.218C245.973 174.843 241.309 176.88 238.521 180.471C240.398 179.506 242.864 178.97 244.955 179.238C250.53 179.935 255.999 180.954 261.467 182.294C259.269 178.327 254.98 175.594 250.477 175.218Z" fill="#3F3F40"/>
<path d="M239.004 180.15C234.768 180.364 231.015 183.634 229.568 187.654C228.067 191.62 228.603 196.176 230.211 200.142C231.82 204.109 234.447 207.539 237.234 210.755C238.628 205.931 240.022 201.107 240.666 196.176C241.255 191.138 240.773 184.813 239.004 180.15Z" fill="#3F3F40"/>
</g>
<g opacity="0.2">
<path d="M289.721 199.07C287.791 194.943 282.805 192.21 278.248 192.585C279.267 193.014 279.91 194.032 280.124 195.104C280.393 196.176 280.339 197.302 280.393 198.374C280.821 203.626 284.199 208.075 287.416 212.256C289.667 215.15 291.973 218.098 294.707 220.618C294.439 213.114 293.956 205.234 289.721 199.07Z" fill="#3F3F40"/>
<path d="M278.248 192.638C281.143 190.387 284.896 189.476 288.542 189.422C292.187 189.369 295.833 190.173 299.371 191.084C301.516 191.62 303.66 192.21 305.483 193.442C307.306 194.675 308.753 196.658 308.807 198.856C305.805 195.533 300.926 194.89 296.637 193.657C293.742 192.799 290.901 191.62 287.952 190.977C285.003 190.387 280.875 191.138 278.248 192.638Z" fill="#3F3F40"/>
<path d="M278.784 192.049C277.497 190.709 278.194 187.6 279.32 186.099C280.446 184.652 282.162 183.794 283.931 183.205C286.236 182.401 288.595 181.865 291.008 181.543C290.74 183.044 289.882 184.384 288.756 185.456C287.63 186.528 286.343 187.332 285.057 188.136C282.912 189.476 280.821 190.762 278.784 192.049Z" fill="#3F3F40"/>
<path d="M266.829 190.28C263.183 191.888 260.395 194.836 257.661 197.73C261.682 196.766 265.542 195.158 269.08 193.014C270.474 192.156 271.868 191.191 273.477 190.816C275.085 190.441 276.908 191.191 278.248 192.263C275.996 188.94 270.474 188.672 266.829 190.28Z" fill="#3F3F40"/>
<path d="M265.113 214.025C267.15 209.362 266.293 203.734 268.866 199.338C270.85 195.962 274.495 193.978 278.141 192.585C278.999 195.104 278.57 197.945 277.497 200.357C276.425 202.822 274.763 204.913 272.94 206.896C270.474 209.63 267.794 212.149 265.113 214.668" fill="#3F3F40"/>
</g>
<path d="M165.073 117.116H113.498C111.996 117.116 110.817 118.295 110.817 119.796V143.273C110.817 144.774 111.996 145.953 113.498 145.953H135.157L139.768 151.849L143.574 145.953H165.073C166.574 145.953 167.753 144.774 167.753 143.273V119.796C167.753 118.295 166.574 117.116 165.073 117.116Z" fill="white"/>
<path d="M165.072 117.116C165.072 117.116 165.18 117.116 165.341 117.116C165.501 117.116 165.769 117.17 166.091 117.277C166.413 117.384 166.788 117.598 167.11 117.974C167.431 118.349 167.753 118.831 167.807 119.528C167.86 122.101 167.86 125.799 167.86 130.516C167.86 132.874 167.86 135.447 167.86 138.288C167.86 139.682 167.86 141.182 167.86 142.683C167.86 143.058 167.914 143.434 167.807 143.862C167.753 144.238 167.539 144.613 167.324 144.988C166.842 145.631 166.037 146.114 165.18 146.114C158.693 146.114 151.401 146.114 143.52 146.167L143.628 146.114C142.448 147.99 141.108 149.973 139.821 152.01L139.714 152.17L139.607 152.01C138.159 150.134 136.604 148.15 134.996 146.114L135.103 146.167C129.152 146.167 122.933 146.167 116.5 146.167C115.749 146.167 114.999 146.167 114.248 146.167C113.873 146.167 113.497 146.167 113.122 146.167C112.747 146.114 112.372 146.006 112.05 145.792C111.353 145.417 110.87 144.72 110.71 143.97C110.602 143.594 110.656 143.219 110.656 142.844V141.772C110.656 138.878 110.656 135.983 110.656 133.196C110.656 130.355 110.656 127.622 110.656 124.888C110.656 123.548 110.656 122.208 110.656 120.868C110.656 120.546 110.656 120.225 110.656 119.903C110.656 119.582 110.71 119.206 110.87 118.885C111.138 118.242 111.621 117.706 112.211 117.384C112.532 117.223 112.854 117.116 113.176 117.116C113.497 117.062 113.819 117.116 114.141 117.116C114.784 117.116 115.427 117.116 116.071 117.116C117.358 117.116 118.591 117.116 119.824 117.116C122.29 117.116 124.649 117.116 126.954 117.116C131.565 117.116 135.854 117.116 139.767 117.116C147.595 117.116 153.921 117.17 158.317 117.17C160.515 117.17 162.177 117.17 163.357 117.17C163.947 117.17 164.375 117.17 164.644 117.17C164.912 117.062 165.072 117.116 165.072 117.116C165.072 117.116 164.912 117.116 164.644 117.116C164.322 117.116 163.893 117.116 163.357 117.116C162.177 117.116 160.515 117.116 158.317 117.116C153.921 117.116 147.595 117.116 139.767 117.17C135.854 117.17 131.565 117.17 126.954 117.17C124.649 117.17 122.29 117.17 119.824 117.17C118.591 117.17 117.358 117.17 116.071 117.17C115.427 117.17 114.784 117.17 114.141 117.17C113.819 117.17 113.497 117.17 113.176 117.17C112.854 117.223 112.586 117.277 112.318 117.438C111.782 117.706 111.353 118.188 111.085 118.778C110.978 119.046 110.924 119.367 110.924 119.689C110.924 120.01 110.924 120.332 110.924 120.654C110.924 121.994 110.924 123.334 110.924 124.674C110.924 127.407 110.924 130.141 110.924 132.982C110.924 135.822 110.924 138.663 110.924 141.558V142.63C110.924 143.005 110.924 143.38 110.978 143.702C111.138 144.398 111.567 144.988 112.157 145.363C112.479 145.524 112.8 145.631 113.122 145.685C113.444 145.738 113.873 145.685 114.194 145.685C114.945 145.685 115.696 145.685 116.446 145.685C122.826 145.685 129.099 145.685 135.05 145.685H135.103L135.157 145.738C136.765 147.775 138.32 149.758 139.767 151.634H139.553C140.893 149.598 142.18 147.614 143.413 145.738L143.467 145.685H143.52C151.401 145.685 158.639 145.685 165.126 145.685C165.93 145.685 166.627 145.256 167.11 144.666C167.324 144.345 167.485 144.023 167.539 143.648C167.592 143.273 167.592 142.898 167.592 142.522C167.592 141.022 167.592 139.521 167.592 138.127C167.592 135.286 167.592 132.714 167.592 130.355C167.592 125.638 167.646 121.94 167.592 119.367C167.539 118.724 167.271 118.242 166.949 117.866C166.627 117.491 166.252 117.277 165.984 117.17C165.448 117.062 165.072 117.116 165.072 117.116Z" fill="#3F3F40"/>
<path d="M125.614 127.246H120.467C120.092 127.246 119.77 126.925 119.77 126.55V122.905C119.77 122.53 120.092 122.208 120.467 122.208H125.614C125.989 122.208 126.311 122.53 126.311 122.905V126.55C126.311 126.978 125.989 127.246 125.614 127.246Z" fill="#FF5922"/>
<path d="M119.877 122.369C120.681 123.226 121.539 124.138 122.343 124.995C122.504 125.156 122.665 125.317 122.879 125.37C123.148 125.424 123.416 125.317 123.63 125.102C124.059 124.62 124.488 124.191 124.97 123.709C125.399 123.28 125.828 122.798 126.203 122.369C126.257 122.315 126.15 122.208 126.096 122.262C125.292 123.119 124.541 123.923 123.737 124.781C123.63 124.888 123.523 125.049 123.362 125.156C122.987 125.37 122.719 125.156 122.451 124.888C122.022 124.406 121.539 123.923 121.11 123.441C120.735 123.012 120.36 122.637 119.984 122.208C119.931 122.208 119.824 122.315 119.877 122.369Z" fill="white"/>
<path d="M119.877 127.246C120.521 126.496 121.218 125.746 121.861 124.995C121.968 124.888 122.022 124.781 122.129 124.674C122.183 124.62 122.075 124.513 122.022 124.566C121.378 125.317 120.681 126.067 120.038 126.818C119.931 126.925 119.877 127.032 119.77 127.139C119.716 127.193 119.824 127.3 119.877 127.246Z" fill="white"/>
<path d="M126.203 127.032C125.56 126.335 124.97 125.585 124.327 124.888C124.22 124.781 124.166 124.674 124.059 124.566C124.005 124.513 123.898 124.62 123.952 124.674C124.595 125.37 125.185 126.121 125.828 126.818C125.935 126.925 125.989 127.032 126.096 127.139C126.15 127.193 126.257 127.086 126.203 127.032Z" fill="white"/>
<path d="M131.082 126.443V124.781L130.278 126.175H130.01L129.206 124.835V126.443H128.616V123.655H129.152L130.171 125.371L131.189 123.655H131.725V126.443H131.082Z" fill="#3F3F40"/>
<path d="M134.406 125.585H132.798C132.851 125.853 133.066 126.014 133.387 126.014C133.602 126.014 133.763 125.96 133.924 125.799L134.245 126.174C134.031 126.389 133.763 126.496 133.387 126.496C132.637 126.496 132.154 126.014 132.154 125.37C132.154 124.727 132.637 124.245 133.28 124.245C133.924 124.245 134.406 124.674 134.406 125.37C134.406 125.424 134.406 125.531 134.406 125.585ZM132.744 125.21H133.816C133.763 124.942 133.548 124.781 133.28 124.781C133.012 124.781 132.798 124.942 132.744 125.21Z" fill="#3F3F40"/>
<path d="M134.621 126.282L134.835 125.853C135.05 125.96 135.318 126.067 135.586 126.067C135.854 126.067 135.961 126.014 135.961 125.853C135.961 125.478 134.674 125.853 134.674 124.995C134.674 124.566 135.05 124.298 135.639 124.298C135.907 124.298 136.283 124.352 136.443 124.459L136.229 124.888C136.015 124.781 135.8 124.727 135.639 124.727C135.371 124.727 135.264 124.834 135.264 124.942C135.264 125.317 136.551 124.942 136.551 125.799C136.551 126.174 136.175 126.496 135.532 126.496C135.157 126.496 134.781 126.389 134.621 126.282Z" fill="#3F3F40"/>
<path d="M136.711 126.282L136.926 125.853C137.14 125.96 137.408 126.067 137.676 126.067C137.945 126.067 138.052 126.014 138.052 125.853C138.052 125.478 136.765 125.853 136.765 124.995C136.765 124.566 137.14 124.298 137.73 124.298C137.998 124.298 138.373 124.352 138.534 124.459L138.32 124.888C138.105 124.781 137.891 124.727 137.73 124.727C137.462 124.727 137.355 124.834 137.355 124.942C137.355 125.317 138.641 124.942 138.641 125.799C138.641 126.174 138.266 126.496 137.623 126.496C137.301 126.496 136.926 126.389 136.711 126.282Z" fill="#3F3F40"/>
<path d="M140.947 125.263V126.496H140.357V126.228C140.25 126.442 140.035 126.55 139.714 126.55C139.231 126.55 138.909 126.282 138.909 125.906C138.909 125.531 139.177 125.263 139.821 125.263H140.303C140.303 124.995 140.142 124.834 139.821 124.834C139.606 124.834 139.338 124.888 139.231 125.049L139.017 124.62C139.231 124.459 139.606 124.352 139.928 124.352C140.571 124.298 140.947 124.566 140.947 125.263ZM140.303 125.799V125.585H139.874C139.606 125.585 139.499 125.692 139.499 125.853C139.499 126.014 139.606 126.121 139.874 126.121C140.035 126.067 140.25 125.96 140.303 125.799Z" fill="#3F3F40"/>
<path d="M143.735 124.298V126.067C143.735 126.871 143.306 127.246 142.555 127.246C142.126 127.246 141.751 127.139 141.483 126.978L141.751 126.55C141.912 126.71 142.234 126.818 142.502 126.818C142.93 126.818 143.145 126.603 143.145 126.228V126.121C142.984 126.282 142.77 126.389 142.448 126.389C141.858 126.389 141.376 125.96 141.376 125.37C141.376 124.727 141.858 124.352 142.448 124.352C142.77 124.352 142.984 124.459 143.145 124.674V124.406H143.735V124.298ZM143.091 125.317C143.091 124.995 142.877 124.781 142.555 124.781C142.234 124.781 141.965 124.995 141.965 125.317C141.965 125.638 142.18 125.853 142.555 125.853C142.877 125.853 143.091 125.638 143.091 125.317Z" fill="#3F3F40"/>
<path d="M146.362 125.585H144.753C144.807 125.853 145.021 126.014 145.343 126.014C145.557 126.014 145.718 125.96 145.879 125.799L146.201 126.174C145.986 126.389 145.718 126.496 145.343 126.496C144.592 126.496 144.11 126.014 144.11 125.37C144.11 124.727 144.592 124.245 145.236 124.245C145.879 124.245 146.362 124.674 146.362 125.37C146.362 125.424 146.362 125.531 146.362 125.585ZM144.753 125.21H145.825C145.772 124.942 145.557 124.781 145.289 124.781C144.968 124.781 144.807 124.942 144.753 125.21Z" fill="#3F3F40"/>
<path d="M146.576 126.282L146.791 125.853C147.005 125.96 147.273 126.067 147.541 126.067C147.809 126.067 147.916 126.014 147.916 125.853C147.916 125.478 146.63 125.853 146.63 124.995C146.63 124.566 147.005 124.298 147.595 124.298C147.863 124.298 148.238 124.352 148.399 124.459L148.185 124.888C147.97 124.781 147.756 124.727 147.595 124.727C147.327 124.727 147.22 124.834 147.22 124.942C147.22 125.317 148.506 124.942 148.506 125.799C148.506 126.174 148.131 126.496 147.488 126.496C147.166 126.496 146.791 126.389 146.576 126.282Z" fill="#3F3F40"/>
<path d="M149.9 125.049C149.9 124.245 150.543 123.602 151.401 123.602C152.259 123.602 152.902 124.191 152.902 125.049C152.902 125.906 152.259 126.496 151.401 126.496C150.543 126.496 149.9 125.906 149.9 125.049ZM152.313 125.049C152.313 124.513 151.937 124.138 151.455 124.138C150.972 124.138 150.597 124.513 150.597 125.049C150.597 125.585 150.972 125.96 151.455 125.96C151.937 125.96 152.313 125.585 152.313 125.049Z" fill="#3F3F40"/>
<path d="M153.975 124.191H153.063V123.655H155.476V124.191H154.564V126.442H153.921V124.191H153.975Z" fill="#3F3F40"/>
<path d="M158.264 124.674C158.264 125.317 157.781 125.692 157.031 125.692H156.494V126.442H155.851V123.655H157.031C157.781 123.655 158.264 124.084 158.264 124.674ZM157.62 124.674C157.62 124.352 157.406 124.191 157.031 124.191H156.494V125.156H157.031C157.406 125.156 157.62 124.995 157.62 124.674Z" fill="#3F3F40"/>
<path d="M119.395 134.59C119.395 131.963 120.842 130.462 122.826 130.462C124.81 130.462 126.257 131.963 126.257 134.59C126.257 137.216 124.81 138.717 122.826 138.717C120.842 138.717 119.395 137.216 119.395 134.59ZM124.381 134.59C124.381 132.767 123.737 132.017 122.826 132.017C121.915 132.017 121.271 132.767 121.271 134.59C121.271 136.412 121.915 137.162 122.826 137.162C123.737 137.162 124.381 136.412 124.381 134.59Z" fill="#3F3F40"/>
<path d="M133.817 136.251C133.817 137.752 132.476 138.717 130.439 138.717C128.402 138.717 127.115 137.752 127.115 136.251C127.115 135.394 127.544 134.75 128.294 134.375C127.705 134 127.383 133.464 127.383 132.714C127.383 131.32 128.616 130.462 130.439 130.462C132.262 130.462 133.495 131.32 133.495 132.714C133.495 133.41 133.173 134 132.583 134.375C133.334 134.804 133.817 135.394 133.817 136.251ZM131.94 136.198C131.94 135.501 131.35 135.072 130.439 135.072C129.528 135.072 128.938 135.501 128.938 136.198C128.938 136.894 129.528 137.323 130.439 137.323C131.35 137.377 131.94 136.894 131.94 136.198ZM129.206 132.821C129.206 133.41 129.688 133.786 130.439 133.786C131.19 133.786 131.672 133.41 131.672 132.821C131.672 132.178 131.19 131.802 130.439 131.802C129.688 131.856 129.206 132.231 129.206 132.821Z" fill="#3F3F40"/>
<path d="M141.322 136.251C141.322 137.752 139.982 138.717 137.945 138.717C135.907 138.717 134.621 137.752 134.621 136.251C134.621 135.394 135.05 134.75 135.8 134.375C135.21 134 134.889 133.464 134.889 132.714C134.889 131.32 136.122 130.462 137.945 130.462C139.767 130.462 141 131.32 141 132.714C141 133.41 140.679 134 140.089 134.375C140.84 134.804 141.322 135.394 141.322 136.251ZM139.446 136.198C139.446 135.501 138.856 135.072 137.945 135.072C137.033 135.072 136.443 135.501 136.443 136.198C136.443 136.894 137.033 137.323 137.945 137.323C138.856 137.377 139.446 136.894 139.446 136.198ZM136.711 132.821C136.711 133.41 137.194 133.786 137.945 133.786C138.695 133.786 139.178 133.41 139.178 132.821C139.178 132.178 138.695 131.802 137.945 131.802C137.194 131.856 136.711 132.231 136.711 132.821Z" fill="#3F3F40"/>
<path d="M145.236 130.623V138.556H143.413V132.07H141.805V130.57H145.236V130.623Z" fill="#3F3F40"/>
<path d="M152.527 137.055V138.556H146.523V137.377L149.579 134.482C150.276 133.786 150.383 133.41 150.383 133.035C150.383 132.392 149.954 132.07 149.096 132.07C148.399 132.07 147.809 132.338 147.434 132.874L146.094 132.017C146.683 131.106 147.809 130.516 149.257 130.516C151.026 130.516 152.206 131.427 152.206 132.874C152.206 133.625 151.991 134.375 150.865 135.394L149.042 137.109H152.527V137.055Z" fill="#3F3F40"/>
<path d="M159.175 136.144C159.175 137.484 158.156 138.717 155.851 138.717C154.725 138.717 153.599 138.395 152.795 137.859L153.492 136.466C154.082 136.894 154.94 137.162 155.744 137.162C156.655 137.162 157.245 136.787 157.245 136.144C157.245 135.554 156.816 135.179 155.744 135.179H154.886V133.946L156.548 132.07H153.17V130.57H158.746V131.749L156.923 133.786C158.478 134.107 159.175 134.965 159.175 136.144Z" fill="#3F3F40"/>
</g>
<defs>
<clipPath id="clip0_81_638">
<rect width="328" height="268" fill="white"/>
</clipPath>
</defs>
</svg>
