<svg width="200" height="200" viewBox="0 0 200 200" fill="none" xmlns="http://www.w3.org/2000/svg">
<path fill-rule="evenodd" clip-rule="evenodd" d="M165 2.5C165 3.88071 166.119 5 167.5 5H184C190.075 5 195 9.92487 195 16V32.5C195 33.8807 196.119 35 197.5 35C198.881 35 200 33.8807 200 32.5V16C200 7.16344 192.837 0 184 0H167.5C166.119 0 165 1.11929 165 2.5ZM32.5 5C33.8807 5 35 3.88071 35 2.5C35 1.11929 33.8807 0 32.5 0H16C7.16344 0 0 7.16344 0 16V32.5C0 33.8807 1.11929 35 2.5 35C3.88071 35 5 33.8807 5 32.5V16C5 9.92487 9.92487 5 16 5H32.5ZM5 167.5C5 166.119 3.88071 165 2.5 165C1.11929 165 0 166.119 0 167.5V184C0 192.837 7.16344 200 16 200H32.5C33.8807 200 35 198.881 35 197.5C35 196.119 33.8807 195 32.5 195H16C9.92487 195 5 190.075 5 184V167.5ZM167.5 195C166.119 195 165 196.119 165 197.5C165 198.881 166.119 200 167.5 200H184C192.837 200 200 192.837 200 184V167.5C200 166.119 198.881 165 197.5 165C196.119 165 195 166.119 195 167.5V184C195 190.075 190.075 195 184 195H167.5Z" fill="#3F3F40"/>
<path d="M71.4001 126H40.2001C38.7642 126 37.6001 127.164 37.6001 128.6C37.6001 130.036 38.7642 131.2 40.2001 131.2H68.8001V157.2H42.8001V141.6C42.8001 140.164 41.6359 139 40.2001 139C38.7642 139 37.6001 140.164 37.6001 141.6V159.8C37.6001 161.236 38.7642 162.4 40.2001 162.4H71.4001C72.8359 162.4 74.0001 161.236 74.0001 159.8V128.6C74.0001 127.164 72.8359 126 71.4001 126ZM37.6001 40.2V71.4C37.6001 72.8359 38.7642 74 40.2001 74H71.4001C72.8359 74 74.0001 72.8359 74.0001 71.4C74.0001 69.9642 72.8359 68.8 71.4001 68.8H42.8001V42.8H68.8001V58.4C68.8001 59.8359 69.9642 61 71.4001 61C72.8359 61 74.0001 59.8359 74.0001 58.4V40.2C74.0001 38.7642 72.8359 37.6 71.4001 37.6H40.2001C38.7642 37.6 37.6001 38.7642 37.6001 40.2ZM128.6 74C130.036 74 131.2 72.8359 131.2 71.4V42.8H157.2V68.8H141.6C140.164 68.8 139 69.9642 139 71.4C139 72.8359 140.164 74 141.6 74H159.8C161.236 74 162.4 72.8359 162.4 71.4V40.2C162.4 38.7642 161.236 37.6 159.8 37.6H128.6C127.164 37.6 126 38.7642 126 40.2V71.4C126 72.8359 127.164 74 128.6 74ZM162.4 159.8V136.4C162.4 134.964 161.236 133.8 159.8 133.8C158.364 133.8 157.2 134.964 157.2 136.4V157.2H136.4C134.964 157.2 133.8 158.364 133.8 159.8C133.8 161.236 134.964 162.4 136.4 162.4H159.8C161.236 162.4 162.4 161.236 162.4 159.8ZM53.2001 50.6C51.7642 50.6 50.6001 51.7642 50.6001 53.2V58.4C50.6001 59.8359 51.7642 61 53.2001 61H58.4001C59.8359 61 61.0001 59.8359 61.0001 58.4V53.2C61.0001 51.7642 59.8359 50.6 58.4001 50.6H53.2001ZM58.4001 149.4C59.8359 149.4 61.0001 148.236 61.0001 146.8V141.6C61.0001 140.164 59.8359 139 58.4001 139H53.2001C51.7642 139 50.6001 140.164 50.6001 141.6V146.8C50.6001 148.236 51.7642 149.4 53.2001 149.4H58.4001ZM141.6 61H146.8C148.236 61 149.4 59.8359 149.4 58.4V53.2C149.4 51.7642 148.236 50.6 146.8 50.6H141.6C140.164 50.6 139 51.7642 139 53.2V58.4C139 59.8359 140.164 61 141.6 61ZM149.4 144.2C149.4 142.764 148.236 141.6 146.8 141.6H120.8C119.364 141.6 118.2 142.764 118.2 144.2V157.2H107.8C106.364 157.2 105.2 158.364 105.2 159.8C105.2 161.236 106.364 162.4 107.8 162.4H120.8C122.236 162.4 123.4 161.236 123.4 159.8V146.8H146.8C148.236 146.8 149.4 145.636 149.4 144.2ZM92.2001 157.2H84.4001C82.9642 157.2 81.8001 158.364 81.8001 159.8C81.8001 161.236 82.9642 162.4 84.4001 162.4H92.2001C93.6359 162.4 94.8001 161.236 94.8001 159.8C94.8001 158.364 93.6359 157.2 92.2001 157.2ZM40.2001 109.75C38.7642 109.75 37.6001 110.914 37.6001 112.35C37.6001 113.786 38.7642 114.95 40.2001 114.95H54.5001C55.9359 114.95 57.1001 113.786 57.1001 112.35C57.1001 110.914 55.9359 109.75 54.5001 109.75H40.2001ZM87.0001 131.2C88.4359 131.2 89.6001 130.036 89.6001 128.6V112.35C89.6001 110.914 88.4359 109.75 87.0001 109.75H70.7501C69.3142 109.75 68.1501 110.914 68.1501 112.35C68.1501 113.786 69.3142 114.95 70.7501 114.95H84.4001V128.6C84.4001 130.036 85.5642 131.2 87.0001 131.2ZM105.2 131.2H123.4C124.836 131.2 126 130.036 126 128.6C126 127.164 124.836 126 123.4 126H105.2V109.75C105.2 108.314 104.036 107.15 102.6 107.15C101.164 107.15 100 108.314 100 109.75V141.6H84.4001C82.9642 141.6 81.8001 142.764 81.8001 144.2C81.8001 145.636 82.9642 146.8 84.4001 146.8H102.6C104.036 146.8 105.2 145.636 105.2 144.2V131.2ZM159.8 125.35C161.236 125.35 162.4 124.186 162.4 122.75V107.15C162.4 105.714 161.236 104.55 159.8 104.55H139C137.564 104.55 136.4 105.714 136.4 107.15C136.4 108.586 137.564 109.75 139 109.75H157.2V122.75C157.2 124.186 158.364 125.35 159.8 125.35ZM139 126C137.564 126 136.4 127.164 136.4 128.6C136.4 130.036 137.564 131.2 139 131.2H144.2C145.636 131.2 146.8 130.036 146.8 128.6C146.8 127.164 145.636 126 144.2 126H139ZM159.8 88.95H152C150.564 88.95 149.4 90.1142 149.4 91.55C149.4 92.9859 150.564 94.15 152 94.15H159.8C161.236 94.15 162.4 92.9859 162.4 91.55C162.4 90.1142 161.236 88.95 159.8 88.95ZM123.4 114.95C124.836 114.95 126 113.786 126 112.35V94.15H136.075C137.511 94.15 138.675 92.9859 138.675 91.55C138.675 90.1142 137.511 88.95 136.075 88.95H123.4C121.964 88.95 120.8 90.1142 120.8 91.55V112.35C120.8 113.786 121.964 114.95 123.4 114.95ZM74.0001 95.125V86.35C74.0001 84.9142 72.8359 83.75 71.4001 83.75C69.9642 83.75 68.8001 84.9142 68.8001 86.35V92.525H40.2001C38.7642 92.525 37.6001 93.6892 37.6001 95.125C37.6001 96.5609 38.7642 97.725 40.2001 97.725H71.4001C72.8359 97.725 74.0001 96.5609 74.0001 95.125ZM87.0001 83.75C88.4359 83.75 89.6001 82.5859 89.6001 81.15V76.6H113C114.436 76.6 115.6 75.4359 115.6 74C115.6 72.5642 114.436 71.4 113 71.4H89.6001V66.2C89.6001 64.7642 88.4359 63.6 87.0001 63.6C85.5642 63.6 84.4001 64.7642 84.4001 66.2V81.15C84.4001 82.5859 85.5642 83.75 87.0001 83.75ZM87.0001 53.2H97.4001C98.8359 53.2 100 52.0359 100 50.6C100 49.1642 98.8359 48 97.4001 48H89.6001V40.2C89.6001 38.7642 88.4359 37.6 87.0001 37.6C85.5642 37.6 84.4001 38.7642 84.4001 40.2V50.6C84.4001 52.0359 85.5642 53.2 87.0001 53.2ZM87.0001 98.375H110.4C111.836 98.375 113 97.2109 113 95.775C113 94.3392 111.836 93.175 110.4 93.175H87.0001C85.5642 93.175 84.4001 94.3392 84.4001 95.775C84.4001 97.2109 85.5642 98.375 87.0001 98.375ZM102.6 42.8H110.4V58.4C110.4 59.8359 111.564 61 113 61C114.436 61 115.6 59.8359 115.6 58.4V40.2C115.6 38.7642 114.436 37.6 113 37.6H102.6C101.164 37.6 100 38.7642 100 40.2C100 41.6359 101.164 42.8 102.6 42.8Z" fill="#3F3F40"/>
<g filter="url(#filter0_f_55_1115)">
<rect x="40" y="95" width="120" height="10" rx="5" fill="#FF5922"/>
</g>
<rect y="97" width="200" height="5" rx="2.5" fill="#FF5922"/>
<defs>
<filter id="filter0_f_55_1115" x="16" y="71" width="168" height="58" filterUnits="userSpaceOnUse" color-interpolation-filters="sRGB">
<feFlood flood-opacity="0" result="BackgroundImageFix"/>
<feBlend mode="normal" in="SourceGraphic" in2="BackgroundImageFix" result="shape"/>
<feGaussianBlur stdDeviation="12" result="effect1_foregroundBlur_55_1115"/>
</filter>
</defs>
</svg>
