<svg width="273" height="273" viewBox="0 0 273 273" fill="none" xmlns="http://www.w3.org/2000/svg">
<path d="M242.752 39.7488H206.333C201.856 39.7488 198.253 43.3524 198.253 47.8296V69.888C198.253 74.3652 201.856 77.9688 206.333 77.9688H217.581L223.915 86.9778C224.788 88.2336 226.59 88.179 227.409 86.9232L233.251 77.9688H242.752C247.229 77.9688 250.832 74.3652 250.832 69.888V47.8296C250.832 43.3524 247.229 39.7488 242.752 39.7488Z" fill="white"/>
<path d="M242.752 39.7488C242.752 39.7488 242.861 39.7488 243.025 39.7488C243.188 39.7488 243.461 39.7488 243.844 39.8034C244.553 39.858 245.591 40.0764 246.792 40.7862C247.993 41.4414 249.304 42.6426 250.177 44.4444C250.614 45.318 250.887 46.41 250.942 47.502C250.996 48.6486 250.942 49.7952 250.942 51.051C250.942 56.0742 250.942 62.1348 250.996 69.069C250.996 69.9426 250.996 70.8162 250.778 71.6898C250.614 72.5634 250.232 73.437 249.74 74.2014C248.758 75.7848 247.229 77.0406 245.318 77.6412C244.39 77.9688 243.407 78.078 242.424 78.0234C241.441 78.0234 240.458 78.0234 239.421 78.0234C237.401 78.0234 235.381 78.0234 233.251 78.0234L233.36 77.9688C232.268 79.6614 231.176 81.354 230.03 83.1012C229.484 83.9748 228.883 84.8484 228.283 85.722C228.01 86.1588 227.737 86.5956 227.409 87.087C227.081 87.5238 226.535 87.8514 225.935 87.906C225.389 87.9606 224.788 87.8514 224.297 87.5238C224.078 87.36 223.86 87.1416 223.696 86.9232L223.205 86.268C222.55 85.3944 221.949 84.4662 221.294 83.538C220.038 81.7362 218.728 79.8798 217.417 77.9688L217.526 78.0234C215.561 78.0234 213.486 78.0234 211.357 78.0234C209.828 78.0234 208.299 78.0234 206.77 78.0234C206.006 78.0234 205.241 77.9688 204.477 77.805C203.713 77.6412 203.003 77.3682 202.348 76.986C201.037 76.2762 199.891 75.1842 199.126 73.8738C198.362 72.5634 197.98 71.0892 198.034 69.615C198.034 63.8274 198.034 58.2582 198.034 52.9074C198.034 51.597 198.034 50.2866 198.034 48.9762C198.034 48.321 198.034 47.6658 198.089 47.0106C198.089 46.683 198.198 46.3554 198.198 46.0278C198.253 45.7002 198.362 45.4272 198.471 45.0996C198.853 43.8984 199.563 42.8064 200.437 41.8782C201.31 41.0046 202.348 40.3494 203.494 39.9126C203.767 39.8034 204.04 39.7488 204.368 39.6396C204.641 39.5304 204.968 39.5304 205.241 39.4758C205.842 39.4212 206.388 39.4212 206.989 39.4212C208.135 39.4212 209.227 39.4212 210.374 39.4212C212.558 39.4212 214.687 39.4212 216.707 39.4212C224.734 39.4212 231.286 39.4758 235.763 39.4758C238.001 39.4758 239.749 39.4758 240.95 39.4758C241.55 39.4758 241.987 39.4758 242.315 39.4758C242.588 39.7488 242.752 39.7488 242.752 39.7488C242.752 39.7488 242.588 39.7488 242.315 39.7488C241.987 39.7488 241.55 39.7488 240.95 39.7488C239.749 39.7488 238.001 39.7488 235.763 39.7488C231.231 39.7488 224.734 39.7488 216.707 39.8034C214.687 39.8034 212.612 39.8034 210.374 39.8034C209.282 39.8034 208.135 39.8034 206.989 39.8034C206.388 39.8034 205.842 39.8034 205.296 39.858C205.023 39.9126 204.75 39.9126 204.422 40.0218C204.149 40.0764 203.876 40.1856 203.603 40.2948C202.511 40.677 201.474 41.3322 200.655 42.2058C199.836 43.0794 199.181 44.1168 198.744 45.318C198.635 45.591 198.58 45.9186 198.526 46.2462C198.471 46.5738 198.416 46.8468 198.416 47.1744C198.362 47.775 198.362 48.4302 198.362 49.0854C198.362 50.3958 198.362 51.7062 198.362 53.0166C198.362 58.3128 198.362 63.9366 198.362 69.7242C198.362 71.1438 198.689 72.618 199.454 73.8192C200.164 75.075 201.256 76.1124 202.566 76.8222C203.221 77.1498 203.931 77.4228 204.641 77.5866C205.351 77.7504 206.115 77.805 206.879 77.7504C208.408 77.7504 209.937 77.7504 211.466 77.7504C213.595 77.7504 215.67 77.7504 217.636 77.7504H217.69L217.745 77.805C219.055 79.6614 220.366 81.5178 221.621 83.3742C222.277 84.3024 222.877 85.176 223.532 86.1042L224.024 86.7594C224.188 86.9778 224.351 87.1962 224.57 87.3054C225.007 87.633 225.498 87.7422 225.989 87.633C226.481 87.5784 226.972 87.3054 227.245 86.8686C227.518 86.4318 227.846 85.995 228.119 85.5582C228.719 84.6846 229.265 83.811 229.866 82.9374C231.013 81.1902 232.105 79.4976 233.197 77.805L233.251 77.7504H233.306C235.381 77.7504 237.455 77.7504 239.476 77.7504C240.458 77.7504 241.496 77.7504 242.479 77.7504C243.461 77.7504 244.39 77.6412 245.318 77.3682C247.12 76.7676 248.648 75.5664 249.577 74.0376C250.068 73.2732 250.396 72.4542 250.614 71.5806C250.832 70.707 250.832 69.888 250.832 69.0144C250.832 62.1348 250.832 56.0196 250.887 50.9964C250.887 49.7406 250.887 48.5394 250.887 47.4474C250.832 46.3554 250.559 45.318 250.177 44.4444C249.358 42.6426 248.048 41.496 246.901 40.8408C245.7 40.131 244.663 39.9126 244.007 39.858C243.68 39.8034 243.407 39.8034 243.188 39.8034C242.861 39.7488 242.752 39.7488 242.752 39.7488Z" fill="#3F3F40"/>
<path d="M225.607 51.4878V66.5574L236.363 59.0226L225.607 51.4878Z" fill="#FF5922"/>
<path d="M211.138 67.7586C211.138 67.7586 211.848 57.057 220.42 56.8932H225.88V61.4796L220.475 61.5342C220.529 61.5342 214.851 61.425 211.138 67.7586Z" fill="#FF5922"/>
<path d="M27.3547 92.8746H102.484C106.688 92.8746 110.128 89.4348 110.128 85.2306V27.1362C110.128 22.932 106.688 19.4922 102.484 19.4922H27.3547C23.1505 19.4922 19.7107 22.932 19.7107 27.1362V85.2306C19.7107 89.4894 23.1505 92.8746 27.3547 92.8746Z" fill="white"/>
<path d="M61.2611 90.636C60.3329 92.8746 42.4241 109.746 42.4241 109.746V90.636H61.2611Z" fill="#455A64"/>
<path d="M83.2103 51.7062C83.2649 47.8842 83.8655 44.0622 83.7017 40.2402C83.5379 36.4182 82.5551 32.4324 79.8797 29.7024C77.2043 26.9724 72.5633 25.935 69.4511 28.119L68.7959 31.395C70.0517 46.137 71.2529 60.9336 72.5087 75.6756C72.6725 77.6412 72.8363 79.6068 73.7099 81.354C74.5835 83.1012 76.3853 84.5208 78.2963 84.4116C80.8625 84.2478 82.5005 81.6816 83.3195 79.2792C86.1587 70.434 83.1011 60.9336 83.2103 51.7062Z" fill="#3F3F40"/>
<path d="M73.9829 31.8318C73.4369 30.9036 72.8363 29.9208 72.0173 29.211C71.1983 28.5012 70.1063 28.0098 69.0143 28.2282C68.5229 28.3374 67.9769 28.6104 67.8131 29.1018C67.6493 29.5932 68.0315 30.2484 68.5229 30.1938L68.6321 30.303C69.7787 31.3404 70.9253 32.3232 72.1265 33.2514C72.3995 33.4698 72.7271 33.7428 73.1093 33.852C73.4915 33.9612 73.9283 33.9066 74.2013 33.6336C74.6381 33.1422 74.3105 32.3778 73.9829 31.8318Z" fill="#FF5922"/>
<path d="M76.167 35.5992C72.345 30.9582 67.2126 28.2282 61.2066 28.1736C57.8214 28.119 56.4018 28.8288 53.9448 29.484C51.4878 30.1392 49.3038 31.4496 47.8296 33.5244C46.0824 35.9814 44.6628 38.766 44.3352 41.7144C44.0076 44.772 43.68 47.8842 43.8984 50.9964C44.1168 54.1086 44.9904 57.1662 46.7922 59.6778L54.6546 61.0428C58.968 61.2066 63.3906 61.3158 67.5948 60.333C71.799 59.3502 75.9486 57.057 78.1871 53.3442C81.2994 48.2664 79.989 40.2948 76.167 35.5992Z" fill="#3F3F40"/>
<path d="M54.5453 74.9658C54.5999 72.2358 54.7091 68.7414 54.7091 68.796C54.7091 68.796 48.3209 68.0862 46.5191 59.8962C45.6455 55.8012 45.4817 49.0308 45.5363 43.5162C45.5909 38.5476 49.7951 31.7772 55.9649 31.7226L58.6949 31.395L69.1781 35.5446C70.7069 35.5992 71.9081 36.855 71.9627 38.3292L72.3449 74.4198L65.6291 85.6128L53.6171 76.3308L54.5453 74.9658Z" fill="#FFBE9D"/>
<path d="M58.8588 57.9852C58.8042 57.5484 58.5858 57.1662 58.2582 56.8932C57.6576 56.3472 56.7294 56.2926 56.0742 56.784C55.419 57.2208 55.0368 58.149 55.146 59.0226C55.5282 59.514 56.0742 59.8962 56.6748 59.9508C56.784 59.9508 56.8932 59.9508 56.9478 59.9508C57.4392 59.9508 57.876 59.787 58.2582 59.4048C58.695 59.0226 58.9134 58.4766 58.8588 57.9852Z" fill="#EB996E"/>
<path d="M48.8669 49.9044C48.8669 50.4504 49.3583 50.9418 49.9589 50.9418C50.5595 50.9418 50.9963 50.505 50.9963 49.9044C50.9963 49.3584 50.5049 48.867 49.9043 48.867C49.3037 48.867 48.8123 49.3584 48.8669 49.9044Z" fill="#3F3F40"/>
<path d="M47.3928 46.2462C47.5566 46.3554 48.321 45.7548 49.4676 45.7002C50.6142 45.6456 51.4878 46.1916 51.597 46.0278C51.6516 45.9732 51.4878 45.7002 51.1056 45.4818C50.7234 45.2634 50.1228 44.9904 49.413 45.045C48.7032 45.0996 48.1026 45.3726 47.775 45.6456C47.4474 45.9732 47.3382 46.1916 47.3928 46.2462Z" fill="#3F3F40"/>
<path d="M54.7637 55.2552C54.7637 55.2006 54.0539 55.0914 52.9073 55.0368C52.6343 55.0368 52.3613 54.9822 52.2521 54.7638C52.1975 54.5454 52.2521 54.2178 52.4159 53.8902C52.6343 53.1804 52.9073 52.416 53.1803 51.597C54.2177 48.3756 54.9275 45.7002 54.8183 45.7002C54.7091 45.6456 53.7263 48.2664 52.7435 51.4878C52.5251 52.3068 52.2521 53.0166 52.0337 53.781C51.9245 54.1086 51.7607 54.4908 51.9245 54.9276C52.0337 55.146 52.2521 55.3098 52.4159 55.3098C52.5797 55.3644 52.7435 55.3644 52.9073 55.3644C54.0539 55.3098 54.7637 55.3098 54.7637 55.2552Z" fill="#3F3F40"/>
<path d="M54.7091 68.796C54.7091 68.796 60.2783 68.8506 65.6291 65.247C65.6291 65.247 63.0083 71.1438 54.6545 70.8162L54.7091 68.796Z" fill="#EB996E"/>
<path d="M58.1489 55.8558C57.9851 55.8558 58.0397 57.1116 57.0023 58.0398C55.9649 58.968 54.6545 58.9134 54.6545 59.0772C54.6545 59.1318 54.9821 59.2956 55.5281 59.2956C56.0741 59.2956 56.8385 59.0772 57.4937 58.4766C58.0943 57.876 58.3673 57.1662 58.3673 56.6748C58.4219 56.1288 58.2581 55.8012 58.1489 55.8558Z" fill="#3F3F40"/>
<path d="M47.8297 42.2604C48.0481 42.5334 48.9217 42.315 49.9045 42.315C50.9419 42.315 51.8155 42.588 51.9793 42.315C52.0885 42.2058 51.9247 41.9328 51.5971 41.6598C51.2149 41.3868 50.6143 41.1684 49.9045 41.1684C49.1947 41.1684 48.5941 41.3868 48.2119 41.6052C47.8297 41.8782 47.7205 42.1512 47.8297 42.2604Z" fill="#3F3F40"/>
<path d="M61.8619 49.6314C61.9165 50.1774 61.4251 50.6688 60.8791 50.7234C60.2785 50.778 59.7871 50.3412 59.7871 49.7952C59.7325 49.2492 60.2239 48.7578 60.7699 48.7032C61.3159 48.6486 61.8073 49.0854 61.8619 49.6314Z" fill="#3F3F40"/>
<path d="M62.8991 45.8094C62.7899 45.9732 61.9709 45.3726 60.8243 45.3726C59.6777 45.3726 58.8587 45.9732 58.7495 45.864C58.6949 45.8094 58.8041 45.5364 59.1863 45.2634C59.5685 44.9904 60.1691 44.7174 60.8789 44.7174C61.5887 44.7174 62.1893 44.9358 62.5715 45.2088C62.7899 45.5364 62.9537 45.7548 62.8991 45.8094Z" fill="#3F3F40"/>
<path d="M62.1893 42.1512C61.9709 42.4242 61.0973 42.1512 60.0053 42.1512C58.9679 42.0966 58.0397 42.3696 57.8213 42.0966C57.7121 41.9874 57.8759 41.7144 58.2581 41.4414C58.6403 41.1684 59.2955 41.0046 60.0053 41.0046C60.7151 41.0046 61.3703 41.223 61.7525 41.496C62.1347 41.769 62.2985 42.042 62.1893 42.1512Z" fill="#3F3F40"/>
<path d="M70.543 52.2522C70.4884 51.6516 71.1436 50.1228 71.7442 50.0136C73.3822 49.686 76.276 49.6314 76.549 53.781C76.8766 59.4048 71.1436 58.5858 71.1436 58.422C71.089 58.3128 70.6522 54.3816 70.543 52.2522Z" fill="#FFBE9D"/>
<path d="M72.5632 56.2926C72.5632 56.2926 72.6724 56.3472 72.8362 56.4018C73 56.4564 73.273 56.511 73.546 56.3472C74.1466 56.0742 74.5834 55.0914 74.5288 54.1086C74.5288 53.6172 74.365 53.1258 74.1466 52.7436C73.9282 52.3614 73.6552 52.0884 73.3822 52.0338C73.0546 51.9792 72.8908 52.1976 72.8362 52.3614C72.7816 52.5252 72.8362 52.6344 72.7816 52.6344C72.7816 52.6344 72.6724 52.5252 72.6724 52.3068C72.6724 52.1976 72.727 52.0338 72.8908 51.9246C73 51.8154 73.2184 51.7608 73.4368 51.7608C73.8736 51.7608 74.3104 52.143 74.5288 52.5798C74.8018 53.0166 74.9656 53.5626 74.9656 54.1086C75.0202 55.2552 74.4742 56.3472 73.6552 56.6202C73.273 56.7294 72.9454 56.6748 72.727 56.511C72.5632 56.4564 72.5086 56.2926 72.5632 56.2926Z" fill="#EB996E"/>
<path d="M71.9628 50.0682L70.5432 51.5424C64.3734 45.6456 52.2522 30.7944 52.962 31.668C52.962 31.668 57.2208 29.9208 61.8072 30.6852C66.3936 31.4496 75.1296 33.7974 75.0204 39.2028C74.802 44.6628 71.9628 50.0682 71.9628 50.0682Z" fill="#3F3F40"/>
<path d="M80.1527 48.8124C80.1527 48.8124 80.1527 48.7032 80.0435 48.4848C79.9889 48.2664 79.8797 47.9934 79.6613 47.6112C79.2791 46.8468 78.5147 45.864 77.3135 44.9358C76.1123 44.0076 74.4743 43.2432 72.5633 42.6426C70.6523 42.042 68.5229 41.5506 66.4481 40.677C64.3733 39.8034 62.4623 38.7114 60.8789 37.5648C59.2955 36.4182 57.9851 35.217 56.9477 34.125C55.9103 33.033 55.2005 32.1048 54.6545 31.4496C54.4361 31.122 54.2177 30.849 54.1085 30.6852C53.9993 30.5214 53.8901 30.4122 53.8901 30.4122C53.8901 30.4122 53.9447 30.5214 54.0539 30.6852C54.1631 30.849 54.3269 31.1766 54.5999 31.5042C55.0913 32.214 55.8011 33.1968 56.8385 34.2888C57.8759 35.3808 59.1863 36.6366 60.7697 37.7832C62.3531 38.9298 64.2641 40.0764 66.3935 40.95C68.5229 41.8782 70.6523 42.315 72.5087 42.9156C74.3651 43.5162 76.0031 44.226 77.2043 45.0996C78.4055 45.9732 79.1699 46.956 79.6067 47.6658C79.9889 48.3756 80.0981 48.8124 80.1527 48.8124Z" fill="#455A64"/>
<path d="M78.5148 49.686C78.5148 49.686 78.5694 49.2492 78.2964 48.4302C78.0234 47.6658 77.3682 46.6284 76.167 45.7548C74.9658 44.8812 73.3278 44.3352 71.4714 43.8984C69.615 43.4616 67.5948 42.9702 65.6292 42.042C63.6636 41.1138 61.8618 40.0218 60.4422 38.8206C58.968 37.6194 57.7668 36.4182 56.8932 35.3262C55.965 34.2342 55.3644 33.2514 54.873 32.5962C54.6546 32.2686 54.5454 31.9956 54.3816 31.8318C54.2724 31.668 54.2178 31.5588 54.2178 31.5588C54.2178 31.5588 54.2724 31.668 54.327 31.8318C54.4362 32.0502 54.6 32.3232 54.7638 32.6508C55.2006 33.3606 55.8012 34.3434 56.6748 35.4354C57.603 36.582 58.7496 37.8378 60.2238 39.039C61.698 40.2402 63.4998 41.3868 65.4654 42.315C67.4856 43.2432 69.5058 43.7892 71.3622 44.1714C73.2186 44.5536 74.8566 45.0996 76.0032 45.9186C77.1498 46.7376 77.8596 47.7204 78.1326 48.4302C78.4602 49.2492 78.4602 49.686 78.5148 49.686Z" fill="#455A64"/>
<path d="M71.7444 59.6232C71.7444 59.5686 72.2358 59.514 73.0548 59.2956C73.8738 59.0772 75.075 58.5312 76.2216 57.5484C77.3682 56.5656 78.4056 54.9822 79.17 53.0712C79.8798 51.1602 80.3166 48.9216 80.3712 46.5738C80.3712 45.3726 80.3166 44.226 80.0982 43.134C79.8798 42.042 79.5522 41.0046 79.17 40.0764C78.351 38.22 77.3136 36.6912 76.2216 35.5446C74.1468 33.2514 72.3996 32.3232 72.4542 32.2686C72.4542 32.2686 72.5634 32.3232 72.7818 32.4324C73.0002 32.5416 73.2732 32.7054 73.6554 32.9784C74.3652 33.4698 75.4026 34.2342 76.4946 35.3808C77.5866 36.5274 78.6786 38.0562 79.5522 39.9672C79.9344 40.95 80.3166 41.9874 80.535 43.0794C80.7534 44.1714 80.8626 45.3726 80.808 46.5738C80.7534 48.9762 80.3166 51.2694 79.5522 53.1804C78.7878 55.146 77.6958 56.7294 76.4946 57.7668C75.2934 58.8042 74.0376 59.2956 73.2186 59.4594C72.7818 59.5686 72.4542 59.5686 72.2358 59.6232C71.9082 59.6232 71.7444 59.6232 71.7444 59.6232Z" fill="#455A64"/>
<path d="M36.5821 84.0294L36.7459 83.8656C42.9703 77.3136 54.3817 75.075 54.3817 75.075C54.3817 75.075 55.0915 79.3884 61.4797 79.8798C67.8679 80.3712 72.6181 73.8192 72.6181 73.8192L81.1903 75.0204C81.1903 75.0204 85.5037 75.5118 88.1791 77.0952C94.2397 80.6442 97.4065 92.8746 97.4065 92.8746L31.4497 93.1476L36.5821 84.0294Z" fill="#455A64"/>
<path d="M30.5214 19.4922C30.5214 19.4922 30.3576 19.4922 30.0846 19.5468C29.9208 19.5468 29.757 19.5468 29.5386 19.6014C29.3202 19.6014 29.0472 19.656 28.7742 19.7106C27.6276 19.929 25.8258 20.4204 23.9694 21.84C23.0412 22.5498 22.1676 23.478 21.4032 24.6792C20.6388 25.8804 20.0928 27.3546 19.8744 28.9926C19.7652 29.8116 19.7652 30.6852 19.7652 31.6134C19.7652 32.487 19.7652 33.4152 19.7652 34.398C19.7652 36.309 19.7652 38.3292 19.7652 40.5132C19.7652 49.0854 19.7652 59.514 19.8198 71.3622C19.8198 74.3106 19.8198 77.3682 19.8198 80.535C19.8198 81.2994 19.8198 82.1184 19.8744 82.8828C19.929 83.6472 20.0928 84.4662 20.3112 85.2306C20.8026 86.7594 21.6216 88.179 22.7136 89.3802C23.2596 89.9808 23.9148 90.5268 24.57 90.9636C25.2798 91.4004 25.9896 91.8372 26.8086 92.1102L27.4092 92.3286L28.0098 92.4924C28.392 92.6016 28.8288 92.6562 29.2656 92.7108C29.7024 92.7654 30.0846 92.7654 30.5214 92.82C30.9582 92.82 31.395 92.82 31.8318 92.82C35.2716 92.82 38.8206 92.82 42.4242 92.82H42.5334V92.9292C42.5334 98.28 42.5334 103.958 42.5334 109.801L42.315 109.691C45.0996 107.071 47.9388 104.341 50.8326 101.556C53.6718 98.7714 56.6202 95.8776 59.4048 92.8746L59.4594 92.82H59.514C68.4684 92.82 77.8596 92.82 87.36 92.82C90.2538 92.82 93.093 92.82 95.9322 92.82C96.642 92.82 97.3518 92.82 98.0616 92.82C98.7714 92.82 99.4812 92.82 100.191 92.7654C101.556 92.6562 102.921 92.274 104.177 91.6188C106.634 90.363 108.545 88.1244 109.418 85.5582C109.855 84.2478 110.019 82.9374 110.019 81.5724C110.019 80.2074 110.019 78.8424 110.019 77.4774C110.019 66.6666 110.019 56.1834 110.019 46.2462C110.019 41.2776 110.019 36.4182 110.019 31.7226C110.019 30.5214 110.019 29.3748 109.801 28.2282C109.582 27.0816 109.145 26.0442 108.599 25.0614C108.053 24.0786 107.344 23.205 106.47 22.4406C105.651 21.6762 104.723 21.0756 103.74 20.6388C102.757 20.202 101.72 19.8744 100.628 19.7652C99.5904 19.656 98.4984 19.656 97.4064 19.656C95.277 19.656 93.2022 19.656 91.1274 19.656C87.0324 19.656 83.1012 19.656 79.3338 19.656C64.2642 19.656 52.0884 19.6014 43.68 19.6014C39.4758 19.6014 36.1998 19.6014 33.9612 19.6014C32.8692 19.6014 31.9956 19.6014 31.4496 19.6014C30.849 19.4922 30.5214 19.4922 30.5214 19.4922C30.5214 19.4922 30.7944 19.4922 31.395 19.4922C31.941 19.4922 32.8146 19.4922 33.9066 19.4922C36.1452 19.4922 39.4212 19.4922 43.6254 19.4922C52.0338 19.4922 64.2096 19.4922 79.2792 19.4376C83.0466 19.4376 86.9778 19.4376 91.0728 19.4376C93.1476 19.4376 95.2224 19.4376 97.3518 19.4376C98.4438 19.4376 99.4812 19.383 100.573 19.5468C101.665 19.656 102.757 19.9836 103.74 20.4204C104.777 20.8572 105.706 21.5124 106.579 22.2768C107.398 23.0412 108.163 23.9148 108.709 24.9522C109.255 25.935 109.691 27.0816 109.964 28.2282C110.183 29.3748 110.183 30.576 110.183 31.7226C110.183 36.4182 110.183 41.2776 110.183 46.2462C110.183 56.1834 110.183 66.6666 110.183 77.4774C110.183 78.8424 110.183 80.2074 110.183 81.5724C110.183 82.9374 110.074 84.357 109.582 85.6674C108.709 88.2882 106.743 90.5814 104.177 91.8918C102.921 92.547 101.501 92.9292 100.082 93.0384C99.372 93.093 98.6622 93.093 97.9524 93.093C97.2426 93.093 96.5328 93.093 95.823 93.093C92.9838 93.093 90.1446 93.093 87.2508 93.093C77.6958 93.093 68.3592 93.093 59.4048 93.093L59.514 93.0384C56.7294 96.096 53.781 98.9352 50.9418 101.774C48.048 104.559 45.2088 107.289 42.4242 109.91L42.2058 110.128V109.801C42.2058 103.958 42.2058 98.28 42.2058 92.9292L42.315 93.0384C38.7114 93.0384 35.1624 93.0384 31.7226 93.0384C31.2858 93.0384 30.849 93.0384 30.4122 93.0384C29.9754 92.9838 29.5386 93.0384 29.1018 92.9292C28.665 92.8746 28.2282 92.82 27.846 92.7108L27.2454 92.547L26.6448 92.3286C25.8258 92.0556 25.116 91.6188 24.3516 91.182C23.6418 90.6906 22.9866 90.1446 22.4406 89.544C21.294 88.3428 20.475 86.8686 19.9836 85.2852C19.7652 84.5208 19.6014 83.7018 19.5468 82.8828C19.4922 82.0638 19.4922 81.2994 19.4922 80.4804C19.4922 77.3136 19.4922 74.256 19.4922 71.3076C19.4922 59.4594 19.4922 49.0308 19.5468 40.4586C19.5468 38.3292 19.5468 36.2544 19.5468 34.3434C19.5468 33.3606 19.5468 32.4324 19.5468 31.5588C19.5468 30.6852 19.5468 29.8116 19.656 28.938C19.8744 27.2454 20.475 25.7712 21.2394 24.57C22.0038 23.3688 22.932 22.386 23.8602 21.6762C25.7166 20.2566 27.5184 19.7652 28.665 19.6014C28.938 19.5468 29.211 19.4922 29.4294 19.4922C29.6478 19.4922 29.8662 19.4922 29.9754 19.4922C30.4122 19.4922 30.5214 19.4922 30.5214 19.4922Z" fill="#3F3F40"/>
<path d="M169.751 253.617L101.61 253.562C93.4205 253.562 86.7593 247.229 86.7593 239.421L86.8139 76.6584C86.8139 68.8506 93.4751 62.517 101.665 62.517L169.806 62.5716C177.996 62.5716 184.657 68.9052 184.657 76.713L184.602 239.476C184.602 247.283 177.941 253.617 169.751 253.617Z" fill="#3F3F40"/>
<path d="M169.697 68.3592H156.483C154.736 68.3592 153.262 69.7788 153.262 71.526V73.8192C153.262 75.5664 151.842 77.0406 150.041 76.986H124.269C122.522 76.986 121.048 75.5664 121.048 73.7646V71.4714C121.048 69.7242 119.628 68.25 117.827 68.25H113.186H101.61C95.8775 68.25 91.2365 72.6726 91.2365 78.1326L91.1819 236.964C91.1819 242.424 95.8229 246.847 101.556 246.847L169.533 246.901C175.266 246.901 179.907 242.479 179.907 237.019L179.961 78.1326C180.125 72.7818 175.43 68.3592 169.697 68.3592Z" fill="white"/>
<path d="M133.442 107.944C135.353 107.78 136.991 106.088 137.046 104.177C137.101 102.266 135.517 100.464 133.661 100.246C134.589 98.826 134.48 96.8604 133.442 95.55C132.405 94.2396 130.494 93.6936 128.911 94.2396C128.528 92.6016 127.273 91.2366 125.689 90.7452C124.106 90.2538 122.249 90.636 121.048 91.728C118.973 90.5268 116.025 91.0182 114.442 92.8746C112.804 92.8746 111.22 94.0758 110.783 95.6046C110.292 97.188 111.002 98.9898 112.367 99.918" fill="#3F3F40"/>
<path d="M134.098 108.381C131.805 100.136 123.56 95.004 115.152 96.5874L114.333 96.7512C105.433 98.9898 102.321 107.835 104.832 116.68L111.057 148.84L129.457 163.036L134.207 151.187L132.351 140.486C132.351 140.486 140.759 137.483 139.23 128.801C138.466 124.597 136.227 116.08 134.098 108.381Z" fill="#FFBE9D"/>
<path d="M132.405 140.431C132.405 140.431 126.945 141.796 120.393 139.285C120.393 139.285 124.16 145.181 132.678 142.779L132.405 140.431Z" fill="#EB996E"/>
<path d="M133.333 116.68C133.497 117.335 133.06 117.991 132.351 118.154C131.695 118.318 130.986 117.936 130.876 117.281C130.713 116.626 131.149 115.97 131.805 115.807C132.514 115.643 133.17 116.025 133.333 116.68Z" fill="#3F3F40"/>
<path d="M133.006 112.967C132.897 113.131 131.805 112.64 130.494 112.913C129.184 113.131 128.31 114.005 128.146 113.896C128.037 113.841 128.146 113.513 128.529 113.131C128.911 112.749 129.566 112.312 130.385 112.148C131.204 111.985 131.968 112.148 132.46 112.421C132.897 112.64 133.115 112.913 133.006 112.967Z" fill="#3F3F40"/>
<path d="M121.212 119.246C121.376 119.902 120.939 120.557 120.229 120.721C119.574 120.884 118.864 120.502 118.755 119.847C118.591 119.192 119.028 118.537 119.683 118.373C120.393 118.209 121.048 118.591 121.212 119.246Z" fill="#3F3F40"/>
<path d="M119.956 115.697C119.847 115.861 118.755 115.37 117.445 115.643C116.134 115.861 115.261 116.735 115.097 116.626C114.988 116.571 115.097 116.243 115.479 115.861C115.861 115.479 116.516 115.042 117.335 114.878C118.154 114.715 118.919 114.878 119.41 115.151C119.847 115.37 120.065 115.643 119.956 115.697Z" fill="#3F3F40"/>
<path d="M126.672 124.706C126.672 124.652 127.436 124.324 128.747 123.887C129.074 123.778 129.402 123.669 129.402 123.396C129.457 123.123 129.238 122.795 128.965 122.413C128.474 121.649 127.982 120.83 127.491 120.011C125.416 116.571 123.778 113.732 123.942 113.677C124.106 113.568 125.908 116.298 127.982 119.738C128.474 120.557 128.965 121.376 129.457 122.14C129.675 122.522 129.948 122.905 129.893 123.451C129.839 123.724 129.62 123.942 129.402 124.051C129.184 124.16 129.02 124.215 128.856 124.215C127.546 124.597 126.727 124.761 126.672 124.706Z" fill="#3F3F40"/>
<path d="M119.519 111.111C119.41 111.493 118.209 111.329 116.789 111.548C115.37 111.712 114.223 112.203 114.059 111.875C113.95 111.712 114.169 111.384 114.605 111.002C115.042 110.62 115.807 110.292 116.626 110.183C117.499 110.074 118.264 110.183 118.755 110.401C119.301 110.62 119.574 110.947 119.519 111.111Z" fill="#3F3F40"/>
<path d="M132.296 108.217C132.077 108.599 130.931 108.49 129.566 108.709C128.255 108.927 127.163 109.364 126.836 109.091C126.672 108.982 126.836 108.599 127.273 108.217C127.709 107.835 128.474 107.453 129.402 107.289C130.33 107.125 131.149 107.289 131.695 107.507C132.187 107.78 132.405 108.053 132.296 108.217Z" fill="#3F3F40"/>
<path d="M107.781 124.87C107.453 123.56 106.143 122.686 104.832 123.068C103.249 123.505 101.611 124.816 102.375 128.092C103.686 133.988 109.364 131.422 109.309 131.258C109.255 131.204 108.381 127.327 107.781 124.87Z" fill="#FFBE9D"/>
<path d="M107.507 129.347C107.453 129.347 107.398 129.457 107.289 129.566C107.125 129.675 106.852 129.784 106.525 129.73C105.869 129.62 105.105 128.747 104.832 127.709C104.723 127.163 104.668 126.617 104.777 126.181C104.887 125.689 105.05 125.362 105.378 125.198C105.651 125.034 105.924 125.198 106.033 125.362C106.142 125.525 106.142 125.635 106.197 125.635C106.197 125.635 106.306 125.525 106.197 125.252C106.142 125.143 106.033 125.034 105.869 124.925C105.706 124.816 105.487 124.816 105.269 124.925C104.832 125.034 104.504 125.58 104.395 126.071C104.286 126.563 104.231 127.218 104.395 127.819C104.723 129.02 105.542 129.948 106.47 130.003C106.907 130.003 107.234 129.839 107.398 129.62C107.562 129.511 107.562 129.347 107.507 129.347Z" fill="#EB996E"/>
<path d="M126.836 96.9696C126.781 96.8058 126.672 96.6966 126.563 96.5874C125.744 95.7138 124.488 95.3316 123.287 95.4408C122.522 95.2224 121.758 95.0586 121.048 94.9494C119.956 93.6936 118.264 92.9838 116.626 93.093C114.715 93.2568 113.022 94.5126 112.258 96.2598C112.039 96.3144 111.766 96.4236 111.548 96.5328C110.183 95.8776 108.49 95.823 107.071 96.4782C105.487 97.188 104.286 98.6622 103.958 100.355C102.43 100.246 100.901 101.119 100.191 102.484C99.4812 103.849 99.6996 105.596 100.682 106.743C99.7542 107.562 99.0444 108.763 99.2082 110.019C99.4266 111.166 100.682 112.094 101.774 111.766C102.102 114.66 103.03 117.936 103.74 120.83C104.231 122.905 107.125 123.614 107.562 124.979C109.855 132.023 111.439 127.6 109.528 112.531C109.637 112.367 109.801 112.258 109.91 112.039C110.183 111.712 110.183 111.329 110.401 110.947C110.674 110.51 111.275 110.51 111.766 110.456C113.513 110.292 115.042 108.763 115.151 107.016C115.697 107.617 116.735 107.344 117.335 106.798C117.936 106.252 118.209 105.433 118.646 104.777C119.028 104.068 119.683 103.412 120.502 103.358C120.939 103.358 121.43 103.522 121.867 103.412C122.632 103.194 122.85 102.211 122.795 101.392C122.795 100.737 122.741 99.9726 123.068 99.4266C123.505 99.099 123.942 98.8806 124.488 98.7168C124.816 98.7168 125.089 98.7168 125.416 98.6622C125.58 98.6622 125.689 98.6622 125.853 98.6076C126.017 98.6076 126.235 98.6622 126.454 98.7168C129.293 99.4812 132.623 104.504 132.623 104.504C132.023 101.065 129.62 98.553 126.836 96.9696Z" fill="#3F3F40"/>
<path d="M99.918 107.18C99.918 107.18 99.918 107.125 99.9726 107.071C100.027 107.016 100.027 106.907 100.136 106.798C100.3 106.579 100.519 106.252 100.955 105.924C101.338 105.651 101.938 105.323 102.648 105.214C103.358 105.105 104.231 105.16 104.996 105.596L104.832 105.651C104.887 104.45 105.542 103.139 106.743 102.211C107.289 101.774 107.999 101.392 108.763 101.174C109.528 100.955 110.347 100.846 111.111 100.901C112.694 100.955 114.169 101.447 115.424 101.993L115.261 102.102C115.534 100.628 116.407 99.4812 117.39 98.7714C118.373 98.0616 119.465 97.8432 120.338 97.8432C121.212 97.8432 121.922 98.0616 122.359 98.2254C122.577 98.3346 122.741 98.3892 122.85 98.4438C122.959 98.4984 123.014 98.553 123.014 98.553C123.014 98.553 122.795 98.4438 122.359 98.28C121.922 98.1162 121.267 97.9524 120.393 97.9524C119.519 97.9524 118.482 98.2254 117.554 98.9352C116.626 99.645 115.807 100.737 115.534 102.102L115.479 102.266L115.37 102.211C114.114 101.665 112.694 101.174 111.111 101.119C110.347 101.065 109.528 101.174 108.818 101.392C108.108 101.611 107.453 101.938 106.907 102.375C105.815 103.249 105.105 104.504 105.05 105.651V105.815L104.887 105.706C104.177 105.269 103.358 105.16 102.648 105.269C101.938 105.378 101.392 105.651 101.01 105.924C100.136 106.634 99.9726 107.234 99.918 107.18Z" fill="#455A64"/>
<path d="M122.959 99.099C122.959 99.099 122.959 99.2082 122.905 99.372C122.85 99.5358 122.85 99.7542 122.795 100.082C122.795 100.409 122.795 100.792 122.741 101.283C122.686 101.72 122.741 102.32 122.413 102.866C122.249 103.139 121.976 103.358 121.649 103.467C121.321 103.576 120.994 103.576 120.611 103.576C120.284 103.576 119.902 103.631 119.629 103.849C119.356 104.068 119.083 104.341 118.919 104.668C118.7 104.996 118.537 105.378 118.318 105.76C118.1 106.142 117.936 106.525 117.608 106.852C117.281 107.18 116.844 107.398 116.407 107.562C116.189 107.617 115.916 107.671 115.697 107.671C115.424 107.671 115.151 107.562 114.988 107.344L115.206 107.289C115.206 107.671 115.151 107.999 114.988 108.381C114.878 108.709 114.66 109.036 114.442 109.364C113.95 109.964 113.295 110.401 112.531 110.62C112.203 110.729 111.93 110.783 111.602 110.838C111.275 110.893 111.002 110.838 110.729 111.002C110.456 111.111 110.292 111.329 110.183 111.602C110.019 111.875 109.855 112.148 109.691 112.367C108.982 113.35 108.053 114.169 106.907 114.387C105.76 114.551 104.723 114.223 103.904 113.732C103.085 113.186 102.484 112.476 102.157 111.712L102.266 111.766C101.556 112.094 100.792 111.93 100.246 111.657C99.6996 111.384 99.372 110.893 99.2082 110.51C99.0444 110.128 99.0444 109.801 99.0444 109.582C99.0444 109.473 99.0444 109.364 99.099 109.309C99.099 109.255 99.099 109.2 99.099 109.255C99.1536 109.255 98.9898 109.746 99.3174 110.51C99.4812 110.893 99.8088 111.329 100.3 111.548C100.792 111.821 101.501 111.875 102.211 111.602L102.266 111.548L102.32 111.602C102.648 112.312 103.194 113.022 104.013 113.513C104.777 114.005 105.815 114.332 106.852 114.114C107.89 113.896 108.818 113.131 109.473 112.203C109.637 111.985 109.801 111.712 109.91 111.439C110.019 111.166 110.237 110.838 110.565 110.729C110.729 110.674 110.893 110.62 111.056 110.565L111.548 110.51C111.875 110.456 112.148 110.401 112.421 110.292C113.131 110.074 113.786 109.637 114.223 109.091C114.442 108.818 114.605 108.49 114.769 108.163C114.878 107.835 114.933 107.507 114.988 107.18V106.907L115.206 107.125C115.479 107.453 115.97 107.398 116.407 107.289C116.844 107.18 117.226 106.961 117.554 106.688C117.881 106.415 118.045 105.979 118.209 105.651C118.427 105.269 118.591 104.941 118.81 104.559C119.028 104.231 119.301 103.904 119.629 103.685C119.956 103.467 120.393 103.412 120.721 103.412C121.048 103.412 121.43 103.412 121.703 103.303C121.976 103.249 122.249 103.03 122.359 102.812C122.632 102.32 122.632 101.774 122.686 101.338C122.686 100.901 122.741 100.464 122.741 100.136C122.795 99.8088 122.85 99.5904 122.85 99.4266C122.905 99.1536 122.959 99.099 122.959 99.099Z" fill="#455A64"/>
<path d="M122.959 127.819C122.741 129.457 123.396 131.04 124.979 131.586C125.525 131.804 126.126 131.75 126.672 131.477C127.273 131.149 127.819 130.712 127.982 130.003C128.146 129.347 128.201 128.638 128.037 127.928C126.618 127.873 124.379 127.873 122.959 127.819Z" fill="#EB996E"/>
<path d="M127.709 130.658C127.709 130.658 127.709 130.712 127.655 130.767C127.6 130.822 127.546 130.931 127.436 131.04C127.218 131.258 126.781 131.531 126.235 131.641C125.635 131.75 124.925 131.641 124.27 131.258C123.614 130.822 123.068 130.057 122.959 129.184C122.905 128.965 122.905 128.747 122.905 128.528C122.905 128.31 122.959 128.092 123.068 127.873C123.123 127.764 123.232 127.655 123.396 127.655C123.505 127.6 123.614 127.6 123.724 127.6C123.942 127.6 124.106 127.6 124.324 127.6C125.089 127.655 125.744 127.709 126.29 127.764C127.436 127.873 128.092 127.928 128.092 127.982C128.092 128.037 127.382 128.037 126.235 127.982C125.689 127.928 124.979 127.873 124.27 127.873C124.106 127.873 123.887 127.873 123.724 127.873C123.505 127.873 123.396 127.928 123.341 128.037C123.232 128.146 123.232 128.365 123.232 128.583C123.232 128.801 123.232 128.965 123.287 129.184C123.396 130.003 123.887 130.712 124.488 131.095C125.089 131.477 125.744 131.586 126.29 131.531C126.836 131.477 127.218 131.258 127.491 131.04C127.546 130.767 127.655 130.603 127.709 130.658Z" fill="#3F3F40"/>
<path d="M160.688 111.821C160.688 111.821 167.622 110.947 177.996 102.703C188.37 94.458 194.049 82.6644 195.195 82.8282C196.342 82.992 201.693 81.1356 209.391 103.085C217.09 125.089 212.831 129.62 210.92 129.402C209.009 129.184 196.233 124.27 187.988 124.433C179.743 124.597 168.823 127.873 168.823 127.873L160.688 111.821Z" fill="#FF5922"/>
<path d="M148.239 128.255L151.897 127.436L149.932 122.577L146.765 124.16L148.239 128.255Z" fill="#455A64"/>
<path d="M148.676 122.468L150.041 126.563L150.914 128.638C152.061 131.477 155.282 132.896 158.176 131.859L173.191 127.655L166.639 108.654L151.733 114.933C148.84 116.134 147.42 119.519 148.676 122.468Z" fill="#3F3F40"/>
<path d="M154.027 128.747L159.05 137.647L161.343 136.882L177.013 148.567L180.89 140.104C180.89 140.104 171.772 136.609 169.97 133.497C168.168 130.385 170.079 129.566 170.079 129.566L165.656 124.925L154.027 128.747Z" fill="#3F3F40"/>
<path d="M208.518 103.412C212.613 115.315 213.814 125.689 211.193 126.617C208.572 127.491 203.167 118.591 199.072 106.688C194.977 94.7856 193.776 84.4116 196.396 83.4834C199.017 82.5552 204.477 91.5096 208.518 103.412Z" fill="#3F3F40"/>
<path d="M198.253 99.8634C198.253 99.8634 204.477 96.7512 206.934 105.05C209.391 113.295 203.112 114.059 203.112 114.059C200.928 109.855 199.29 105.16 198.253 99.8634Z" fill="#FAFAFA"/>
<path d="M192.902 89.817C192.847 89.817 192.902 90.363 193.011 91.3458C193.12 92.3286 193.229 93.7482 193.448 95.55C193.612 96.4236 193.775 97.4064 193.994 98.3892C194.103 98.8806 194.212 99.4266 194.321 99.9726C194.376 100.246 194.431 100.519 194.485 100.792C194.54 101.065 194.649 101.338 194.704 101.611C195.031 102.757 195.359 103.958 195.686 105.16C195.796 105.487 195.85 105.76 195.959 106.088C196.069 106.415 196.178 106.688 196.287 107.016C196.505 107.617 196.778 108.272 196.997 108.927C197.215 109.582 197.488 110.183 197.707 110.838C197.816 111.166 197.925 111.439 198.089 111.766C198.253 112.039 198.362 112.367 198.526 112.64C199.072 113.786 199.618 114.933 200.109 115.97C200.218 116.243 200.327 116.516 200.491 116.735C200.655 117.008 200.764 117.226 200.928 117.499C201.201 117.991 201.474 118.427 201.747 118.919C202.293 119.847 202.784 120.666 203.221 121.43C204.204 122.905 205.078 124.051 205.624 124.87C206.224 125.689 206.552 126.126 206.552 126.071C206.606 126.071 206.279 125.58 205.787 124.761C205.241 123.887 204.477 122.686 203.494 121.212C203.057 120.448 202.621 119.574 202.075 118.7C201.802 118.264 201.583 117.772 201.31 117.281C201.201 117.062 201.037 116.789 200.873 116.571C200.764 116.298 200.655 116.025 200.491 115.807C200 114.769 199.508 113.623 198.962 112.476C198.853 112.203 198.689 111.875 198.58 111.602C198.416 111.329 198.362 111.002 198.198 110.674C197.98 110.074 197.761 109.418 197.488 108.818C197.27 108.163 196.997 107.562 196.778 106.961C196.669 106.634 196.56 106.361 196.451 106.033C196.342 105.706 196.287 105.433 196.178 105.105C195.796 103.904 195.468 102.703 195.14 101.556C195.086 101.283 194.977 101.01 194.922 100.737C194.867 100.464 194.813 100.191 194.758 99.918C194.649 99.372 194.54 98.826 194.431 98.3346C194.212 97.2972 193.994 96.369 193.83 95.4954C193.557 93.7482 193.393 92.3286 193.229 91.3458C193.011 90.363 192.902 89.817 192.902 89.817Z" fill="#3F3F40"/>
<path d="M173.082 127.655C173.082 127.655 172.864 127.764 172.427 127.873C171.936 127.982 171.335 128.146 170.571 128.365C168.987 128.747 166.858 129.347 164.455 130.003C162.053 130.658 159.924 131.258 158.34 131.641C157.576 131.859 156.921 131.968 156.484 132.077C156.047 132.187 155.774 132.187 155.774 132.187C155.774 132.187 155.992 132.077 156.429 131.968C156.921 131.804 157.521 131.641 158.286 131.422C159.924 130.985 162.053 130.385 164.401 129.675C166.803 129.02 168.987 128.474 170.571 128.092C171.39 127.928 171.99 127.764 172.427 127.709C172.864 127.655 173.082 127.655 173.082 127.655Z" fill="#455A64"/>
<path d="M164.291 124.543C164.291 124.597 163.745 124.816 162.817 125.143C161.889 125.471 160.633 125.908 159.159 126.344C157.739 126.781 156.429 127.109 155.446 127.327C154.463 127.546 153.863 127.655 153.863 127.6C153.863 127.546 154.463 127.382 155.392 127.109C156.32 126.836 157.63 126.454 159.05 126.071C160.469 125.635 161.78 125.252 162.708 124.925C163.691 124.706 164.291 124.488 164.291 124.543Z" fill="#455A64"/>
<path d="M161.889 120.229C161.889 120.284 159.814 120.994 157.248 121.758C154.682 122.522 152.552 123.123 152.552 123.014C152.552 122.959 154.627 122.249 157.193 121.485C159.76 120.721 161.889 120.12 161.889 120.229Z" fill="#455A64"/>
<path d="M159.596 116.025C159.65 116.08 157.849 116.953 155.665 117.881C153.481 118.864 151.624 119.574 151.624 119.519C151.57 119.465 153.371 118.591 155.555 117.663C157.739 116.68 159.541 115.97 159.596 116.025Z" fill="#455A64"/>
<path d="M142.724 163.036L133.606 147.693L110.074 146.71V148.84C110.074 148.84 103.631 155.337 101.501 164.182C99.918 170.898 106.579 196.505 108.436 205.351C110.729 216.271 113.896 230.084 113.896 230.084C113.404 232.541 110.292 234.507 110.51 237.783L162.872 237.182L160.196 226.59L142.724 163.036Z" fill="#FF5922"/>
<path d="M160.852 230.685C160.852 230.74 150.423 230.849 137.592 230.849C124.761 230.849 114.333 230.794 114.333 230.685C114.333 230.576 124.761 230.521 137.592 230.521C150.423 230.521 160.852 230.63 160.852 230.685Z" fill="white"/>
<path d="M157.248 217.581C157.248 217.636 146.929 217.745 134.207 217.745C121.485 217.745 111.166 217.69 111.166 217.581C111.166 217.472 121.485 217.417 134.207 217.417C146.929 217.417 157.248 217.472 157.248 217.581Z" fill="white"/>
<path d="M153.699 203.276C153.699 203.33 143.598 203.44 131.149 203.44C118.7 203.44 108.599 203.385 108.599 203.276C108.599 203.167 118.7 203.112 131.149 203.112C143.598 203.167 153.699 203.221 153.699 203.276Z" fill="white"/>
<path d="M151.187 188.916C151.187 188.971 140.759 189.08 127.928 189.08C115.097 189.08 104.668 189.025 104.668 188.916C104.668 188.861 115.097 188.752 127.928 188.752C140.813 188.752 151.187 188.861 151.187 188.916Z" fill="white"/>
<path d="M145.728 171.116C145.728 171.171 135.9 171.28 123.724 171.28C111.603 171.28 101.72 171.226 101.72 171.116C101.72 171.062 111.548 170.953 123.724 170.953C135.845 170.953 145.728 171.007 145.728 171.116Z" fill="white"/>
<path d="M138.193 154.791C138.193 154.846 130.931 154.955 121.976 154.955C113.022 154.955 105.76 154.9 105.76 154.791C105.76 154.682 113.022 154.627 121.976 154.627C130.931 154.627 138.193 154.682 138.193 154.791Z" fill="white"/>
<path opacity="0.3" d="M108.217 172.481C108.217 172.481 111.548 178.378 116.789 182.746C122.031 187.114 138.029 194.922 138.029 194.922L139.339 192.137L151.297 194.922L149.058 187.551L108.217 172.481Z" fill="#3F3F40"/>
<path d="M164.346 153.098L160.196 175.703L124.488 158.777L118.755 178.924C132.787 185.804 161.179 197.215 164.837 196.888C170.024 196.396 173.628 193.339 175.266 185.695C176.249 180.999 175.812 149.386 175.812 149.386L164.346 153.098Z" fill="#FFBE9D"/>
<path d="M126.836 155.719C126.836 155.719 113.513 147.475 107.671 157.849C103.522 168.004 108.108 176.085 118.373 181.108C123.341 183.511 130.057 186.514 136.882 189.353L146.819 167.294L126.836 155.719Z" fill="#FF5922"/>
<path d="M126.836 155.719C126.836 155.719 126.945 155.774 127.218 155.938C127.491 156.101 127.819 156.265 128.255 156.538C129.184 157.084 130.549 157.849 132.296 158.831C135.79 160.852 140.813 163.745 146.874 167.24L146.983 167.294L146.929 167.404C144.089 173.683 140.704 181.217 137.046 189.462L136.991 189.571L136.882 189.517C133.388 188.042 129.784 186.514 126.126 184.876C124.488 184.166 122.905 183.401 121.321 182.692C119.738 181.927 118.209 181.217 116.68 180.398C115.97 179.962 115.206 179.525 114.551 179.088C113.896 178.597 113.186 178.16 112.531 177.614C111.22 176.576 110.128 175.375 109.145 174.174C108.927 173.846 108.709 173.519 108.49 173.191C108.272 172.864 108.108 172.536 107.89 172.208C107.453 171.553 107.234 170.843 106.907 170.134C106.798 169.751 106.688 169.424 106.579 169.042L106.415 168.496C106.361 168.332 106.361 168.113 106.306 167.95C106.252 167.567 106.197 167.24 106.142 166.858C106.088 166.475 106.088 166.148 106.088 165.766C106.033 165.056 106.088 164.346 106.142 163.636C106.197 162.926 106.361 162.271 106.415 161.616C106.579 160.961 106.743 160.306 106.907 159.705C107.125 159.104 107.344 158.504 107.562 157.903C108.381 156.429 109.473 155.228 110.729 154.354C111.985 153.481 113.35 152.989 114.715 152.771C117.39 152.389 119.683 152.88 121.485 153.426C123.287 153.972 124.652 154.627 125.525 155.064C125.962 155.282 126.29 155.501 126.508 155.61C126.727 155.665 126.836 155.719 126.836 155.719C126.836 155.719 126.727 155.665 126.508 155.555C126.29 155.446 125.962 155.282 125.525 155.064C124.652 154.627 123.287 154.027 121.485 153.481C119.683 152.989 117.39 152.498 114.769 152.88C113.459 153.098 112.094 153.59 110.893 154.409C109.691 155.282 108.599 156.484 107.835 157.903C107.617 158.504 107.398 159.104 107.18 159.705C107.016 160.306 106.852 160.961 106.688 161.616C106.579 162.271 106.47 162.926 106.415 163.636C106.415 164.346 106.306 165.001 106.361 165.711C106.361 166.039 106.415 166.421 106.415 166.803C106.47 167.131 106.525 167.513 106.579 167.895C106.634 168.059 106.634 168.277 106.688 168.441L106.852 168.987C106.961 169.315 107.071 169.697 107.18 170.024C107.453 170.68 107.726 171.444 108.163 172.045C108.381 172.372 108.49 172.754 108.763 173.027C108.982 173.355 109.2 173.683 109.418 173.956C110.401 175.157 111.493 176.358 112.749 177.341C113.35 177.887 114.059 178.324 114.715 178.815C115.424 179.252 116.134 179.689 116.844 180.125C118.318 180.944 119.847 181.654 121.43 182.419C123.014 183.128 124.597 183.893 126.235 184.603C129.893 186.241 133.497 187.769 136.991 189.244L136.828 189.298C140.54 181.108 143.926 173.573 146.765 167.294L146.819 167.458C140.759 163.909 135.736 160.961 132.241 158.941C130.494 157.903 129.184 157.139 128.255 156.593C127.819 156.32 127.436 156.101 127.218 155.992C126.945 155.828 126.836 155.719 126.836 155.719Z" fill="#3F3F40"/>
<path d="M163.8 156.975L164.619 148.567C164.619 148.567 161.398 142.069 161.452 141.414C161.507 140.759 161.725 137.21 161.725 137.21L169.806 129.948C169.806 129.948 172.427 129.948 172.481 132.514C172.481 132.514 174.993 131.968 175.047 134.971C175.047 134.971 177.778 135.08 177.832 137.264C177.832 137.264 179.47 137.046 179.416 139.339C179.361 140.977 178.651 147.311 178.651 147.311L175.266 153.153L174.993 158.995L163.8 156.975Z" fill="#FFBE9D"/>
<path d="M164.619 184.002C164.51 184.057 163.909 181.982 162.708 179.689C161.507 177.395 160.087 175.812 160.142 175.757C160.142 175.757 160.524 176.085 161.07 176.795C161.616 177.45 162.326 178.433 162.927 179.579C163.527 180.726 163.964 181.873 164.237 182.692C164.565 183.456 164.674 184.002 164.619 184.002Z" fill="#EB996E"/>
<path d="M118.755 152.935C118.755 152.935 118.646 153.208 118.427 153.699C118.209 154.19 117.827 154.9 117.335 155.719C116.407 157.412 115.097 159.76 113.623 162.326C112.148 164.892 110.838 167.185 109.855 168.878C109.364 169.697 108.982 170.352 108.709 170.843C108.436 171.335 108.272 171.553 108.272 171.553C108.272 171.553 108.381 171.28 108.599 170.789C108.818 170.297 109.2 169.588 109.691 168.769C110.62 167.076 111.93 164.728 113.404 162.162C114.878 159.596 116.189 157.303 117.172 155.61C117.663 154.791 118.045 154.136 118.318 153.644C118.591 153.153 118.7 152.935 118.755 152.935Z" fill="white"/>
<path d="M129.62 157.685C129.62 157.685 129.62 157.794 129.511 157.958C129.402 158.122 129.347 158.395 129.238 158.668C128.965 159.268 128.583 160.087 128.092 161.125C127.109 163.199 125.635 166.039 123.942 169.151C122.249 172.263 120.666 175.048 119.465 177.013C118.864 177.996 118.373 178.815 118.045 179.361C117.881 179.634 117.772 179.798 117.663 179.962C117.554 180.125 117.499 180.18 117.499 180.18C117.499 180.18 117.554 180.071 117.608 179.962C117.718 179.798 117.827 179.579 117.991 179.306C118.318 178.706 118.81 177.887 119.356 176.904C120.502 174.884 122.086 172.099 123.778 168.987C125.471 165.875 126.945 163.036 127.982 160.961C128.474 159.978 128.911 159.159 129.238 158.504C129.402 158.231 129.511 158.012 129.566 157.849C129.566 157.794 129.62 157.685 129.62 157.685Z" fill="white"/>
<path d="M141.796 164.51C141.796 164.51 141.687 164.837 141.469 165.438C141.25 166.039 140.868 166.858 140.431 167.84C139.558 169.861 138.193 172.591 136.555 175.539C134.917 178.487 133.279 181.054 132.023 182.91C131.422 183.838 130.876 184.548 130.494 185.039C130.112 185.531 129.893 185.804 129.893 185.804C129.893 185.804 130.057 185.476 130.385 184.985C130.767 184.439 131.258 183.674 131.804 182.801C133.006 180.944 134.589 178.378 136.227 175.43C137.865 172.481 139.23 169.751 140.158 167.786C140.595 166.803 140.977 166.039 141.25 165.438C141.632 164.837 141.796 164.51 141.796 164.51Z" fill="white"/>
<path d="M110.073 247.884L111.22 237.783L161.124 237.237L162.435 247.884H110.073Z" fill="#3F3F40"/>
<path d="M171.935 247.01C171.935 247.065 156.538 247.174 137.592 247.174C118.591 247.174 103.249 247.12 103.249 247.01C103.249 246.956 118.646 246.847 137.592 246.847C156.538 246.847 171.935 246.956 171.935 247.01Z" fill="#455A64"/>
<path d="M144.089 73.71H125.525C124.925 73.71 124.433 73.2186 124.433 72.618V71.799C124.433 71.1984 124.925 70.707 125.525 70.707H144.089C144.69 70.707 145.181 71.1984 145.181 71.799V72.618C145.181 73.2186 144.69 73.71 144.089 73.71Z" fill="#455A64"/>
<path d="M150.259 72.1812C150.259 73.0002 149.604 73.71 148.73 73.71C147.857 73.71 147.202 73.0548 147.202 72.1812C147.202 71.3622 147.857 70.6524 148.73 70.6524C149.604 70.6524 150.259 71.3622 150.259 72.1812Z" fill="#455A64"/>
<path d="M88.5612 119.519H87.3054C85.449 119.519 83.9202 117.991 83.9202 116.134V97.5702C83.9202 95.7138 85.449 94.185 87.3054 94.185H88.5612V119.519Z" fill="#3F3F40"/>
<path d="M88.2335 156.32H86.9777C85.1213 156.32 83.5925 154.791 83.5925 152.935V134.371C83.5925 132.514 85.1213 130.985 86.9777 130.985H88.2335V156.32Z" fill="#3F3F40"/>
<path d="M87.0869 168.55C87.0323 168.55 86.9231 150.15 86.9231 127.491C86.9231 104.777 86.9777 86.4318 87.0869 86.4318C87.1415 86.4318 87.2507 104.832 87.2507 127.491C87.2507 150.15 87.1961 168.55 87.0869 168.55Z" fill="#455A64"/>
<path d="M70.0517 198.034H17.4173C13.9775 198.034 11.1929 195.25 11.1929 191.81V151.406C11.1929 147.966 13.9775 145.181 17.4173 145.181H70.0517C73.4915 145.181 76.2761 147.966 76.2761 151.406V191.81C76.2761 195.25 73.4915 198.034 70.0517 198.034Z" fill="white"/>
<path d="M46.3555 196.451C47.0107 198.089 59.9509 210.21 59.9509 210.21V196.451H46.3555Z" fill="#FF5922"/>
<path d="M55.419 156.92C54.8184 154.846 53.2896 153.098 51.3786 152.116C49.2492 151.024 46.7376 150.969 44.4444 151.46C42.1512 152.006 40.0218 153.098 38.0016 154.354C36.855 155.064 35.763 155.828 34.944 156.866C33.4698 158.831 32.1048 161.944 31.9956 164.401C31.941 166.366 32.8146 171.226 33.6882 172.973C34.0158 173.573 34.7256 174.174 35.5992 174.611C36.5274 176.358 37.7832 177.887 39.2574 179.197C39.6942 177.887 40.0764 176.522 40.5132 175.211L55.419 156.92Z" fill="#3F3F40"/>
<path d="M54.2177 154.573L50.3411 153.972C52.5797 158.941 53.5079 170.407 54.8729 175.648C56.2379 173.519 59.3501 167.185 59.1317 164.674C58.8587 162.217 58.8041 154.027 54.2177 154.573Z" fill="#3F3F40"/>
<path d="M36.1452 163.418C36.2544 160.469 38.1108 158.012 40.95 157.193L49.7406 154.682C53.5626 154.136 56.238 158.831 56.6202 162.653C57.0024 166.912 57.33 171.444 56.8932 174.665C56.0742 181.108 51.1602 182.091 51.1602 182.091C51.1602 182.091 51.2694 185.149 51.2694 187.005L49.8498 195.413L38.22 185.476L36.0906 163.472C36.1452 163.418 36.1452 163.582 36.1452 163.418Z" fill="#FFBF9D"/>
<path d="M54.7091 168.004C54.7637 168.441 54.3815 168.823 53.9447 168.878C53.5079 168.932 53.1257 168.605 53.0711 168.168C53.0165 167.731 53.3987 167.349 53.8355 167.294C54.2723 167.294 54.7091 167.567 54.7091 168.004Z" fill="#3F3F40"/>
<path d="M55.7464 165.22C55.6372 165.329 55.0366 164.892 54.1084 164.892C53.2348 164.892 52.5796 165.383 52.4704 165.274C52.4158 165.22 52.525 165.056 52.798 164.837C53.071 164.619 53.5624 164.401 54.1084 164.401C54.6544 164.401 55.1458 164.564 55.4188 164.783C55.6918 165.001 55.801 165.165 55.7464 165.22Z" fill="#3F3F40"/>
<path d="M46.7375 168.004C46.7921 168.441 46.4099 168.823 45.9731 168.878C45.5363 168.932 45.1541 168.605 45.0995 168.168C45.0449 167.731 45.4271 167.349 45.8639 167.294C46.3007 167.294 46.6829 167.567 46.7375 168.004Z" fill="#3F3F40"/>
<path d="M47.3382 165.493C47.229 165.602 46.5738 165.165 45.7002 165.165C44.8266 165.165 44.1714 165.656 44.0622 165.547C44.0076 165.493 44.1168 165.329 44.3898 165.11C44.6628 164.892 45.1542 164.674 45.7002 164.674C46.2462 164.674 46.7376 164.837 47.0106 165.056C47.2836 165.22 47.3928 165.438 47.3382 165.493Z" fill="#3F3F40"/>
<path d="M50.2865 172.372C50.2865 172.318 50.8325 172.208 51.7061 172.045C51.9245 171.99 52.1429 171.99 52.1975 171.826C52.2521 171.662 52.1429 171.444 52.0337 171.171C51.8153 170.625 51.5423 170.079 51.3239 169.478C50.3411 167.076 49.5767 165.056 49.6859 165.001C49.7951 164.947 50.6687 166.912 51.7061 169.315C51.9245 169.915 52.1975 170.461 52.4159 171.007C52.5251 171.28 52.6889 171.553 52.5797 171.881C52.5251 172.045 52.3613 172.154 52.1975 172.208C52.0337 172.263 51.9245 172.263 51.8153 172.263C50.8871 172.372 50.3411 172.427 50.2865 172.372Z" fill="#3F3F40"/>
<path d="M42.6426 180.071C42.6426 180.071 44.8812 184.439 51.2694 183.62L51.2148 182.091C51.2148 182.091 47.0106 182.473 42.6426 180.071Z" fill="#FF9A6C"/>
<path d="M46.9559 162.271C46.9013 162.49 45.9731 162.435 44.9357 162.599C43.8983 162.763 43.0793 163.09 42.9155 162.872C42.8609 162.763 42.9701 162.544 43.2977 162.271C43.6253 162.053 44.1713 161.78 44.7719 161.725C45.3725 161.616 45.9731 161.725 46.3553 161.834C46.7921 161.998 47.0105 162.162 46.9559 162.271Z" fill="#3F3F40"/>
<path d="M55.4188 162.544C55.255 162.763 54.6544 162.544 53.9446 162.599C53.2348 162.599 52.5796 162.763 52.4704 162.544C52.4158 162.435 52.4704 162.217 52.7434 162.053C53.0164 161.834 53.4532 161.671 53.9446 161.671C54.436 161.671 54.8728 161.834 55.1458 162.053C55.3642 162.217 55.4734 162.435 55.4188 162.544Z" fill="#3F3F40"/>
<path d="M54.7637 156.866C54.3269 155.938 53.2895 155.337 52.1975 155.337C51.1601 155.337 50.1227 155.719 49.2491 156.265C45.4817 158.558 43.6799 163.964 39.9671 166.366C39.0389 166.967 37.8377 166.475 37.0733 167.24C36.3089 168.004 35.8175 169.205 36.3089 170.188C35.7629 169.533 35.2715 168.823 34.9439 168.004C34.6163 167.185 34.5617 166.257 34.9985 165.493C35.3261 164.892 35.8721 164.455 36.0359 163.855C36.1451 163.309 35.9267 162.708 35.9267 162.162C35.9267 161.561 36.1997 161.015 36.4727 160.524C37.8923 157.849 39.8579 155.446 42.4241 153.917C44.1167 152.88 46.0277 152.279 47.9933 152.279C49.9589 152.279 51.9245 152.935 53.3987 154.245C54.2177 155.009 55.1459 155.774 54.7637 156.866Z" fill="#3F3F40"/>
<path d="M37.1825 168.059C37.1279 167.895 33.7427 166.748 33.7973 170.352C33.8519 173.792 37.3463 173.027 37.3463 172.918C37.2917 172.809 37.1825 168.059 37.1825 168.059Z" fill="#FFBF9D"/>
<path d="M36.1997 171.608C36.1997 171.608 36.1451 171.662 36.0359 171.717C35.9267 171.772 35.7629 171.826 35.5991 171.717C35.2169 171.608 34.8893 171.007 34.8893 170.407C34.8893 170.079 34.9439 169.806 35.0531 169.533C35.1623 169.26 35.3261 169.096 35.4899 169.042C35.6537 168.987 35.8175 169.096 35.8721 169.205C35.9267 169.315 35.9267 169.369 35.9267 169.369C35.9267 169.369 35.9813 169.315 35.9813 169.151C35.9813 169.096 35.9267 168.987 35.8175 168.932C35.7083 168.878 35.5991 168.823 35.4899 168.878C35.2169 168.878 34.9985 169.151 34.8893 169.424C34.7801 169.697 34.6709 170.024 34.7255 170.407C34.7801 171.116 35.1077 171.772 35.6537 171.881C35.8721 171.935 36.0905 171.881 36.1997 171.772C36.1997 171.717 36.2543 171.608 36.1997 171.608Z" fill="#FF9A6C"/>
<path d="M35.7629 166.312C35.7629 166.312 35.8175 166.257 35.9813 166.202C36.0905 166.093 36.3089 165.984 36.5273 165.82C37.0187 165.438 37.6739 164.892 38.3291 164.073C39.0389 163.254 39.7487 162.217 40.5131 161.015C41.2775 159.869 42.1511 158.558 43.2431 157.357C43.7891 156.757 44.3897 156.265 45.0449 155.828C45.7001 155.392 46.3553 155.119 47.0105 154.846C48.3209 154.354 49.6313 154.245 50.6687 154.3C51.7061 154.354 52.5797 154.518 53.1257 154.736C53.3987 154.791 53.6171 154.9 53.7809 154.955C53.9993 155.064 54.0539 155.064 54.0539 155.064C54.0539 155.064 53.9993 155.009 53.8355 154.955C53.6717 154.9 53.4533 154.791 53.1803 154.682C52.6343 154.463 51.7607 154.245 50.7233 154.245C49.6313 154.19 48.3755 154.3 47.0105 154.791C46.3553 155.009 45.6455 155.337 44.9903 155.774C44.3351 156.211 43.7345 156.702 43.1339 157.303C41.9873 158.504 41.1683 159.814 40.3493 160.961C39.5849 162.162 38.8751 163.199 38.1653 164.018C37.5101 164.837 36.8549 165.438 36.4181 165.82C36.1997 165.984 35.9813 166.148 35.8721 166.202C35.8175 166.257 35.7629 166.312 35.7629 166.312Z" fill="white"/>
<path d="M36.6366 167.294C36.6366 168.223 36.582 169.26 37.0734 170.079C37.5102 170.898 38.6568 171.444 39.4758 170.953C40.131 170.57 40.2948 169.697 40.404 168.932C40.677 166.694 40.7316 164.51 41.0592 162.271L36.6366 167.294Z" fill="#3F3F40"/>
<path d="M53.8356 155.228C53.8356 155.228 53.508 155.173 52.962 155.173C52.416 155.173 51.597 155.282 50.6688 155.665C50.232 155.883 49.7406 156.101 49.2492 156.429C48.7578 156.757 48.2664 157.139 47.775 157.576C46.7922 158.449 45.8094 159.541 44.9904 160.797C44.5536 161.452 44.1714 162.053 43.7892 162.653C43.407 163.254 42.9156 163.8 42.4242 164.237C41.4414 165.165 40.404 165.766 39.5304 166.257C38.6568 166.748 37.947 167.076 37.401 167.349C37.1826 167.458 36.9642 167.567 36.8004 167.622C36.6912 167.677 36.582 167.731 36.582 167.677C36.582 167.677 36.6366 167.622 36.8004 167.567C36.9642 167.513 37.128 167.404 37.3464 167.24C37.8378 166.967 38.5476 166.585 39.4212 166.093C40.2948 165.602 41.2776 164.947 42.2604 164.018C42.7518 163.582 43.1886 163.036 43.5708 162.435C43.953 161.834 44.3352 161.179 44.772 160.579C45.6456 159.323 46.6284 158.231 47.6112 157.357C48.1026 156.92 48.594 156.538 49.0854 156.211C49.5768 155.883 50.0682 155.61 50.5596 155.446C51.4878 155.064 52.3068 155.009 52.9074 155.009C53.1804 155.009 53.3988 155.064 53.5626 155.064C53.781 155.228 53.8356 155.228 53.8356 155.228Z" fill="#455A64"/>
<path d="M36.4726 165.165C36.4726 165.165 36.3634 165.274 36.1996 165.383C35.9812 165.547 35.6536 165.711 35.326 165.929C35.2168 165.984 35.1622 166.039 35.053 166.093C34.9438 166.148 34.8346 166.202 34.6708 166.202C34.6162 166.202 34.507 166.202 34.4524 166.148C34.3978 166.093 34.3432 166.039 34.3432 165.929C34.3432 165.766 34.3978 165.602 34.507 165.493C34.78 165.001 35.1076 164.401 35.4898 163.855L35.6536 163.964C35.326 164.237 34.9438 164.401 34.5616 164.564C34.1794 164.674 33.7426 164.783 33.3058 164.728C33.1966 164.728 33.0874 164.728 32.9782 164.674C32.869 164.619 32.7598 164.564 32.7052 164.455C32.6506 164.346 32.7052 164.182 32.7598 164.128C32.8144 164.018 32.869 163.964 32.9236 163.909C33.415 163.418 33.7972 162.872 34.0702 162.38C34.6162 161.452 34.7254 160.742 34.78 160.742C34.78 160.742 34.78 160.906 34.6708 161.234C34.5616 161.507 34.4524 161.944 34.1794 162.435C33.9064 162.926 33.5788 163.472 33.0328 164.018C32.9236 164.128 32.7598 164.291 32.8144 164.401C32.869 164.51 33.0328 164.564 33.2512 164.564C33.6334 164.564 34.0156 164.51 34.3978 164.401C34.78 164.291 35.1622 164.073 35.4352 163.855L35.8174 163.527L35.5444 163.964C35.2168 164.564 34.8346 165.11 34.5616 165.602C34.507 165.711 34.3978 165.82 34.3978 165.929C34.3978 166.039 34.507 166.093 34.6162 166.093C34.8346 166.093 35.053 165.929 35.2168 165.82C35.5444 165.602 35.872 165.438 36.0904 165.329C36.3634 165.22 36.4726 165.165 36.4726 165.165Z" fill="white"/>
<path d="M47.0105 174.065C47.1197 173.519 47.6657 173.137 48.1571 173.137C48.5393 173.191 48.9215 173.41 49.0853 173.792C49.2491 174.119 49.3037 174.556 49.1945 174.938V175.048C48.8669 175.484 48.2117 175.594 47.7203 175.43C47.2289 175.211 46.9013 174.611 47.0105 174.065Z" fill="#FF9A6C"/>
<path d="M49.7952 175.048C49.7952 174.938 48.9216 174.993 48.2118 174.283C47.502 173.573 47.5566 172.591 47.3928 172.591C47.3382 172.591 47.229 172.809 47.229 173.246C47.229 173.628 47.3928 174.229 47.8296 174.665C48.2664 175.102 48.8124 175.266 49.14 175.266C49.6314 175.211 49.8498 175.102 49.7952 175.048Z" fill="#3F3F40"/>
<path d="M64.1004 191.701L63.9912 191.591C59.514 186.841 51.2694 185.258 51.2694 185.258C51.2694 185.258 50.778 188.37 46.137 188.698C41.496 189.025 38.1108 184.33 38.1108 184.33L31.941 185.203C31.941 185.203 28.8288 185.585 26.9178 186.677C22.5498 189.244 20.2566 198.034 20.2566 198.034L67.7586 198.253L64.1004 191.701Z" fill="#FF5922"/>
<path d="M68.4683 145.236C68.4683 145.236 68.5775 145.236 68.7959 145.236C69.0143 145.236 69.3419 145.236 69.7787 145.345C70.5977 145.509 71.9081 145.837 73.2731 146.874C73.9283 147.365 74.5835 148.075 75.1295 148.949C75.6755 149.822 76.1123 150.914 76.2761 152.116C76.3307 152.716 76.3307 153.371 76.3307 153.972C76.3307 154.627 76.3307 155.282 76.3307 155.992C76.3307 157.357 76.3307 158.831 76.3307 160.36C76.3307 166.53 76.3307 174.01 76.3853 182.582C76.3853 184.712 76.3853 186.896 76.3853 189.189C76.3853 189.735 76.3853 190.336 76.3307 190.882C76.2761 191.482 76.1669 192.028 76.0031 192.629C75.6755 193.775 75.0203 194.813 74.2013 195.686C73.3823 196.56 72.3449 197.27 71.1983 197.707L70.7615 197.87L70.3247 197.98C70.0517 198.089 69.7241 198.089 69.3965 198.143C68.7959 198.198 68.1407 198.198 67.5401 198.198C65.0285 198.198 62.5169 198.198 59.8961 198.198L60.0053 198.089C60.0053 201.911 60.0053 206.006 60.0053 210.21V210.538L59.7869 210.319C57.7667 208.408 55.7465 206.443 53.6717 204.477C51.5969 202.457 49.5221 200.382 47.5019 198.198L47.6111 198.253C41.1683 198.253 34.3979 198.253 27.5729 198.253C25.4981 198.253 23.4233 198.253 21.4031 198.253H19.8743C19.3829 198.253 18.8369 198.253 18.3455 198.198C17.3081 198.089 16.3253 197.816 15.3971 197.379C13.5407 196.451 12.1211 194.813 11.5205 192.902C11.1929 191.974 11.0837 190.936 11.0837 189.953C11.0837 188.971 11.0837 187.988 11.0837 187.005C11.0837 179.197 11.0837 171.662 11.0837 164.51C11.0837 160.906 11.0837 157.412 11.0837 154.027C11.0837 153.208 11.0837 152.334 11.2475 151.46C11.4113 150.641 11.7389 149.822 12.1211 149.113C12.5033 148.403 13.0493 147.748 13.7045 147.202C14.3051 146.656 15.0149 146.164 15.7247 145.837C16.4891 145.509 17.2535 145.291 18.0179 145.181C18.8369 145.072 19.6013 145.127 20.3657 145.127C21.8945 145.127 23.4233 145.127 24.8975 145.127C27.8459 145.127 30.6851 145.127 33.4151 145.127C44.2259 145.127 53.0165 145.181 59.0771 145.181C62.0801 145.181 64.4279 145.181 66.0659 145.181C66.8849 145.181 67.4855 145.181 67.8677 145.181C68.2499 145.181 68.4683 145.236 68.4683 145.236C68.4683 145.236 68.2499 145.236 67.8677 145.236C67.4309 145.236 66.8303 145.236 66.0659 145.236C64.4825 145.236 62.1347 145.236 59.0771 145.236C53.0165 145.236 44.2259 145.236 33.4151 145.291C30.6851 145.291 27.8459 145.291 24.8975 145.291C23.4233 145.291 21.8945 145.291 20.3657 145.291C19.6013 145.291 18.8369 145.291 18.0725 145.345C17.3081 145.4 16.5437 145.673 15.8339 146C15.1241 146.328 14.4689 146.765 13.8683 147.311C13.2677 147.857 12.7763 148.457 12.3395 149.167C11.9573 149.877 11.6297 150.641 11.4659 151.46C11.3021 152.279 11.3021 153.098 11.3021 153.972C11.3021 157.357 11.3021 160.852 11.3021 164.455C11.3021 171.608 11.3021 179.143 11.3021 186.95C11.3021 187.933 11.3021 188.916 11.3021 189.899C11.3021 190.882 11.4113 191.864 11.7389 192.793C12.3395 194.649 13.7591 196.232 15.5063 197.106C16.3799 197.543 17.3627 197.816 18.3455 197.925C18.8369 197.98 19.3283 197.98 19.8743 197.98H21.4031C23.4233 197.98 25.4981 197.98 27.5729 197.98C34.4525 197.98 41.1683 197.98 47.6111 197.98H47.6657L47.7203 198.034C49.7405 200.218 51.8153 202.293 53.8901 204.313C55.9649 206.333 57.9851 208.299 60.0053 210.155L59.7869 210.265C59.7869 206.06 59.7869 201.965 59.7869 198.143V198.034H59.8961C62.5169 198.034 65.0285 198.034 67.5401 198.034C68.1407 198.034 68.7959 198.034 69.3965 197.98C69.6695 197.925 69.9971 197.925 70.2701 197.816L70.7069 197.707L71.1437 197.543C72.2903 197.106 73.2731 196.451 74.0921 195.577C74.9111 194.704 75.5117 193.666 75.8393 192.574C76.0031 192.028 76.1123 191.482 76.1669 190.882C76.2215 190.336 76.1669 189.735 76.2215 189.189C76.2215 186.95 76.2215 184.712 76.2215 182.582C76.2215 174.065 76.2215 166.585 76.2761 160.36C76.2761 158.831 76.2761 157.357 76.2761 155.992C76.2761 155.282 76.2761 154.627 76.2761 153.972C76.2761 153.317 76.2761 152.716 76.2215 152.116C76.0577 150.914 75.6755 149.877 75.1295 149.003C74.5835 148.13 73.9283 147.475 73.2731 146.929C71.9627 145.891 70.6523 145.564 69.8333 145.4C69.3965 145.345 69.0689 145.291 68.8505 145.291C68.5775 145.236 68.4683 145.236 68.4683 145.236Z" fill="#3F3F40"/>
<path d="M193.557 211.466H255.583C259.022 211.466 261.862 208.681 261.862 205.187V157.193C261.862 153.754 259.077 150.914 255.583 150.914H193.557C190.117 150.914 187.278 153.699 187.278 157.193V205.187C187.278 208.627 190.063 211.466 193.557 211.466Z" fill="white"/>
<path d="M221.567 209.609C220.802 211.466 206.006 225.334 206.006 225.334V209.609H221.567Z" fill="#455A64"/>
<path d="M215.834 196.942C215.834 195.031 215.834 193.448 215.834 193.229C215.834 193.229 209.391 192.629 208.9 186.241C208.681 183.128 208.736 176.74 208.845 170.953C208.954 164.728 213.868 159.65 220.093 159.268L220.693 159.214C227.354 159.214 231.122 164.892 230.958 171.553L230.74 196.615L219.929 205.296L219.164 205.241L215.834 196.942Z" fill="#FFBF9D"/>
<path d="M215.834 193.229C215.834 193.229 219.874 193.229 224.024 190.281C224.024 190.281 222.277 195.086 215.834 194.867V193.229Z" fill="#FF9A6C"/>
<path d="M219.765 173.683C219.874 173.792 220.639 173.246 221.731 173.191C222.823 173.137 223.587 173.737 223.696 173.573C223.751 173.519 223.642 173.3 223.26 173.027C222.932 172.754 222.331 172.536 221.676 172.536C221.021 172.536 220.475 172.809 220.147 173.082C219.765 173.41 219.656 173.628 219.765 173.683Z" fill="#3F3F40"/>
<path d="M220.53 176.631C220.53 177.068 220.912 177.45 221.403 177.45C221.895 177.45 222.277 177.068 222.222 176.631C222.222 176.194 221.84 175.812 221.349 175.812C220.912 175.757 220.53 176.14 220.53 176.631Z" fill="#3F3F40"/>
<path d="M216.98 181.108C216.98 181.054 216.38 180.999 215.342 180.89C215.069 180.89 214.851 180.835 214.796 180.671C214.742 180.508 214.796 180.235 214.906 179.907C215.124 179.306 215.288 178.651 215.561 177.941C216.434 175.157 217.035 172.864 216.926 172.864C216.817 172.809 215.998 175.048 215.124 177.832C214.906 178.542 214.742 179.197 214.523 179.798C214.469 180.071 214.305 180.398 214.469 180.781C214.523 180.944 214.742 181.108 214.906 181.108C215.069 181.163 215.233 181.163 215.342 181.163C216.325 181.163 216.98 181.163 216.98 181.108Z" fill="#3F3F40"/>
<path d="M220.256 170.243C220.366 170.461 221.239 170.297 222.222 170.407C223.259 170.461 224.078 170.734 224.188 170.461C224.242 170.352 224.078 170.134 223.751 169.915C223.423 169.697 222.877 169.533 222.277 169.478C221.676 169.424 221.13 169.588 220.748 169.751C220.42 169.915 220.202 170.134 220.256 170.243Z" fill="#3F3F40"/>
<path d="M210.21 170.843C210.319 171.062 211.138 170.843 212.176 170.789C213.213 170.734 214.032 170.898 214.141 170.734C214.196 170.625 214.032 170.461 213.65 170.297C213.322 170.134 212.776 170.024 212.176 170.024C211.575 170.024 211.029 170.188 210.702 170.352C210.319 170.57 210.156 170.789 210.21 170.843Z" fill="#3F3F40"/>
<path d="M230.74 176.303C230.849 176.249 235.053 174.72 235.162 179.143C235.272 183.511 230.849 182.746 230.849 182.637C230.849 182.473 230.74 176.303 230.74 176.303Z" fill="#FFBF9D"/>
<path d="M232.159 180.944C232.159 180.944 232.214 180.999 232.378 181.054C232.487 181.108 232.705 181.163 232.924 181.054C233.361 180.89 233.743 180.125 233.743 179.306C233.743 178.924 233.634 178.542 233.524 178.214C233.361 177.887 233.142 177.668 232.924 177.668C232.705 177.614 232.542 177.778 232.487 177.887C232.432 177.996 232.487 178.105 232.432 178.105C232.432 178.105 232.323 178.051 232.378 177.832C232.378 177.723 232.432 177.614 232.542 177.559C232.651 177.45 232.815 177.45 232.978 177.45C233.306 177.45 233.634 177.778 233.797 178.105C233.961 178.433 234.07 178.87 234.07 179.306C234.07 180.18 233.634 181.054 233.033 181.217C232.705 181.327 232.487 181.217 232.323 181.108C232.159 181.054 232.105 180.944 232.159 180.944Z" fill="#FF9A6C"/>
<path d="M218.345 184.821C218.291 184.712 219.164 184.439 219.765 183.674C220.093 183.292 220.256 182.855 220.366 182.528C220.475 182.2 220.584 182.036 220.639 182.036C220.693 182.036 220.693 182.255 220.584 182.637C220.529 182.965 220.366 183.456 219.983 183.893C219.656 184.33 219.164 184.603 218.837 184.712C218.564 184.876 218.345 184.876 218.345 184.821Z" fill="#3F3F40"/>
<path d="M236.637 169.315C235.763 167.731 235.545 165.929 235.053 164.182C234.562 162.435 233.634 160.633 231.941 160.033H231.886C230.358 159.377 228.501 159.377 227.245 160.415C226.972 158.122 225.007 156.32 222.768 155.665C220.53 155.064 216.981 155.337 214.851 156.211C213.213 156.866 211.575 158.176 209.61 160.142C208.791 160.961 208.026 161.889 207.316 162.817L205.296 168.769L206.934 171.935C207.043 172.154 207.153 172.372 207.262 172.591L208.681 179.197C208.791 177.395 208.736 171.116 208.845 169.315C211.63 169.205 214.141 168.168 216.052 166.093C217.035 165.001 217.854 163.691 219.165 163.036C220.857 162.217 222.877 162.872 224.679 163.472L224.625 163.418C225.553 163.855 226.372 164.455 227.082 165.22C226.645 168.769 226.972 172.372 228.01 175.812C228.174 176.303 228.61 177.395 229.102 177.559C230.085 177.941 230.358 176.959 230.958 176.413C231.395 176.03 232.05 175.976 232.76 175.976C233.197 174.884 233.634 173.027 234.016 171.444C234.616 171.608 235.217 171.662 235.872 171.608C235.708 171.171 235.49 170.68 235.326 170.243C235.545 170.407 235.818 170.57 236.091 170.625C236.364 170.68 236.691 170.57 236.855 170.297C237.019 170.024 236.8 169.642 236.637 169.315Z" fill="#3F3F40"/>
<path d="M225.28 161.125C225.28 161.125 225.553 161.288 225.935 161.725C226.317 162.162 226.699 162.872 226.863 163.855C226.972 164.346 227.027 164.892 227.027 165.493C227.027 166.093 226.972 166.694 226.918 167.349C226.863 168.004 226.809 168.714 226.863 169.424C226.863 169.806 226.918 170.134 226.972 170.516C227.027 170.898 227.136 171.28 227.409 171.608C227.628 171.881 228.01 171.99 228.283 171.935C228.61 171.881 228.883 171.717 229.102 171.499C229.539 171.007 229.648 170.407 229.757 169.861H229.648C229.866 170.352 230.085 170.843 230.412 171.226C230.74 171.608 231.177 171.881 231.668 171.935C231.886 171.935 232.105 171.935 232.323 171.826C232.542 171.717 232.651 171.553 232.76 171.389C232.869 171.226 232.924 171.007 232.924 170.843C232.924 170.68 232.869 170.461 232.705 170.352L232.651 170.407C233.142 170.953 233.634 171.28 234.016 171.444C234.18 171.553 234.343 171.608 234.453 171.608C234.562 171.662 234.616 171.662 234.616 171.662C234.616 171.662 234.562 171.662 234.453 171.608C234.343 171.553 234.234 171.499 234.016 171.444C233.688 171.28 233.142 170.953 232.705 170.407L232.651 170.461C232.869 170.68 232.869 171.116 232.705 171.389C232.596 171.553 232.487 171.717 232.269 171.772C232.105 171.881 231.886 171.881 231.668 171.881C231.231 171.826 230.849 171.608 230.521 171.226C230.194 170.843 229.975 170.407 229.812 169.915L229.702 169.697L229.648 169.915C229.539 170.461 229.429 171.007 229.047 171.444C228.883 171.662 228.61 171.826 228.337 171.826C228.064 171.881 227.737 171.772 227.573 171.553C227.355 171.28 227.245 170.898 227.191 170.57C227.136 170.188 227.082 169.861 227.082 169.478C227.027 168.769 227.082 168.059 227.136 167.404C227.191 166.748 227.245 166.093 227.245 165.493C227.245 164.892 227.191 164.346 227.082 163.855C226.863 162.872 226.426 162.107 226.044 161.725C225.553 161.234 225.28 161.125 225.28 161.125Z" fill="#455A64"/>
<path d="M205.405 167.076C205.514 167.131 205.569 167.185 205.624 167.24C205.678 167.294 205.787 167.349 205.897 167.404C206.006 167.458 206.115 167.567 206.279 167.622C206.879 167.895 207.808 168.223 209.009 168.168C210.21 168.113 211.63 167.731 212.885 166.803C214.196 165.875 215.288 164.564 216.271 163.036C216.762 162.271 217.144 161.452 217.581 160.742C218.018 160.033 218.455 159.323 219.055 158.831C219.601 158.285 220.256 157.903 220.912 157.739C221.239 157.63 221.567 157.63 221.894 157.63C222.222 157.63 222.495 157.739 222.768 157.794C223.314 158.012 223.751 158.285 224.078 158.613C224.406 158.941 224.624 159.268 224.788 159.541C225.061 160.142 225.061 160.524 225.116 160.524C225.116 160.524 225.116 160.524 225.116 160.469C225.116 160.415 225.116 160.36 225.061 160.251C225.007 160.087 224.952 159.814 224.843 159.541C224.679 159.268 224.461 158.886 224.133 158.558C223.805 158.231 223.369 157.903 222.768 157.685C222.495 157.576 222.167 157.521 221.84 157.466C221.512 157.466 221.185 157.466 220.802 157.576C220.093 157.739 219.437 158.176 218.891 158.668C218.291 159.214 217.854 159.869 217.417 160.633C216.98 161.343 216.598 162.162 216.107 162.926C215.179 164.455 214.032 165.766 212.776 166.694C211.52 167.622 210.155 168.004 208.954 168.059C207.808 168.113 206.825 167.84 206.279 167.567C205.733 167.294 205.405 167.076 205.405 167.076Z" fill="#455A64"/>
<path d="M209.992 173.956C210.101 174.065 210.865 173.519 211.957 173.464C213.049 173.41 213.814 174.01 213.923 173.846C213.978 173.792 213.868 173.573 213.486 173.3C213.159 173.027 212.558 172.809 211.903 172.809C211.248 172.809 210.702 173.082 210.374 173.355C209.992 173.683 209.937 173.901 209.992 173.956Z" fill="#3F3F40"/>
<path d="M211.63 176.74C211.63 177.177 212.012 177.559 212.503 177.559C212.995 177.559 213.377 177.177 213.322 176.74C213.322 176.303 212.94 175.921 212.449 175.921C211.957 175.921 211.575 176.303 211.63 176.74Z" fill="#3F3F40"/>
<path d="M207.917 162.107C207.371 162.817 206.552 163.472 205.624 163.363C205.351 163.309 204.696 163.09 204.696 163.09C204.368 163.254 204.477 164.346 204.696 164.674C204.914 164.947 205.351 165.383 205.351 165.383C204.313 165.929 203.331 165.656 202.239 165.274C202.457 167.185 203.713 168.932 205.515 169.697C206.061 169.915 206.77 170.079 207.262 169.751C207.699 169.478 207.917 168.878 208.026 168.386C208.518 166.475 208.791 164.51 208.791 162.49L207.917 162.107Z" fill="#3F3F40"/>
<path d="M201.201 204.149L201.31 203.986C206.443 198.58 215.889 196.724 215.889 196.724C215.889 196.724 216.489 200.273 221.731 200.655C227.027 201.037 230.904 195.686 230.904 195.686L237.947 196.669C237.947 196.669 241.496 197.106 243.68 198.362C248.649 201.31 251.324 211.411 251.324 211.411L196.942 211.63L201.201 204.149Z" fill="#455A64"/>
<path d="M196.232 150.914C196.232 150.914 196.123 150.914 195.85 150.969C195.741 150.969 195.577 150.969 195.359 151.024C195.195 151.024 194.977 151.078 194.704 151.133C193.721 151.297 192.247 151.679 190.772 152.88C190.008 153.481 189.298 154.245 188.643 155.228C188.042 156.211 187.551 157.412 187.387 158.777C187.278 159.432 187.333 160.196 187.333 160.906C187.333 161.671 187.333 162.435 187.333 163.199C187.333 164.783 187.333 166.475 187.333 168.223C187.333 175.321 187.333 183.893 187.387 193.666C187.387 196.123 187.387 198.635 187.387 201.201C187.387 201.856 187.387 202.511 187.442 203.167C187.496 203.822 187.606 204.477 187.769 205.078C188.152 206.333 188.861 207.535 189.735 208.517C190.663 209.5 191.81 210.319 193.12 210.756L193.612 210.92L194.103 211.029C194.431 211.138 194.758 211.138 195.14 211.193C195.85 211.247 196.56 211.247 197.27 211.247C200.109 211.247 203.057 211.247 206.006 211.247H206.115V211.357C206.115 215.725 206.115 220.42 206.115 225.225L205.897 225.116C208.19 222.932 210.538 220.693 212.885 218.4C215.233 216.107 217.636 213.759 219.983 211.247L220.038 211.193H220.093C227.464 211.193 235.217 211.193 243.079 211.193C245.427 211.193 247.775 211.193 250.123 211.193C250.723 211.193 251.269 211.193 251.87 211.193C252.47 211.193 253.016 211.193 253.617 211.138C254.764 211.029 255.856 210.701 256.893 210.21C258.913 209.173 260.497 207.371 261.206 205.241C261.589 204.204 261.698 203.057 261.698 201.965C261.698 200.819 261.698 199.727 261.698 198.58C261.698 189.626 261.698 181.054 261.698 172.809C261.698 168.714 261.698 164.728 261.698 160.797C261.698 159.814 261.698 158.886 261.534 157.958C261.316 157.03 260.988 156.156 260.551 155.337C260.114 154.518 259.514 153.808 258.804 153.208C258.149 152.607 257.384 152.061 256.565 151.733C255.746 151.351 254.873 151.078 253.999 151.024C253.126 150.914 252.252 150.969 251.378 150.969C249.631 150.969 247.884 150.969 246.191 150.969C242.806 150.969 239.53 150.969 236.473 150.969C224.078 150.969 214.032 150.914 207.098 150.914C203.658 150.914 200.928 150.914 199.126 150.914C198.198 150.914 197.543 150.914 197.051 150.914C196.451 150.969 196.232 150.914 196.232 150.914C196.232 150.914 196.451 150.914 196.942 150.914C197.434 150.914 198.089 150.914 199.017 150.914C200.873 150.914 203.549 150.914 206.989 150.914C213.923 150.914 223.969 150.914 236.363 150.86C239.476 150.86 242.697 150.86 246.082 150.86C247.775 150.86 249.522 150.86 251.269 150.86C252.143 150.86 253.016 150.805 253.945 150.914C254.873 151.024 255.746 151.297 256.565 151.679C257.439 152.061 258.203 152.607 258.913 153.208C259.623 153.863 260.224 154.573 260.715 155.392C261.206 156.211 261.534 157.139 261.752 158.067C261.971 158.995 261.916 160.033 261.916 160.961C261.916 164.837 261.916 168.823 261.916 172.973C261.916 181.163 261.916 189.79 261.916 198.744C261.916 199.836 261.916 200.983 261.916 202.129C261.916 203.276 261.807 204.422 261.425 205.514C260.66 207.698 259.077 209.609 256.948 210.647C255.91 211.193 254.764 211.52 253.562 211.63C252.962 211.684 252.361 211.684 251.815 211.684C251.215 211.684 250.669 211.684 250.068 211.684C247.72 211.684 245.372 211.684 243.025 211.684C235.162 211.684 227.464 211.684 220.038 211.684L220.147 211.63C217.854 214.141 215.397 216.489 213.049 218.837C210.701 221.13 208.354 223.369 206.006 225.553L205.787 225.771V225.443C205.787 220.639 205.787 215.943 205.787 211.575L205.897 211.684C202.894 211.684 200 211.684 197.161 211.684C196.451 211.684 195.741 211.684 195.031 211.63C194.704 211.575 194.321 211.52 193.994 211.411L193.502 211.302L193.011 211.138C191.701 210.647 190.499 209.828 189.571 208.845C188.643 207.808 187.933 206.606 187.551 205.351C187.387 204.695 187.223 204.04 187.169 203.385C187.114 202.73 187.114 202.075 187.114 201.419C187.114 198.853 187.114 196.287 187.114 193.885C187.114 184.111 187.114 175.539 187.169 168.441C187.169 166.694 187.169 165.001 187.169 163.418C187.169 162.653 187.169 161.834 187.169 161.125C187.169 160.36 187.169 159.65 187.278 158.995C187.442 157.63 187.933 156.374 188.588 155.392C189.189 154.409 189.953 153.59 190.718 153.044C192.247 151.843 193.721 151.46 194.704 151.297C194.977 151.242 195.14 151.242 195.359 151.187C195.523 151.187 195.686 151.187 195.85 151.187C196.069 150.914 196.232 150.914 196.232 150.914Z" fill="#3F3F40"/>
</svg>
