<svg width="239" height="225" viewBox="0 0 239 225" fill="none" xmlns="http://www.w3.org/2000/svg">
<g clip-path="url(#clip0_29_614)">
<path d="M164.104 212.429C194.821 212.429 219.721 207.895 219.721 202.302C219.721 196.709 194.821 192.175 164.104 192.175C133.388 192.175 108.488 196.709 108.488 202.302C108.488 207.895 133.388 212.429 164.104 212.429Z" fill="#F5F5F5"/>
<path d="M208.504 201.72C208.504 201.72 208.504 201.545 208.388 201.254C208.271 200.963 207.92 200.614 207.394 200.265C206.343 199.625 204.649 198.985 202.37 198.403C197.813 197.297 191.095 196.366 182.741 195.784C174.387 195.202 164.397 194.969 153.355 195.376C147.805 195.551 142.021 195.9 136.062 196.598C133.083 196.948 130.045 197.355 127.007 197.995C125.488 198.286 123.969 198.694 122.509 199.159C121.749 199.392 121.048 199.683 120.347 200.09C119.997 200.265 119.705 200.498 119.412 200.731C119.12 200.963 118.945 201.313 118.945 201.662C118.945 202.011 119.179 202.302 119.412 202.593C119.705 202.826 119.997 203.059 120.347 203.233C121.048 203.582 121.749 203.873 122.509 204.164C123.969 204.688 125.488 205.037 127.007 205.328C130.045 205.969 133.083 206.376 136.062 206.725C142.021 207.424 147.863 207.773 153.355 207.947C164.397 208.297 174.387 208.064 182.741 207.54C191.095 206.958 197.813 206.085 202.37 204.921C204.649 204.339 206.343 203.757 207.394 203.059C207.92 202.709 208.212 202.36 208.388 202.069C208.504 201.895 208.504 201.72 208.504 201.72C208.504 201.72 208.563 201.895 208.388 202.186C208.271 202.477 207.92 202.826 207.394 203.175C206.343 203.873 204.649 204.514 202.37 205.096C197.813 206.26 191.095 207.191 182.741 207.773C174.387 208.355 164.397 208.646 153.355 208.238C147.805 208.064 142.021 207.715 136.004 207.016C133.025 206.667 129.987 206.26 126.89 205.619C125.371 205.328 123.852 204.921 122.333 204.455C121.574 204.223 120.815 203.932 120.114 203.524C119.763 203.35 119.412 203.117 119.12 202.826C118.828 202.535 118.536 202.186 118.536 201.662C118.536 201.196 118.828 200.789 119.12 200.556C119.412 200.265 119.763 200.032 120.114 199.858C120.815 199.45 121.574 199.159 122.333 198.926C123.852 198.403 125.371 198.053 126.89 197.762C129.928 197.122 132.966 196.715 136.004 196.366C142.021 195.667 147.805 195.318 153.355 195.143C164.397 194.794 174.387 195.027 182.741 195.609C191.095 196.191 197.813 197.122 202.37 198.286C204.649 198.868 206.343 199.508 207.394 200.207C207.92 200.556 208.212 200.905 208.388 201.196C208.504 201.545 208.504 201.72 208.504 201.72Z" fill="#EBEBEB"/>
<path d="M192.497 201.254C192.497 201.254 192.497 201.138 192.38 200.963C192.322 200.789 192.088 200.556 191.738 200.381C191.095 199.974 189.985 199.567 188.583 199.217C185.72 198.519 181.455 197.937 176.139 197.588C170.881 197.239 164.513 197.064 157.561 197.355C154.056 197.471 150.375 197.704 146.637 198.112C144.767 198.344 142.839 198.577 140.911 198.985C139.977 199.159 138.983 199.392 138.049 199.741C137.581 199.916 137.114 200.09 136.705 200.323C136.296 200.556 135.829 200.847 135.829 201.254C135.829 201.662 136.296 201.953 136.705 202.186C137.114 202.418 137.581 202.593 138.049 202.768C138.983 203.059 139.977 203.291 140.911 203.524C142.839 203.932 144.767 204.164 146.637 204.397C150.434 204.805 154.114 205.037 157.561 205.154C164.572 205.387 170.881 205.27 176.139 204.921C181.397 204.572 185.662 203.99 188.583 203.291C190.043 202.942 191.095 202.535 191.738 202.127C192.03 201.895 192.263 201.72 192.38 201.545C192.497 201.371 192.497 201.254 192.497 201.254C192.497 201.254 192.497 201.371 192.439 201.545C192.38 201.72 192.146 201.953 191.854 202.186C191.212 202.651 190.102 203.059 188.7 203.408C185.837 204.164 181.572 204.746 176.256 205.154C170.94 205.503 164.63 205.678 157.62 205.503C154.114 205.387 150.434 205.154 146.637 204.746C144.767 204.514 142.839 204.281 140.853 203.873C139.86 203.699 138.925 203.466 137.932 203.117C137.464 202.942 136.997 202.768 136.53 202.535C136.296 202.418 136.062 202.244 135.887 202.069C135.712 201.895 135.478 201.662 135.478 201.313C135.478 200.963 135.712 200.731 135.887 200.556C136.062 200.381 136.296 200.207 136.53 200.09C136.997 199.858 137.464 199.683 137.932 199.508C138.867 199.217 139.86 198.985 140.853 198.752C142.781 198.344 144.709 198.112 146.637 197.879C150.434 197.471 154.114 197.239 157.62 197.122C164.63 196.889 170.94 197.064 176.256 197.471C181.572 197.879 185.837 198.461 188.7 199.217C190.16 199.567 191.212 199.974 191.854 200.44C192.146 200.672 192.38 200.905 192.439 201.08C192.555 201.138 192.497 201.254 192.497 201.254Z" fill="#EBEBEB"/>
<path d="M179.586 201.254C179.586 201.254 179.586 201.022 179.235 200.847C178.885 200.614 178.359 200.44 177.658 200.265C176.198 199.916 174.094 199.625 171.465 199.45C168.837 199.276 165.682 199.217 162.177 199.334C160.424 199.392 158.613 199.508 156.685 199.741C155.75 199.858 154.757 199.974 153.822 200.207C153.355 200.323 152.888 200.44 152.42 200.556C152.187 200.614 151.953 200.731 151.778 200.847C151.602 200.963 151.369 201.138 151.369 201.254C151.369 201.371 151.544 201.545 151.778 201.662C152.011 201.778 152.187 201.836 152.42 201.953C152.888 202.127 153.355 202.244 153.822 202.302C154.757 202.477 155.75 202.651 156.685 202.768C158.554 203 160.424 203.117 162.177 203.175C165.682 203.291 168.837 203.233 171.465 203.059C174.094 202.884 176.256 202.593 177.658 202.244C178.359 202.069 178.943 201.895 179.235 201.662C179.586 201.487 179.586 201.254 179.586 201.254C179.586 201.254 179.586 201.313 179.586 201.429C179.528 201.545 179.469 201.662 179.294 201.778C178.943 202.011 178.418 202.244 177.717 202.418C176.256 202.826 174.153 203.117 171.524 203.291C168.895 203.466 165.74 203.582 162.235 203.466C160.482 203.408 158.613 203.291 156.743 203.117C155.809 203 154.816 202.884 153.881 202.651C153.413 202.535 152.888 202.418 152.42 202.244C152.187 202.186 151.953 202.069 151.719 201.953C151.486 201.836 151.193 201.662 151.135 201.254C151.193 200.847 151.486 200.731 151.719 200.556C151.953 200.44 152.187 200.323 152.42 200.265C152.888 200.09 153.413 199.974 153.881 199.858C154.874 199.683 155.809 199.508 156.743 199.392C158.671 199.159 160.482 199.101 162.235 199.043C165.74 198.926 168.895 199.043 171.524 199.217C174.153 199.392 176.314 199.741 177.717 200.09C178.418 200.265 179.002 200.498 179.294 200.731C179.469 200.847 179.586 200.963 179.586 201.08C179.644 201.196 179.586 201.254 179.586 201.254Z" fill="#EBEBEB"/>
<path d="M41.7126 8.5542H24.0695V15.48H41.7126V8.5542Z" fill="#F5F5F5"/>
<path d="M34.702 22.3476C34.702 22.3476 34.702 22.2894 34.702 22.2312C34.702 22.1148 34.702 21.9984 34.702 21.882C34.702 21.5328 34.702 21.1254 34.702 20.5434C34.702 19.3212 34.702 17.6334 34.6436 15.4218L34.702 15.48C29.7363 15.48 21.8494 15.5382 12.911 15.5382C12.9695 15.48 12.7942 15.6546 13.0279 15.4218V15.48V15.5964V15.8292V16.2948C13.0279 16.5858 13.0279 16.8768 13.0279 17.1678C13.0279 17.7498 13.0279 18.3318 13.0279 18.9138C13.0279 20.0778 13.0279 21.2418 13.0279 22.3476L12.911 22.2312C19.1036 22.2312 24.5368 22.2894 28.451 22.2894C30.3789 22.2894 31.9562 22.2894 33.0078 22.3476C33.5336 22.3476 33.9426 22.3476 34.2347 22.3476C34.3515 22.3476 34.4684 22.3476 34.5852 22.3476C34.6436 22.2894 34.702 22.2894 34.702 22.3476C34.702 22.3476 34.6436 22.3476 34.5852 22.3476C34.5268 22.3476 34.4099 22.3476 34.2931 22.3476C34.001 22.3476 33.592 22.3476 33.0662 22.3476C32.0147 22.3476 30.4373 22.3476 28.5094 22.4058C24.5952 22.4058 19.1621 22.464 12.911 22.464H12.7942V22.3476C12.7942 21.2418 12.7942 20.0778 12.7942 18.9138C12.7942 18.3318 12.7942 17.7498 12.7942 17.1678C12.7942 16.8768 12.7942 16.5858 12.7942 16.2948V15.8292V15.5964V15.48V15.4218C13.0279 15.1308 12.8526 15.3636 12.911 15.3054C21.791 15.3054 29.6778 15.3636 34.702 15.3636H34.7605V15.4218C34.7605 17.6334 34.7605 19.3794 34.702 20.5434C34.702 21.1254 34.702 21.591 34.702 21.882C34.702 21.9984 34.702 22.1148 34.702 22.2312C34.702 22.2894 34.702 22.3476 34.702 22.3476Z" fill="#E0E0E0"/>
<path d="M229.536 161.155H201.085V168.662H229.536V161.155Z" fill="#EBEBEB"/>
<path d="M217.501 176.519C217.501 176.519 217.501 176.461 217.501 176.403C217.501 176.287 217.501 176.17 217.501 175.996C217.501 175.646 217.501 175.123 217.501 174.541C217.501 173.26 217.501 171.398 217.443 169.07L217.56 169.186C211.075 169.186 200.734 169.244 189.167 169.244C189.225 169.186 189.05 169.361 189.284 169.128V169.186V169.244V169.361V169.594V170.059C189.284 170.35 189.284 170.699 189.284 170.99C189.284 171.631 189.284 172.271 189.284 172.853C189.284 174.075 189.284 175.355 189.284 176.519L189.167 176.403C197.287 176.403 204.356 176.461 209.439 176.461C211.951 176.461 213.996 176.519 215.398 176.519C216.099 176.519 216.625 176.519 217.034 176.519C217.209 176.519 217.326 176.519 217.443 176.519H217.501C217.501 176.519 217.443 176.519 217.384 176.519C217.267 176.519 217.151 176.519 216.975 176.519C216.625 176.519 216.041 176.519 215.398 176.519C213.996 176.519 211.951 176.519 209.439 176.578C204.356 176.578 197.229 176.636 189.109 176.636H188.992V176.519C188.992 175.297 188.992 174.075 188.992 172.853C188.992 172.213 188.992 171.572 188.992 170.99C188.992 170.699 188.992 170.35 188.992 170.059V169.594V169.361V169.128V169.07V169.012C189.284 168.721 189.05 168.953 189.167 168.895C200.793 168.895 211.075 168.953 217.56 168.953H217.676V169.07C217.676 171.456 217.618 173.318 217.618 174.599C217.618 175.239 217.618 175.705 217.618 176.054C217.618 176.228 217.618 176.345 217.618 176.403C217.501 176.519 217.501 176.519 217.501 176.519Z" fill="#E0E0E0"/>
<path d="M179.544 12H151.093V19.5078H179.544V12Z" fill="#F5F5F5"/>
<path d="M167.509 27.3648C167.509 27.3648 167.509 27.3066 167.509 27.2484C167.509 27.132 167.509 27.0156 167.509 26.841C167.509 26.4918 167.509 25.968 167.509 25.386C167.509 24.1056 167.509 22.2432 167.451 19.9152L167.568 20.0316C161.083 20.0316 150.743 20.0898 139.175 20.0898C139.234 20.0316 139.058 20.2062 139.292 19.9734V20.0316V20.0898V20.2062V20.439V20.9046C139.292 21.1956 139.292 21.5448 139.292 21.8358C139.292 22.476 139.292 23.1162 139.292 23.6982C139.292 24.9204 139.292 26.2008 139.292 27.3648L139.175 27.2484C147.296 27.2484 154.365 27.3066 159.447 27.3066C161.959 27.3066 164.004 27.3648 165.406 27.3648C166.107 27.3648 166.633 27.3648 167.042 27.3648C167.217 27.3648 167.334 27.3648 167.451 27.3648H167.509C167.509 27.3648 167.451 27.3648 167.393 27.3648C167.276 27.3648 167.159 27.3648 166.984 27.3648C166.633 27.3648 166.049 27.3648 165.406 27.3648C164.004 27.3648 161.959 27.3648 159.447 27.423C154.365 27.423 147.237 27.4812 139.117 27.4812H139V27.3648C139 26.1426 139 24.9204 139 23.6982C139 23.058 139 22.4178 139 21.8358C139 21.5448 139 21.1956 139 20.9046V20.439V20.2062V20.0898V20.0316V19.9734C139.292 19.6824 139.058 19.9152 139.175 19.857C150.801 19.857 161.083 19.9152 167.568 19.9152H167.685V20.0316C167.685 22.4178 167.626 24.2802 167.626 25.5606C167.626 26.2008 167.626 26.6664 167.626 27.0156C167.626 27.1902 167.626 27.3066 167.626 27.3648C167.509 27.3066 167.509 27.3648 167.509 27.3648Z" fill="#E0E0E0"/>
<path d="M219.27 46.9783H190.819V54.4861H219.27V46.9783Z" fill="#F5F5F5"/>
<path d="M211.617 62.4013C211.617 62.4013 211.617 62.3431 211.617 62.2849C211.617 62.1685 211.617 62.0521 211.617 61.8775C211.617 61.5283 211.617 61.0045 211.617 60.4225C211.617 59.1421 211.617 57.2797 211.559 54.9517L211.676 55.0681C205.191 55.0681 194.851 55.1263 183.283 55.1263C183.342 55.0681 183.166 55.2427 183.4 55.0099V55.0681V55.1263V55.2427V55.4755V55.9411C183.4 56.2321 183.4 56.5813 183.4 56.8723C183.4 57.5125 183.4 58.1527 183.4 58.7347C183.4 59.9569 183.4 61.2373 183.4 62.4013L183.283 62.2849C191.404 62.2849 198.473 62.3431 203.555 62.3431C206.067 62.3431 208.112 62.4013 209.514 62.4013C210.215 62.4013 210.741 62.4013 211.15 62.4013C211.325 62.4013 211.442 62.4013 211.559 62.4013H211.617C211.617 62.4013 211.559 62.4013 211.5 62.4013C211.384 62.4013 211.267 62.4013 211.092 62.4013C210.741 62.4013 210.157 62.4013 209.514 62.4013C208.112 62.4013 206.067 62.4013 203.555 62.4595C198.473 62.4595 191.345 62.5177 183.225 62.5177H183.108V62.4013C183.108 61.1791 183.108 59.9569 183.108 58.7347C183.108 58.0945 183.108 57.4543 183.108 56.8723C183.108 56.5813 183.108 56.2321 183.108 55.9411V55.4755V55.2427V55.1263V55.0681V55.0099C183.4 54.7189 183.166 54.9517 183.283 54.8935C194.909 54.8935 205.191 54.9517 211.676 54.9517H211.793V55.0681C211.793 57.4543 211.734 59.3167 211.734 60.5971C211.734 61.2373 211.734 61.7029 211.734 62.0521C211.734 62.2267 211.734 62.3431 211.734 62.4013C211.617 62.3431 211.617 62.4013 211.617 62.4013Z" fill="#E0E0E0"/>
<path d="M246.011 186.413C246.011 186.472 189.342 186.588 119.529 186.588C49.5994 186.588 -7.0105 186.472 -7.0105 186.413C-7.0105 186.355 49.5994 186.239 119.471 186.239C189.342 186.239 246.011 186.355 246.011 186.413Z" fill="#3F3F40"/>
<path d="M181.689 137.409C181.864 137.933 181.981 138.457 181.923 138.98C182.04 138.34 182.273 137.7 182.624 137.176C182.741 136.943 182.974 136.769 183.208 136.827C183.442 136.885 183.5 137.176 183.558 137.409C183.558 138.107 183.442 138.748 183.091 139.33C183.5 138.806 184.084 138.34 184.727 138.049C184.844 137.991 184.961 137.933 185.077 138.049C185.194 138.107 185.194 138.282 185.194 138.457C185.019 139.562 184.26 140.61 183.15 141.017L182.799 141.076C182.04 140.843 181.397 140.377 180.988 139.737C180.579 139.097 180.404 138.282 180.579 137.525C180.637 137.234 180.813 136.885 181.105 136.885C181.397 136.885 181.572 137.176 181.689 137.409Z" fill="#FF5922"/>
<path d="M189.517 152.948C188.699 152.366 187.181 151.784 186.187 151.61C186.888 149.224 186.947 146.663 186.304 144.335C186.071 143.404 185.662 142.472 185.077 141.716C184.435 140.959 183.558 140.377 182.565 140.319C181.514 140.261 180.521 140.785 179.819 141.599L178.593 144.393C178.534 144.8 178.476 145.208 178.417 145.615C178.242 148.351 178.885 151.086 180.228 153.472C178.943 154.869 177.6 157.313 178.008 160.107H192.555C192.731 157.488 191.679 154.578 189.517 152.948Z" fill="#455A64"/>
<path d="M179.527 154.462C179.527 154.462 179.586 154.403 179.644 154.287C179.703 154.171 179.82 154.054 179.995 153.88C180.345 153.53 180.871 153.065 181.631 152.657C182.39 152.25 183.383 151.901 184.493 151.726C185.603 151.61 186.889 151.726 188.115 152.25C189.342 152.774 190.335 153.647 190.978 154.52C191.679 155.451 192.088 156.382 192.263 157.197C192.497 158.012 192.497 158.71 192.497 159.234C192.497 159.467 192.438 159.641 192.438 159.758C192.438 159.874 192.38 159.932 192.38 159.932C192.322 159.932 192.555 158.885 192.088 157.255C191.854 156.44 191.445 155.509 190.803 154.636C190.16 153.763 189.167 152.948 187.998 152.425C186.83 151.901 185.545 151.784 184.493 151.901C183.383 152.017 182.449 152.366 181.689 152.774C180.17 153.589 179.586 154.52 179.527 154.462Z" fill="#3F3F40"/>
<path d="M178.301 146.721C178.301 146.721 178.242 146.372 178.301 145.79C178.301 145.208 178.417 144.393 178.71 143.52C179.002 142.647 179.527 141.949 179.936 141.541C180.404 141.134 180.754 141.017 180.754 141.017C180.754 141.076 180.462 141.25 180.053 141.658C179.644 142.065 179.177 142.763 178.885 143.578C178.593 144.393 178.534 145.208 178.417 145.79C178.417 146.314 178.359 146.721 178.301 146.721Z" fill="#3F3F40"/>
<path d="M186.713 158.303C186.655 158.245 187.297 157.663 188.057 156.906C188.816 156.149 189.401 155.509 189.459 155.567C189.517 155.626 188.992 156.324 188.232 157.081C187.473 157.837 186.772 158.361 186.713 158.303Z" fill="#3F3F40"/>
<path d="M185.136 157.488C185.077 157.488 185.194 156.848 185.369 156.033C185.545 155.276 185.778 154.636 185.837 154.636C185.895 154.636 185.778 155.276 185.603 156.091C185.369 156.848 185.194 157.488 185.136 157.488Z" fill="#3F3F40"/>
<path d="M180.813 155.858C180.871 155.8 181.28 156.382 181.631 157.139C181.981 157.895 182.156 158.594 182.098 158.594C182.039 158.594 181.806 157.954 181.455 157.197C181.046 156.499 180.754 155.917 180.813 155.858Z" fill="#3F3F40"/>
<path d="M185.486 149.107C185.428 149.049 185.895 148.409 186.48 147.652C187.064 146.896 187.59 146.255 187.648 146.314C187.706 146.372 187.239 147.012 186.655 147.769C186.012 148.525 185.486 149.165 185.486 149.107Z" fill="#3F3F40"/>
<path d="M184.435 144.568C184.376 144.509 184.902 143.695 185.545 142.763C186.187 141.774 186.772 141.017 186.83 141.076C186.888 141.134 186.363 141.949 185.72 142.88C185.077 143.869 184.493 144.626 184.435 144.568Z" fill="#3F3F40"/>
<path d="M182.799 145.79C182.857 145.79 182.974 146.488 183.033 147.303C183.091 148.176 183.091 148.874 183.033 148.874C182.974 148.874 182.857 148.176 182.799 147.361C182.741 146.488 182.741 145.79 182.799 145.79Z" fill="#3F3F40"/>
<path d="M176.256 147.827C176.256 147.769 177.249 148.234 178.301 148.874C179.411 149.515 180.228 150.155 180.17 150.213C180.112 150.271 179.235 149.689 178.184 149.049C177.132 148.409 176.256 147.885 176.256 147.827Z" fill="#3F3F40"/>
<g opacity="0.3">
<path d="M181.514 151.726C182.215 151.319 183.033 151.202 183.851 151.144C184.668 151.086 185.662 151.202 186.246 151.784V151.843C184.201 151.726 181.864 152.366 180.287 153.705C180.228 152.89 180.813 152.134 181.514 151.726Z" fill="#3F3F40"/>
</g>
<path d="M188.407 123.325C188.816 123.208 189.284 123.208 189.693 123.266C189.225 123.092 188.758 122.859 188.349 122.51C188.174 122.393 188.057 122.219 188.115 122.044C188.174 121.87 188.407 121.811 188.641 121.87C189.167 121.928 189.693 122.102 190.102 122.393C189.693 121.986 189.401 121.52 189.284 120.997C189.284 120.88 189.225 120.764 189.284 120.706C189.342 120.589 189.517 120.647 189.576 120.647C190.452 120.88 191.153 121.579 191.387 122.452V122.743C191.153 123.325 190.686 123.79 190.16 124.023C189.634 124.256 188.992 124.314 188.407 124.139C188.174 124.081 187.94 123.907 187.94 123.674C187.998 123.441 188.232 123.325 188.407 123.325Z" fill="#FF5922"/>
<path d="M217.735 104.817C217.793 105.224 217.793 105.69 217.676 106.097C217.852 105.632 218.144 105.166 218.553 104.817C218.669 104.701 218.903 104.526 219.078 104.642C219.254 104.701 219.254 104.992 219.254 105.166C219.137 105.69 218.962 106.156 218.611 106.621C219.02 106.272 219.546 106.039 220.072 105.923C220.188 105.923 220.305 105.865 220.364 105.981C220.422 106.039 220.422 106.214 220.364 106.33C220.072 107.145 219.254 107.843 218.377 107.96H218.085C217.559 107.669 217.092 107.203 216.917 106.621C216.683 106.039 216.742 105.399 216.975 104.875C217.092 104.642 217.267 104.41 217.443 104.468C217.559 104.351 217.676 104.584 217.735 104.817Z" fill="#FF5922"/>
<path d="M197.287 142.647C197.521 142.647 197.696 142.705 197.93 142.705C198.281 138.573 197.054 134.383 198.339 130.425L198.164 130.658C196.645 130.832 195.067 130.774 193.607 130.25C192.146 129.727 190.919 128.621 190.335 127.224C189.751 125.827 189.985 124.023 191.036 122.917C192.497 121.404 195.009 121.52 196.82 122.51C198.573 123.499 199.799 125.187 200.909 126.817C201.494 126.351 202.195 125.944 202.896 125.653C200.909 122.917 198.982 120.007 198.339 116.69C197.638 113.081 198.982 108.775 202.37 107.261C205.233 105.981 208.855 107.145 210.899 109.531C211.075 109.706 211.192 109.939 211.308 110.113L211.25 109.939C211.776 108.658 212.711 107.611 213.996 107.087C215.223 106.563 216.742 106.621 217.91 107.261C219.078 107.96 219.896 109.24 219.838 110.637C219.779 112.15 218.728 113.547 217.326 114.187C215.982 114.827 214.463 114.886 213.003 114.595C213.178 115.875 213.178 117.155 213.003 118.436C212.535 121.346 211.25 124.023 209.731 126.526C210.14 126.817 210.549 127.108 210.899 127.515C213.528 130.25 213.704 134.615 212.302 138.107C210.958 141.599 207.219 144.218 204.648 146.954C205.758 148.816 206.343 151.028 206.635 153.123C207.511 151.261 209.497 149.922 211.601 149.922C212.711 149.922 213.996 150.446 214.346 151.493C214.638 152.425 214.113 153.472 213.47 154.171C211.893 155.858 209.147 156.615 206.868 156.091V155.393C206.985 158.07 206.752 160.107 206.752 160.107H190.16C190.16 160.165 185.72 142.24 197.287 142.647Z" fill="#455A64"/>
<path d="M171.117 167.083H210.375V160.158H171.117V167.083Z" fill="#FF5922"/>
<path d="M207.453 165.694L202.662 186.413H179.294L174.094 165.694H207.453Z" fill="#FF5922"/>
<path d="M171.173 167.091C171.173 167.149 179.995 167.207 190.919 167.207C201.844 167.207 210.666 167.149 210.666 167.091C210.666 167.033 201.844 166.975 190.919 166.975C180.053 166.975 171.173 167.033 171.173 167.091Z" fill="#3F3F40"/>
<path d="M194.25 143.345C194.25 143.345 194.308 143.287 194.483 143.229C194.658 143.171 194.892 143.054 195.184 142.938C195.768 142.705 196.762 142.531 197.93 142.647C199.098 142.763 200.501 143.113 201.786 143.986C203.071 144.859 204.239 146.139 205.057 147.71C205.875 149.282 206.401 150.911 206.635 152.425C206.868 153.938 206.927 155.335 206.927 156.499C206.927 157.663 206.868 158.594 206.868 159.234C206.868 159.525 206.868 159.758 206.81 159.991C206.81 160.165 206.81 160.223 206.81 160.223C206.81 160.223 206.81 160.107 206.81 159.991C206.81 159.816 206.81 159.525 206.81 159.234C206.81 158.536 206.81 157.663 206.81 156.499C206.81 155.335 206.752 153.996 206.518 152.483C206.284 150.97 205.758 149.398 204.941 147.827C204.123 146.314 202.954 145.033 201.727 144.16C200.442 143.345 199.098 142.938 197.988 142.822C196.82 142.705 195.885 142.88 195.301 143.054C194.542 143.171 194.25 143.345 194.25 143.345Z" fill="#3F3F40"/>
<path d="M197.755 134.557C197.755 134.557 197.755 134.499 197.755 134.383C197.755 134.266 197.696 134.092 197.755 133.801C197.755 133.335 197.813 132.578 197.988 131.705C198.164 130.832 198.514 129.843 199.157 128.854C199.449 128.33 199.799 127.864 200.267 127.399C200.734 126.933 201.202 126.526 201.844 126.176C202.428 125.827 203.071 125.594 203.714 125.478C204.356 125.362 204.94 125.303 205.583 125.362C206.752 125.42 207.803 125.711 208.621 126.06C209.439 126.409 210.082 126.758 210.432 127.049C210.666 127.166 210.783 127.282 210.899 127.399C211.016 127.457 211.075 127.515 211.075 127.515C211.075 127.515 210.841 127.399 210.432 127.108C210.023 126.875 209.38 126.526 208.563 126.176C207.745 125.827 206.752 125.594 205.583 125.536C204.999 125.536 204.415 125.536 203.772 125.653C203.188 125.769 202.545 126.002 201.961 126.351C201.377 126.7 200.909 127.108 200.442 127.515C200.033 127.981 199.624 128.446 199.332 128.912C198.748 129.901 198.397 130.891 198.164 131.705C197.93 132.52 197.872 133.277 197.872 133.742C197.755 134.266 197.755 134.557 197.755 134.557Z" fill="#3F3F40"/>
<path d="M213.178 117.097C213.119 117.097 213.12 116.573 213.061 115.759C213.003 115.351 213.003 114.886 212.886 114.304C212.827 113.78 212.652 113.198 212.418 112.616C211.951 111.452 211.367 110.462 210.9 109.822C210.432 109.124 210.082 108.775 210.14 108.716C210.14 108.716 210.257 108.775 210.432 108.949C210.607 109.124 210.841 109.357 211.075 109.706C211.542 110.346 212.185 111.335 212.652 112.499C212.886 113.081 213.061 113.663 213.119 114.245C213.178 114.769 213.236 115.293 213.236 115.7C213.178 116.573 213.178 117.097 213.178 117.097Z" fill="#3F3F40"/>
<path d="M211.016 154.229C211.075 154.171 211.542 154.578 212.126 155.044C212.71 155.567 213.178 155.975 213.119 156.033C213.061 156.091 212.594 155.684 212.009 155.218C211.425 154.694 210.958 154.287 211.016 154.229Z" fill="#3F3F40"/>
<path d="M212.418 152.832C212.418 152.774 213.061 152.657 213.821 152.599C214.58 152.541 215.223 152.483 215.223 152.599C215.223 152.657 214.58 152.774 213.821 152.832C213.061 152.89 212.418 152.89 212.418 152.832Z" fill="#3F3F40"/>
<path d="M211.367 150.388C211.308 150.329 211.717 149.922 212.126 149.282C212.535 148.7 212.886 148.176 212.944 148.176C213.003 148.176 212.769 148.758 212.302 149.398C211.893 150.038 211.367 150.446 211.367 150.388Z" fill="#3F3F40"/>
<path d="M209.497 149.282C209.556 149.282 209.439 150.038 209.264 150.853C209.088 151.726 208.855 152.425 208.796 152.425C208.738 152.425 208.855 151.668 209.03 150.853C209.205 149.98 209.439 149.282 209.497 149.282Z" fill="#3F3F40"/>
<path d="M208.271 154.869C208.212 154.811 208.504 154.52 208.855 154.171C209.205 153.821 209.556 153.589 209.614 153.647C209.673 153.705 209.381 153.996 209.03 154.345C208.621 154.694 208.271 154.927 208.271 154.869Z" fill="#3F3F40"/>
<path d="M202.487 153.763C202.428 153.705 202.779 153.298 203.188 152.89C203.597 152.425 204.006 152.075 204.064 152.134C204.123 152.192 203.772 152.599 203.363 153.007C202.896 153.472 202.545 153.821 202.487 153.763Z" fill="#3F3F40"/>
<path d="M201.26 148.467C201.202 148.409 201.435 147.943 201.786 147.419C202.136 146.837 202.428 146.43 202.487 146.43C202.545 146.488 202.312 146.954 201.961 147.478C201.611 148.06 201.26 148.525 201.26 148.467Z" fill="#3F3F40"/>
<path d="M197.579 144.16C197.638 144.16 197.696 144.8 197.696 145.557C197.696 146.314 197.638 146.954 197.579 146.954C197.521 146.954 197.463 146.314 197.463 145.557C197.463 144.8 197.521 144.16 197.579 144.16Z" fill="#3F3F40"/>
<path d="M189.868 145.615C189.926 145.557 190.394 146.197 190.978 146.896C191.562 147.594 192.088 148.176 192.029 148.234C191.971 148.292 191.387 147.769 190.803 147.07C190.16 146.314 189.809 145.673 189.868 145.615Z" fill="#3F3F40"/>
<path d="M188.875 153.181C188.875 153.123 189.517 153.181 190.218 153.356C190.978 153.472 191.562 153.647 191.562 153.705C191.562 153.763 190.919 153.705 190.218 153.53C189.459 153.414 188.875 153.239 188.875 153.181Z" fill="#3F3F40"/>
<path d="M196.878 155.8C196.82 155.8 196.995 155.102 197.404 154.287C197.813 153.472 198.28 152.948 198.339 152.948C198.397 153.007 198.047 153.589 197.638 154.345C197.17 155.16 196.937 155.8 196.878 155.8Z" fill="#3F3F40"/>
<path d="M194.191 152.192C194.133 152.192 194.074 151.668 194.074 151.086C194.074 150.446 194.074 149.98 194.133 149.98C194.191 149.98 194.249 150.504 194.249 151.086C194.308 151.668 194.249 152.192 194.191 152.192Z" fill="#3F3F40"/>
<path d="M202.779 158.536C202.72 158.536 202.896 157.954 203.246 157.372C203.597 156.79 204.064 156.382 204.064 156.44C204.123 156.499 203.772 156.906 203.422 157.488C203.071 158.07 202.837 158.594 202.779 158.536Z" fill="#3F3F40"/>
<path d="M193.665 159.059C193.607 159.059 193.315 158.594 193.081 158.012C192.789 157.372 192.614 156.848 192.672 156.848C192.731 156.848 193.023 157.313 193.256 157.895C193.548 158.536 193.724 159.059 193.665 159.059Z" fill="#3F3F40"/>
<path d="M207.862 142.298C207.862 142.24 208.563 142.181 209.381 142.24C210.198 142.24 210.899 142.356 210.899 142.414C210.899 142.472 210.198 142.531 209.381 142.472C208.504 142.414 207.862 142.356 207.862 142.298Z" fill="#3F3F40"/>
<path d="M211.192 136.652C211.133 136.594 211.834 136.07 212.652 135.488C213.47 134.906 214.229 134.441 214.229 134.499C214.288 134.557 213.587 135.081 212.769 135.663C211.893 136.245 211.192 136.711 211.192 136.652Z" fill="#3F3F40"/>
<path d="M210.841 129.377C210.841 129.319 211.367 129.028 212.009 128.621C212.652 128.213 213.178 127.806 213.178 127.806C213.236 127.864 212.769 128.33 212.126 128.795C211.484 129.261 210.841 129.436 210.841 129.377Z" fill="#3F3F40"/>
<path d="M207.102 126.817C207.044 126.817 207.16 126.002 207.394 125.071C207.628 124.081 207.862 123.325 207.92 123.383C207.978 123.383 207.862 124.198 207.628 125.129C207.394 126.06 207.16 126.817 207.102 126.817Z" fill="#3F3F40"/>
<path d="M200.909 125.012C200.968 124.954 201.26 125.478 201.611 126.06C201.961 126.7 202.195 127.224 202.136 127.224C202.078 127.282 201.786 126.758 201.435 126.176C201.085 125.536 200.851 125.012 200.909 125.012Z" fill="#3F3F40"/>
<path d="M195.593 137.234C195.652 137.176 196.353 137.7 197.287 138.282C198.222 138.864 199.04 139.271 198.982 139.33C198.982 139.388 198.105 139.097 197.171 138.515C196.177 137.875 195.535 137.293 195.593 137.234Z" fill="#3F3F40"/>
<path d="M204.239 139.97C204.181 139.912 204.707 139.562 205.291 139.213C205.934 138.806 206.459 138.573 206.459 138.631C206.518 138.689 205.992 139.039 205.408 139.388C204.824 139.737 204.239 140.028 204.239 139.97Z" fill="#3F3F40"/>
<path d="M205.7 134.15C205.642 134.092 206.226 133.568 206.752 132.753C207.277 131.938 207.569 131.24 207.628 131.24C207.686 131.24 207.511 132.055 206.927 132.869C206.343 133.684 205.7 134.15 205.7 134.15Z" fill="#3F3F40"/>
<path d="M202.837 132.811C202.779 132.811 202.779 132.171 202.779 131.414C202.837 130.658 202.896 130.018 202.954 130.018C203.013 130.018 203.013 130.658 203.013 131.414C203.013 132.171 202.896 132.811 202.837 132.811Z" fill="#3F3F40"/>
<path d="M201.26 138.573C201.202 138.573 201.085 137.933 200.968 137.118C200.851 136.303 200.851 135.663 200.909 135.663C200.968 135.663 201.085 136.303 201.202 137.118C201.318 137.933 201.318 138.573 201.26 138.573Z" fill="#3F3F40"/>
<path d="M196.878 121.171C196.937 121.171 197.112 121.928 197.346 122.801C197.579 123.674 197.872 124.372 197.813 124.43C197.755 124.43 197.404 123.79 197.112 122.859C196.878 121.928 196.82 121.171 196.878 121.171Z" fill="#3F3F40"/>
<path d="M193.782 131.356C193.724 131.298 194.366 130.949 195.067 130.425C195.768 129.901 196.294 129.436 196.353 129.494C196.411 129.552 195.944 130.076 195.184 130.6C194.483 131.123 193.841 131.356 193.782 131.356Z" fill="#3F3F40"/>
<path d="M189.576 128.213C189.576 128.155 190.277 128.039 191.095 127.922C191.971 127.748 192.614 127.573 192.672 127.631C192.672 127.69 192.029 127.981 191.153 128.097C190.335 128.272 189.576 128.272 189.576 128.213Z" fill="#3F3F40"/>
<path d="M193.665 124.721C193.724 124.663 194.074 124.838 194.542 125.129C195.009 125.42 195.359 125.711 195.301 125.769C195.243 125.827 194.892 125.653 194.425 125.362C194.016 125.071 193.665 124.78 193.665 124.721Z" fill="#3F3F40"/>
<path d="M191.621 120.997C191.679 120.938 192.146 121.288 192.614 121.811C193.081 122.335 193.373 122.859 193.315 122.917C193.256 122.975 192.906 122.51 192.438 121.928C192.03 121.404 191.621 120.997 191.621 120.997Z" fill="#3F3F40"/>
<path d="M188.875 124.547C188.875 124.489 189.517 124.721 190.277 124.896C191.036 125.129 191.679 125.245 191.679 125.303C191.679 125.362 190.978 125.303 190.218 125.129C189.459 124.896 188.816 124.605 188.875 124.547Z" fill="#3F3F40"/>
<path d="M208.095 119.716C208.037 119.658 208.679 118.843 209.322 117.796C210.023 116.748 210.549 115.875 210.607 115.933C210.666 115.933 210.198 116.864 209.497 117.97C208.855 119.018 208.154 119.774 208.095 119.716Z" fill="#3F3F40"/>
<path d="M206.868 115.351C206.81 115.351 206.868 114.595 206.985 113.722C207.102 112.849 207.277 112.092 207.336 112.092C207.394 112.092 207.336 112.849 207.219 113.722C207.102 114.653 206.927 115.351 206.868 115.351Z" fill="#3F3F40"/>
<path d="M202.604 116.05C202.662 116.05 202.837 116.864 203.246 117.854C203.655 118.843 204.181 119.542 204.123 119.542C204.064 119.6 203.48 118.901 203.071 117.912C202.662 116.923 202.545 116.05 202.604 116.05Z" fill="#3F3F40"/>
<path d="M197.579 117.097C197.638 117.039 198.28 117.796 199.098 118.61C199.975 119.425 200.734 120.007 200.676 120.065C200.617 120.124 199.799 119.6 198.923 118.785C198.105 117.912 197.521 117.155 197.579 117.097Z" fill="#3F3F40"/>
<path d="M199.507 108.018C199.566 108.018 199.741 108.949 200.092 110.055C200.442 111.161 200.793 112.034 200.734 112.092C200.676 112.092 200.208 111.277 199.858 110.171C199.566 108.949 199.449 108.018 199.507 108.018Z" fill="#3F3F40"/>
<path d="M205.291 104.992C205.349 104.992 205.466 105.69 205.525 106.621C205.583 107.494 205.583 108.251 205.525 108.251C205.466 108.251 205.349 107.552 205.291 106.621C205.233 105.748 205.233 104.992 205.291 104.992Z" fill="#3F3F40"/>
<path d="M217.267 112.674C217.267 112.616 217.852 112.732 218.494 112.79C219.195 112.849 219.721 112.849 219.721 112.907C219.721 112.965 219.137 113.081 218.436 113.023C217.793 112.965 217.267 112.732 217.267 112.674Z" fill="#3F3F40"/>
<path d="M216.917 109.706C216.917 109.648 217.676 109.182 218.611 108.658C219.604 108.134 220.422 107.785 220.422 107.843C220.422 107.902 219.663 108.367 218.728 108.891C217.735 109.357 216.917 109.764 216.917 109.706Z" fill="#3F3F40"/>
<path d="M213.704 109.822C213.645 109.822 213.821 109.124 214.054 108.309C214.288 107.494 214.58 106.854 214.638 106.854C214.697 106.854 214.522 107.552 214.288 108.367C213.996 109.182 213.762 109.822 213.704 109.822Z" fill="#3F3F40"/>
<g opacity="0.3">
<path d="M204.648 147.012C204.59 145.441 203.772 143.869 202.428 142.996C201.143 142.123 198.748 142.065 197.872 142.705C199.215 142.705 200.793 143.287 201.903 144.102C202.954 144.8 203.889 145.848 204.648 147.012Z" fill="#3F3F40"/>
</g>
<g opacity="0.3">
<path d="M209.731 126.817C209.147 125.594 207.92 124.605 206.576 124.372C205.233 124.139 203.363 124.896 202.837 125.711C203.947 125.245 205.349 125.187 206.518 125.42C207.686 125.711 208.738 126.176 209.731 126.817Z" fill="#3F3F40"/>
</g>
<g opacity="0.3">
<path d="M213.119 114.827C213.645 113.896 213.704 112.732 213.353 111.801C212.944 110.812 212.185 110.346 211.192 110.055C212.185 111.568 213.003 113.081 213.119 114.827Z" fill="#3F3F40"/>
</g>
<path d="M192.205 144.277C192.205 144.277 192.029 144.451 191.737 144.742C191.445 145.033 191.095 145.557 190.744 146.197C190.102 147.536 189.459 149.573 189.284 151.843C189.108 154.112 189.342 156.208 189.576 157.721C189.693 158.477 189.809 159.059 189.868 159.467C189.926 159.874 189.985 160.107 189.985 160.107C189.985 160.107 189.926 159.874 189.809 159.467C189.693 159.059 189.576 158.477 189.401 157.721C189.108 156.208 188.875 154.112 189.05 151.784C189.225 149.456 189.868 147.419 190.569 146.081C190.978 145.441 191.328 144.917 191.679 144.626C191.971 144.393 192.205 144.277 192.205 144.277Z" fill="#3F3F40"/>
<path d="M210.374 160.165C210.374 160.165 210.315 160.165 210.257 160.165C210.14 160.165 210.023 160.165 209.906 160.165C209.556 160.165 209.147 160.165 208.563 160.165C207.394 160.165 205.7 160.165 203.597 160.223C199.391 160.223 193.665 160.223 187.239 160.282C180.988 160.282 175.263 160.282 171.115 160.223L171.173 160.165C171.173 162.319 171.173 164.006 171.173 165.229C171.173 165.811 171.173 166.276 171.173 166.625C171.173 166.8 171.173 166.916 171.173 166.975C171.173 167.033 171.173 167.091 171.173 167.091C171.173 167.091 171.173 167.033 171.173 166.975C171.173 166.858 171.173 166.742 171.173 166.625C171.173 166.276 171.173 165.811 171.173 165.229C171.173 164.006 171.115 162.26 171.115 160.165V160.107H171.173C175.321 160.107 181.046 160.107 187.297 160.049C193.665 160.049 199.449 160.049 203.655 160.107C205.758 160.107 207.394 160.107 208.621 160.165C209.205 160.165 209.614 160.165 209.965 160.165C210.082 160.165 210.198 160.165 210.315 160.165C210.374 160.165 210.374 160.165 210.374 160.165Z" fill="#3F3F40"/>
<path d="M63.9126 58.7226C63.9126 60.0612 62.861 61.1088 61.5173 61.1088C60.1737 61.1088 59.1221 60.0612 59.1221 58.7226C59.1221 57.384 60.1737 56.3364 61.5173 56.3364C62.861 56.3364 63.9126 57.384 63.9126 58.7226Z" fill="white"/>
<path d="M63.9126 58.7226C63.9126 58.7226 63.9126 58.4898 63.7957 58.1406C63.6789 57.7914 63.4452 57.2676 62.9194 56.9184C62.3936 56.511 61.5757 56.3364 60.7578 56.6274C59.9399 56.9184 59.2973 57.7332 59.2973 58.7226C59.2973 59.712 59.9984 60.585 60.7578 60.8178C61.5757 61.1088 62.3936 60.9342 62.9194 60.5268C63.4452 60.1194 63.6789 59.6538 63.7957 59.3046C63.9126 58.9554 63.9126 58.7226 63.9126 58.7226C63.9126 58.7226 63.971 58.9554 63.9126 59.3046C63.8541 59.6538 63.6205 60.2358 63.0362 60.7014C62.5105 61.167 61.5757 61.3998 60.641 61.1088C59.7063 60.8178 58.9468 59.8284 58.9468 58.7226C58.9468 57.6168 59.7063 56.6274 60.641 56.3364C61.5757 55.9872 62.5105 56.2782 63.0362 56.7438C63.6205 57.2094 63.8541 57.7332 63.9126 58.1406C63.971 58.4898 63.9126 58.7226 63.9126 58.7226Z" fill="#3F3F40"/>
<path d="M46.1526 61.6326C53.6889 60.9342 59.2973 54.2994 58.5963 46.7334C57.8952 39.2256 51.2352 33.6384 43.6405 34.3368C36.1042 35.0352 30.5542 41.67 31.1969 49.236C31.8979 56.7438 38.6163 62.331 46.1526 61.6326Z" fill="white"/>
<path d="M46.1526 61.6326C46.1526 61.6326 46.0942 61.6326 45.9189 61.6326C45.7436 61.6326 45.5684 61.6326 45.2763 61.6908C45.1594 61.6908 44.9842 61.6908 44.8089 61.6908C44.6336 61.6908 44.4584 61.6908 44.2247 61.6908C43.8157 61.6908 43.29 61.6326 42.7642 61.5744C41.6542 61.458 40.3689 61.0506 38.9668 60.4104C37.5647 59.7702 36.0458 58.7226 34.7021 57.3258C33.3584 55.8708 32.19 54.0084 31.5473 51.7968C30.9631 49.5852 30.7879 47.0244 31.4889 44.5218C31.6058 43.8816 31.8979 43.2996 32.1316 42.6594C32.4237 42.0774 32.6573 41.4372 33.0663 40.8552C33.4168 40.2732 33.8258 39.7494 34.2347 39.1674C34.7021 38.6436 35.1694 38.1198 35.6952 37.6542C36.7468 36.723 37.9737 35.9082 39.3173 35.3262C40.661 34.7442 42.1215 34.395 43.6405 34.2204C45.1594 34.104 46.6199 34.2204 48.0805 34.5114C49.541 34.8024 50.8847 35.4426 52.0531 36.141C52.6957 36.4902 53.2215 36.9558 53.8057 37.3632C54.3315 37.8288 54.8573 38.2944 55.2662 38.8182C55.7336 39.2838 56.1426 39.8658 56.4931 40.3896C56.8436 40.9716 57.1941 41.4954 57.4278 42.1356C58.5962 44.4636 58.8883 47.0244 58.6547 49.2942C58.421 51.6222 57.6031 53.6592 56.5515 55.2888C55.4999 56.9766 54.2147 58.1988 52.9294 59.13C51.6441 60.003 50.4173 60.6432 49.3657 60.9342C48.8399 61.1088 48.3726 61.2252 47.9636 61.3416C47.7299 61.3998 47.5547 61.458 47.3794 61.458C47.2042 61.458 47.0289 61.5162 46.9121 61.5162C46.6199 61.5744 46.4447 61.5744 46.2694 61.5744C46.211 61.6326 46.1526 61.6326 46.1526 61.6326C46.1526 61.6326 46.211 61.6326 46.3863 61.5744C46.5615 61.5744 46.7368 61.5162 47.0289 61.458C47.1457 61.458 47.321 61.3998 47.4963 61.3998C47.6715 61.3416 47.8468 61.2834 48.0805 61.2834C48.4894 61.167 48.9568 61.0506 49.4826 60.876C50.5341 60.5268 51.7026 59.9448 52.9878 59.0136C54.2147 58.0824 55.4999 56.8602 56.5515 55.2306C57.5447 53.601 58.3626 51.564 58.5378 49.2942C58.7131 47.0244 58.421 44.58 57.311 42.252C57.0773 41.67 56.7268 41.1462 56.3762 40.5642C55.9673 40.0404 55.6168 39.4584 55.1494 38.9928C54.7405 38.469 54.2147 38.0616 53.6889 37.596C53.1631 37.1886 52.5789 36.7812 51.9947 36.432C50.8263 35.7336 49.4826 35.1516 48.0805 34.8606C46.6784 34.5696 45.2178 34.4532 43.7573 34.5696C42.2968 34.7442 40.8947 35.0934 39.551 35.6754C38.2073 36.1992 37.0389 37.014 35.9873 37.9452C35.4616 38.4108 34.9942 38.9346 34.5268 39.4002C34.1179 39.924 33.7089 40.4478 33.3584 41.0298C33.0079 41.6118 32.7158 42.1938 32.4237 42.7758C32.19 43.3578 31.9563 43.998 31.781 44.58C31.08 47.0244 31.2552 49.527 31.8395 51.7386C32.4237 53.9502 33.5921 55.7544 34.8773 57.2094C36.1626 58.6644 37.6815 59.6538 39.0252 60.294C40.4273 60.9342 41.7126 61.3416 42.7642 61.458C43.29 61.5744 43.7573 61.5744 44.2247 61.6326C44.4584 61.6326 44.6336 61.6908 44.8089 61.6908C44.9842 61.6908 45.1594 61.6908 45.2763 61.6908C45.5684 61.6908 45.7436 61.6908 45.9189 61.6908C46.0942 61.6326 46.1526 61.6326 46.1526 61.6326Z" fill="#3F3F40"/>
<path d="M44.9257 52.9026L39.3757 48.8286L40.7778 46.8498L44.5168 49.6434L49.6578 43.4742L51.5273 45.0456L44.9257 52.9026Z" fill="#FF5922"/>
<path d="M49.1904 170.758L46.2109 195.958H50.7678L58.9467 170.758H49.1904Z" fill="#E0E0E0"/>
<path d="M65.8988 161.155L62.9193 186.297H67.4761L75.6551 161.155H65.8988Z" fill="#E0E0E0"/>
<path d="M127.708 170.758L130.98 195.958H126.014L117.076 170.758H127.708Z" fill="#E0E0E0"/>
<path d="M112.227 161.737L115.44 186.937H110.474L101.536 161.737H112.227Z" fill="#E0E0E0"/>
<path d="M62.8609 78.2196C62.8609 78.2196 50.3588 79.0926 42.0047 83.3994C35.4031 86.775 32.2484 91.4892 30.9631 103.42C29.6778 115.293 21.2652 117.737 21.0315 121.811C20.7979 125.769 22.8426 142.763 37.5647 176.752C38.2657 178.324 39.7847 179.313 41.4789 179.313H92.4219V77.463L62.8609 78.2196Z" fill="#455A64"/>
<path d="M111.409 78.2196C111.409 78.2196 123.911 79.0926 132.265 83.3994C138.867 86.775 142.021 91.4892 143.307 103.42C144.592 115.293 153.004 117.737 153.238 121.811C153.472 125.769 151.369 142.88 136.53 177.101C135.946 178.44 134.602 179.313 133.141 179.313H81.8478V77.463L111.409 78.2196Z" fill="#455A64"/>
<path d="M124.028 162.26C124.028 162.26 124.32 162.202 124.904 162.086C125.488 162.028 126.364 161.969 127.416 162.202C128.468 162.435 129.694 162.959 130.688 164.006C131.681 164.996 132.44 166.393 132.966 167.906C133.492 169.419 133.784 170.932 133.959 172.329C134.134 173.726 134.193 174.948 134.251 175.996C134.31 177.043 134.251 177.916 134.251 178.498C134.251 179.08 134.193 179.429 134.193 179.429C134.193 179.429 134.134 179.08 134.134 178.498C134.134 177.916 134.076 177.043 134.018 175.996C133.959 174.948 133.842 173.726 133.667 172.329C133.492 170.99 133.2 169.477 132.674 167.964C132.148 166.451 131.447 165.112 130.454 164.123C129.519 163.133 128.351 162.61 127.358 162.377C125.313 161.969 124.028 162.377 124.028 162.26Z" fill="#3F3F40"/>
<path d="M129.11 147.769C129.11 147.827 110.182 147.943 86.8719 147.943C63.5619 147.943 44.6335 147.885 44.6335 147.769C44.6335 147.71 63.5619 147.594 86.8719 147.594C110.182 147.652 129.11 147.71 129.11 147.769Z" fill="#3F3F40"/>
<path d="M48.3726 161.562C48.3726 161.562 48.0805 161.62 47.4963 161.678C47.2041 161.678 46.8536 161.795 46.5031 161.853C46.3278 161.911 46.0941 161.969 45.9189 162.028C45.6852 162.086 45.4515 162.144 45.2763 162.26C44.3415 162.61 43.3484 163.308 42.5305 164.297C41.7126 165.287 41.0699 166.625 40.7194 168.139C40.3105 169.594 40.1936 171.049 40.1352 172.387C40.0768 173.726 40.1352 174.89 40.1936 175.879C40.2521 176.869 40.3689 177.683 40.4273 178.265C40.4857 178.847 40.5442 179.138 40.5442 179.138C40.5442 179.138 40.4273 178.847 40.3105 178.265C40.1936 177.742 40.0768 176.927 39.96 175.879C39.8431 174.89 39.7847 173.668 39.8431 172.329C39.9015 170.99 40.0184 169.535 40.4273 168.022C40.8363 166.509 41.4789 165.17 42.2968 164.123C43.1731 163.075 44.2247 162.377 45.2178 162.086C45.4515 161.969 45.6852 161.911 45.9189 161.853C46.1526 161.795 46.3278 161.737 46.5615 161.678C46.9705 161.62 47.321 161.562 47.6131 161.562C48.0805 161.504 48.3726 161.504 48.3726 161.562Z" fill="#3F3F40"/>
<path d="M48.3726 161.562C48.3726 161.562 48.3726 161.504 48.3141 161.446C48.2557 161.329 48.1973 161.213 48.1389 161.038C48.022 160.689 47.7884 160.165 47.6131 159.467C47.1457 158.07 46.6199 156.033 45.9773 153.53C45.3347 151.028 44.5752 148.001 43.6989 144.684C42.8226 141.367 41.8878 137.7 40.7194 133.917C40.1352 132.055 39.551 130.192 38.7915 128.504C38.6163 128.097 38.441 127.69 38.2073 127.282C38.0321 126.875 37.7984 126.467 37.5647 126.118C37.0973 125.362 36.6884 124.547 36.221 123.848C35.3447 122.393 34.2931 121.113 33.0663 120.24C31.8394 119.367 30.4373 118.96 29.1521 118.785C26.5816 118.436 24.4784 119.018 23.1931 119.658C21.8495 120.24 21.2653 120.822 21.2653 120.822C21.2653 120.822 21.3237 120.764 21.3821 120.706C21.4989 120.647 21.5574 120.531 21.7326 120.415C22.0247 120.182 22.4921 119.891 23.1931 119.542C24.4784 118.901 26.64 118.261 29.2689 118.552C30.5542 118.727 32.0147 119.134 33.3 120.007C34.5852 120.88 35.6368 122.219 36.5715 123.674C37.0389 124.43 37.4479 125.187 37.9152 125.944C38.1489 126.351 38.3826 126.7 38.5579 127.166C38.7915 127.573 38.9668 127.981 39.1421 128.446C39.9015 130.192 40.4857 131.996 41.07 133.917C42.2384 137.7 43.1731 141.367 44.0494 144.684C44.8673 148.001 45.6268 150.97 46.2694 153.53C46.912 156.033 47.4378 158.07 47.8468 159.467C48.022 160.165 48.1973 160.689 48.3141 161.038C48.3726 161.213 48.431 161.329 48.431 161.446C48.3726 161.504 48.3726 161.562 48.3726 161.562Z" fill="#3F3F40"/>
<path d="M114.622 136.711C114.622 136.711 114.447 136.711 114.096 136.711C113.746 136.711 113.22 136.711 112.577 136.711C111.233 136.711 109.247 136.711 106.677 136.711C101.536 136.711 94.1161 136.711 84.9441 136.711C80.3872 136.711 75.363 136.711 69.9299 136.652C67.2425 136.652 64.4383 136.594 61.5757 136.594C60.1152 136.594 58.7131 136.594 57.1941 136.652C56.8436 136.652 56.4347 136.711 56.1425 136.769C55.792 136.885 55.4999 137.06 55.1494 137.234C54.5068 137.584 53.8641 137.991 53.2215 138.398C51.9362 139.213 50.7094 140.086 49.4826 141.017C48.2557 141.949 47.0289 142.938 45.9189 144.044C45.3931 144.626 44.8089 145.208 44.5168 145.906C44.4584 146.081 44.3999 146.255 44.3999 146.43C44.3999 146.605 44.4584 146.779 44.5168 146.954L44.8089 148.118C45.2178 149.689 45.6268 151.261 46.0357 152.832C46.4447 154.403 46.912 156.033 47.321 157.604C47.5547 158.419 47.7884 159.234 48.022 159.991C48.1389 160.398 48.2557 160.805 48.431 161.213C48.431 161.271 48.4894 161.271 48.4894 161.329V161.387C48.6063 161.387 48.6647 161.446 48.7815 161.446C49.0152 161.446 49.1905 161.504 49.4241 161.504C52.8126 161.678 56.2594 161.678 59.7646 161.737C73.7272 161.911 87.1056 161.911 99.1988 161.911C105.275 161.911 111 161.853 116.433 161.795C119.12 161.737 121.749 161.737 124.203 161.62C124.846 161.62 125.43 161.562 126.072 161.504C126.248 161.504 126.364 161.504 126.54 161.446C126.598 161.446 126.657 161.446 126.773 161.387C126.832 161.387 126.832 161.329 126.89 161.329C127.066 161.155 127.182 160.864 127.299 160.573C127.767 159.467 128.059 158.361 128.292 157.255C128.877 155.044 129.286 152.89 129.753 150.911C129.87 150.388 129.987 149.922 130.045 149.398C130.103 148.933 130.279 148.409 130.279 147.943C130.162 147.012 129.578 146.197 128.993 145.557C127.825 144.218 126.481 143.113 125.254 142.181C124.028 141.25 122.859 140.377 121.866 139.621C120.814 138.864 119.938 138.107 119.062 137.7C118.186 137.234 117.368 137.002 116.725 136.885C116.082 136.769 115.557 136.711 115.206 136.652C115.031 136.652 114.914 136.652 114.797 136.652C114.68 136.711 114.622 136.711 114.622 136.711C114.622 136.711 114.797 136.711 115.148 136.711C115.498 136.711 116.024 136.769 116.667 136.885C117.309 137.002 118.127 137.234 119.003 137.7C119.938 138.107 120.814 138.864 121.808 139.621C122.859 140.377 124.028 141.192 125.254 142.123C126.481 143.054 127.825 144.16 129.052 145.499C129.636 146.197 130.22 147.012 130.396 148.001C130.454 148.525 130.279 148.991 130.22 149.456C130.103 149.922 130.045 150.446 129.928 150.97C129.519 153.007 129.052 155.102 128.526 157.313C128.234 158.419 127.942 159.583 127.533 160.689C127.416 160.98 127.299 161.271 127.066 161.504C127.007 161.562 126.89 161.62 126.832 161.62C126.773 161.62 126.657 161.678 126.598 161.678C126.423 161.678 126.306 161.737 126.131 161.737C125.488 161.795 124.904 161.795 124.261 161.853C121.749 161.969 119.179 162.028 116.433 162.028C111.058 162.086 105.275 162.144 99.1988 162.202C87.1056 162.26 73.7272 162.26 59.7646 162.086C56.2594 162.028 52.8126 162.028 49.4241 161.853C49.1905 161.853 49.0152 161.853 48.7815 161.795C48.6647 161.795 48.5478 161.795 48.431 161.737C48.3726 161.737 48.3141 161.678 48.3141 161.678C48.2557 161.678 48.2557 161.62 48.2557 161.562C48.1973 161.504 48.1973 161.446 48.1973 161.387C48.022 160.98 47.9052 160.573 47.7884 160.165C47.5547 159.35 47.321 158.536 47.0873 157.721C46.6784 156.091 46.211 154.52 45.802 152.948C45.3931 151.377 44.9842 149.806 44.5752 148.234L44.2831 147.07C44.2247 146.896 44.1663 146.721 44.1663 146.43C44.1663 146.197 44.2247 145.964 44.3415 145.79C44.692 145.033 45.2763 144.451 45.802 143.869C46.912 142.763 48.1389 141.716 49.3657 140.785C50.5926 139.853 51.8778 138.98 53.1631 138.166C53.8057 137.758 54.4483 137.351 55.091 137.002C55.4415 136.827 55.7336 136.652 56.1425 136.536C56.5515 136.42 56.902 136.42 57.2525 136.42C58.7131 136.361 60.1736 136.361 61.6341 136.361C64.4967 136.361 67.3009 136.42 69.9883 136.42C75.363 136.42 80.3872 136.478 85.0025 136.478C94.1746 136.536 101.594 136.594 106.735 136.594C109.306 136.594 111.292 136.652 112.636 136.652C113.278 136.652 113.804 136.652 114.155 136.652C114.447 136.652 114.622 136.711 114.622 136.711Z" fill="#3F3F40"/>
<path d="M127.241 161.562C127.241 161.562 127.241 161.504 127.299 161.446C127.358 161.329 127.358 161.213 127.416 161.038C127.533 160.689 127.708 160.165 127.883 159.467C128.234 158.07 128.701 156.033 129.227 153.53C129.753 150.97 130.337 148.001 130.98 144.626C131.681 141.308 132.44 137.584 133.433 133.801C133.959 131.88 134.485 130.076 135.245 128.33C135.42 127.922 135.653 127.515 135.887 127.049C136.121 126.642 136.355 126.293 136.588 125.885C137.056 125.129 137.581 124.43 138.107 123.732C139.159 122.393 140.386 121.229 141.729 120.473C143.014 119.658 144.417 119.251 145.76 119.076C148.389 118.785 150.492 119.425 151.778 120.065C152.42 120.415 152.888 120.706 153.18 120.938C153.297 121.055 153.413 121.113 153.53 121.229C153.589 121.288 153.647 121.346 153.647 121.346C153.647 121.404 153.004 120.822 151.719 120.24C150.434 119.658 148.331 119.018 145.76 119.367C144.475 119.542 143.131 119.949 141.846 120.764C140.561 121.579 139.392 122.684 138.341 124.023C137.815 124.663 137.289 125.42 136.822 126.176C136.588 126.526 136.355 126.933 136.121 127.34C135.946 127.748 135.712 128.155 135.537 128.563C134.836 130.25 134.31 132.113 133.784 133.975C132.791 137.758 132.031 141.425 131.33 144.8C130.629 148.118 130.045 151.144 129.461 153.647C128.935 156.149 128.468 158.186 128.059 159.583C127.883 160.282 127.708 160.805 127.533 161.155C127.475 161.329 127.416 161.446 127.358 161.562C127.299 161.504 127.299 161.562 127.241 161.562Z" fill="#3F3F40"/>
<path d="M128.643 86.6586C128.701 86.6586 126.072 97.8912 122.684 111.743C119.296 125.594 116.491 136.769 116.433 136.769C116.375 136.769 119.003 125.536 122.392 111.685C125.78 97.833 128.585 86.6586 128.643 86.6586Z" fill="#3F3F40"/>
<path d="M44.9841 90.2088C44.9841 90.2088 45.0426 90.3834 45.1594 90.6744C45.2762 91.0236 45.3931 91.431 45.5683 92.013C45.9189 93.2352 46.4447 94.8648 47.0289 96.96C48.2557 101.15 49.9499 106.912 51.7025 113.372C53.4552 119.774 55.0325 125.594 56.1425 129.843C56.6683 131.938 57.1357 133.626 57.4278 134.848C57.5446 135.43 57.6615 135.896 57.7783 136.187C57.8367 136.478 57.8952 136.652 57.8952 136.652C57.8952 136.652 57.8367 136.478 57.7199 136.187C57.6031 135.838 57.4862 135.43 57.3109 134.848C56.9604 133.626 56.4931 131.938 55.9673 129.843C54.7988 125.594 53.2215 119.833 51.4689 113.431C49.6578 107.029 48.0804 101.267 46.912 97.0182C46.3278 94.923 45.8604 93.2352 45.5099 92.0712C45.3347 91.4892 45.2178 91.0236 45.1594 90.7326C45.0426 90.3834 44.9841 90.2088 44.9841 90.2088Z" fill="#3F3F40"/>
<path d="M67.8267 22.6386C67.9435 20.9508 69.404 19.4376 71.0982 19.3794C70.1051 17.7498 70.923 15.4218 72.6172 14.4906C74.3114 13.6176 76.5314 14.0832 77.9335 15.3054C78.7514 13.9086 80.5624 13.2102 82.1398 13.6758C83.7172 14.1414 84.8272 15.7128 84.7687 17.3424C86.3461 16.8768 88.0403 18.099 88.3908 19.7286C88.6829 21.3 87.8066 22.9878 86.4629 23.919C87.2808 24.501 87.164 25.8396 86.5214 26.538C85.8787 27.2946 84.8856 27.5856 83.8924 27.7602L77.7582 29.5644C76.2977 30.3792 74.4866 30.7866 72.9093 30.2046C71.3319 29.6226 70.2219 27.7602 70.8061 26.1888C69.0535 26.0142 67.7098 24.3264 67.8267 22.6386Z" fill="#3F3F40"/>
<path d="M67.8851 21.9402C67.8851 21.9402 67.9436 21.882 68.1188 21.7074C68.2941 21.591 68.5278 21.4164 68.8783 21.3C69.2288 21.1836 69.6962 21.1254 70.2804 21.2418C70.8062 21.3582 71.4488 21.6492 71.8578 22.173L71.6825 22.2312C71.7409 21.4746 72.033 20.6598 72.6757 20.0196C73.2599 19.3794 74.1362 18.7974 75.1293 18.6228C76.1225 18.39 77.2325 18.5646 78.2841 18.972C79.3356 19.3794 80.2704 20.0778 81.0883 20.9508C81.4388 21.3582 81.7893 21.882 81.9646 22.4058C82.1398 22.9296 82.023 23.5698 81.7309 24.0354C81.5556 24.2682 81.3804 24.4428 81.0883 24.6174C80.7962 24.7338 80.504 24.792 80.2704 24.6756C79.7446 24.501 79.3356 24.0936 79.1604 23.5698C79.0435 23.046 79.1604 22.5222 79.4525 22.1148C79.7446 21.7074 80.0951 21.4164 80.5041 21.2418C81.3219 20.8926 82.1983 20.9508 82.8993 21.0672C84.3598 21.3582 85.353 22.1148 85.9372 22.6968C86.2293 22.9878 86.4046 23.2788 86.5214 23.4534C86.6383 23.628 86.6967 23.7444 86.6967 23.7444C86.6967 23.7444 86.463 23.337 85.8788 22.755C85.2946 22.173 84.3014 21.4746 82.8993 21.2418C82.1983 21.1254 81.3804 21.1254 80.6209 21.4746C80.2704 21.6492 79.9198 21.882 79.6862 22.2894C79.4525 22.6386 79.3356 23.1042 79.4525 23.5116C79.5693 23.919 79.9198 24.3264 80.3288 24.4428C80.7377 24.5592 81.2051 24.3264 81.4972 23.919C81.7893 23.5116 81.8477 22.9878 81.6725 22.5222C81.5556 22.0566 81.2051 21.591 80.8546 21.1836C79.3356 19.4958 77.1156 18.5064 75.1877 18.9138C74.253 19.0884 73.4351 19.6122 72.8509 20.2524C72.2667 20.8926 71.9746 21.6492 71.9162 22.3476V22.6386L71.7409 22.4058C71.332 21.882 70.8062 21.591 70.2804 21.5328C69.7546 21.4164 69.3457 21.4746 68.9367 21.5328C68.1772 21.6492 67.8851 21.9984 67.8851 21.9402Z" fill="#455A64"/>
<path d="M73.6104 28.284C73.6104 28.284 73.6104 28.3422 73.5519 28.4586C73.4935 28.575 73.3767 28.6914 73.2598 28.8078C73.0846 28.9242 72.8509 29.0988 72.5588 29.157C72.2667 29.2152 71.8577 29.2152 71.5072 28.9824L70.923 28.6332L71.5656 28.8078C71.7993 28.866 71.9746 28.9242 72.2083 28.9824L73.0262 29.2152L72.1498 29.157C71.6241 29.0988 71.0398 28.8078 70.8062 28.2258C70.5141 27.6438 70.6309 26.8872 71.1567 26.3052L71.3319 26.4798C70.6893 27.411 69.4041 28.0512 68.0604 27.993C66.7167 27.9348 65.4314 26.829 64.9641 25.4322C64.672 24.501 64.7304 23.4534 65.1978 22.5804C65.6651 21.7656 66.8335 21.3582 67.6514 21.882L67.4762 22.1148C66.9504 21.6492 66.6583 21.009 66.5999 20.3688C66.5414 19.7286 66.7167 19.1466 67.0088 18.6228C67.3009 18.1572 67.7683 17.808 68.2356 17.6334C68.703 17.4588 69.1704 17.4588 69.5793 17.5752C70.3972 17.7498 70.923 18.1572 71.1567 18.5064C71.4488 18.8556 71.4488 19.0884 71.4488 19.0884C71.4488 19.0884 71.3319 18.8556 71.0398 18.5646C70.7477 18.2736 70.222 17.8662 69.4625 17.7498C69.112 17.6916 68.6446 17.6916 68.2356 17.8662C67.8267 17.9826 67.4177 18.3318 67.1256 18.7392C66.892 19.2048 66.7167 19.7286 66.7751 20.3106C66.8335 20.8926 67.0672 21.4746 67.5346 21.882L67.3593 22.1148C66.7167 21.7074 65.7235 21.9984 65.3146 22.755C64.8472 23.4534 64.7888 24.4428 65.0809 25.3158C65.4899 26.5962 66.6583 27.5856 67.9435 27.6438C69.1704 27.7602 70.3972 27.1782 70.9814 26.3052L71.1567 26.4798C70.6893 26.9454 70.6309 27.5856 70.8646 28.1094C71.0983 28.6332 71.5656 28.9242 72.033 28.9242L71.9746 29.0988C71.7409 29.0406 71.5072 28.9242 71.3319 28.866L71.3904 28.6914C71.6825 28.866 72.033 28.9242 72.3251 28.866C72.6172 28.8078 72.8509 28.6914 73.0262 28.575C73.4935 28.5168 73.5519 28.284 73.6104 28.284Z" fill="#3F3F40"/>
<path d="M91.0782 24.6756C91.0782 24.6756 91.3119 24.4428 91.604 23.919C91.8961 23.3952 92.1882 22.5804 91.9545 21.5328C91.7793 20.5434 90.903 19.4376 89.5593 19.0302C89.2087 18.9138 88.8582 18.9138 88.5077 18.9138C88.1572 18.9138 87.8066 19.0302 87.6314 19.3212C87.4561 19.6122 87.4561 19.9614 87.8066 20.0778C88.0988 20.1942 88.5077 20.136 88.8582 20.0196C89.5593 19.7286 90.2019 19.1466 90.4356 18.5064C90.7277 17.808 90.6108 17.0514 90.2603 16.4694C89.6177 15.2472 88.274 14.7234 87.2224 14.7816C86.1709 14.7816 85.4114 15.2472 84.944 15.5964C84.4766 15.9456 84.3014 16.2366 84.3014 16.2366C84.3014 16.2366 84.3014 16.1784 84.4182 16.0038C84.5351 15.8874 84.6519 15.7128 84.8856 15.48C85.353 15.0726 86.1124 14.5488 87.2224 14.5488C87.7482 14.5488 88.3909 14.6652 88.9751 14.9562C89.5593 15.2472 90.1435 15.7128 90.494 16.353C90.8445 16.9932 91.0198 17.8662 90.6693 18.6228C90.3772 19.3794 89.7345 20.0196 88.9166 20.3106C88.5077 20.4852 88.0403 20.5434 87.6314 20.3688C87.3977 20.2524 87.2224 20.0778 87.164 19.845C87.1056 19.6122 87.2224 19.3794 87.3393 19.2048C87.6314 18.7974 88.0987 18.7392 88.4493 18.681C88.8582 18.681 89.2087 18.7392 89.5593 18.7974C90.9614 19.2048 91.8961 20.427 92.0714 21.5328C92.2466 22.6386 91.8961 23.5116 91.604 24.0354C91.4287 24.2682 91.3119 24.4428 91.1951 24.5592C91.1366 24.6174 91.0782 24.6756 91.0782 24.6756Z" fill="#3F3F40"/>
<path d="M72.5587 29.6226C73.2598 28.284 75.1877 28.1094 76.5314 28.6914C76.4145 27.6438 76.9403 26.5962 77.8166 26.0724C78.6929 25.5486 79.9198 25.5486 80.7377 26.1306C81.0882 26.3634 81.3803 26.6544 81.7892 26.6544C82.1982 26.6544 82.4903 26.247 82.7824 25.956C83.8924 24.9084 85.8203 25.0248 86.755 26.1888C87.6898 27.3528 87.4561 29.2734 86.2877 30.1464L86.1124 29.3898C83.834 31.6014 80.7961 32.9982 77.6998 33.4638C76.3561 33.6384 74.954 33.6384 73.7856 32.9982C72.6172 32.2998 71.9161 30.7866 72.5587 29.6226Z" fill="#FF5922"/>
<path d="M69.1704 41.2626C68.002 39.5748 68.1188 37.1304 69.4041 35.559C69.8714 34.9188 70.5725 34.4532 71.2735 34.1622C71.3904 32.8818 71.7993 31.6596 72.6172 30.7284C73.8441 29.3316 76.1809 28.9242 77.5246 30.1464C78.5177 27.9348 81.614 27.0036 83.6588 28.284C85.4114 26.1888 89.1503 26.3634 90.7861 28.5168C91.8377 27.8184 93.3567 27.7602 94.4082 28.4586C95.5182 29.157 96.1024 30.4956 95.9272 31.776C97.154 31.5432 98.4977 32.067 99.3156 33.0564C100.133 34.0458 100.367 35.4426 99.8998 36.6066C100.951 36.6648 101.945 37.4214 102.295 38.4108C102.646 39.4002 102.295 40.6224 101.477 41.2626C102.879 42.834 102.47 45.6276 100.659 46.7334C101.01 48.2466 100.017 49.9344 98.5561 50.3418L76.5314 56.9766C72.7925 56.6856 71.7993 54.2994 71.6825 52.0878C70.8062 51.7968 70.0467 51.0984 69.6962 50.2254C69.2872 49.2942 69.3457 48.1884 69.813 47.3154C68.8199 46.7334 68.1188 45.6276 68.002 44.4636C67.8851 43.2414 68.2941 42.0774 69.1704 41.2626Z" fill="#3F3F40"/>
<path d="M77.8167 36.3156L91.3703 33.3474C95.6935 32.9982 98.3809 38.4108 98.5561 42.7176C98.7314 47.49 98.7314 53.3682 98.0303 56.9184C96.6866 64.077 91.1367 64.8336 91.1367 64.8336C91.1367 64.8336 91.1367 64.95 91.0198 67.0452L90.903 70.479C90.8446 71.8758 90.3772 73.2726 89.4425 74.3202C87.2809 76.7064 83.7172 76.8228 79.6277 74.9604C77.2325 73.9128 77.4077 72.5742 77.1156 69.2568L75.1877 38.0034C75.4798 37.4796 76.473 36.432 77.8167 36.3156Z" fill="#FFBF9D"/>
<path d="M95.6934 49.1196C95.6934 49.5852 95.2845 49.9926 94.7587 50.0508C94.2329 50.0508 93.824 49.7016 93.824 49.1778C93.824 48.7122 94.2329 48.3048 94.7587 48.2466C95.2845 48.2466 95.6934 48.654 95.6934 49.1196Z" fill="#3F3F40"/>
<path d="M96.8035 46.326C96.6867 46.4424 95.9856 45.9186 94.9925 45.8604C93.9993 45.8022 93.2398 46.326 93.123 46.2096C93.0646 46.1514 93.1814 45.9186 93.5319 45.744C93.824 45.5112 94.4083 45.3366 94.9925 45.3366C95.6351 45.3366 96.1025 45.6276 96.3946 45.8604C96.8035 46.0932 96.8619 46.2678 96.8035 46.326Z" fill="#3F3F40"/>
<path d="M87.0472 48.8286C87.0472 49.2942 86.6383 49.7016 86.1125 49.7598C85.5867 49.7598 85.1777 49.4106 85.1777 48.8868C85.1777 48.4212 85.5867 48.0138 86.1125 47.9556C86.6383 48.0138 87.0472 48.363 87.0472 48.8286Z" fill="#3F3F40"/>
<path d="M87.3977 46.326C87.2809 46.4424 86.5798 45.9186 85.5867 45.8604C84.5935 45.8022 83.8341 46.326 83.7172 46.2096C83.6588 46.1514 83.7756 45.9186 84.1262 45.744C84.4183 45.5112 85.0025 45.3366 85.5867 45.3366C86.2293 45.3366 86.6967 45.6276 86.9888 45.8604C87.3977 46.0932 87.4562 46.2678 87.3977 46.326Z" fill="#3F3F40"/>
<path d="M90.2603 52.9608C90.2603 52.9026 90.903 52.8444 91.8961 52.728C92.1298 52.728 92.3635 52.6698 92.4219 52.4952C92.4803 52.3206 92.3635 52.0296 92.2466 51.7386C92.013 51.0984 91.7793 50.4582 91.5456 49.818C90.6109 47.0244 89.9098 44.7546 90.0267 44.7546C90.1435 44.6964 91.0198 46.908 91.9545 49.7016C92.1882 50.4 92.4219 51.0402 92.5972 51.6804C92.714 51.9714 92.8309 52.3206 92.714 52.6698C92.6556 52.8444 92.4219 52.9608 92.3051 53.019C92.1298 53.0772 92.013 53.0772 91.8961 53.0772C90.8445 53.0772 90.2603 53.019 90.2603 52.9608Z" fill="#3F3F40"/>
<path d="M91.1367 64.7754C91.1367 64.7754 86.2878 64.95 81.5557 61.9236C81.5557 61.9236 83.7757 67.0452 91.0199 66.5796L91.1367 64.7754Z" fill="#FF9A6C"/>
<path d="M86.8719 54.9396C87.164 54.5322 87.6314 54.2994 88.0988 54.2994C88.7998 54.2994 89.384 54.5322 89.793 55.1724C89.9682 55.347 89.9098 55.8708 89.8514 55.9872C89.793 56.1036 89.8514 56.0454 89.7346 56.1618C89.3256 56.511 88.9167 56.8602 88.3909 56.9766C87.8651 57.093 87.2225 56.9184 86.9304 56.3946C86.5798 55.9872 86.5798 55.347 86.8719 54.9396Z" fill="#FF9A6C"/>
<path d="M87.1056 53.601C87.2808 53.601 87.2224 54.6486 88.1571 55.4634C89.0334 56.2782 90.2019 56.1618 90.2019 56.3364C90.2019 56.3946 89.9682 56.511 89.4424 56.5692C88.975 56.5692 88.274 56.3946 87.7482 55.929C87.2224 55.4634 86.9887 54.8232 86.9303 54.3576C86.9303 53.892 87.0471 53.601 87.1056 53.601Z" fill="#3F3F40"/>
<path d="M87.573 42.0192C87.4562 42.3102 86.463 42.1938 85.2946 42.3684C84.1262 42.543 83.1914 42.8922 83.0162 42.6594C82.9578 42.543 83.0746 42.3102 83.4835 42.0192C83.8341 41.7282 84.4767 41.4954 85.1193 41.379C85.8204 41.2626 86.463 41.379 86.872 41.5536C87.3977 41.67 87.6314 41.9028 87.573 42.0192Z" fill="#3F3F40"/>
<path d="M96.6283 42.834C96.3946 43.0668 95.6935 42.7758 94.7588 42.7176C93.8241 42.6012 93.0646 42.7758 92.8893 42.543C92.8309 42.4266 92.9478 42.1938 93.2983 42.0192C93.6488 41.8446 94.233 41.67 94.8172 41.7282C95.4599 41.7864 95.9857 42.0192 96.2778 42.252C96.6283 42.4848 96.7451 42.7176 96.6283 42.834Z" fill="#3F3F40"/>
<path d="M77.1156 49.1196C77.1156 48.654 76.8235 48.2466 76.3561 48.1302C75.1877 47.8974 73.1429 47.8974 72.9093 50.8074C72.6172 54.8232 76.765 54.2994 76.765 54.183C76.765 54.0666 76.9987 50.6328 77.1156 49.1196Z" fill="#FFBF9D"/>
<path d="M75.6551 52.5534C75.6551 52.5534 75.5967 52.6116 75.4799 52.6698C75.363 52.728 75.1293 52.728 74.9541 52.6698C74.5451 52.4952 74.253 51.7968 74.253 51.0402C74.253 50.691 74.3699 50.3418 74.5451 50.0508C74.662 49.7598 74.8957 49.5852 75.1293 49.527C75.363 49.4688 75.4799 49.6434 75.5383 49.7598C75.5967 49.8762 75.5383 49.9344 75.5967 49.9344C75.5967 49.9344 75.7136 49.8762 75.6551 49.7016C75.6551 49.6434 75.5967 49.527 75.5383 49.4106C75.4215 49.3524 75.3046 49.2942 75.1293 49.2942C74.8372 49.2942 74.4867 49.5852 74.3699 49.8762C74.1946 50.1672 74.0778 50.5746 74.0193 50.982C73.9609 51.7968 74.3699 52.6116 74.9541 52.7862C75.2462 52.9026 75.4799 52.7862 75.5967 52.728C75.6551 52.6698 75.6551 52.5534 75.6551 52.5534Z" fill="#FF9A6C"/>
<path d="M99.9582 45.0456C99.1987 45.0456 98.4392 44.6964 97.9719 44.1144C97.5045 43.5324 97.2708 42.7176 97.4461 42.0192C96.6282 42.0192 95.8103 41.67 95.3429 41.0298C94.8171 40.3896 94.6419 39.5166 94.8756 38.7018C93.9992 39.1092 92.9477 39.1092 92.0129 38.7018C91.1366 38.2944 90.4356 37.4214 90.2603 36.4902C90.2603 36.8394 90.0266 37.1304 89.7345 37.2468C89.4424 37.3632 89.0919 37.4214 88.7998 37.4214C87.7482 37.3632 86.6966 36.6648 86.2877 35.6754C85.6451 36.7812 84.1261 37.2468 82.9577 36.723C82.5488 36.5484 82.1398 36.141 82.1982 35.6754C82.1982 35.5008 82.3151 35.3844 82.4319 35.2098C83.6588 33.3474 85.8787 32.358 88.0987 32.1252C90.3187 31.9506 92.5387 32.4744 94.6419 33.1728C95.8687 33.5802 97.154 34.104 98.0887 35.0352C99.0819 36.0246 99.6077 37.4214 100.075 38.7018C100.426 39.6912 100.776 40.6224 100.951 41.67C101.127 42.6594 101.068 43.7652 100.659 44.6964C100.542 44.6964 100.484 44.6964 100.367 44.6964" fill="#3F3F40"/>
<path d="M82.8993 35.6754C82.8993 37.4214 81.4972 39.051 79.7445 39.2838C80.6208 39.633 81.1466 40.6806 80.9129 41.5536C80.6793 42.4266 79.6277 43.0668 78.7514 42.8922C78.9851 43.4742 79.2187 44.1144 79.2187 44.6964C79.2187 45.3366 78.8682 45.9768 78.2256 46.2096C78.5177 46.617 78.8682 47.1408 78.6929 47.781C78.5761 48.2466 78.1672 48.945 77.2324 48.945C76.6482 48.945 76.1809 48.1884 75.5382 48.1302C74.6619 47.9556 73.7272 48.2466 73.0845 48.8868L72.3251 41.379L73.2598 35.3262L76.8235 32.7654L83.6587 33.9876L82.8993 35.6754Z" fill="#3F3F40"/>
<path d="M71.5657 35.85C71.5657 35.7918 71.8578 35.9082 72.2667 35.7918C72.6757 35.6754 73.3183 35.3262 73.6104 34.6278L73.7857 34.1622L73.8441 34.6278C73.9025 35.1516 74.1946 35.7336 74.7204 36.0828C75.1878 36.4902 75.9472 36.6648 76.6483 36.4902C77.1157 36.3738 77.4662 36.141 77.7583 35.7918L77.8751 35.6172L77.992 35.7918C78.4009 36.3738 78.9851 36.8394 79.5693 37.014C80.1535 37.2468 80.7378 37.2468 81.1467 37.1304C82.0814 36.9558 82.4904 36.5484 82.5488 36.6066C82.5488 36.6066 82.4904 36.723 82.2567 36.8976C82.023 37.0722 81.6725 37.2468 81.2051 37.3632C80.7378 37.4796 80.0951 37.4796 79.5109 37.2468C78.8683 37.014 78.2257 36.6066 77.8167 35.9082H78.0504C77.7583 36.2574 77.2909 36.5484 76.7651 36.6648C76.0057 36.8976 75.1293 36.6648 74.6036 36.1992C74.0194 35.7336 73.7272 35.0934 73.6688 34.5114H73.9025C73.552 35.3262 72.7925 35.6754 72.3251 35.7336C71.7994 36.0246 71.5657 35.9082 71.5657 35.85Z" fill="#455A64"/>
<path d="M82.1982 27.993C82.1982 28.0512 81.5556 28.2258 80.6793 28.8078C80.2704 29.0988 79.803 29.5644 79.5693 30.2046C79.3356 30.8448 79.394 31.6596 79.8614 32.1834C80.0367 32.358 80.2119 32.5326 80.4456 32.5908L80.6209 32.649L80.504 32.8236C80.1535 33.4056 80.2119 34.104 80.4456 34.6278C80.6793 35.1516 81.0882 35.559 81.4388 35.7918C82.1398 36.3156 82.6656 36.6066 82.6072 36.6648C82.6072 36.6648 82.4903 36.6066 82.2567 36.4902C82.023 36.3738 81.6725 36.1992 81.3219 35.9082C80.9714 35.6172 80.504 35.268 80.2119 34.686C79.9198 34.104 79.803 33.2892 80.2119 32.649L80.2703 32.8818C79.9782 32.7654 79.7446 32.5908 79.5693 32.4162C78.9851 31.776 78.9267 30.7866 79.2188 30.0882C79.5109 29.3898 80.0367 28.9242 80.4456 28.6332C80.913 28.3422 81.3219 28.1676 81.614 28.1094C82.023 27.993 82.1982 27.9348 82.1982 27.993Z" fill="#455A64"/>
<path d="M104.164 52.0878C104.164 52.0878 104.106 52.146 104.048 52.146C103.931 52.2042 103.814 52.2042 103.58 52.2624C103.171 52.3206 102.529 52.2624 101.944 51.7968C101.36 51.3894 100.951 50.4 101.185 49.4688C101.302 49.0032 101.594 48.5376 102.061 48.1884C102.295 48.0138 102.529 47.8974 102.879 47.8974C103.171 47.8974 103.522 48.0138 103.697 48.3048C103.872 48.5958 103.872 48.945 103.756 49.236C103.639 49.527 103.405 49.7016 103.171 49.8762C102.704 50.1672 102.12 50.1672 101.652 50.0508C101.185 49.9344 100.776 49.7016 100.426 49.4106C100.133 49.1196 99.8998 48.7704 99.7829 48.4212C99.5492 47.7228 99.5492 47.1408 99.6077 46.7334C99.6661 46.326 99.7829 46.1514 99.7829 46.1514C99.7829 46.1514 99.7245 46.3842 99.7245 46.7334C99.7245 47.1408 99.7245 47.6646 99.9582 48.3048C100.075 48.5958 100.309 48.945 100.601 49.1778C100.893 49.4106 101.243 49.6434 101.711 49.7016C102.12 49.7598 102.646 49.7598 102.996 49.527C103.405 49.2942 103.697 48.7704 103.405 48.4212C103.288 48.2466 103.054 48.1302 102.821 48.1302C102.587 48.1302 102.353 48.2466 102.178 48.363C101.769 48.654 101.536 49.0614 101.419 49.4688C101.185 50.3418 101.477 51.1566 102.003 51.564C102.529 51.9714 103.113 52.0878 103.463 52.0878C103.989 52.146 104.164 52.0296 104.164 52.0878Z" fill="#3F3F40"/>
<path d="M72.3251 47.0244C72.3251 47.0244 72.1498 47.1408 71.7993 47.3154C71.4488 47.4318 70.8646 47.6064 70.2219 47.6064C69.5209 47.6064 68.703 47.49 67.8267 47.1408C67.4177 46.9662 66.9504 46.617 66.7751 46.0932C66.7167 45.8604 66.6583 45.5694 66.7751 45.2784C66.8919 44.9874 67.1256 44.8128 67.4177 44.6964C67.593 44.6382 67.7682 44.6382 67.9435 44.6964L67.8267 44.9874C66.8335 44.5218 66.4246 43.4742 66.483 42.6012C66.5414 42.1356 66.7167 41.7282 66.9504 41.4372C67.184 41.1462 67.5346 40.9134 67.8267 40.797C68.4109 40.506 68.9951 40.5642 69.3456 40.6224C69.6961 40.7388 69.8714 40.8552 69.8714 40.8552C69.8714 40.8552 69.6961 40.797 69.3456 40.7388C68.9951 40.6806 68.4693 40.6806 67.9435 40.9716C67.4177 41.2044 66.8335 41.7864 66.7751 42.6012C66.7167 43.3578 67.1256 44.3472 67.9435 44.6964L67.8267 44.9874C67.7098 44.9292 67.593 44.9874 67.4761 44.9874C67.3009 45.0456 67.1256 45.2202 67.0088 45.3948C66.9504 45.5694 66.9504 45.8022 67.0088 46.035C67.1256 46.4424 67.4761 46.7334 67.8851 46.908C68.6446 47.2572 69.4625 47.3736 70.1635 47.3736C71.5072 47.3736 72.2667 46.9662 72.3251 47.0244Z" fill="#3F3F40"/>
<path d="M100.133 101.034C100.309 101.325 106.852 110.055 106.852 110.055L114.739 102.78L109.714 90.0924L106.677 84.9126L100.133 101.034Z" fill="#FFBF9D"/>
<g opacity="0.3">
<path d="M74.4867 179.371L71.1567 179.313L69.9883 150.795L62.861 147.769L75.8304 139.795L110.474 164.181L117.426 179.371H74.4867Z" fill="#3F3F40"/>
</g>
<path d="M97.3293 169.594L103.464 181.117L112.519 176.054L108.546 163.483L97.3293 169.594Z" fill="#FFBF9D"/>
<path d="M102.354 179.546C102.354 179.546 111.701 179.837 111.876 173.842L112.402 175.064L126.365 184.202C128.585 185.773 128.409 187.577 127.825 188.509C127.358 189.207 126.598 189.614 125.78 189.498C121.457 188.974 105.508 186.821 104.69 185.54L103.872 184.435C102.529 182.863 102.12 180.943 102.529 180.244L102.354 179.546Z" fill="#3F3F40"/>
<g opacity="0.6">
<path d="M127.591 188.741L103.872 184.376L104.398 185.075C104.866 185.89 105.45 185.948 106.151 186.181C108.312 186.821 113.687 187.868 125.722 189.498C126.423 189.556 127.124 189.323 127.591 188.741Z" fill="white"/>
</g>
<g opacity="0.6">
<path d="M105.508 181.35C106.151 181.35 106.735 181.874 106.794 182.456C106.852 183.096 106.326 183.678 105.684 183.736C105.041 183.794 104.34 183.154 104.34 182.514C104.34 181.874 105.041 181.175 105.625 181.292" fill="white"/>
</g>
<path d="M116.491 183.212C116.608 183.212 116.374 182.048 117.017 180.826C117.601 179.604 118.711 179.197 118.653 179.022C118.653 178.964 118.302 179.022 117.893 179.255C117.484 179.488 116.959 179.953 116.608 180.593C116.258 181.234 116.199 181.932 116.258 182.456C116.258 182.98 116.433 183.271 116.491 183.212Z" fill="white"/>
<path d="M119.12 184.202C119.237 184.202 119.412 183.271 120.055 182.398C120.698 181.525 121.574 181.117 121.516 181.001C121.516 180.884 120.464 181.117 119.705 182.107C118.945 183.154 119.004 184.26 119.12 184.202Z" fill="white"/>
<path d="M113.512 182.165C113.629 182.165 113.804 180.943 114.622 179.662C115.44 178.382 116.433 177.683 116.375 177.567C116.316 177.451 115.148 178.091 114.271 179.429C113.395 180.826 113.395 182.165 113.512 182.165Z" fill="white"/>
<path d="M113.804 178.44C113.804 178.44 113.629 178.207 113.278 177.916C112.869 177.625 112.227 177.218 111.35 176.985C110.941 176.869 110.416 176.694 109.831 176.927C109.539 177.043 109.306 177.392 109.306 177.742C109.306 178.091 109.539 178.382 109.773 178.615C110.766 179.488 112.46 179.546 113.57 178.615C114.68 177.625 114.972 176.112 114.564 174.89C114.447 174.599 114.213 174.308 113.862 174.191C113.512 174.075 113.103 174.25 112.928 174.541C112.577 175.064 112.577 175.588 112.519 175.996C112.46 176.927 112.577 177.625 112.752 178.091C112.869 178.556 113.045 178.789 113.045 178.789C113.161 178.789 112.636 177.742 112.869 175.996C112.928 175.588 112.986 175.064 113.278 174.715C113.395 174.541 113.57 174.482 113.804 174.541C113.979 174.599 114.155 174.832 114.213 175.064C114.564 176.054 114.271 177.451 113.278 178.265C112.344 179.08 110.825 179.022 110.065 178.324C109.89 178.149 109.715 177.916 109.715 177.742C109.715 177.567 109.831 177.392 110.007 177.276C110.416 177.101 110.883 177.218 111.292 177.276C112.986 177.683 113.746 178.556 113.804 178.44Z" fill="white"/>
<path d="M77.583 184.726C77.6414 184.726 77.6998 198.926 77.6998 198.926C77.6998 198.926 87.573 200.498 87.573 200.207C87.573 199.974 90.494 186.355 90.494 186.355L77.583 184.726Z" fill="#FFBF9D"/>
<path d="M88.3909 196.307C88.3909 196.307 81.2051 201.72 77.6999 196.831L77.583 198.112L71.0983 213.418C70.1636 215.979 71.2736 217.376 72.2667 217.783C73.0262 218.132 73.9025 217.958 74.5451 217.434C77.8167 214.582 89.9098 203.99 89.8514 202.477L89.9098 201.08C90.1435 199.043 89.4425 197.18 88.683 196.889L88.3909 196.307Z" fill="#3F3F40"/>
<g opacity="0.6">
<path d="M72.6757 217.958L89.9098 201.138L89.8514 202.011C89.9098 202.942 89.4425 203.291 88.9751 203.873C87.573 205.619 83.7172 209.461 74.6035 217.492C74.0778 217.958 73.3183 218.132 72.6757 217.958Z" fill="white"/>
</g>
<g opacity="0.6">
<path d="M86.872 199.567C86.3462 199.916 86.1125 200.672 86.4631 201.196C86.7552 201.72 87.5731 201.953 88.0988 201.662C88.6246 201.313 88.9167 200.44 88.5662 199.916C88.2157 199.392 87.281 199.217 86.8136 199.625" fill="white"/>
</g>
<path d="M78.7515 207.191C78.6346 207.249 78.2257 206.143 76.9988 205.503C75.8304 204.805 74.662 205.096 74.662 204.921C74.662 204.863 74.8957 204.746 75.4215 204.688C75.8888 204.63 76.5899 204.746 77.2325 205.096C77.8751 205.445 78.3425 205.969 78.5762 206.434C78.8099 206.842 78.8099 207.191 78.7515 207.191Z" fill="white"/>
<path d="M77.1156 209.461C76.9988 209.519 76.3561 208.82 75.3046 208.471C74.253 208.122 73.3182 208.238 73.3182 208.122C73.2598 208.006 74.253 207.598 75.4798 208.064C76.7067 208.471 77.2325 209.402 77.1156 209.461Z" fill="white"/>
<path d="M80.6209 204.63C80.504 204.688 79.6861 203.757 78.3424 203.175C76.9988 202.535 75.7135 202.535 75.7135 202.418C75.7135 202.302 77.0572 202.127 78.5177 202.826C79.9782 203.466 80.7377 204.572 80.6209 204.63Z" fill="white"/>
<path d="M78.3425 201.72C78.3425 201.72 78.3425 201.429 78.5177 200.963C78.693 200.498 78.9851 199.799 79.5693 199.101C79.8614 198.752 80.2119 198.344 80.8546 198.228C81.1467 198.17 81.5556 198.286 81.7309 198.635C81.9062 198.926 81.9062 199.276 81.8477 199.625C81.5556 200.905 80.1535 201.895 78.693 201.72C77.2325 201.545 76.1225 200.44 75.772 199.217C75.7135 198.926 75.7135 198.519 75.9472 198.228C76.1809 197.937 76.6483 197.879 76.882 197.995C77.4662 198.228 77.7583 198.635 78.0504 198.985C78.6346 199.683 78.9267 200.381 79.0435 200.847C79.2188 201.313 79.2188 201.604 79.2188 201.604C79.1604 201.662 78.9267 200.498 77.8167 199.159C77.5246 198.868 77.1741 198.461 76.7651 198.344C76.5314 198.286 76.3562 198.344 76.2393 198.461C76.1225 198.577 76.1225 198.868 76.1809 199.101C76.473 200.09 77.4662 201.138 78.7514 201.254C79.9783 201.371 81.2051 200.556 81.4972 199.508C81.5556 199.276 81.5556 198.985 81.4388 198.81C81.3219 198.635 81.1467 198.577 80.9714 198.577C80.5625 198.635 80.1535 198.985 79.8614 199.334C78.5762 200.614 78.4009 201.778 78.3425 201.72Z" fill="white"/>
<path d="M64.672 72.225L76.9988 67.5108C76.9988 67.5108 80.0951 72.8652 85.5867 72.3996C91.1951 71.934 91.0198 67.86 91.0198 67.86L106.501 72.225C106.501 72.225 107.495 93.1188 106.501 96.378C105.508 99.6372 102.587 103.886 102.587 103.886C102.587 103.886 105.625 110.986 105.742 112.965C105.8 114.944 104.982 114.42 104.982 114.42L67.593 114.886L64.672 72.225Z" fill="#FF5922"/>
<g opacity="0.3">
<path d="M97.5629 93.6426C97.0956 93.2352 96.3361 93.5262 95.7519 93.8172C92.5387 95.5632 89.3256 97.3092 86.2293 99.288C82.3735 101.849 78.8098 104.759 75.0125 107.436C72.7925 109.007 70.5141 110.462 68.1188 111.801L67.3009 113.198C68.1772 114.595 69.9298 115.177 71.5072 115.06C73.143 114.944 74.6035 114.187 76.0056 113.314C82.3735 109.298 86.8135 102.838 93.1814 98.8224C94.7587 97.833 96.5114 96.96 97.4461 95.3304C97.8551 94.8066 98.0303 94.05 97.5629 93.6426Z" fill="#3F3F40"/>
</g>
<path d="M99.0234 103.537C99.0234 103.595 98.4392 103.595 97.5045 103.595C96.5698 103.595 95.2261 103.653 93.824 103.769C92.3635 103.886 91.0782 104.002 90.1435 104.119C89.2087 104.235 88.6245 104.293 88.6245 104.293C88.6245 104.235 89.2087 104.119 90.1435 103.944C91.0782 103.769 92.3635 103.595 93.824 103.478C95.2845 103.362 96.6282 103.362 97.5629 103.362C98.4392 103.42 99.0234 103.478 99.0234 103.537Z" fill="#3F3F40"/>
<path d="M59.0636 97.542C59.0636 97.542 62.5104 107.261 64.0294 109.706C65.5483 112.15 66.191 115.351 71.0983 114.071C76.0057 112.79 78.5178 109.589 83.8341 105.224C89.2088 100.859 92.6556 97.542 92.6556 97.542L88.8583 93.0024L73.2015 100.103L69.4625 91.9548L59.0636 97.542Z" fill="#FFBF9D"/>
<path d="M106.326 82.9338L95.5767 88.5792L86.8136 94.1664C86.8136 94.1664 91.1952 98.0076 92.422 97.9494C93.6488 97.833 95.343 96.1452 95.343 96.1452C95.343 96.1452 95.5183 96.669 96.0441 96.8436C96.5699 97.0182 97.2125 96.378 97.2125 96.378C97.2125 96.378 97.8551 96.6108 98.3809 96.6108C98.9067 96.6108 99.5494 94.5738 99.8415 93.2352C100.134 91.8966 99.6078 91.2564 99.6078 91.2564L100.017 91.0236L100.601 92.0712L99.6662 95.3304C99.1988 97.1346 100.893 96.9018 100.893 96.9018C100.893 96.9018 102.821 93.5844 102.996 91.722C103.171 89.8596 101.302 88.6374 101.302 88.6374C101.302 88.6374 105.275 85.2036 106.268 84.5634C107.319 83.865 106.326 82.9338 106.326 82.9338Z" fill="#FFBF9D"/>
<path d="M71.9746 107.203C71.9162 107.203 71.7409 106.796 71.6241 106.156C71.5072 105.457 71.4488 104.468 71.6825 103.42C71.9162 102.373 72.3251 101.5 72.7341 100.918C73.143 100.336 73.4936 100.045 73.4936 100.103C73.552 100.161 72.3836 101.441 71.9746 103.537C71.5072 105.515 72.0915 107.203 71.9746 107.203Z" fill="#FF9A6C"/>
<path d="M65.3146 71.9922C65.3146 71.9922 58.421 74.0292 57.0773 81.3042C56.2594 85.611 58.1873 99.6954 58.1873 99.6954L71.5073 94.7484L65.3146 71.9922Z" fill="#FF5922"/>
<path d="M67.5346 81.6534C67.593 81.6534 67.7683 82.41 68.0604 83.6322C68.3525 84.9126 68.7615 86.5422 69.2288 88.4046C69.6962 90.267 70.1051 91.9548 70.4557 93.1188C70.8062 94.341 71.0399 95.0394 70.9815 95.0976C70.9815 95.0976 70.8646 94.923 70.7478 94.632C70.6309 94.2828 70.4557 93.8172 70.222 93.2352C69.813 92.0712 69.3457 90.3834 68.9367 88.521C68.4694 86.6586 68.1188 84.9708 67.8851 83.7486C67.593 82.41 67.4762 81.6534 67.5346 81.6534Z" fill="#3F3F40"/>
<path d="M67.9435 114.827C67.9435 114.827 59.122 125.129 59.3556 133.451C59.5893 141.774 63.2698 147.769 63.2698 147.769L74.954 148.467C74.954 148.467 76.0056 142.938 80.1535 142.938C81.0882 142.938 96.2777 172.038 96.2777 172.038L111.233 165.229C111.233 165.229 101.419 139.504 99.0234 133.451C96.6282 127.399 94.3498 124.489 91.1366 123.616L87.5729 114.595L67.9435 114.827Z" fill="#3F3F40"/>
<path d="M70.3972 124.78C70.3972 124.838 69.8714 124.663 68.9366 124.605C68.0603 124.547 66.8335 124.605 65.5482 125.012C64.263 125.42 63.2698 126.176 62.6272 126.758C61.9846 127.399 61.6925 127.864 61.634 127.806C61.634 127.806 61.6925 127.69 61.8093 127.457C61.9261 127.224 62.1598 126.933 62.4519 126.584C63.0361 125.885 64.0877 125.129 65.4314 124.663C66.7751 124.198 68.0603 124.198 68.9366 124.314C69.9298 124.547 70.4556 124.78 70.3972 124.78Z" fill="#455A64"/>
<path d="M84.7103 122.626C84.6519 122.626 84.535 120.822 84.535 118.61C84.535 116.399 84.5935 114.595 84.7103 114.595C84.7687 114.595 84.8856 116.399 84.8856 118.61C84.8856 120.822 84.8271 122.626 84.7103 122.626Z" fill="#455A64"/>
<path d="M74.4282 114.595C74.4282 114.595 74.3698 114.769 74.2529 115.06C74.1361 115.351 73.9024 115.759 73.6103 116.224C72.9677 117.155 71.9161 118.378 70.3387 119.192C68.7614 120.007 67.184 120.24 66.074 120.182C65.4898 120.182 65.0224 120.124 64.7303 120.065C64.4382 120.007 64.2629 119.949 64.2629 119.949C64.2629 119.891 64.964 120.065 66.074 120.007C67.184 120.007 68.7029 119.716 70.2219 118.96C71.7408 118.203 72.7924 117.039 73.435 116.166C74.0777 115.235 74.3698 114.595 74.4282 114.595Z" fill="#455A64"/>
<path d="M105.274 114.362C105.274 114.362 110.065 119.134 111.292 126.351C112.519 133.568 112.577 142.996 110.532 146.43L104.632 147.769L99.4324 153.007L92.0714 192.874L75.363 190.662C75.363 190.662 73.7856 155.975 74.3114 152.716C74.8372 149.398 74.954 148.525 74.954 148.525C74.954 148.525 74.6035 143.113 78.5177 139.155C82.4319 135.256 88.0987 131.123 88.0987 131.123L87.573 114.653L105.274 114.362Z" fill="#3F3F40"/>
<path d="M108.897 120.065C108.897 120.065 108.721 120.182 108.371 120.298C108.02 120.415 107.495 120.589 106.793 120.647C105.45 120.822 103.463 120.764 101.594 119.833C101.127 119.6 100.718 119.309 100.309 118.96C99.9582 118.669 99.6077 118.319 99.2572 118.028C98.6145 117.388 98.0888 116.806 97.6214 116.282C97.2124 115.759 96.8619 115.351 96.6282 115.06C96.3945 114.769 96.2777 114.595 96.2777 114.595C96.3361 114.536 96.8619 115.177 97.7382 116.166C98.2056 116.69 98.7314 117.272 99.374 117.854C100.017 118.436 100.776 119.134 101.652 119.6C103.463 120.531 105.391 120.647 106.677 120.473C108.079 120.298 108.897 120.007 108.897 120.065Z" fill="#455A64"/>
<path d="M74.954 148.467C74.954 148.467 74.954 148.292 75.0709 147.885C75.1293 147.71 75.1293 147.478 75.2461 147.187C75.3046 146.896 75.4214 146.605 75.5967 146.255C75.8888 145.557 76.4146 144.8 77.2324 144.102C78.0503 143.404 79.2772 142.88 80.6793 142.705H80.7377V142.763C84.1845 149.165 89.7929 159.467 96.4529 171.863L96.2777 171.805C100.893 169.71 105.976 167.382 111.233 164.996L111.175 165.17C110.416 163.25 109.598 161.155 108.78 159.118C105.976 151.901 103.23 145.033 100.718 138.631C99.4908 135.43 98.264 132.404 97.154 129.494C96.6282 128.039 95.7519 126.758 94.7003 125.769C93.6487 124.78 92.3635 124.081 91.0782 123.79C87.5145 122.801 84.1845 122.51 81.2051 122.626C78.284 122.743 75.7719 123.266 73.7272 123.848C71.7409 124.43 70.2219 125.071 69.2288 125.536C68.703 125.769 68.3525 125.944 68.1188 126.118C67.8851 126.235 67.7098 126.293 67.7098 126.293C67.7098 126.293 67.8267 126.235 68.0604 126.06C68.294 125.944 68.703 125.711 69.1704 125.478C70.1635 125.012 71.6825 124.314 73.6688 123.732C75.6551 123.15 78.1672 122.568 81.1466 122.452C84.1261 122.277 87.5145 122.568 91.0782 123.557C92.4219 123.907 93.7656 124.605 94.8171 125.594C95.9271 126.584 96.8035 127.922 97.3292 129.377C98.4977 132.287 99.6661 135.314 100.951 138.515C103.463 144.917 106.209 151.784 109.013 159.001C109.831 161.096 110.649 163.133 111.409 165.054L111.467 165.17L111.35 165.229C106.092 167.615 101.068 169.885 96.3945 172.038L96.2777 172.096L96.2192 171.98C89.5593 159.525 84.0093 149.224 80.6209 142.822L80.6793 142.88C79.3356 142.996 78.1672 143.578 77.2909 144.218C76.473 144.859 75.9472 145.673 75.6551 146.314C75.4798 146.663 75.363 146.954 75.3046 147.187C75.1877 147.419 75.1877 147.652 75.1293 147.885C75.0125 148.292 74.954 148.467 74.954 148.467Z" fill="#455A64"/>
<path d="M108.897 126.933C108.838 126.991 108.196 126.526 107.086 126.06C106.501 125.827 105.8 125.594 104.982 125.42C104.165 125.245 103.288 125.129 102.295 125.129C101.36 125.129 100.426 125.245 99.6077 125.42C98.7898 125.594 98.0887 125.827 97.5045 126.06C96.3361 126.526 95.6935 126.991 95.6935 126.933C95.6935 126.933 95.8103 126.817 96.1024 126.584C96.2193 126.467 96.4529 126.351 96.6282 126.235C96.8619 126.118 97.0956 125.944 97.3877 125.827C97.9719 125.536 98.6729 125.303 99.4908 125.129C100.309 124.954 101.243 124.838 102.237 124.838C103.23 124.838 104.165 124.954 104.982 125.187C105.8 125.42 106.501 125.653 107.086 125.944C107.378 126.06 107.611 126.235 107.845 126.351C108.079 126.467 108.254 126.584 108.371 126.7C108.78 126.817 108.897 126.933 108.897 126.933Z" fill="#455A64"/>
<g opacity="0.3">
<path d="M80.6793 142.88C80.6793 142.88 85.1193 161.678 89.9098 166.975C94.7588 172.213 96.044 173.377 96.044 173.377L96.3945 172.096L80.6793 142.88Z" fill="#3F3F40"/>
</g>
<path d="M106.735 109.88C106.735 109.88 107.202 106.97 108.663 105.283C110.124 103.653 112.752 101.674 112.752 101.674H113.512L115.44 97.3674L120.873 97.0764C120.873 97.0764 119.705 107.669 117.076 110.87C114.447 114.071 111.759 113.896 110.649 113.605C109.539 113.256 106.735 109.88 106.735 109.88Z" fill="#FFBF9D"/>
<path d="M97.3293 69.024L93.0061 90.1506C92.7724 91.3146 93.6487 92.4204 94.8756 92.4204H124.495C125.371 92.4204 126.131 91.8384 126.306 90.9654L131.038 69.8388C131.33 68.6748 130.395 67.569 129.227 67.569H99.1987C98.264 67.5108 97.5045 68.151 97.3293 69.024Z" fill="#3F3F40"/>
<path d="M97.3293 69.024C97.3293 69.024 97.3293 68.9076 97.3877 68.733C97.4461 68.5584 97.563 68.2674 97.8551 67.9764C98.1472 67.6854 98.5561 67.4526 99.1403 67.4526C99.7245 67.4526 100.367 67.4526 101.068 67.4526C103.989 67.4526 108.196 67.4526 113.395 67.3944C116.024 67.3944 118.828 67.3944 121.924 67.3944C123.443 67.3944 125.021 67.3944 126.657 67.3944C127.474 67.3944 128.292 67.3944 129.11 67.3944C129.987 67.3362 130.921 67.9764 131.155 68.8494C131.272 69.315 131.213 69.7806 131.097 70.188C130.98 70.5954 130.921 71.061 130.804 71.4684C130.629 72.3414 130.396 73.2144 130.22 74.0874C129.811 75.8334 129.402 77.6376 128.993 79.4418C128.176 83.0502 127.358 86.8332 126.481 90.6744C126.423 90.9072 126.364 91.1982 126.248 91.431C126.131 91.6638 125.956 91.8966 125.78 92.0712C125.371 92.4204 124.846 92.595 124.32 92.595C123.327 92.595 122.392 92.595 121.399 92.595C119.471 92.595 117.543 92.595 115.673 92.595C111.935 92.595 108.312 92.595 104.866 92.595C101.419 92.595 98.1472 92.595 95.1093 92.595C94.7588 92.595 94.2914 92.595 93.9409 92.4204C93.5904 92.2458 93.2398 91.9548 93.0646 91.6638C92.8309 91.3146 92.7725 90.9654 92.7725 90.558C92.7725 90.1506 92.8893 89.8596 92.9477 89.5104C93.2398 88.1136 93.5319 86.775 93.7656 85.5528C94.8172 80.4894 95.6935 76.4154 96.2777 73.5636C96.5698 72.1668 96.8035 71.061 96.9788 70.3044C97.0372 69.9552 97.0956 69.6642 97.154 69.4314C97.3293 69.1404 97.3293 69.024 97.3293 69.024C97.3293 69.024 97.3293 69.1404 97.2709 69.315C97.2124 69.5478 97.154 69.7806 97.0956 70.188C96.9203 70.9446 96.7451 72.0504 96.453 73.4472C95.8688 76.299 95.0509 80.4312 94.0577 85.4946C93.824 86.775 93.5319 88.1136 93.2398 89.4522C93.1814 89.8014 93.0646 90.1506 93.0646 90.4998C93.0646 90.849 93.123 91.1982 93.3567 91.4892C93.5319 91.7802 93.824 92.013 94.1161 92.1876C94.4667 92.3622 94.7588 92.3622 95.1677 92.3622C98.2056 92.3622 101.477 92.3622 104.924 92.3622C108.371 92.3622 111.993 92.3622 115.732 92.3622C117.601 92.3622 119.529 92.3622 121.457 92.3622C122.45 92.3622 123.385 92.3622 124.378 92.3622C124.846 92.3622 125.313 92.2458 125.605 91.8966C125.78 91.722 125.897 91.5474 126.014 91.3728C126.131 91.1982 126.131 90.9654 126.189 90.6744C127.066 86.8332 127.883 83.0502 128.701 79.4418C129.11 77.6376 129.519 75.8334 129.928 74.0874C130.103 73.2144 130.337 72.3414 130.512 71.4684C130.629 71.061 130.688 70.5954 130.804 70.188C130.921 69.7806 130.98 69.3732 130.863 68.9658C130.629 68.2092 129.87 67.6272 129.11 67.6854C128.292 67.6854 127.474 67.6854 126.657 67.6854C125.021 67.6854 123.443 67.6854 121.924 67.6854C118.887 67.6854 116.024 67.6854 113.395 67.6854C108.196 67.6854 103.989 67.6272 101.068 67.6272C100.367 67.6272 99.7245 67.6272 99.1403 67.6272C98.6145 67.6272 98.1472 67.86 97.8551 68.0928C97.3877 68.5584 97.3877 69.024 97.3293 69.024Z" fill="#455A64"/>
<path d="M114.972 78.627C114.972 78.627 118.536 84.6798 118.887 85.4946C119.237 86.3094 120.347 87.5316 120.406 88.2882C120.464 89.0448 121.34 93.4098 121.223 94.9812C121.165 96.5526 120.289 98.5314 120.289 98.5314L115.381 97.3092C115.381 97.3092 114.213 96.3198 113.57 94.8066C112.869 93.2934 112.285 92.7696 111.701 92.304C111.058 91.8384 108.605 90.267 108.312 89.7432C107.962 89.0448 108.312 88.5792 108.312 88.5792C108.312 88.5792 107.144 88.0554 106.969 87.4152C106.794 86.7168 106.969 85.8438 108.254 86.4258C109.539 87.0078 114.271 90.3834 114.797 90.0342C115.265 89.685 114.68 88.7538 114.68 88.7538C114.68 88.7538 109.656 84.156 109.364 83.3412C109.13 82.5264 109.831 81.4206 111 82.41C112.168 83.3994 116.024 87.2988 116.433 87.2988C116.842 87.2988 116.375 86.1348 116.375 86.1348C116.375 86.1348 114.388 81.8862 114.038 80.7222C113.746 79.5582 113.979 78.045 114.972 78.627Z" fill="#FFBF9D"/>
<path d="M131.272 68.733C131.272 68.733 131.213 68.733 131.155 68.733C131.038 68.733 130.921 68.733 130.746 68.733C130.337 68.733 129.811 68.733 129.11 68.733C127.65 68.733 125.605 68.733 123.151 68.7912C118.069 68.7912 111.117 68.7912 103.405 68.8494C102.412 68.8494 101.477 68.8494 100.542 68.8494C100.075 68.7912 99.6662 68.9658 99.374 69.2568C99.1988 69.3732 99.0819 69.606 99.0235 69.7806C98.9651 69.9552 98.9067 70.188 98.8483 70.4208C98.4393 72.1668 98.0888 73.9128 97.7383 75.5424C97.0372 78.8016 96.453 81.7116 95.9272 84.2142C95.4014 86.6586 94.9341 88.6374 94.6419 90.0342C94.4667 90.6744 94.3498 91.1982 94.233 91.6056C94.1746 91.7802 94.1746 91.8966 94.1162 92.013C94.1162 92.1294 94.0577 92.1294 94.0577 92.1294C94.0577 92.1294 94.0577 92.0712 94.0577 92.013C94.0577 91.8966 94.1162 91.7802 94.1162 91.6056C94.1746 91.1982 94.2914 90.6744 94.4667 90.0342C94.7588 88.6374 95.1677 86.6586 95.6935 84.2142C96.2193 81.7116 96.8035 78.8016 97.4462 75.5424C97.7967 73.9128 98.1472 72.225 98.5561 70.4208C98.6146 70.188 98.6146 70.0134 98.7314 69.7224C98.7898 69.4896 98.9651 69.2568 99.1404 69.0822C99.4909 68.733 100.075 68.5584 100.542 68.6166C101.477 68.6166 102.412 68.6166 103.405 68.6166C111.117 68.6166 118.069 68.6748 123.151 68.6748C125.663 68.6748 127.708 68.733 129.11 68.733C129.811 68.733 130.337 68.733 130.746 68.733C130.921 68.733 131.038 68.733 131.155 68.733C131.272 68.733 131.272 68.733 131.272 68.733Z" fill="#455A64"/>
<path d="M107.436 106.039C107.436 106.039 107.495 105.865 107.611 105.574C107.728 105.283 107.962 104.875 108.312 104.41C108.955 103.478 110.24 102.373 111.993 101.907C112.46 101.791 112.928 101.732 113.337 101.732L113.22 101.791C113.862 100.568 114.388 99.4044 114.797 98.6478C115.206 97.833 115.44 97.3674 115.44 97.3674C115.498 97.3674 115.323 97.8912 114.972 98.706C114.622 99.5208 114.155 100.627 113.454 101.907L113.395 101.965H113.337C112.928 102.023 112.519 102.023 112.051 102.14C110.416 102.605 109.189 103.653 108.488 104.526C107.728 105.399 107.495 106.039 107.436 106.039Z" fill="#FF9A6C"/>
<path d="M113.804 91.7802C113.746 91.8384 112.519 91.14 111 90.267C109.481 89.3358 108.312 88.5792 108.371 88.4628C108.429 88.4046 109.656 89.103 111.175 89.976C112.636 90.9072 113.804 91.722 113.804 91.7802Z" fill="#FF9A6C"/>
<path d="M115.381 73.8546C115.206 74.4366 114.622 74.7858 114.155 74.6112C113.629 74.4366 113.395 73.8546 113.57 73.2726C113.746 72.6906 114.33 72.3414 114.797 72.516C115.265 72.6906 115.557 73.2726 115.381 73.8546Z" fill="#E0E0E0"/>
<path d="M71.5657 50.691C71.5657 50.691 71.3904 50.5164 71.2151 50.109C71.0399 49.7016 70.923 49.0614 71.0983 48.3048C71.2151 47.5482 71.7409 46.617 72.6172 46.0932C73.0846 45.8022 73.6104 45.6276 74.1362 45.5694C74.4283 45.5694 74.7204 45.5112 75.0125 45.6276C75.3046 45.6858 75.6551 45.9186 75.7136 46.326C75.772 46.5006 75.7135 46.7334 75.5967 46.8498C75.4799 47.0244 75.363 47.0826 75.2462 47.199C74.9541 47.3736 74.6035 47.3736 74.3114 47.3154C73.7272 47.199 73.2014 46.7916 73.0262 46.2678C72.7925 45.744 72.9093 45.162 73.143 44.7546C73.3767 44.3472 73.7272 44.0562 74.1362 43.8816C74.8957 43.5906 75.5967 43.8234 75.9472 43.998C76.3562 44.2308 76.473 44.4054 76.473 44.4054C76.473 44.4054 76.2978 44.2308 75.8888 44.0562C75.5383 43.8816 74.8957 43.707 74.1946 43.998C73.8441 44.1144 73.552 44.4054 73.3767 44.8128C73.2014 45.162 73.143 45.6858 73.3183 46.0932C73.4936 46.5006 73.9025 46.8498 74.4283 46.908C74.662 46.9662 74.9541 46.908 75.1293 46.7916C75.363 46.6752 75.4799 46.4424 75.4799 46.2678C75.4214 46.035 75.2462 45.8604 75.0125 45.8022C74.7788 45.744 74.4867 45.744 74.253 45.744C73.7272 45.8022 73.2599 45.9768 72.8509 46.2096C72.033 46.7334 71.5072 47.5482 71.3904 48.2466C71.2151 48.945 71.332 49.5852 71.4488 49.9926C71.5072 50.4582 71.6241 50.691 71.5657 50.691Z" fill="#3F3F40"/>
</g>
<defs>
<clipPath id="clip0_29_614">
<rect width="239" height="225" fill="white"/>
</clipPath>
</defs>
</svg>
