<svg width="304" height="167" viewBox="0 0 304 167" fill="none" xmlns="http://www.w3.org/2000/svg">
<path d="M188.689 20.8974H146.676V64.1815H188.689V20.8974Z" fill="#E0E0E0"/>
<path d="M185.832 20.8974H143.819V64.1815H185.832V20.8974Z" fill="#FAFAFA"/>
<path d="M185.832 64.1815H143.819V20.8974H185.832V64.1815ZM143.88 64.1815H185.832V20.8974H143.88V64.1815Z" fill="#E0E0E0"/>
<path d="M180.177 26.7288H149.473V58.3502H180.177V26.7288Z" fill="white"/>
<path d="M149.473 58.5907C149.473 58.5907 149.23 58.9514 148.744 59.4323C148.257 59.9734 147.588 60.6346 146.798 61.4162C146.008 62.1977 145.339 62.859 144.792 63.3399C144.244 63.8208 143.94 64.1214 143.88 64.0613C143.88 64.0613 144.123 63.7006 144.609 63.2197C145.096 62.6786 145.764 62.0173 146.555 61.2358C147.345 60.4543 148.014 59.793 148.561 59.3121C149.108 58.8311 149.473 58.5305 149.473 58.5907Z" fill="#E0E0E0"/>
<path d="M180.177 58.5305C180.177 58.5305 180.542 58.771 181.028 59.2519C181.576 59.7329 182.244 60.3942 183.035 61.1757C183.825 61.9572 184.494 62.6185 184.98 63.1595C185.467 63.7006 185.771 64.0012 185.71 64.0613C185.71 64.0613 185.345 63.8208 184.859 63.3399C184.312 62.859 183.643 62.1977 182.852 61.4162C182.062 60.6346 181.393 59.9734 180.907 59.4323C180.42 58.8912 180.177 58.5305 180.177 58.5305Z" fill="#E0E0E0"/>
<path d="M180.116 26.7889C180.116 26.7889 180.36 26.4282 180.846 25.9472C181.332 25.4062 182.001 24.7449 182.792 23.9634C183.582 23.1819 184.251 22.5206 184.798 22.0396C185.345 21.5587 185.649 21.2581 185.71 21.3182C185.71 21.3182 185.467 21.6789 184.98 22.1599C184.494 22.7009 183.825 23.3622 183.035 24.1437C182.244 24.9252 181.576 25.5865 181.028 26.0675C180.481 26.5484 180.116 26.849 180.116 26.7889Z" fill="#E0E0E0"/>
<path d="M149.412 26.9091C149.412 26.9091 149.048 26.6686 148.561 26.1877C148.014 25.7068 147.345 25.0455 146.555 24.264C145.764 23.4824 145.096 22.8212 144.609 22.2801C144.123 21.7391 143.819 21.4385 143.88 21.3784C143.88 21.3784 144.244 21.6188 144.731 22.0998C145.278 22.5807 145.947 23.242 146.737 24.0235C147.528 24.805 148.196 25.4663 148.683 26.0074C149.169 26.5484 149.412 26.849 149.412 26.9091Z" fill="#E0E0E0"/>
<path d="M180.116 58.3502C180.116 58.3502 180.116 58.2901 180.116 58.1699C180.116 58.0496 180.116 57.9294 180.116 57.7491C180.116 57.3282 180.116 56.7872 180.116 56.0658C180.116 54.5629 180.116 52.3987 180.056 49.6333C180.056 44.1025 179.995 36.1671 179.995 26.7288L180.116 26.849C171.179 26.849 160.66 26.849 149.473 26.849L149.595 26.7288C149.595 38.3313 149.595 49.2125 149.595 58.3502L149.473 58.23C158.654 58.23 166.315 58.2901 171.665 58.2901C174.34 58.2901 176.468 58.2901 177.867 58.3502C178.596 58.3502 179.144 58.3502 179.508 58.3502C179.691 58.3502 179.812 58.3502 179.934 58.3502C180.056 58.3502 180.116 58.3502 180.116 58.3502C180.116 58.3502 180.056 58.3502 179.995 58.3502C179.873 58.3502 179.752 58.3502 179.569 58.3502C179.204 58.3502 178.657 58.3502 177.928 58.3502C176.468 58.3502 174.401 58.3502 171.726 58.4103C166.376 58.4103 158.715 58.4705 149.473 58.4705H149.352V58.3502C149.352 49.2125 149.352 38.3313 149.352 26.7288V26.6085H149.473C160.66 26.6085 171.179 26.6085 180.116 26.6085H180.238V26.7288C180.238 36.2272 180.177 44.1626 180.177 49.6934C180.177 52.4588 180.177 54.623 180.116 56.1259C180.116 56.8473 180.116 57.4485 180.116 57.8092C180.116 57.9895 180.116 58.1098 180.116 58.23C180.116 58.3502 180.116 58.3502 180.116 58.3502Z" fill="#E0E0E0"/>
<path d="M170.023 37.4897H159.748V47.6494H170.023V37.4897Z" fill="#EBEBEB"/>
<path d="M275.971 21.3369C269.466 24.6433 264.48 30.4145 260.893 36.7268C257.306 43.039 254.995 50.0126 252.685 56.8659L250.678 92.395C258.278 79.6502 264.358 64.6811 266 49.9525C264.298 49.8322 262.656 49.6519 260.954 49.5317C264.358 49.0507 267.155 46.5859 268.979 43.7003C270.803 40.8147 271.715 37.5083 272.627 34.262C270.56 34.5626 268.554 34.8631 266.486 35.1637C271.29 31.9775 274.816 26.9277 275.971 21.3369Z" fill="#3F3F40"/>
<path d="M249.584 100.691C249.584 100.691 233.168 81.2132 233.35 62.6371H239.978C239.978 62.6371 232.742 57.948 233.35 55.3029C233.898 52.6577 234.141 42.7384 234.141 42.7384L240.221 44.2414C240.221 44.2414 235.661 42.017 235.114 38.41C234.566 34.803 236.451 18.331 236.451 18.331C236.451 18.331 243.869 26.0259 246.118 33.9013C248.368 41.7766 254.387 50.9744 252.624 75.0212C250.861 99.0679 249.584 100.691 249.584 100.691Z" fill="#455A64"/>
<path d="M257.914 102.495C257.914 102.495 275.728 90.7718 279.68 75.8027L274.33 74.3599C274.33 74.3599 281.139 72.1356 281.261 69.9113C281.382 67.6869 283.45 59.6313 283.45 59.6313L278.221 59.511C278.221 59.511 282.355 58.6694 283.632 55.9641C284.909 53.1988 287.037 39.5522 287.037 39.5522C287.037 39.5522 279.376 44.1211 275.789 49.9525C272.202 55.7838 265.392 61.9157 261.501 81.5739C257.61 101.232 257.914 102.495 257.914 102.495Z" fill="#455A64"/>
<path d="M240.89 35.3441C240.89 35.3441 240.89 35.4042 240.95 35.5244C241.011 35.7047 241.011 35.8851 241.072 36.1256C241.194 36.6666 241.376 37.4481 241.619 38.41C241.862 39.432 242.106 40.6343 242.41 42.0771C242.714 43.5199 243.018 45.1431 243.382 46.9466C244.112 50.5536 244.842 54.882 245.571 59.6914C246.301 64.5007 247.03 69.791 247.699 75.3819C248.368 80.9728 248.854 86.263 249.219 91.1325C249.584 96.002 249.827 100.33 250.01 103.997C250.131 105.861 250.131 107.484 250.192 108.927C250.253 110.37 250.253 111.632 250.253 112.654C250.253 113.676 250.253 114.458 250.253 114.999C250.253 115.239 250.253 115.48 250.253 115.6C250.253 115.72 250.253 115.78 250.253 115.78C250.253 115.78 250.253 115.72 250.253 115.6C250.253 115.42 250.253 115.239 250.253 114.999C250.253 114.458 250.192 113.676 250.192 112.654C250.192 111.632 250.131 110.37 250.07 108.927C250.01 107.484 249.949 105.801 249.827 103.997C249.645 100.33 249.341 95.9418 248.976 91.1325C248.55 86.3231 248.064 80.9728 247.395 75.3819C246.726 69.791 245.997 64.5007 245.267 59.7515C244.538 54.9421 243.808 50.6137 243.139 47.0067C242.835 45.2032 242.47 43.5801 242.227 42.1373C241.984 40.6944 241.68 39.4921 241.498 38.4701C241.315 37.4481 241.133 36.7267 241.011 36.1256C240.95 35.8851 240.95 35.6446 240.89 35.5244C240.89 35.4042 240.829 35.3441 240.89 35.3441Z" fill="#3F3F40"/>
<path d="M247.334 112.594C247.334 112.594 232.317 95.7014 227.635 85.4815L231.162 83.9786C228.608 84.3994 225.994 83.3173 223.987 81.634C221.981 80.0109 220.522 77.7866 219.123 75.6825L223.744 74.9009C219.549 73.6986 215.779 70.8731 213.59 67.1459C219.062 68.0476 224.048 70.9934 228.122 74.7206C231.405 77.7264 234.262 81.2132 236.938 84.8202C238.275 86.5636 239.37 88.4272 240.342 90.351C242.896 95.5811 247.334 106.402 247.334 112.594Z" fill="#455A64"/>
<path d="M279.923 49.4114C279.923 49.4114 279.923 49.4715 279.862 49.5918C279.802 49.712 279.741 49.8923 279.619 50.0727C279.376 50.4935 279.072 51.1548 278.707 51.9363C277.917 53.5595 276.762 55.904 275.363 58.8497C273.965 61.7955 272.384 65.2822 270.682 69.1898C268.979 73.0974 267.155 77.4258 265.392 82.0548C263.629 86.6237 261.987 91.0724 260.589 95.1002C259.19 99.128 257.974 102.795 257.002 105.861C256.029 108.927 255.299 111.452 254.752 113.195C254.509 114.037 254.326 114.698 254.144 115.179C254.083 115.42 254.022 115.54 253.962 115.72C253.901 115.841 253.901 115.901 253.901 115.901C253.901 115.901 253.901 115.841 253.962 115.72C254.022 115.6 254.022 115.42 254.083 115.179C254.205 114.698 254.387 114.037 254.63 113.195C255.117 111.452 255.846 108.927 256.758 105.861C257.67 102.735 258.886 99.128 260.285 95.0401C261.683 91.0123 263.264 86.5636 265.088 81.9947C266.912 77.4259 268.736 73.0373 270.438 69.1297C272.141 65.2221 273.782 61.7354 275.181 58.7896C276.579 55.904 277.734 53.5595 278.586 51.9363C279.011 51.1548 279.315 50.5536 279.558 50.0727C279.68 49.8923 279.741 49.712 279.802 49.5918C279.923 49.4114 279.923 49.3513 279.923 49.4114Z" fill="#3F3F40"/>
<path d="M248.611 119.808C248.611 119.808 248.55 119.688 248.55 119.508C248.49 119.267 248.49 118.967 248.429 118.606C248.307 117.824 248.125 116.682 247.821 115.299C247.578 113.917 247.152 112.294 246.666 110.49C246.179 108.687 245.51 106.763 244.781 104.719C243.99 102.735 243.2 100.811 242.349 99.1881C241.498 97.5049 240.707 96.0621 239.978 94.7996C239.248 93.5973 238.64 92.6354 238.214 91.9741C238.032 91.6735 237.85 91.4331 237.728 91.1926C237.606 91.0123 237.546 90.892 237.546 90.892C237.546 90.892 237.606 90.9521 237.728 91.1325C237.85 91.3128 238.032 91.5533 238.275 91.8539C238.762 92.5152 239.37 93.477 240.099 94.6794C240.829 95.8817 241.68 97.3846 242.531 99.0078C243.382 100.691 244.234 102.555 244.963 104.599C245.754 106.643 246.362 108.566 246.848 110.37C247.334 112.173 247.699 113.797 247.942 115.239C248.186 116.622 248.368 117.764 248.429 118.546C248.49 118.906 248.49 119.207 248.49 119.448C248.611 119.748 248.611 119.808 248.611 119.808Z" fill="#3F3F40"/>
<path d="M268.432 115.841H235.478V122.453H268.432V115.841Z" fill="#FF5922"/>
<path d="M238.64 122.514L242.045 141.571H261.926L265.453 122.514H238.64Z" fill="#FF5922"/>
<path d="M266.426 122.514C266.426 122.574 260.224 122.694 252.502 122.694C244.841 122.694 238.579 122.634 238.579 122.514C238.579 122.453 244.781 122.333 252.502 122.333C260.163 122.333 266.426 122.393 266.426 122.514Z" fill="#EBEBEB"/>
<path d="M287.28 141.811C287.28 141.871 226.723 141.991 152 141.991C77.2767 141.991 16.7198 141.931 16.7198 141.811C16.7198 141.691 77.2767 141.691 152 141.691C226.723 141.691 287.28 141.751 287.28 141.811Z" fill="#3F3F40"/>
<path d="M61.7727 88.307L57.8207 87.826C55.3279 89.4492 52.288 90.4111 49.0048 90.3509C41.2832 90.1706 34.8384 84.0988 34.2912 76.4639C33.6832 67.6869 40.7968 60.2324 49.7952 60.4729C57.456 60.6532 63.7792 66.6048 64.448 74.1194C64.752 77.8466 63.7184 81.3334 61.6512 84.1589L61.7727 88.307Z" fill="white"/>
<path d="M61.7726 88.307C61.7726 88.307 61.7726 88.1867 61.7726 88.0064C61.7726 87.826 61.7726 87.5254 61.7726 87.1647C61.7726 86.4433 61.7118 85.4214 61.7118 84.0387L61.7726 84.0988H61.7118V84.0387C62.8062 82.5358 63.9614 80.3114 64.387 77.3657C64.5694 75.9229 64.5693 74.2997 64.2654 72.6165C63.9613 70.9332 63.2926 69.2499 62.3198 67.6268C61.2862 66.0036 59.9486 64.5007 58.2462 63.2984C56.5438 62.096 54.5373 61.1341 52.2878 60.7734C50.0989 60.3526 47.7277 60.4729 45.4173 61.074C43.1069 61.6752 40.9789 62.9377 39.1549 64.6209C38.2429 65.4626 37.4525 66.4244 36.7837 67.4464C36.4797 67.9875 36.1757 68.4684 35.9325 69.0095L35.5677 69.8511L35.3853 70.2719L35.2637 70.6927C34.5341 72.917 34.3517 75.3217 34.6557 77.546C34.9597 79.7704 35.8109 81.8143 36.9661 83.5577C38.1213 85.3011 39.6414 86.7439 41.2222 87.7659C42.803 88.848 44.5661 89.5093 46.2077 89.87C46.6333 89.9301 47.0589 89.9902 47.4845 90.1105C47.9101 90.1706 48.3357 90.1706 48.7005 90.2307C49.4909 90.2908 50.2814 90.2307 51.011 90.1706C53.9902 89.87 56.3006 88.7879 57.8206 87.7659C57.8206 87.7659 57.8205 87.7659 57.8813 87.7659C59.1581 87.9463 60.131 88.0665 60.7998 88.1266C61.1038 88.1867 61.4078 88.1867 61.5902 88.2469C61.651 88.307 61.7726 88.307 61.7726 88.307C61.7726 88.307 61.7118 88.307 61.5294 88.307C61.3469 88.307 61.1038 88.2469 60.7998 88.2469C60.131 88.1867 59.0973 88.0665 57.8813 87.9463H57.9422C56.4222 88.9683 54.1117 90.1105 51.0717 90.4111C50.3421 90.4712 49.5517 90.5313 48.7005 90.4712C48.2749 90.411 47.8493 90.4111 47.4845 90.3509C47.0589 90.2908 46.6333 90.2307 46.2077 90.1105C44.5053 89.7498 42.7421 89.0284 41.1005 87.9463C39.4589 86.8642 37.9389 85.4214 36.7837 83.678C35.6285 81.9346 34.7165 79.8305 34.4125 77.546C34.1085 75.2616 34.2909 72.8569 35.0205 70.5725L35.1421 70.1517L35.3245 69.7308C35.4461 69.4303 35.5677 69.1898 35.6893 68.8892C35.9325 68.3482 36.2973 67.8071 36.6013 67.2661C37.2701 66.2441 38.0605 65.2221 39.0333 64.3805C40.8573 62.6972 43.0461 61.4347 45.4173 60.7734C47.7277 60.1723 50.1597 60.052 52.4093 60.4729C54.6589 60.8937 56.7262 61.8555 58.4286 63.0579C60.131 64.3203 61.5294 65.8233 62.563 67.4464C63.5966 69.0696 64.2045 70.813 64.5086 72.5563C64.8125 74.2396 64.8126 75.8628 64.6302 77.3657C64.2046 80.3114 62.9886 82.5959 61.8942 84.0988L61.8333 84.0387H61.8942C61.8942 84.0387 61.8942 84.0387 61.8942 84.0988C61.8942 85.4815 61.8942 86.5035 61.8942 87.2249C61.8942 87.5856 61.8942 87.826 61.8942 88.0064C61.7726 88.1867 61.7726 88.307 61.7726 88.307Z" fill="#3F3F40"/>
<path d="M42.7423 76.2836L44.6271 74.2997L48.5183 77.4859L55.6927 70.1517L57.5775 72.0754L48.3967 81.2132L42.7423 76.2836Z" fill="#FF5922"/>
<path d="M85.9713 42.4379C86.3361 41.2356 87.3089 40.2737 88.4641 39.8529C88.9505 39.6725 89.4977 39.6124 89.8017 39.1916C89.9841 38.891 89.9841 38.5303 90.1057 38.1696C90.3489 37.0875 91.6865 36.4262 92.7201 36.7869C92.9633 36.9071 93.2065 37.0274 93.5105 37.0274C94.6049 37.0875 94.7873 34.9233 95.8817 34.9834C95.5777 35.3441 95.3345 35.7649 95.2737 36.2459C95.2129 36.7268 95.5169 37.2077 95.9425 37.328C97.0977 37.6285 97.7057 35.4042 98.9217 35.5245C99.5905 35.5846 100.077 36.4262 100.685 36.2459C100.928 36.1857 101.11 36.0054 101.354 35.8852C102.083 35.4042 103.178 35.7048 103.603 36.4262C103.968 37.0274 104.029 37.9893 104.758 38.1696C105.184 38.2898 105.61 38.0494 106.035 37.7488C106.339 38.35 106.461 39.0112 106.461 39.6725C107.798 39.7326 108.954 41.1153 108.832 42.4379C109.562 42.6182 110.291 42.7385 110.899 43.1593C111.507 43.5801 111.933 44.3015 111.811 45.0229C111.811 45.2033 111.75 45.3235 111.75 45.5039C111.75 45.6842 111.872 45.8646 111.994 45.9848C112.419 46.5258 112.966 47.0068 113.27 47.6079C113.574 48.2091 113.453 49.1109 112.784 49.4115C112.662 49.4716 112.419 49.4716 112.358 49.6519C112.298 49.7722 112.298 49.8924 112.358 50.0126C112.48 50.4936 112.845 50.8543 113.088 51.2751C113.392 51.6959 113.635 52.1768 113.514 52.6578C113.453 53.1387 112.906 53.5595 112.419 53.3792C112.966 53.9803 113.453 54.5815 114 55.1827C114.304 55.5434 114.608 56.0243 114.486 56.4451C114.304 57.0463 113.392 57.0463 112.906 56.7457C112.358 56.4451 111.994 55.9041 111.446 55.5434C111.203 55.4231 110.96 55.3029 110.778 55.1827C110.656 55.0624 110.534 54.8821 110.291 54.822C109.926 54.7017 109.683 55.3029 109.866 55.6636C110.109 56.0243 110.474 56.1445 110.899 56.3249C111.264 56.5052 111.629 56.8058 111.629 57.2266C111.629 57.407 111.507 57.5873 111.507 57.7677C111.446 58.429 112.48 58.5492 112.906 59.0903C113.21 59.5111 113.088 60.0521 112.906 60.5331C112.723 61.0741 112.115 61.7955 111.629 61.4348C111.446 61.3146 111.386 61.0741 111.264 60.9539C111.082 60.7735 110.838 60.7134 110.595 60.6533C109.987 60.473 109.44 60.1123 109.075 59.6914C109.805 60.0521 110.656 60.5331 110.656 61.3747C110.656 61.7354 110.474 62.036 110.413 62.3366C110.23 62.9377 110.23 63.6591 110.048 64.2603C109.866 64.9216 109.318 65.5228 108.65 65.4627C109.136 65.9436 109.197 66.7251 108.832 67.3263C108.467 67.8673 107.677 68.1078 107.069 67.9274C106.886 67.8673 106.704 67.7471 106.522 67.8072C106.339 67.8072 106.157 67.9876 105.974 68.0477C105.002 68.7691 103.664 68.8292 102.57 68.2881C102.691 68.1679 102.874 67.9876 102.995 67.8673C101.901 68.228 100.685 68.6489 99.5297 68.4685C98.3745 68.2882 97.2193 67.3864 97.1585 66.2442C97.1585 65.7632 97.3409 65.102 96.9153 64.8014C96.6721 64.5609 96.2465 64.621 95.8817 64.621C94.4225 64.8014 92.9633 64.9817 91.4433 65.102C90.7137 65.1621 89.9841 65.2823 89.3153 64.9817C88.6465 64.6811 88.2209 63.8395 88.5857 63.2383C88.0385 62.8175 87.3089 62.5169 86.5793 62.4568C85.7889 62.3967 84.9377 62.577 84.1473 62.5169C83.3569 62.4568 82.4449 62.1562 82.1409 61.3747C81.8369 60.6533 82.5665 59.5712 83.2961 59.8718C82.6881 58.8498 80.6817 59.6914 79.9521 58.7296C79.4049 57.948 80.3169 56.9261 80.5601 55.9642C80.3169 55.7237 79.8913 55.6636 79.5873 55.4231C78.9793 54.9422 79.3441 53.9803 79.8305 53.3792C80.3169 52.778 80.9249 52.1167 80.7425 51.3953C80.5601 50.6138 79.5873 50.1329 79.6481 49.3513C79.7089 48.9305 80.1345 48.5698 80.5601 48.6299C80.4385 47.127 83.2961 46.9467 83.4177 45.4437C83.4177 45.3235 83.4177 45.2033 83.3569 45.083C83.2961 45.0229 83.2353 44.9628 83.1137 44.9027C82.6881 44.7223 82.1409 44.7223 81.6545 44.6021C81.1681 44.4819 80.6817 44.1813 80.6209 43.7004C80.5601 43.2194 81.3505 42.8587 81.5937 43.2795C81.8369 42.6784 82.8097 42.498 83.2353 42.9188C83.3569 42.3778 83.9649 42.1373 84.5121 42.1373C85.0593 42.1974 85.5457 42.4379 85.9713 42.7385" fill="#3F3F40"/>
<path d="M98.8001 53.3792C97.4625 51.8161 95.3953 51.0346 93.3889 50.6739C92.5377 50.5537 91.6257 50.4334 90.8353 50.734C89.9841 51.0346 89.2545 51.6959 89.2545 52.5977L90.0449 53.8C90.9569 55.9041 93.3889 56.8058 95.1521 58.3088C95.8817 58.97 96.6721 59.8117 97.7057 59.7516C98.2529 59.6914 98.6785 59.3909 99.0433 59.0302C100.381 57.4671 100.077 54.9422 98.8001 53.3792Z" fill="#FF5922"/>
<path d="M103.846 62.5771C104.211 60.473 102.752 58.1885 100.685 57.5874C100.928 56.2648 99.8945 55.0023 98.6177 54.4613C97.3409 53.9202 95.9425 54.0405 94.6049 54.1006C92.5377 51.6959 88.4033 51.4554 86.0321 53.5595C83.4785 52.237 80.3169 53.5595 78.2497 55.5434C77.7633 56.0243 77.2769 56.5654 76.6689 56.866C76.2433 57.1064 75.6961 57.2267 75.2097 57.407C72.5953 58.3689 71.0753 61.3747 71.3185 64.2002C71.3793 64.621 71.4401 65.102 71.3793 65.5228C71.2577 66.124 70.9537 66.6049 70.7105 67.1459C70.1633 68.2882 70.2241 69.6709 70.7713 70.8131C71.2577 71.7749 72.1089 72.6166 72.1697 73.6987C72.2305 74.2397 72.0481 74.7808 72.1089 75.3218C72.3521 76.8849 74.5409 77.4259 75.0273 78.9289C75.1489 79.2294 75.1489 79.53 75.2097 79.8907C75.3313 80.552 75.7569 81.0931 76.2433 81.5139C76.6689 81.8145 77.1553 81.9948 77.4593 82.4156C77.6417 82.7162 77.7025 83.137 77.8241 83.4977C78.0673 84.3995 81.5329 86.5637 82.5057 86.6238L103.664 75.6224C105.062 74.4802 105.61 72.316 104.88 70.6327C104.758 70.3321 104.637 70.0917 104.637 69.7911C104.698 69.5506 104.88 69.3101 105.002 69.1298C105.974 67.687 105.123 65.7633 104.15 64.3205C104.029 64.1401 103.846 63.8996 103.846 63.6592C103.725 63.2985 103.786 62.9378 103.846 62.5771Z" fill="#3F3F40"/>
<path d="M97.8273 65.8234C95.8817 62.0961 91.2609 59.0903 86.5793 59.2706C83.6001 59.3909 81.7761 60.3527 80.4993 60.8337C77.5809 61.9759 76.1217 64.5008 76.1217 64.5008C75.0881 65.4025 72.9601 71.4743 74.9665 75.8028C77.2161 80.552 80.1953 86.3232 82.6881 89.4493C87.6737 95.7616 93.5105 93.7176 93.5105 93.7176L96.1249 99.068L103.421 105.2L109.927 94.6794L111.325 92.395L97.8273 65.8234Z" fill="#FFBF9D"/>
<path d="M92.0513 82.9566C91.8081 82.6561 91.5041 82.4156 91.1393 82.3555C90.4097 82.1751 89.6801 82.4757 89.3153 83.0769C88.9505 83.6781 89.1937 84.3393 89.6193 85.0006C90.1057 85.2411 90.5313 85.5417 91.0785 85.3613C91.1393 85.3012 91.2609 85.3012 91.3217 85.2411C91.6865 85.0607 92.0513 84.7602 92.1729 84.3393C92.3553 83.8584 92.2945 83.3775 92.0513 82.9566Z" fill="#FF9A6C"/>
<path d="M80.3169 80.552C80.5601 81.0329 81.1681 81.2133 81.6545 80.9728C82.1409 80.7323 82.3841 80.1311 82.1409 79.6502C81.8977 79.1693 81.2897 78.9889 80.8033 79.2294C80.2561 79.4699 80.0737 80.071 80.3169 80.552Z" fill="#3F3F40"/>
<path d="M78.0673 77.6063C78.2497 77.6664 78.6753 76.7646 79.5873 76.2837C80.5601 75.7426 81.5329 75.8629 81.5937 75.6825C81.5937 75.6224 81.4113 75.4421 80.9249 75.3819C80.4993 75.3218 79.8305 75.3819 79.2833 75.7426C78.6753 76.1033 78.3105 76.5843 78.1281 76.945C78.0065 77.3057 78.0065 77.5461 78.0673 77.6063Z" fill="#3F3F40"/>
<path d="M87.917 82.0549C87.917 81.9948 87.2482 82.2353 86.2146 82.6561C85.9714 82.7763 85.6674 82.8364 85.5458 82.7162C85.3634 82.596 85.3634 82.2353 85.3026 81.8746C85.181 81.1532 85.1202 80.4318 84.9986 79.6502C84.5122 76.464 84.0866 73.879 83.9042 73.879C83.7826 73.879 84.0258 76.5242 84.5122 79.7104C84.6338 80.4919 84.7554 81.2133 84.877 81.9347C84.9378 82.2353 84.9378 82.6561 85.3026 82.9567C85.485 83.0769 85.7282 83.137 85.9106 83.0769C86.093 83.0168 86.2146 82.9567 86.3362 82.8966C87.3698 82.4156 87.9778 82.115 87.917 82.0549Z" fill="#3F3F40"/>
<path d="M93.5105 93.7176C93.5105 93.7176 98.4353 91.4331 101.536 86.1429C101.536 86.1429 101.779 92.395 94.4225 95.5211L93.5105 93.7176Z" fill="#FF9A6C"/>
<path d="M76.7906 75.5623C77.0946 75.6825 77.7634 75.1415 78.6146 74.7207C79.5266 74.2998 80.3778 74.1796 80.4386 73.8189C80.4386 73.6987 80.2562 73.5183 79.8306 73.3981C79.405 73.338 78.797 73.3981 78.1282 73.6987C77.5202 73.9993 77.0338 74.4201 76.8514 74.7808C76.669 75.2016 76.669 75.5022 76.7906 75.5623Z" fill="#3F3F40"/>
<path d="M91.0177 75.0814C91.2609 75.5623 91.0785 76.1634 90.5921 76.4039C90.1057 76.7045 89.4977 76.5241 89.2545 76.0432C89.0113 75.5623 89.1937 74.9611 89.6801 74.7207C90.1665 74.4802 90.7745 74.6605 91.0177 75.0814Z" fill="#3F3F40"/>
<path d="M91.5041 70.7529C91.4433 70.9333 90.4705 70.7529 89.4977 71.2339C88.5249 71.7148 88.0385 72.5564 87.8561 72.4963C87.7953 72.4963 87.7953 72.1957 87.9777 71.835C88.1601 71.4743 88.5857 70.9934 89.1937 70.6928C89.8017 70.3922 90.4097 70.3321 90.8353 70.4523C91.3217 70.5125 91.5041 70.6928 91.5041 70.7529Z" fill="#3F3F40"/>
<path d="M89.4369 67.0257C89.3761 67.3263 88.4641 67.5066 87.5521 67.9274C86.6401 68.3483 85.9105 68.8893 85.6673 68.7691C85.5457 68.709 85.5457 68.4084 85.7889 68.0477C86.0321 67.687 86.4577 67.206 87.1265 66.9055C87.7345 66.6049 88.4033 66.5448 88.8289 66.6049C89.2545 66.665 89.4977 66.8453 89.4369 67.0257Z" fill="#3F3F40"/>
<path d="M100.381 72.9773C100.077 72.4362 100.016 70.9333 100.503 70.5726C101.779 69.6107 104.272 68.3483 106.218 71.835C108.893 76.5242 103.543 78.2074 103.482 78.0872C103.421 77.967 101.354 74.7808 100.381 72.9773Z" fill="#FFBF9D"/>
<path d="M103.846 75.6224C103.846 75.6224 103.968 75.6224 104.15 75.6224C104.333 75.6224 104.576 75.5022 104.758 75.3218C105.184 74.8409 105.123 73.8189 104.698 72.9773C104.454 72.5564 104.15 72.1957 103.786 71.9553C103.421 71.7148 103.056 71.5946 102.813 71.6547C102.509 71.7148 102.448 71.9553 102.448 72.1356C102.448 72.316 102.57 72.3761 102.509 72.3761C102.509 72.3761 102.387 72.3761 102.266 72.1356C102.205 72.0154 102.205 71.8951 102.266 71.7148C102.326 71.5344 102.448 71.4142 102.63 71.3541C102.995 71.1737 103.542 71.3541 103.907 71.5946C104.333 71.835 104.698 72.2558 104.941 72.7368C105.427 73.6986 105.427 74.8409 104.88 75.442C104.576 75.7426 104.272 75.7426 104.029 75.7426C103.907 75.7426 103.786 75.6224 103.846 75.6224Z" fill="#FF9A6C"/>
<path d="M73.9937 76.464C74.6017 75.3218 74.7841 74.1796 74.1153 73.0975C74.8449 72.9171 75.0273 71.7749 75.1489 70.9934C75.2097 70.272 75.5137 69.7309 75.1489 69.0697C75.0881 68.9494 74.9665 68.8292 74.9665 68.6488C74.9665 68.4084 75.1489 68.228 75.3313 68.0477C76.1825 67.206 76.5473 65.8835 76.2433 64.6811C77.5201 64.5609 78.7361 64.1401 79.8305 63.4187C80.7425 63.8395 81.8369 63.8395 82.6881 63.2984C83.5393 62.8175 84.0865 61.8556 84.0865 60.8336C84.6945 61.2545 85.5457 61.3146 86.2753 61.1342C87.0049 60.9539 87.6737 60.5331 88.3425 60.1723C88.7681 61.6152 90.4097 62.577 91.8689 62.2764C92.0513 62.2163 92.2945 62.1562 92.4769 62.2764C92.6593 62.3967 92.6593 62.6371 92.7201 62.8175C92.9025 64.1401 94.3617 65.1019 95.6993 64.7412C95.2737 65.7632 96.1249 67.0858 97.2193 67.1459C97.4625 67.1459 97.7665 67.1459 97.8273 67.3864C97.8881 67.4465 97.8273 67.5667 97.8273 67.6268C97.7057 68.2881 97.6449 69.0095 97.9489 69.6107C98.2529 70.2119 98.9825 70.6327 99.5905 70.3321C99.4081 70.7529 99.3473 71.294 99.5297 71.7148C99.7729 72.1356 100.381 72.316 100.685 71.9553C100.807 71.7749 102.935 70.0315 102.935 69.8512C103.299 67.3263 100.442 66.2442 99.1041 64.0799C97.7057 61.9157 95.6993 60.1724 93.5105 58.8498C92.5985 58.3087 91.6257 57.7677 90.5313 57.5272C89.3153 57.1665 88.0993 57.1064 86.8225 57.0463C85.1809 56.9862 83.5393 56.8659 82.0193 57.3469C79.1009 58.1284 76.9729 60.5331 75.1489 62.9377C74.4801 63.8395 73.8113 64.8013 73.3857 65.8835C72.8993 67.1459 72.7777 68.5286 72.7777 69.9113C72.7777 71.8951 72.9601 73.879 73.7505 75.6825" fill="#3F3F40"/>
<path d="M72.1089 75.3218C72.1089 75.3218 72.0481 75.0814 72.1089 74.6605C72.1089 74.4201 72.1697 74.1796 72.1697 73.879C72.1697 73.5784 72.1089 73.2177 71.9265 72.857C71.7441 72.4963 71.5009 72.1356 71.2577 71.7148C71.0145 71.294 70.7105 70.8732 70.5281 70.272C70.3457 69.731 70.2849 69.0697 70.3457 68.4685C70.4065 68.1679 70.4673 67.8072 70.5889 67.5066C70.7105 67.2061 70.8929 66.8454 71.0145 66.5448C71.1969 66.2442 71.3185 65.8835 71.3793 65.5228C71.4401 65.1621 71.3793 64.8014 71.3185 64.3806C71.1969 63.599 71.2577 62.7574 71.4401 61.9158C71.6225 61.0741 71.9873 60.2325 72.5345 59.5111C72.7777 59.1504 73.0817 58.7897 73.4465 58.4891C73.8113 58.1885 74.1761 57.8879 74.6017 57.6475C74.8449 57.5272 75.0273 57.4671 75.2705 57.3469C75.5137 57.2868 75.7569 57.1665 75.9393 57.1064C76.4257 56.9862 76.8513 56.7457 77.2161 56.4451C77.5809 56.1446 77.9457 55.7237 78.3105 55.4232C78.6753 55.0625 79.1009 54.7619 79.5265 54.4613C79.9521 54.1607 80.4385 53.9202 80.9249 53.6798C81.4113 53.4393 81.9585 53.3191 82.4449 53.1988C83.5393 52.9584 84.6945 53.0185 85.7281 53.4393C85.8497 53.4994 85.9105 53.5595 86.0321 53.5595H85.9105C87.1873 52.4774 88.8897 51.9965 90.4705 52.1768C92.0513 52.2971 93.5713 53.0185 94.5441 54.1607H94.4833C95.2129 54.1006 95.9425 54.1006 96.6721 54.1006C97.4017 54.1607 98.0705 54.2809 98.6785 54.5815C99.2865 54.8821 99.8337 55.3029 100.199 55.9041C100.563 56.4451 100.746 57.1064 100.624 57.7677L100.563 57.7076C101.597 58.0082 102.448 58.7296 102.995 59.5111C103.543 60.3527 103.847 61.2545 103.786 62.1562C103.786 62.3967 103.725 62.5771 103.725 62.8175C103.664 62.9979 103.664 63.2383 103.603 63.4187C103.603 63.599 103.603 63.7794 103.664 63.9597C103.725 64.1401 103.847 64.2603 103.968 64.4407C104.394 65.0418 104.698 65.7031 104.941 66.2442C105.123 66.8454 105.245 67.3864 105.245 67.8673C105.245 68.3483 105.063 68.7691 104.941 69.0096C104.759 69.3101 104.576 69.4905 104.515 69.6107C104.455 69.731 104.455 69.8512 104.394 69.8512C104.394 69.8512 104.394 69.731 104.455 69.6107C104.515 69.4304 104.698 69.25 104.88 68.9494C105.063 68.6489 105.184 68.2882 105.184 67.8072C105.184 67.3263 105.123 66.7852 104.88 66.2442C104.637 65.643 104.333 65.0418 103.907 64.4407C103.786 64.2603 103.664 64.1401 103.603 63.9597C103.543 63.7794 103.482 63.5389 103.482 63.3586C103.482 63.1782 103.543 62.9378 103.603 62.7574C103.603 62.5771 103.664 62.3366 103.664 62.1562C103.664 61.3146 103.421 60.4128 102.874 59.6313C102.327 58.8498 101.536 58.1284 100.503 57.8879H100.442V57.8278C100.563 57.2267 100.381 56.6255 100.016 56.0844C99.6513 55.5434 99.1649 55.1226 98.5569 54.822C97.9489 54.5214 97.2801 54.4012 96.5505 54.4012C95.8817 54.341 95.1521 54.4012 94.4225 54.4613H94.3617C93.3889 53.3792 91.9297 52.6578 90.3489 52.5375C88.8289 52.4173 87.1265 52.8381 85.9105 53.9202L85.8497 53.9804H85.7889C85.6673 53.9202 85.6065 53.9202 85.4849 53.8601C84.5121 53.4393 83.3569 53.3792 82.3233 53.6196C81.7761 53.7399 81.2897 53.9202 80.8033 54.1006C80.3169 54.341 79.8913 54.5815 79.4049 54.8821C78.9793 55.1827 78.5537 55.4833 78.1889 55.844C77.8241 56.2047 77.4593 56.5654 77.0945 56.866C76.9121 57.0463 76.6689 57.1665 76.4865 57.2868C76.2433 57.407 76.0001 57.4671 75.8177 57.5874C75.5745 57.6475 75.3313 57.7076 75.1489 57.8278C74.9057 57.9481 74.7233 58.0082 74.4801 58.1284C74.0545 58.3689 73.6897 58.6093 73.3249 58.9099C73.0209 59.2105 72.6561 59.5712 72.4129 59.9319C71.8657 60.6533 71.5617 61.495 71.3793 62.2765C71.1969 63.1181 71.1361 63.8996 71.1969 64.6811C71.2577 65.0418 71.3185 65.4627 71.2577 65.8234C71.1969 66.1841 71.0145 66.5448 70.8321 66.8454C70.6497 67.1459 70.4673 67.4465 70.4065 67.8072C70.2849 68.1078 70.2241 68.4685 70.1633 68.7691C70.1025 69.4304 70.1633 70.0316 70.3457 70.5726C70.5281 71.1137 70.7713 71.5946 71.0753 71.9553C71.3185 72.3761 71.5617 72.7368 71.7441 73.1576C71.9265 73.5183 71.9873 73.879 71.9265 74.2397C71.9265 74.5403 71.8657 74.8409 71.8657 75.0212C71.8657 75.2016 71.8657 75.3819 71.8657 75.5022C72.1089 75.2617 72.1089 75.3218 72.1089 75.3218Z" fill="#455A64"/>
<path d="M83.2353 53.7399C83.2353 53.7399 83.053 53.7399 82.749 53.7399C82.445 53.7399 82.0194 53.8 81.533 53.9803C81.0466 54.1607 80.4994 54.5214 80.0738 55.0624C79.6482 55.6035 79.3442 56.3249 79.3442 57.1064C79.3442 57.3469 79.3442 57.5873 79.405 57.7677C79.4658 57.948 79.5266 58.1885 79.709 58.2486L79.8913 58.3689L79.6482 58.429C79.0402 58.5492 78.5538 58.97 78.2498 59.3909C77.9458 59.8117 77.885 60.2926 77.9458 60.7134C77.9458 61.0741 78.0674 61.3747 78.189 61.6152C78.3106 61.7955 78.3713 61.9158 78.3713 61.9158C78.3713 61.9158 78.3714 61.9158 78.3106 61.8556C78.2498 61.7955 78.2498 61.7354 78.189 61.6753C78.0674 61.4949 77.9458 61.1943 77.885 60.7735C77.8242 60.3527 77.885 59.8718 78.189 59.3909C78.493 58.9099 78.9794 58.4891 79.6482 58.3087V58.429C79.405 58.3087 79.2834 58.0683 79.2226 57.8278C79.1618 57.5873 79.1618 57.3469 79.1618 57.1064C79.1618 56.2648 79.4658 55.5434 79.9522 54.9422C80.3778 54.4011 80.9858 54.0404 81.4722 53.8601C81.9586 53.6797 82.445 53.6196 82.749 53.6196C82.8706 53.6196 82.9922 53.6196 83.1138 53.6196C83.2354 53.7399 83.2353 53.7399 83.2353 53.7399Z" fill="#455A64"/>
<path d="M93.9969 55.0023C93.9969 55.0023 93.9969 55.1225 93.9361 55.2428C93.8753 55.4231 93.7537 55.6636 93.5713 55.9041C93.3889 56.1445 93.1457 56.4451 92.7809 56.6856C92.4161 56.9261 91.9297 57.0463 91.3825 56.9862L91.5041 56.9261C91.5041 56.9862 91.5041 57.1064 91.4433 57.1665C91.4433 57.2868 91.3825 57.3469 91.3825 57.4671C91.2001 58.0082 90.9569 58.4891 90.5921 58.8498C90.2273 59.2105 89.8625 59.451 89.5585 59.6313C89.1937 59.8117 88.8897 59.8718 88.7073 59.8718C88.5249 59.8718 88.4033 59.8718 88.4033 59.8718C88.4033 59.8117 88.8897 59.8718 89.4977 59.5111C89.8017 59.3307 90.1665 59.0903 90.4705 58.7296C90.7745 58.3689 91.0785 57.948 91.2001 57.407C91.2001 57.3469 91.2609 57.2266 91.2609 57.1665C91.2609 57.1064 91.2609 56.9862 91.3217 56.9261V56.8659H91.3825C91.8689 56.9862 92.2945 56.8058 92.6593 56.6255C93.0241 56.4451 93.2673 56.1445 93.4497 55.9041C93.8753 55.363 93.9969 55.0023 93.9969 55.0023Z" fill="#455A64"/>
<path d="M98.9825 58.0082C98.9825 58.0082 98.9825 58.0683 99.0433 58.1284C99.0433 58.1885 99.1041 58.3088 99.0433 58.429C99.0433 58.6695 98.9217 59.0302 98.5569 59.3307C98.1921 59.6313 97.7057 59.8117 97.0977 59.9319C96.7937 59.992 96.4897 60.0521 96.1857 60.0521C95.8817 60.0521 95.5169 60.0522 95.2129 59.8117L95.1521 59.7516H95.2737C95.0305 60.3527 94.7265 60.8938 94.3009 61.3747C93.9361 61.7955 93.4497 62.0961 93.0241 62.2164C92.5985 62.3366 92.2337 62.3366 91.9905 62.2765C91.8689 62.2765 91.8081 62.2164 91.7473 62.2164C91.6865 62.2164 91.6865 62.1562 91.6865 62.1562C91.6865 62.1562 91.8081 62.2164 92.0513 62.2164C92.2945 62.2765 92.6593 62.2164 93.0241 62.0961C93.4497 61.9759 93.8753 61.6753 94.2401 61.2545C94.6049 60.8337 94.9089 60.2926 95.1521 59.6915L95.2129 59.5712L95.2737 59.6313L95.3345 59.6915C95.5777 59.8718 95.8817 59.9319 96.2465 59.8718C96.5505 59.8718 96.8545 59.8117 97.1585 59.7516C97.7057 59.6914 98.2529 59.5111 98.5569 59.2105C98.8609 58.9099 99.0433 58.6093 99.0433 58.3689C98.9825 58.1284 98.9217 58.0082 98.9825 58.0082Z" fill="#455A64"/>
<path d="M94.7265 38.3499C94.7265 38.3499 94.6657 38.4101 94.5441 38.5303C94.4225 38.6505 94.2401 38.8309 94.1793 39.1315C94.1185 39.432 94.1185 39.8529 94.3009 40.2136C94.4833 40.6344 94.7873 40.9951 95.2129 41.4159L95.2737 41.476L95.2129 41.5361C94.6657 41.8367 94.1185 42.3177 93.8145 42.9188C93.5105 43.5801 93.4497 44.3616 93.8145 45.083C94.1185 45.7443 94.7265 46.1651 95.3953 46.2854L95.6385 46.3455L95.4561 46.4657C94.7265 46.8865 94.2401 47.5478 94.0577 48.2091C93.8753 48.8704 94.0577 49.5317 94.2401 50.0126C94.4833 50.4935 94.7873 50.7941 94.9697 50.9745C95.2129 51.1548 95.3345 51.215 95.3345 51.2751C95.3345 51.2751 95.2737 51.2751 95.2129 51.2149C95.1521 51.1548 95.0305 51.0947 94.9089 51.0346C94.6657 50.8542 94.3617 50.5537 94.1185 50.0727C93.8753 49.5918 93.6929 48.9305 93.8753 48.2091C94.0577 47.4877 94.5441 46.7663 95.3345 46.3455V46.4657C94.6657 46.3455 93.9969 45.8645 93.6321 45.2033C93.4497 44.8426 93.3281 44.4217 93.3281 44.061C93.3281 43.6402 93.4497 43.2795 93.6321 42.9188C93.9361 42.2575 94.4833 41.7766 95.0913 41.476V41.5963C94.7265 41.1754 94.3617 40.7546 94.1793 40.3338C93.9969 39.913 93.9969 39.4922 94.0577 39.1916C94.1185 38.891 94.3009 38.6505 94.4225 38.5303C94.4833 38.4702 94.5441 38.4702 94.6049 38.4101C94.7265 38.3499 94.7265 38.3499 94.7265 38.3499Z" fill="#455A64"/>
<path d="M108.954 44.0009C108.954 44.0009 108.954 44.0611 108.893 44.0611C108.832 44.1212 108.771 44.1813 108.711 44.3015C108.528 44.4819 108.285 44.7825 107.859 45.0229C107.434 45.2634 106.947 45.564 106.279 45.6842C105.61 45.8044 104.88 45.8044 104.09 45.5039L104.211 45.4437C104.151 46.3455 103.786 47.4276 102.874 48.0889C101.901 48.7502 100.624 48.7502 99.773 48.149L99.8946 48.0889C99.9554 48.5097 99.8946 48.8704 99.773 49.2311C99.6514 49.5918 99.4689 49.8323 99.2257 50.0727C98.8001 50.5537 98.2529 50.7941 97.8273 51.0346C97.4017 51.215 97.0369 51.3352 96.7937 51.3953C96.5505 51.4554 96.429 51.5155 96.429 51.4554C96.429 51.4554 96.5505 51.3953 96.7937 51.3352C97.0369 51.2751 97.4018 51.1548 97.7666 50.9144C98.1922 50.734 98.6786 50.4334 99.1042 49.9525C99.5298 49.4716 99.8338 48.8103 99.7122 48.0889L99.6513 47.9085L99.8337 48.0288C100.563 48.6299 101.84 48.6299 102.691 47.9686C103.543 47.3675 103.907 46.3455 103.968 45.4437V45.3235L104.09 45.3836C104.819 45.6241 105.549 45.6842 106.218 45.564C106.887 45.4437 107.373 45.2033 107.799 44.9628C108.589 44.4819 108.893 43.9408 108.954 44.0009Z" fill="#455A64"/>
<path d="M107.738 53.6196C107.738 53.6196 107.738 53.6797 107.738 53.7399C107.738 53.8 107.677 53.9202 107.555 53.9803C107.312 54.1607 106.947 54.341 106.4 54.4011C105.914 54.4613 105.245 54.4011 104.637 54.0404C104.029 53.6797 103.482 53.1387 103.238 52.3572H103.36C102.934 53.0185 102.266 53.4393 101.597 53.6797C100.928 53.9202 100.32 53.9202 99.7729 53.8601C99.2865 53.8 98.8609 53.6797 98.6177 53.5595C98.3745 53.4393 98.1921 53.3792 98.2529 53.3792C98.2529 53.319 98.8001 53.6797 99.8337 53.8C100.32 53.8601 100.928 53.8 101.536 53.6196C102.144 53.3792 102.813 53.0185 103.238 52.3572L103.36 52.2369L103.421 52.4173C103.664 53.1387 104.15 53.6797 104.758 54.0404C105.306 54.341 105.974 54.4613 106.461 54.4011C106.947 54.341 107.373 54.2208 107.616 54.0404C107.738 53.8 107.738 53.6196 107.738 53.6196Z" fill="#455A64"/>
<path d="M84.3905 44.1813C84.4513 44.1813 84.4513 44.8426 84.9985 45.7443C85.3025 46.1651 85.7281 46.6461 86.2753 47.0068C86.8833 47.3675 87.6129 47.5478 88.4033 47.4877C88.8289 47.4276 89.2545 47.3675 89.6193 47.1871L89.7409 47.127V47.2472C89.8625 47.8484 90.1057 48.3895 90.4097 48.8704C90.7137 49.2912 91.0177 49.6519 91.3217 49.8924C91.5041 50.0126 91.6257 50.1328 91.7473 50.193C91.8689 50.2531 91.9905 50.3132 92.1121 50.2531C92.2337 50.193 92.2337 50.1328 92.2945 50.0727C92.2945 50.0126 92.2945 50.0126 92.2945 50.0126C92.2945 50.0126 92.2945 50.0126 92.2945 50.0727C92.2945 50.1328 92.2337 50.193 92.1121 50.2531C91.9905 50.3132 91.8081 50.3132 91.6865 50.193C91.5649 50.1328 91.3825 50.0126 91.2001 49.8924C90.8961 49.6519 90.5313 49.2912 90.2273 48.8103C89.9233 48.3293 89.6801 47.7883 89.4977 47.127L89.6193 47.1871C89.2545 47.3675 88.7681 47.4877 88.3425 47.5478C87.4913 47.6079 86.7009 47.4276 86.0929 47.0669C85.4849 46.7062 85.0593 46.2252 84.7553 45.7443C84.4513 45.2634 84.3905 44.8426 84.3297 44.6021C84.3297 44.4819 84.2689 44.3616 84.2689 44.2414C84.3905 44.2414 84.3905 44.1813 84.3905 44.1813Z" fill="#455A64"/>
<path d="M91.3217 81.6341C91.1393 81.6942 91.5041 82.6561 90.8353 83.6179C90.2273 84.5798 89.0721 84.8203 89.1329 84.9405C89.1329 85.0006 89.4369 85.0608 89.8625 84.9405C90.2881 84.8203 90.8961 84.4596 91.3217 83.9185C91.6865 83.3174 91.7473 82.6561 91.6865 82.2353C91.5649 81.8144 91.3825 81.6341 91.3217 81.6341Z" fill="#3F3F40"/>
<path d="M96.0033 98.6472C96.0033 98.6472 100.259 126.722 105.488 131.651C111.021 136.881 120.992 139.527 120.992 139.527C120.992 139.527 134.246 144.697 138.867 143.554L147.197 115.3C147.197 115.3 146.832 113.676 144.947 113.616C144.096 113.616 141.725 114.698 140.631 114.458C136.314 113.436 126.221 98.1061 126.221 98.1061C126.221 98.1061 116.615 85.0006 108.407 86.203C102.813 86.9845 100.442 89.5094 98.3745 95.1003C97.8273 96.3627 97.0369 97.6252 96.0033 98.6472Z" fill="#FF5922"/>
<path d="M96.0033 98.6472L92.2945 117.343L74.9665 112.534L71.9873 122.514L101.232 135.559L107.008 111.873L96.0033 98.6472Z" fill="#FF5922"/>
<path d="M135.098 131.651C135.037 131.591 136.314 128.104 137.955 123.836C139.597 119.568 140.995 116.081 141.117 116.141C141.178 116.201 139.901 119.688 138.259 123.956C136.557 128.225 135.158 131.711 135.098 131.651Z" fill="#3F3F40"/>
<path d="M134.794 127.744C134.733 127.744 135.402 125.579 136.375 122.994C137.347 120.409 138.199 118.365 138.259 118.365C138.32 118.365 137.651 120.53 136.679 123.115C135.706 125.7 134.855 127.744 134.794 127.744Z" fill="#3F3F40"/>
<path d="M95.5777 104.058C95.6385 104.058 95.7601 106.042 95.8209 108.446C95.8817 109.649 95.9425 110.731 95.9425 111.512C96.0033 112.294 96.0641 112.775 96.0033 112.775C95.9425 112.775 95.8209 112.294 95.7601 111.512C95.6385 110.731 95.5777 109.649 95.5169 108.386C95.4561 107.184 95.4561 106.102 95.4561 105.26C95.4561 104.539 95.5169 104.058 95.5777 104.058Z" fill="#3F3F40"/>
<g opacity="0.3">
<path d="M86.0321 128.766L92.4769 126L96.0033 113.616L93.6321 128.826L88.8897 130.028L86.0321 128.766Z" fill="#3F3F40"/>
</g>
<g opacity="0.3">
<path d="M139.779 118.546C139.354 118.305 138.807 118.486 138.442 118.846C138.077 119.207 137.895 119.688 137.712 120.169C136.435 123.355 135.159 126.541 133.882 129.728C133.699 130.209 133.517 130.689 133.578 131.17C133.639 131.651 134.003 132.132 134.49 132.072C134.915 132.012 135.159 131.531 135.341 131.11C137.165 127.082 138.685 122.874 139.962 118.606" fill="#3F3F40"/>
</g>
<path d="M48.2145 114.999C48.2145 114.999 50.5249 111.933 51.9233 111.272C53.0177 110.731 59.4625 109.588 60.2529 109.769C61.0433 109.949 74.9665 112.955 74.9665 112.955L73.1425 118.967L72.2305 118.546C72.2305 118.546 69.4337 119.929 67.2449 119.267C65.1169 118.606 62.3809 116.742 62.3809 116.742L60.4353 117.464C60.4353 117.464 62.5633 118.125 62.6849 118.967C62.8673 119.808 61.6513 119.929 61.6513 119.929L61.5905 120.289C61.4689 120.951 60.8001 121.371 60.1313 121.251C58.9153 121.011 57.0913 120.59 56.7265 120.169C56.5441 119.989 55.6929 118.426 55.6929 118.426C54.4161 117.524 54.4161 116.622 54.4769 116.081C54.5985 114.999 55.8145 113.736 55.8145 113.736L53.4433 113.616C53.5649 113.616 49.7345 117.464 48.2145 114.999Z" fill="#FFBF9D"/>
<path d="M67.792 114.037C64.9952 114.037 62.2592 113.676 60.192 114.157C59.6448 114.278 59.0976 114.518 58.672 114.879C58.2464 115.299 58.064 115.961 58.368 116.442C58.6112 116.863 59.1584 117.043 59.6448 117.103C60.1312 117.103 60.6176 117.043 61.104 117.043C62.2592 117.043 63.4144 117.524 64.448 118.065C65.4816 118.606 66.5152 119.207 67.6704 119.448C68.8256 119.688 71.5008 119.448 72.2912 118.606" fill="#FFBF9D"/>
<path d="M72.2913 118.546C72.2913 118.546 72.2305 118.606 72.1089 118.726C71.9873 118.846 71.7441 118.967 71.4401 119.087C70.8321 119.327 69.8593 119.508 68.7041 119.568C68.0961 119.568 67.4273 119.508 66.7585 119.267C66.0897 119.027 65.4209 118.666 64.7521 118.365C64.0833 118.005 63.3537 117.644 62.5633 117.404C62.1985 117.283 61.7729 117.223 61.3473 117.163C60.9217 117.163 60.4961 117.223 60.0705 117.223C59.6449 117.283 59.0977 117.223 58.6721 116.983C58.2465 116.742 58.0033 116.201 58.0641 115.78C58.1249 115.3 58.3681 114.939 58.7329 114.638C59.0977 114.398 59.4625 114.217 59.8273 114.097C61.3473 113.676 62.8065 113.736 63.9617 113.797C65.1169 113.857 66.0289 113.917 66.7585 113.917C67.4273 113.977 67.7921 113.977 67.7921 113.977C67.7921 113.977 67.7313 113.977 67.5489 113.977C67.3665 113.977 67.1233 113.977 66.8193 113.977C66.1505 113.977 65.2385 113.977 64.0225 113.917C62.8673 113.917 61.4689 113.857 59.9489 114.278C59.5841 114.398 59.2193 114.518 58.9153 114.758C58.6113 114.999 58.4289 115.3 58.3681 115.72C58.3073 116.081 58.4897 116.442 58.8545 116.622C59.2193 116.802 59.5841 116.863 60.0705 116.863C60.4961 116.863 60.9825 116.742 61.4081 116.802C61.8337 116.802 62.3201 116.923 62.6849 117.043C63.5361 117.283 64.2657 117.704 64.9345 118.065C66.2721 118.786 67.5489 119.387 68.7041 119.327C69.8593 119.327 70.8321 119.147 71.4401 118.967C72.0481 118.786 72.2913 118.546 72.2913 118.546Z" fill="#FF9A6C"/>
<path d="M58.7328 113.376C58.7328 113.436 58.4896 113.556 58.0032 113.616C57.5168 113.676 56.848 113.737 56.1184 113.797C54.6592 113.857 53.504 113.736 53.504 113.616C53.504 113.556 54.6592 113.496 56.1184 113.496C56.848 113.496 57.456 113.436 57.9424 113.436C58.4288 113.376 58.7328 113.316 58.7328 113.376Z" fill="#FF9A6C"/>
<path d="M61.8336 119.929C61.8336 119.989 60.3137 120.229 58.5505 119.748C56.7265 119.267 55.5712 118.365 55.632 118.305C55.6928 118.245 56.9088 119.027 58.672 119.448C60.3744 119.929 61.8336 119.808 61.8336 119.929Z" fill="#FF9A6C"/>
<path d="M57.9425 116.802C57.9425 116.742 58.6113 116.742 59.3409 116.923C60.0705 117.103 60.6785 117.404 60.6177 117.464C60.5569 117.524 60.0097 117.404 59.2801 117.223C58.5505 117.043 57.9425 116.863 57.9425 116.802Z" fill="#FF9A6C"/>
<path d="M29.3665 121.492L44.6881 114.097C44.9313 113.977 45.2353 113.977 45.4785 114.157L62.3201 124.738C62.6849 124.978 62.8065 125.58 62.5025 125.94L53.5649 137.723L29.3665 121.492Z" fill="#3F3F40"/>
<path d="M31.312 122.033L51.9232 135.499L61.2864 125.159L45.0528 115.179L31.312 122.033Z" fill="white"/>
<path d="M39.3376 118.065L57.0304 129.848L51.9232 135.499L31.312 122.033L39.3376 118.065Z" fill="#E0E0E0"/>
<path d="M48.3969 118.426L45.6609 120.59C45.4785 120.71 45.2353 120.71 45.0529 120.53C44.9313 120.349 44.9313 120.109 45.1137 119.929L47.8497 117.764C48.0321 117.644 48.2753 117.644 48.4577 117.824C48.5793 118.005 48.5793 118.245 48.3969 118.426Z" fill="#E0E0E0"/>
<path d="M49.6128 119.388L46.8768 121.552C46.6944 121.672 46.4512 121.672 46.2688 121.492C46.1472 121.311 46.1472 121.071 46.3296 120.89L49.0656 118.726C49.248 118.606 49.4912 118.606 49.6736 118.786C49.7952 118.967 49.7952 119.267 49.6128 119.388Z" fill="#E0E0E0"/>
<path d="M50.8897 120.53L48.1537 122.694C47.9713 122.814 47.7281 122.814 47.5457 122.634C47.4241 122.453 47.4241 122.213 47.6065 122.033L50.3425 119.868C50.5249 119.748 50.7681 119.748 50.9505 119.929C51.1329 120.109 51.0721 120.409 50.8897 120.53Z" fill="#E0E0E0"/>
<path d="M51.4369 122.093L49.9169 123.355C49.7345 123.475 49.4913 123.475 49.3089 123.295C49.1873 123.115 49.1873 122.874 49.3697 122.694L50.8897 121.431C51.0721 121.311 51.3153 121.311 51.4977 121.492C51.6801 121.732 51.6193 121.973 51.4369 122.093Z" fill="#E0E0E0"/>
<path d="M46.0864 118.005L44.3232 119.267C44.1408 119.388 43.8976 119.327 43.7152 119.147C43.5936 118.967 43.6544 118.726 43.8368 118.546L45.6 117.283C45.7824 117.163 46.0256 117.223 46.208 117.404C46.3296 117.644 46.2688 117.885 46.0864 118.005Z" fill="#FF5922"/>
<path d="M55.328 123.956L53.808 125.459C53.6256 125.64 53.3824 125.64 53.2 125.459C53.0176 125.279 53.0176 125.038 53.2 124.858L54.72 123.355C54.9024 123.175 55.1456 123.175 55.328 123.355C55.4496 123.536 55.4496 123.776 55.328 123.956Z" fill="#FF5922"/>
<path d="M53.6257 137.723C53.2001 138.324 52.4097 138.505 51.7409 138.144L29.1841 123.896C28.5761 123.475 28.3937 122.694 28.7585 122.033C29.1841 121.431 29.9745 121.251 30.6433 121.612L53.2001 135.86C53.8081 136.28 53.9905 137.122 53.6257 137.723Z" fill="#3F3F40"/>
<path d="M226.784 94.0182L227.453 78.1473C227.453 78.1473 243.869 74.6004 244.294 71.7148L213.286 68.1679L211.219 92.876L226.784 94.0182Z" fill="#455A64"/>
<g opacity="0.6">
<path d="M217.725 78.7485C217.117 78.5681 216.752 77.8467 216.934 77.2456C217.117 76.6444 217.846 76.2837 218.454 76.4641C219.062 76.6444 219.488 77.4861 219.245 78.0271C219.002 78.5682 218.15 78.989 217.603 78.6283" fill="white"/>
</g>
<path d="M213.286 68.1679L213.104 70.6327L243.139 72.9773C243.139 72.9773 244.173 72.6767 244.477 71.4142L213.286 68.1679Z" fill="#3F3F40"/>
<path d="M227.939 78.3277C227.939 78.1473 227.21 78.0271 226.48 77.4861C225.75 76.945 225.446 76.2837 225.264 76.3438C225.142 76.3438 225.264 77.3057 226.176 77.9069C227.027 78.5681 227.939 78.4479 227.939 78.3277Z" fill="#3F3F40"/>
<path d="M231.283 77.2456C231.344 77.1253 230.675 76.8248 230.25 76.1034C229.763 75.4421 229.702 74.7207 229.52 74.7207C229.398 74.6606 229.216 75.5623 229.824 76.4039C230.371 77.2456 231.283 77.3658 231.283 77.2456Z" fill="#3F3F40"/>
<path d="M233.472 73.5183C233.351 73.4582 233.047 74.2397 233.411 75.0814C233.715 75.923 234.445 76.3438 234.506 76.2236C234.627 76.1034 234.202 75.6224 233.898 74.901C233.594 74.1796 233.594 73.5183 233.472 73.5183Z" fill="#3F3F40"/>
<path d="M227.392 81.9347C227.331 81.8145 226.602 81.9347 225.75 81.8145C224.899 81.6942 224.23 81.3936 224.17 81.5139C224.048 81.6341 224.656 82.2353 225.69 82.3555C226.662 82.4757 227.453 82.0549 227.392 81.9347Z" fill="#3F3F40"/>
<g opacity="0.3">
<path d="M226.784 94.0182L227.453 78.1473C227.453 78.1473 243.869 74.6004 244.294 71.7148L213.286 68.1679L211.219 92.876L226.784 94.0182Z" fill="#3F3F40"/>
</g>
<path d="M229.398 82.3555C229.155 82.8364 227.27 128.946 227.27 128.946L211.219 122.694C211.219 122.694 208.362 117.464 208.909 110.25C209.395 103.096 213.651 81.0329 213.651 81.0329L229.398 82.3555Z" fill="#3F3F40"/>
<path d="M225.082 95.0402L217.299 81.0931C217.299 81.0931 229.52 69.6709 228.365 66.9656L200.032 79.8306L211.219 102.014L225.082 95.0402Z" fill="#455A64"/>
<g opacity="0.6">
<path d="M209.334 86.5637C208.726 86.6839 208.058 86.2631 207.875 85.6619C207.754 85.0608 208.118 84.3995 208.726 84.2191C209.334 84.0989 210.186 84.5798 210.246 85.181C210.307 85.7822 209.821 86.5637 209.152 86.5637" fill="white"/>
</g>
<path d="M200.032 79.8306L201.187 82.0549L228.122 68.709C228.122 68.709 228.851 67.9275 228.426 66.7251L200.032 79.8306Z" fill="#3F3F40"/>
<path d="M217.846 81.0329C217.786 80.9127 217.056 81.1532 216.144 81.0931C215.232 81.033 214.624 80.6121 214.502 80.7324C214.381 80.7925 214.989 81.5139 216.083 81.6341C217.238 81.6942 217.968 81.0931 217.846 81.0329Z" fill="#3F3F40"/>
<path d="M220.157 78.3277C220.096 78.2074 219.427 78.2675 218.637 77.9068C217.846 77.6063 217.421 77.0051 217.299 77.1253C217.178 77.1854 217.482 78.0271 218.394 78.3878C219.427 78.8086 220.218 78.508 220.157 78.3277Z" fill="#3F3F40"/>
<path d="M220.035 74.0594C219.914 74.1195 220.035 74.8409 220.765 75.4421C221.494 75.9831 222.285 75.9831 222.285 75.8629C222.285 75.7427 221.677 75.5022 221.13 75.0814C220.522 74.5403 220.218 73.9993 220.035 74.0594Z" fill="#3F3F40"/>
<path d="M219.306 84.3995C219.184 84.2792 218.637 84.8203 217.846 85.1209C217.056 85.4816 216.326 85.5417 216.326 85.6619C216.326 85.7821 217.117 86.0226 218.09 85.6018C219.002 85.181 219.427 84.4596 219.306 84.3995Z" fill="#3F3F40"/>
<g opacity="0.3">
<path d="M223.562 92.2748L222.163 89.7499L208.544 96.7234L209.699 99.0079L223.562 92.2748Z" fill="#3F3F40"/>
</g>
<path d="M147.197 115.3L151.696 113.917C151.696 113.917 159.965 107.364 169.206 108.206C178.448 109.047 185.987 113.376 185.987 113.376L195.594 118.606L220.4 125.159L206.112 91.854L220.218 86.0828C220.218 86.0828 234.323 108.506 238.579 114.819C242.835 121.131 246.058 127.503 246.544 132.673C247.03 137.843 243.078 145.178 232.195 146.38C221.312 147.642 174.678 144.516 174.678 144.516L138.806 143.494L147.197 115.3Z" fill="#3F3F40"/>
<path d="M147.197 115.3C147.197 115.3 147.136 115.48 147.075 115.78C146.954 116.081 146.832 116.562 146.65 117.223C146.285 118.486 145.738 120.349 145.069 122.754C143.67 127.563 141.603 134.657 138.989 143.554L138.928 143.434C146.346 143.615 154.979 143.855 164.646 144.156C174.314 144.276 184.954 145.118 196.506 145.659C202.282 145.959 208.24 146.2 214.381 146.38C217.421 146.44 220.582 146.56 223.744 146.56C225.325 146.56 226.906 146.56 228.486 146.5C229.277 146.5 230.067 146.44 230.858 146.38C231.648 146.32 232.438 146.26 233.229 146.14C236.39 145.659 239.552 144.516 242.106 142.412C244.598 140.368 246.362 137.242 246.544 133.936C246.605 133.515 246.544 133.094 246.544 132.673C246.483 132.253 246.483 131.832 246.362 131.411C246.24 130.569 246.058 129.788 245.814 128.946C245.328 127.323 244.72 125.76 243.99 124.197C242.592 121.131 240.829 118.125 238.883 115.3C235.6 110.37 232.438 105.38 229.338 100.511C226.237 95.6413 223.197 90.7719 220.218 86.0828L220.4 86.1429C215.597 88.1267 210.915 90.0505 206.294 91.9141L206.355 91.7337C211.462 103.577 216.205 114.759 220.582 125.038L220.704 125.279L220.461 125.219C211.523 122.814 203.194 120.65 195.715 118.666C193.162 117.283 190.669 115.901 188.298 114.638C187.082 113.977 185.926 113.316 184.771 112.775C183.616 112.234 182.461 111.693 181.306 111.212C176.685 109.408 172.246 108.386 168.234 108.206C166.227 108.146 164.342 108.386 162.64 108.807C160.938 109.228 159.418 109.769 158.08 110.37C155.344 111.572 153.338 112.835 151.878 113.917C150.358 114.398 149.203 114.759 148.474 114.939C147.562 115.179 147.197 115.3 147.197 115.3C147.197 115.3 147.562 115.179 148.291 114.939C149.021 114.698 150.176 114.338 151.696 113.857C153.155 112.775 155.222 111.452 157.898 110.25C159.235 109.649 160.755 109.108 162.458 108.687C164.16 108.266 166.045 108.025 168.051 108.086C172.064 108.266 176.563 109.288 181.184 111.091C182.339 111.572 183.494 112.053 184.71 112.654C185.866 113.256 187.021 113.917 188.237 114.518C190.608 115.78 193.101 117.163 195.654 118.546C203.194 120.53 211.462 122.694 220.461 125.099L220.278 125.279C215.901 114.999 211.098 103.877 205.99 91.9742L205.93 91.854L206.051 91.7939C210.672 89.9302 215.354 88.0065 220.157 86.0226L220.278 85.9625L220.339 86.0828C223.318 90.7719 226.358 95.5812 229.459 100.511C232.56 105.38 235.722 110.37 239.005 115.3C240.95 118.185 242.714 121.131 244.112 124.257C244.842 125.82 245.45 127.383 245.936 129.006C246.179 129.848 246.362 130.629 246.483 131.471C246.544 131.892 246.605 132.313 246.666 132.733C246.666 133.154 246.726 133.575 246.666 133.996C246.544 137.423 244.72 140.549 242.106 142.653C239.552 144.817 236.33 145.959 233.107 146.44C232.317 146.56 231.466 146.62 230.675 146.681C229.885 146.741 229.094 146.801 228.243 146.801C226.662 146.861 225.021 146.861 223.44 146.861C220.278 146.861 217.178 146.801 214.077 146.681C207.936 146.5 201.978 146.2 196.202 145.959C184.71 145.418 174.01 144.516 164.342 144.396C154.675 144.096 146.042 143.855 138.685 143.615H138.563L138.624 143.494C141.299 134.537 143.366 127.503 144.826 122.634C145.555 120.229 146.102 118.366 146.467 117.103C146.65 116.502 146.771 116.021 146.893 115.66C147.136 115.42 147.197 115.3 147.197 115.3Z" fill="#455A64"/>
<path d="M218.698 124.618C218.698 124.618 218.88 124.618 219.245 124.678C219.61 124.738 220.157 124.858 220.765 125.038C222.042 125.339 223.866 125.82 225.69 126.722C227.574 127.563 229.034 128.826 229.824 129.848C230.067 130.088 230.189 130.329 230.371 130.569C230.554 130.81 230.614 130.99 230.736 131.17C230.918 131.471 230.979 131.651 230.979 131.711C230.918 131.772 230.554 130.99 229.642 130.028C228.79 129.066 227.331 127.864 225.507 127.022C223.683 126.181 221.92 125.64 220.643 125.279C219.488 124.858 218.637 124.618 218.698 124.618Z" fill="#455A64"/>
<path d="M63.9617 135.078C63.9617 135.078 57.6385 131.531 56.3617 131.411C54.5985 131.291 46.8161 131.591 45.8433 131.531C44.9921 131.471 44.6273 132.373 44.9921 132.974C45.3569 133.575 46.2081 134.537 48.6401 134.477C51.0721 134.417 52.4097 134.838 53.0177 135.078C53.6257 135.318 53.4433 136.04 53.4433 136.04C53.4433 136.04 49.9169 136.22 48.9441 135.98C47.5457 135.679 42.9249 132.553 42.9249 132.553L41.1009 131.411C41.1009 131.411 40.3105 132.313 41.5265 134.056C42.7425 135.799 44.2625 137.302 44.2625 137.302C44.2625 137.302 42.6209 138.324 44.0801 139.887C44.0801 139.887 43.0465 141.871 45.4177 143.013C45.4177 143.013 45.9649 144.396 46.9985 145.238C47.7281 145.839 49.6129 145.719 50.7681 145.779C52.0449 145.839 54.9025 145.598 55.8753 145.358C58.4897 144.817 60.3745 144.216 60.3745 144.216L66.1505 144.516L66.6977 134.838L63.9617 135.078Z" fill="#FFBF9D"/>
<path d="M47.9105 139.346C47.9105 139.406 46.8769 139.106 45.7217 138.505C44.5665 137.903 43.7153 137.242 43.7761 137.122C43.8369 137.062 44.7489 137.603 45.8433 138.204C46.9985 138.805 47.9713 139.286 47.9105 139.346Z" fill="#FF9A6C"/>
<path d="M47.1808 141.51C47.1808 141.571 46.3296 141.39 45.4176 140.909C44.5056 140.428 43.8368 139.827 43.8976 139.767C43.9584 139.707 44.6272 140.128 45.5392 140.609C46.3904 141.15 47.1808 141.45 47.1808 141.51Z" fill="#FF9A6C"/>
<path d="M47.3026 143.855C47.3026 143.915 46.5122 143.855 45.7218 143.434C44.8706 143.013 44.3842 142.472 44.3842 142.412C44.445 142.352 45.053 142.773 45.8434 143.134C46.6338 143.554 47.3026 143.735 47.3026 143.855Z" fill="#FF9A6C"/>
<g opacity="0.3">
<path d="M110.839 135.318C114.061 131.11 115.763 125.94 116.432 120.65C117.101 115.42 116.918 110.43 116.675 105.14C115.581 115.841 113.635 125.7 110.839 135.318Z" fill="#3F3F40"/>
</g>
<path d="M117.283 99.068C117.344 99.609 117.283 97.9258 117.283 98.4668C117.101 105.681 112.845 136.28 107.312 142.232C103.056 146.801 63.2928 144.817 63.2928 144.817L63.7184 134.597C63.7184 134.597 64.8128 134.296 71.9264 133.395C79.04 132.493 93.632 128.826 93.632 128.826L98.5569 96.7835" fill="#FF5922"/>
<path d="M98.4961 96.8434C98.4961 96.8434 98.4961 97.0237 98.4353 97.4446C98.3745 97.8053 98.3137 98.4064 98.1921 99.1278C97.9489 100.631 97.6449 102.795 97.2193 105.56C96.3681 111.151 95.1521 119.147 93.6929 128.946V129.006H93.6321C89.3761 130.088 84.6945 131.17 79.7089 132.252C77.2161 132.793 74.6017 133.274 71.9265 133.635C69.2513 133.996 66.4545 134.296 63.7185 134.837L63.8401 134.717C63.7185 137.963 63.5361 141.45 63.4145 144.937L63.2929 144.757C66.0897 144.877 69.0689 144.997 72.1089 145.057C77.8241 145.177 83.3569 145.237 88.7073 145.057C91.3825 144.997 93.9969 144.877 96.6113 144.636C99.1649 144.396 101.718 144.155 104.09 143.554C104.698 143.434 105.245 143.254 105.792 143.013C106.339 142.773 106.886 142.532 107.251 142.111C108.042 141.21 108.589 140.188 109.075 139.166C110.048 137.062 110.717 134.957 111.386 132.853C112.602 128.705 113.453 124.738 114.182 121.131C115.581 113.856 116.371 107.965 116.858 103.877C117.101 101.833 117.222 100.21 117.283 99.1278C117.283 98.8874 117.283 98.6469 117.344 98.4064V98.4665V98.5267C117.344 98.5868 117.344 98.6469 117.344 98.6469C117.344 98.707 117.344 98.8272 117.344 98.8874C117.344 99.0076 117.344 99.1278 117.283 99.1879C117.283 99.1278 117.283 99.0677 117.283 99.0677C117.283 99.0677 117.283 99.1278 117.283 99.1879C117.283 99.1278 117.283 99.0076 117.283 98.8874C117.283 98.8272 117.283 98.7671 117.283 98.6469C117.283 98.5868 117.283 98.5868 117.283 98.5267V98.4665V98.4064C117.283 98.4064 117.283 98.4064 117.344 98.4064C117.344 98.5868 117.344 98.8273 117.344 99.1278C117.283 100.21 117.222 101.833 116.979 103.877C116.554 107.965 115.763 113.917 114.426 121.191C113.696 124.798 112.906 128.765 111.69 132.974C111.082 135.078 110.352 137.182 109.379 139.346C108.893 140.428 108.285 141.45 107.494 142.352C107.069 142.833 106.522 143.133 105.914 143.374C105.366 143.614 104.758 143.795 104.15 143.915C101.718 144.516 99.2257 144.757 96.6113 144.997C94.0577 145.237 91.3825 145.358 88.7073 145.418C83.3569 145.538 77.7633 145.538 72.0481 145.418C69.0081 145.358 66.0289 145.237 63.2321 145.117H63.0497V144.937C63.1713 141.39 63.3537 137.963 63.4753 134.717V134.597H63.5969C64.9953 134.296 66.3937 134.116 67.7921 133.935C69.1905 133.755 70.5281 133.575 71.8657 133.394C74.5409 133.034 77.1553 132.553 79.6481 132.012C84.6337 130.99 89.3153 129.848 93.5713 128.826L93.4497 128.946C94.9697 119.147 96.1857 111.151 97.0977 105.62C97.5233 102.855 97.8881 100.691 98.1313 99.1879C98.2529 98.4665 98.3137 97.9255 98.4353 97.5047C98.4961 97.0237 98.4961 96.8434 98.4961 96.8434Z" fill="#3F3F40"/>
</svg>
