<svg width="375" height="812" viewBox="0 0 375 812" fill="none" xmlns="http://www.w3.org/2000/svg">
<g clip-path="url(#clip0_29_5685)">
<rect width="375" height="812" fill="white"/>
<rect width="375" height="812" fill="#FF5922"/>
<path d="M64.6079 56.304L55.4125 61.4126L50.3039 70.608L45.1953 61.4126L35.9999 56.304L45.1953 51.1954L50.3039 42L55.4125 51.1954L64.6079 56.304Z" fill="white"/>
<path d="M154.451 122L154.706 127.364L157.771 131.451L152.663 131.962L148.321 135.027L148.065 129.663L145 125.576L150.109 125.065L154.451 122Z" fill="white"/>
<path d="M326.451 64L326.706 69.1086L330.027 73.4509L324.663 73.7063L320.321 76.7714L320.065 71.6629L317 67.3206L322.109 67.0652L326.451 64Z" fill="white"/>
<path d="M78.2608 204L82.8585 211.918L91.0322 216.261L83.1139 220.858L78.7717 229.032L74.174 221.114L66.0002 216.771L73.9185 212.174L78.2608 204Z" fill="white"/>
<path d="M233.745 184.342C243.827 182.048 253.333 176.729 260.584 169.179C262.928 166.812 265.045 164.222 267.501 161.966C270.07 159.823 273.089 158.125 276.341 157.997C279.593 157.868 283.19 159.644 284.439 162.666C286.143 167.031 283.143 172.542 285.742 176.454C287.663 179.248 291.591 179.789 294.952 179.099C298.201 178.522 301.446 177.048 304.81 177.031C308.848 177.01 312.673 179.458 314.71 183.037C316.634 186.504 316.545 191.102 314.431 194.59C313.096 196.615 311.2 198.755 311.773 201.108C312.118 202.788 313.693 203.902 315.044 204.792C317.858 206.909 320.451 209.699 321.478 213.171C322.505 216.642 321.964 220.57 319.398 223.162C318.393 224.177 317.163 224.744 316.158 225.758C315.154 226.773 314.489 228.346 315.281 229.576C315.734 230.47 316.633 230.915 317.421 231.471C321.137 234.481 320.493 240.316 318.159 244.477C313.715 252.798 304.882 258.114 295.582 259.618C286.281 261.123 276.626 259.153 267.972 255.496C259.318 251.838 251.331 246.832 243.342 241.601" fill="#3F3F40"/>
<path d="M328.687 420.047C327.553 417.586 327.203 414.784 327.078 412.205C326.429 394.825 334.867 377.736 347.817 366.008C360.767 354.279 377.893 347.8 395.154 345.919C404.457 344.863 419.266 345.91 427.363 350.355C421.691 359.692 408.053 368.508 397.868 372.485C387.795 376.573 377.045 379.767 368.557 386.763C358.84 394.774 353.293 406.69 346.393 417.267C344.945 419.405 343.498 421.543 341.488 423.123C339.477 424.703 336.903 425.726 334.32 425.178C331.963 424.629 329.821 422.509 328.687 420.047Z" fill="white"/>
<g opacity="0.3">
<path d="M328.687 420.047C327.553 417.586 327.203 414.784 327.078 412.205C326.429 394.825 334.867 377.736 347.817 366.008C360.767 354.279 377.893 347.8 395.154 345.919C404.457 344.863 419.266 345.91 427.363 350.355C421.691 359.692 408.053 368.508 397.868 372.485C387.795 376.573 377.045 379.767 368.557 386.763C358.84 394.774 353.293 406.69 346.393 417.267C344.945 419.405 343.498 421.543 341.488 423.123C339.477 424.703 336.903 425.726 334.32 425.178C331.963 424.629 329.821 422.509 328.687 420.047Z" fill="#3F3F40"/>
</g>
<path d="M442.241 520.408L406.953 528.099C406.953 528.099 402.885 566.474 396.615 568.525L379.228 500.875L433.548 486.583L442.241 520.408Z" fill="#FF5922"/>
<g opacity="0.6">
<path d="M379.337 500.764L384.826 499.503L399.511 564.923C399.511 564.923 398.966 568.178 396.724 568.414L379.337 500.764Z" fill="white"/>
</g>
<path d="M333.265 393.782C334.158 392.88 362.046 363.357 387.925 357.956L407.187 352.476L419.363 365.199C419.363 365.199 426.437 366.846 428.472 370.2C430.62 373.442 442.447 383.812 442.447 383.812C442.447 383.812 447.36 379.525 455.808 386.772C455.808 386.772 464.873 383.026 472.284 384.783C479.807 386.652 561.346 410.241 571.697 416.918C582.048 423.594 598.154 437.307 596.754 448.641C595.353 459.975 579.268 472.841 579.268 472.841C579.268 472.841 583.459 481.007 571.076 493.967C558.917 506.925 524.848 511.807 524.848 511.807L427.374 530.69L411.457 487.705L444.164 479.69L397.269 476.337C397.269 476.337 370.206 469.408 355.186 448.737C344.007 433.428 333.265 393.782 333.265 393.782Z" fill="#3F3F40"/>
<path d="M337.487 408.004C337.487 408.004 337.71 407.778 338.156 407.327C338.714 406.764 339.272 406.2 340.053 405.411C341.727 403.721 344.182 401.241 347.194 398.198C350.207 395.155 353.89 391.66 358.358 388.048C362.714 384.55 367.742 380.824 373.672 377.99C385.305 372.1 397.069 369.685 405.471 367.961C409.617 367.155 412.978 366.465 415.443 366.004C416.563 365.774 417.459 365.545 418.132 365.542C418.692 365.427 419.028 365.313 419.028 365.313C419.028 365.313 418.691 365.203 418.019 365.43C417.235 365.546 416.45 365.662 415.217 365.781C412.864 366.129 409.39 366.707 405.132 367.402C396.728 368.902 384.965 371.316 373.107 377.208C367.29 380.153 362.038 383.88 357.794 387.49C353.327 391.102 349.756 394.708 346.743 397.752C343.731 400.795 341.389 403.386 339.828 405.188C339.047 405.977 338.49 406.765 338.044 407.216C337.597 407.667 337.374 407.892 337.487 408.004Z" fill="#455A64"/>
<path d="M352.773 392.562C352.885 392.449 352.321 391.892 351.644 390.998C350.966 390.104 349.951 388.875 349.157 387.197C348.477 385.631 348.356 383.949 348.35 382.828C348.345 381.706 348.229 380.922 348.229 380.922C348.116 380.81 347.896 381.708 347.902 382.83C347.796 384.064 347.916 385.746 348.598 387.537C349.28 389.327 350.52 390.555 351.309 391.336C352.098 392.117 352.773 392.562 352.773 392.562Z" fill="#455A64"/>
<path d="M348.978 396.17C349.09 396.057 348.526 395.5 347.737 394.719C346.948 393.937 345.71 392.934 344.805 391.369C344.012 389.915 343.78 388.346 343.437 387.114C343.207 385.994 342.98 385.322 342.756 385.323C342.644 385.436 342.647 386.109 342.877 387.229C343.107 388.349 343.228 390.031 344.021 391.709C345.039 393.386 346.278 394.389 347.178 395.058C348.192 395.838 348.867 396.283 348.978 396.17Z" fill="#455A64"/>
<path d="M526.336 473.108C526.336 473.108 525.774 472.774 524.426 472.332C523.302 471.89 521.393 471.338 519.034 470.565C514.316 469.019 507.464 466.923 499.04 464.386C482.08 459.2 458.494 452.366 432.549 444.758C426.148 442.884 419.746 441.01 413.569 439.358C407.504 437.595 401.772 435.044 396.823 432.153C386.7 426.372 379.036 418.785 373.841 411.634C368.535 404.595 365.474 397.994 363.768 393.404C362.86 391.166 362.289 389.262 361.947 388.03C361.832 387.47 361.605 387.023 361.491 386.687C361.378 386.351 361.265 386.239 361.265 386.239C361.265 386.239 361.266 386.463 361.38 386.799C361.494 387.135 361.609 387.695 361.724 388.256C362.066 389.487 362.637 391.391 363.433 393.742C365.139 398.332 368.088 405.046 373.396 412.309C378.591 419.46 386.368 427.159 396.491 433.164C401.553 436.167 407.286 438.717 413.351 440.481C419.415 442.245 425.817 444.119 432.219 445.993C458.164 453.601 481.749 460.435 498.709 465.397C507.133 467.934 514.096 469.917 518.925 471.351C521.284 472.124 523.081 472.564 524.429 473.005C524.99 473.115 525.44 473.337 525.777 473.447C526.223 472.996 526.336 473.108 526.336 473.108Z" fill="#455A64"/>
<path d="M352.813 445.048C352.813 445.048 353.035 444.598 353.591 443.586C354.035 442.686 354.589 441.226 355.477 439.427C357.141 435.942 360.032 430.993 364.155 425.701L363.595 425.816C368.33 430.727 374.078 436.417 380.724 442.103C387.82 448.236 394.799 453.36 400.875 457.366L400.762 457.255C403.706 462.847 405.749 467.547 407.111 470.905C407.681 472.584 408.136 473.928 408.477 474.935C408.706 475.831 408.821 476.391 408.821 476.391C408.821 476.391 408.819 475.943 408.702 474.934C408.473 474.038 408.129 472.582 407.56 470.903C406.309 467.432 404.378 462.62 401.434 457.027L401.321 456.915L401.209 456.804C395.132 452.797 388.265 447.561 381.169 441.428C374.636 435.854 368.888 430.163 364.041 425.365L363.703 425.03L363.368 425.369C359.246 430.66 356.467 435.721 354.915 439.318C354.027 441.116 353.474 442.577 353.143 443.588C352.923 444.486 352.702 445.16 352.813 445.048Z" fill="#455A64"/>
<path d="M356.655 450.86C356.768 450.972 357.322 449.735 358.322 447.824C359.322 445.912 360.767 443.325 362.547 440.625C365.996 435.112 369.002 430.723 368.665 430.613C368.552 430.501 367.772 431.514 366.436 433.316C365.211 435.004 363.429 437.48 361.761 440.292C358.423 445.692 356.542 450.748 356.655 450.86Z" fill="#455A64"/>
<path d="M344.654 428.267C344.767 428.378 345.655 426.579 347.436 423.879C349.104 421.067 351.553 417.466 354.675 413.861C357.797 410.257 360.921 407.101 363.265 404.958C365.61 402.816 367.061 401.575 367.06 401.35C367.06 401.35 366.613 401.577 365.831 402.142C365.048 402.706 364.043 403.496 362.815 404.512C360.357 406.543 357.121 409.587 354 413.416C350.879 417.245 348.43 420.846 346.874 423.769C346.097 425.231 345.541 426.243 345.097 427.143C344.876 427.817 344.654 428.267 344.654 428.267Z" fill="#455A64"/>
<path d="M372.489 410.295C372.489 410.295 373.272 409.954 374.39 409.276C375.62 408.484 377.297 407.467 379.42 405.998C383.443 403.062 389.028 398.548 394.044 392.579C396.497 389.651 398.837 386.611 399.604 383.13C399.932 381.446 399.923 379.652 399.355 378.197C398.898 376.629 397.771 375.513 396.758 374.734C394.62 373.286 392.709 372.511 391.473 371.956C390.125 371.515 389.339 371.406 389.339 371.406C389.339 371.406 390.013 371.627 391.363 372.293C392.599 372.848 394.511 373.848 396.424 375.296C397.438 376.076 398.228 377.081 398.683 378.425C399.138 379.768 399.146 381.338 398.706 382.911C398.049 386.054 395.596 388.982 393.256 392.022C388.351 397.878 382.991 402.391 378.857 405.44C376.846 407.02 375.169 408.038 374.052 408.941C373.159 409.843 372.489 410.295 372.489 410.295Z" fill="#455A64"/>
<path d="M173.301 207.524C166.935 190.51 182.468 179.553 191.872 176.141C201.275 172.73 210.921 172.905 220.697 176.781C227.102 179.328 233.738 182.996 240.125 181.954C243.038 181.491 245.499 180.133 248.298 179.334C251.098 178.535 254.238 178.519 256.714 180.301C261.104 183.531 259.904 190.154 258.246 194.985C261.496 194.407 265.097 196.857 266.794 199.876C268.492 202.895 268.958 206.482 269.2 209.845C270.037 220.271 268.545 235.755 266.24 245.747C263.935 255.74 260.481 260.131 251.193 264.103C247.388 265.693 243.129 266.387 240.002 268.87C236.428 271.804 234.883 276.746 232.323 280.684C229.763 284.622 224.733 287.9 220.123 285.568C218.325 284.68 217.083 283.004 215.507 281.89C213.931 280.777 211.684 279.891 210.118 280.796C208.889 281.587 208.448 283.16 207.782 284.509C206.228 287.657 220.352 308.782 216.994 309.92C216.994 309.92 183.89 283.62 172.555 259.901C168.928 252.294 161.445 236.182 160.283 228.113C158.881 216.905 171.616 206.972 173.301 207.524Z" fill="#3F3F40"/>
<path d="M182.024 202.546C187.462 191.192 205.268 186.056 216.513 192.055C228.994 198.609 243.84 207.057 251.838 214.082C268.057 227.907 261.965 243.078 261.965 243.078L289.873 262.003L241.664 287.03L173.377 244.87L167.529 241.535L182.024 202.546Z" fill="#FFBE9D"/>
<path d="M228.121 203.547C228.348 203.995 226.112 205.352 224.891 207.937C223.671 210.523 224.244 213.099 223.797 213.326C223.573 213.327 223.122 212.881 222.892 211.76C222.662 210.64 222.654 209.07 223.318 207.272C224.094 205.586 225.21 204.459 226.217 203.893C227.336 203.439 228.12 203.323 228.121 203.547Z" fill="#3F3F40"/>
<path d="M214.336 227.617C214.338 228.065 211.986 228.638 209.979 230.891C208.083 233.031 207.76 235.612 207.311 235.615C207.087 235.616 206.859 234.944 206.854 233.823C206.848 232.701 207.513 231.128 208.628 229.776C209.742 228.425 211.309 227.744 212.429 227.514C213.661 227.172 214.335 227.393 214.336 227.617Z" fill="#3F3F40"/>
<path d="M231.27 227.419C231.157 227.308 231.709 225.623 233.041 222.924C233.262 222.25 233.708 221.575 233.257 221.129C232.806 220.683 232.02 220.574 231.122 220.355C229.214 220.028 227.306 219.701 225.173 219.375C216.754 217.736 210.017 216.199 210.015 215.751C210.125 215.414 216.971 216.389 225.391 218.028C227.412 218.467 229.432 218.905 231.341 219.232C232.239 219.452 233.249 219.559 234.038 220.34C234.489 220.786 234.492 221.459 234.27 221.909C234.161 222.47 233.937 222.696 233.827 223.033C232.272 225.956 231.382 227.531 231.27 227.419Z" fill="#3F3F40"/>
<path d="M261.966 243.077C261.966 243.077 254.967 256.234 240.425 263.709C240.425 263.709 256.584 265.646 266.242 245.972L261.966 243.077Z" fill="#EB996E"/>
<path d="M239.035 232.876C238.921 232.54 239.262 233.323 239.035 232.876V232.876Z" fill="#EB996E"/>
<path d="M231.662 238.52C231.207 237.177 231.311 235.718 231.978 234.369C232.866 232.57 234.653 231.215 236.559 231.094C237.905 231.087 239.034 232.651 239.148 232.987C239.38 234.556 240.058 235.45 239.617 237.022C239.176 238.594 236.383 240.739 234.926 240.859C233.356 240.867 232.117 239.864 231.662 238.52Z" fill="#EB996E"/>
<path d="M228.396 235.733C228.618 235.283 231.205 236.952 234.564 235.814C237.923 234.676 239.365 231.64 239.815 231.862C240.039 231.861 239.932 232.871 239.265 233.996C238.598 235.121 237.036 236.699 235.021 237.382C233.005 238.065 231.097 237.738 229.861 237.184C228.849 236.628 228.284 235.846 228.396 235.733Z" fill="#3F3F40"/>
<path d="M199.501 221.187C200.176 221.632 199.066 223.88 198.632 226.798C198.198 229.716 198.435 232.183 197.539 232.411C197.203 232.525 196.526 231.856 196.072 230.737C195.618 229.617 195.273 227.937 195.601 226.253C195.929 224.569 196.707 223.107 197.375 222.207C198.492 221.304 199.275 220.963 199.501 221.187Z" fill="#3F3F40"/>
<path d="M219.23 197.2C219.234 198.097 216.996 199.006 214.985 200.586C212.863 202.279 211.526 204.08 210.628 203.86C210.291 203.75 210.063 203.078 210.506 201.954C210.949 200.83 211.727 199.369 213.291 198.239C214.743 196.998 216.311 196.542 217.544 196.423C218.441 196.419 219.227 196.751 219.23 197.2Z" fill="#3F3F40"/>
<path d="M165.295 243.34C164.614 241.773 165.053 239.753 165.605 238.068C168.8 226.724 172.782 215.714 177.438 204.924L182.366 203.554C189.457 208.789 192.983 218.528 190.559 227.063C189.678 230.432 187.904 234.479 190.161 237.159C192.418 240.063 196.787 239.032 200.491 239.574C204.98 240.224 208.811 243.794 209.731 248.275C210.192 250.74 209.981 253.433 210.666 255.897C211.468 259.145 214.173 261.823 217.32 263.153C220.466 264.483 224.959 265.806 228.207 265.004C224.205 271.978 215.139 275.5 207.391 273.632C202.787 272.422 199.181 269.076 195.577 265.954C187.355 258.93 178.575 252.469 169.239 247.021C167.664 246.132 165.977 245.131 165.295 243.34Z" fill="#3F3F40"/>
<path d="M177.218 205.823C181.817 206.136 186.53 206.561 190.898 205.529C195.378 204.385 199.626 201.672 201.512 197.513C199.942 197.521 198.371 197.305 196.801 197.313C205.876 195.585 214.381 191.953 221.981 186.756C213.005 185.904 203.917 185.165 195.294 187.563C186.67 189.962 178.515 196.171 176.54 204.929" fill="#3F3F40"/>
<path d="M180.293 259.75L210.553 255.785C210.798 259.821 216.99 264.612 221.029 264.816C225.067 265.02 229.549 264.325 233.148 266.325C236.973 268.549 238.679 273.363 241.723 276.6C246.12 281.175 252.965 281.926 259.253 283.464C265.428 284.891 272.287 288.333 273.44 294.608C274.709 301.667 267.562 307.759 260.389 308.692C253.217 309.625 246.251 307.193 239.181 306.22C232.111 305.246 224.38 306.743 219.81 312.261C202.918 298.44 188.805 279.782 180.293 259.75Z" fill="#3F3F40"/>
<path d="M214.698 299.39C214.584 299.054 212.903 299.399 209.765 299.639C206.738 299.99 202.142 300.35 196.756 299.704C194.062 299.269 191.254 298.498 188.332 297.167C185.409 295.836 182.708 293.831 180.452 291.375C178.084 288.808 176.497 285.451 175.582 281.867C174.778 278.17 174.534 274.134 175.073 269.982C176.042 261.79 179.48 254.259 182.137 247.292C185.017 240.325 187.115 233.697 187.758 227.863C188.402 222.028 187.817 217.208 186.68 214.074C185.655 211.051 184.526 209.486 184.303 209.712C183.967 209.826 184.536 211.505 185.112 214.53C185.688 217.555 185.935 222.04 184.84 227.429C183.97 232.816 181.646 238.996 178.653 245.852C177.212 249.336 175.66 252.933 174.222 256.865C172.784 260.797 171.572 264.953 171.034 269.554C170.608 274.042 170.631 278.528 171.773 282.784C172.916 287.039 174.954 290.842 177.773 293.856C180.592 296.87 183.854 298.76 187.113 300.201C190.373 301.643 193.628 302.187 196.433 302.51C202.38 303.04 206.973 302.008 210.109 301.319C213.133 300.519 214.812 299.726 214.698 299.39Z" fill="#3F3F40"/>
<path d="M173.9 259.67C173.9 259.67 174.345 258.995 174.9 257.759C175.454 256.523 176.341 254.499 177.227 252.252C178.998 247.533 181.544 240.903 182.401 233.048C183.147 225.306 181.428 218.026 178.939 213.552C177.806 211.315 176.564 209.639 175.437 208.523C174.986 208.077 174.535 207.63 174.31 207.407C174.084 207.184 173.859 206.961 173.859 206.961C173.747 207.074 176.113 209.193 178.379 213.667C180.644 218.142 182.249 225.087 181.503 232.829C180.757 240.571 178.323 247.088 176.665 251.918C175.779 254.166 175.003 256.076 174.45 257.537C174.008 258.885 173.9 259.67 173.9 259.67Z" fill="#455A64"/>
<path d="M190.474 277.194C190.586 277.081 189.575 276.75 188.112 275.748C186.649 274.746 184.844 272.736 183.707 269.602C182.571 266.692 182.102 262.657 182.866 258.503C183.517 254.238 185.065 249.745 186.274 244.916C187.483 240.088 187.796 235.264 187.437 230.892C187.079 226.52 186.162 222.711 185.025 219.577C183.888 216.443 182.642 214.094 181.737 212.528C181.284 211.633 180.833 211.187 180.607 210.739C180.38 210.292 180.155 210.069 180.155 210.069C180.155 210.069 180.608 210.964 181.513 212.529C182.418 214.095 183.552 216.556 184.576 219.579C185.601 222.602 186.517 226.41 186.876 230.782C187.234 235.154 186.921 239.754 185.712 244.583C184.502 249.411 182.955 253.905 182.304 258.17C181.541 262.547 182.01 266.582 183.371 269.716C184.62 272.737 186.537 274.858 188.113 275.972C188.901 276.529 189.575 276.75 190.024 276.972C190.137 277.083 190.474 277.194 190.474 277.194Z" fill="#455A64"/>
<path d="M273.04 170.798C273.04 170.798 272.927 170.687 272.703 170.688C272.479 170.689 272.142 170.578 271.917 170.579C271.132 170.471 270.01 170.477 268.555 171.045C267.1 171.613 265.76 172.741 264.197 174.095C262.633 175.449 260.847 177.028 259.062 178.831C257.276 180.634 255.268 182.663 252.584 184.247C250.125 185.829 246.99 186.742 243.515 187.096C240.151 187.337 236.673 187.018 232.969 186.252C229.264 185.486 225.781 184.27 221.961 182.943C218.254 181.728 214.547 180.513 210.844 179.971C207.139 179.205 203.55 179.223 200.077 179.801C193.129 180.957 187.652 184.462 184.081 188.068C180.286 191.676 178.174 195.388 177.066 198.085C176.845 198.759 176.512 199.321 176.402 199.883C176.293 200.444 176.071 200.894 175.96 201.231C175.74 201.905 175.742 202.353 175.742 202.353C175.742 202.353 175.852 202.016 176.185 201.229C176.295 200.892 176.517 200.443 176.627 199.881C176.849 199.432 177.069 198.758 177.403 198.195C178.624 195.61 180.736 191.898 184.419 188.403C188.102 184.908 193.581 181.628 200.304 180.473C203.554 179.896 207.255 179.989 210.847 180.644C214.439 181.299 218.146 182.514 221.853 183.729C225.56 184.944 229.267 186.159 232.972 186.925C236.677 187.691 240.268 188.122 243.742 187.768C247.217 187.414 250.464 186.388 253.035 184.693C255.606 182.998 257.615 180.969 259.4 179.166C261.185 177.362 262.859 175.672 264.422 174.318C265.873 172.853 267.213 171.725 268.556 171.269C269.787 170.702 271.02 170.584 271.693 170.581C272.591 170.8 272.928 170.911 273.04 170.798Z" fill="#455A64"/>
<path d="M264.632 148.859C254.194 125.136 246.44 99.6055 234.931 85.757L248.884 72.7897C253.509 78.0374 292.749 120.232 299.495 145.88C306.241 171.528 312.645 240.803 312.645 240.803L272.745 223.397C272.746 223.621 275.069 172.582 264.632 148.859Z" fill="#FFBE9D"/>
<path d="M213.8 54.1255L219.602 48.2645C219.602 48.2645 222.538 52.2871 219.973 55.1037C217.52 58.0319 217.402 56.7989 217.402 56.7989L218.523 56.7932L222.882 53.7433C222.882 53.7433 225.476 56.7582 223.584 59.5715L216.745 59.9423L213.8 54.1255Z" fill="#FFBE9D"/>
<path d="M197.393 69.7967C202.346 73.5848 202.121 73.3616 202.121 73.3616L211.873 72.3032L206.674 64.479C205.996 63.3609 205.989 62.0151 206.882 61.1135L209.224 58.5223C209.224 58.5223 204.95 56.0765 208.188 53.2565C208.188 53.2565 209.411 51.1195 216.385 55.346C224.035 60.0178 244.935 67.9872 249.223 73.3487L236.286 87.5445C231.889 82.9686 223.36 81.8901 219.546 81.685C218.312 81.5791 217.301 81.2477 216.289 80.6921C215.277 80.1364 213.815 79.3587 211.683 79.2573C208.094 79.0511 201.366 79.3093 201.366 79.3093L191.109 69.1554C190.997 69.0438 192.552 66.1202 197.393 69.7967ZM218.135 68.6829L222.164 67.0925L218.9 64.7538L216.331 66.8976L218.135 68.6829Z" fill="#FFBE9D"/>
<path d="M222.613 67.3148C222.613 67.3148 222.162 66.8684 221.261 66.2001C220.361 65.5317 219.011 64.6413 217.435 63.5278C215.747 62.3027 213.834 61.0787 211.696 59.6315C210.683 58.8516 209.446 58.297 208.432 57.2928C207.53 56.4002 206.85 55.0578 207.742 53.9318C208.522 52.9186 209.979 52.7991 211.327 53.2409C212.001 53.4618 212.451 53.6838 213.238 54.0163C213.8 54.3499 214.474 54.5708 215.036 54.9044C217.285 56.0146 219.309 57.1259 221.108 58.014C222.907 58.9021 224.256 59.5682 225.38 60.0112C226.391 60.3425 227.065 60.5634 227.065 60.5634C227.065 60.5634 226.502 60.2298 225.603 59.7858C224.591 59.2301 223.242 58.564 221.443 57.6759C219.644 56.7878 217.62 55.6765 215.37 54.342C214.808 54.0084 214.245 53.6748 213.571 53.4539C213.009 53.1203 212.222 52.7878 211.548 52.5669C210.874 52.346 210.088 52.2378 209.304 52.3539C208.52 52.47 207.625 52.9231 207.179 53.5982C206.845 53.9364 206.734 54.2734 206.625 54.8347C206.627 55.2832 206.629 55.7318 206.743 56.0677C207.084 56.851 207.536 57.5216 207.987 57.968C209.114 59.0838 210.35 59.6383 211.475 60.3055C213.613 61.7527 215.637 62.864 217.213 63.9775C218.9 64.9783 220.25 65.8687 221.263 66.4244C222.05 66.9811 222.613 67.3148 222.613 67.3148Z" fill="#EB996E"/>
<path d="M218.246 68.5704C218.358 68.4577 216.781 67.1199 215.089 65.2219C214.638 64.7756 214.299 64.2165 213.961 63.8818C213.51 63.4355 213.396 63.0996 213.395 62.8753C213.392 62.2024 213.95 61.6389 213.838 61.7516C213.838 61.7516 213.614 61.7527 213.502 61.8654C213.279 62.0909 213.056 62.3163 212.834 62.766C212.724 63.3273 213.064 63.8863 213.403 64.4454C213.742 65.0044 214.08 65.3391 214.644 65.897C216.335 67.5708 218.247 68.7947 218.246 68.5704Z" fill="#EB996E"/>
<path d="M209.183 72.7659C209.295 72.8775 209.968 72.8741 211.426 72.7546C212.883 72.6351 214.676 72.4018 216.691 71.7187C218.707 71.0357 220.27 69.682 221.275 68.8919C222.392 67.9891 222.837 67.314 222.837 67.314C222.725 67.2024 222.054 67.6544 220.937 68.5572C219.819 69.2357 218.255 70.3651 216.352 71.1597C214.45 71.9543 212.656 72.1876 211.312 72.4187C209.966 72.4255 209.181 72.5416 209.183 72.7659Z" fill="#EB996E"/>
<path d="M231.221 306.596C231.221 306.596 215.707 321.366 204.076 327.705C192.332 334.157 149.513 360.727 149.513 360.727L84.8144 407.37L98.1255 422.78C98.1255 422.78 164.78 385.884 178.316 379.199C191.853 372.514 253.269 342.036 259.832 331.349L254.029 314.893L231.221 306.596Z" fill="#FFBE9D"/>
<path d="M41.0152 417.572C41.6825 416.447 48.1745 413.947 48.1745 413.947C44.6963 413.628 44.3435 410.377 44.3435 410.377L53.5236 407.191C53.5236 407.191 59.8038 407.159 63.3902 406.693C66.9765 406.226 79.3171 407.061 79.7668 407.283L86.943 407.023L98.462 422.89C98.462 422.89 95.7863 426.043 92.9878 427.067C90.1892 428.09 83.793 427.337 83.793 427.337L78.0978 432.188C77.5399 432.752 76.645 433.205 75.7479 433.21C72.8332 433.449 70.8021 430.992 70.8021 430.992C65.5387 432.476 65.0675 427.992 65.0675 427.992C65.0675 427.992 62.9452 429.685 60.9243 429.247C59.2404 428.919 58.6746 427.913 58.1054 426.233C57.6478 424.441 62.7839 419.929 62.7839 419.929L61.6546 418.365C61.6546 418.365 48.4293 420.002 45.4031 420.353C42.6011 420.704 40.4596 418.584 41.0152 417.572Z" fill="#FFBE9D"/>
<path d="M48.1743 413.947C48.0627 414.06 49.972 414.611 53.111 414.371C54.681 414.363 56.4742 414.129 58.494 414.344C60.5137 414.558 62.4241 415.333 64.56 416.332C66.5843 417.443 68.6085 418.554 70.6294 418.993C72.6514 419.655 74.4469 419.871 76.0169 419.863C77.5869 419.855 78.82 419.737 79.6044 419.62C80.3889 419.504 80.9491 419.389 80.8364 419.278C80.8352 419.053 78.9304 419.399 75.9019 419.303C74.4435 419.198 72.5353 418.871 70.626 418.32C68.7167 417.769 66.8052 416.769 64.6682 415.546C62.6439 414.435 60.3965 413.549 58.2652 413.448C56.1338 413.346 54.3406 413.579 52.8833 413.699C49.9698 414.162 48.0616 413.835 48.1743 413.947Z" fill="#EB996E"/>
<path d="M70.8025 430.992C70.9152 431.103 72.2587 430.648 74.3843 429.628C75.3908 429.062 76.7332 428.383 77.849 427.255C78.4069 426.692 78.9648 426.128 79.6343 425.452C80.191 424.664 80.7478 423.876 80.8549 422.866C80.962 421.857 80.732 420.736 79.9442 420.179C79.0436 419.511 78.1465 419.516 77.2493 419.52C76.4648 419.636 75.5688 419.865 75.0098 420.204C74.4508 420.544 73.8917 420.883 73.3327 421.222C71.3208 422.578 70.2039 423.481 70.3166 423.592C70.4293 423.704 71.5462 422.801 73.5592 421.67C74.1183 421.33 74.6773 420.991 75.2363 420.652C75.7954 420.313 76.3555 420.198 77.2527 420.193C77.9256 420.19 78.8227 420.185 79.2736 420.631C79.7244 421.078 80.0648 421.861 79.9566 422.647C79.7402 424.218 78.4012 425.57 77.2843 426.473C76.1685 427.6 75.0504 428.279 74.0439 428.845C72.1448 430.312 70.6897 430.88 70.8025 430.992Z" fill="#EB996E"/>
<path d="M65.0686 428.217C65.1813 428.329 66.0761 427.876 67.529 426.859C68.1996 426.407 69.0933 425.73 69.7617 424.829C70.5428 424.04 71.5459 422.801 71.3137 421.232C71.0815 419.663 69.8428 418.66 68.6075 418.33C67.3722 418 66.2519 418.23 65.3558 418.459C63.6765 419.028 62.8954 419.817 62.8954 419.817C63.0081 419.928 63.903 419.475 65.4708 419.019C66.2553 418.903 67.264 418.785 68.275 419.117C69.286 419.448 70.2993 420.228 70.3049 421.35C70.5349 422.47 69.7549 423.483 68.9739 424.272C68.1928 425.061 67.5233 425.737 66.8538 426.414C65.8496 427.428 65.0674 427.993 65.0686 428.217Z" fill="#EB996E"/>
<path d="M77.2043 432.866C77.317 432.977 77.9876 432.525 79.2172 431.734C80.4469 430.943 82.124 429.925 83.5734 428.235C83.9081 427.897 84.3533 427.222 84.2372 426.438C84.1223 425.878 83.783 425.319 83.4449 424.984C82.6559 424.203 81.646 424.096 80.8616 424.212C79.2938 424.668 78.9625 425.679 78.9625 425.679C79.0752 425.791 79.6319 425.003 80.9765 424.772C81.5367 424.657 82.435 424.877 82.9986 425.435C83.224 425.658 83.4506 426.105 83.5644 426.441C83.6782 426.777 83.3435 427.115 83.1214 427.565C81.7836 429.142 80.1065 430.159 78.9896 431.062C77.6495 432.191 77.0916 432.754 77.2043 432.866Z" fill="#EB996E"/>
<path d="M304.675 328.432C304.675 328.432 305.235 328.317 306.243 327.976C307.251 327.634 308.817 326.953 310.607 326.047C314.074 324.123 318.543 320.736 321.994 315.672C325.445 310.608 326.875 305.106 327.305 301.29C327.519 299.271 327.511 297.701 327.394 296.692C327.388 295.57 327.273 295.01 327.16 294.899C326.936 294.9 327.173 297.366 326.743 301.181C326.202 305.109 324.658 310.276 321.319 315.227C317.979 320.178 313.735 323.564 310.381 325.6C306.914 327.524 304.674 328.208 304.675 328.432Z" fill="#FF5922"/>
<path d="M288.301 261.562C288.301 261.562 241.658 285.909 239.981 286.926C238.304 287.944 209.99 322.18 209.99 322.18C209.99 322.18 232.181 341.47 231.021 356.167L262.236 341.318L289.551 353.854C289.551 353.854 301.796 357.941 306.224 368.798C314.738 389.278 327.018 422.636 331.286 423.736C331.623 423.847 324.512 414.798 335.181 395.455C338.516 389.607 346.548 381.267 355.602 375.278C394.163 349.402 421.426 351.619 427.589 350.579C427.589 350.579 368.708 305.455 363.717 294.266C358.726 283.076 356.552 274.452 346.772 269.903C336.88 265.242 321.478 257.806 321.478 257.806L319.66 230.787L272.387 219.25L269.733 248.983L288.301 261.562Z" fill="white"/>
<path d="M325.05 321.376C325.05 321.376 325.609 321.037 326.277 320.136C327.058 319.347 328.062 318.109 329.062 316.421C331.177 313.158 333.393 307.764 333.586 301.707C333.667 295.539 331.622 290.166 329.586 286.812C328.568 285.135 327.553 283.906 326.764 283.125C325.975 282.344 325.524 281.898 325.413 282.01C325.301 282.123 327.104 283.908 329.027 287.151C331.063 290.505 332.996 295.766 332.689 301.712C332.607 307.656 330.503 312.938 328.5 316.088C326.723 319.461 324.937 321.265 325.05 321.376Z" fill="#3F3F40"/>
<path d="M314.007 244.162C313.783 244.163 314.59 248.533 317.751 252.778C320.913 257.024 324.848 258.911 324.959 258.798C325.182 258.573 321.471 256.46 318.422 252.326C315.26 248.081 314.343 244.048 314.007 244.162Z" fill="#3F3F40"/>
<path d="M245.336 325.927C245.449 326.039 246.681 325.696 248.812 325.797C250.942 325.675 253.86 326.108 256.782 327.215C259.816 328.434 262.18 330.104 263.645 331.554C265.11 333.005 266.013 334.122 266.124 334.009C266.124 334.009 265.557 332.778 264.091 331.104C262.625 329.429 260.149 327.647 257.114 326.429C253.969 325.323 250.939 325.002 248.697 325.237C246.567 325.36 245.224 325.816 245.336 325.927Z" fill="#3F3F40"/>
<g opacity="0.3">
<path d="M329.506 315.298C332.51 310.46 333.277 306.98 333.249 301.373C333.234 298.457 332.883 295.431 331.745 292.296C336.02 294.966 337.534 306.061 335.103 313.251C332.559 320.329 326.533 326.191 319.366 328.246C323.27 324.077 326.614 320.023 329.506 315.298Z" fill="#3F3F40"/>
</g>
<path d="M312.248 384.58C312.361 384.692 312.464 383.009 313.572 380.312C314.568 377.728 316.568 373.905 320.138 370.298C323.596 366.579 328.737 362.965 334.892 360.354C341.047 357.744 348.328 356.025 356.059 354.528C371.408 351.647 385.069 347.317 394.581 343.344C399.394 341.413 403.086 339.712 405.659 338.466C407.002 337.786 407.897 337.333 408.68 336.992C409.351 336.54 409.687 336.427 409.687 336.427C409.687 336.427 409.351 336.54 408.567 336.881C407.784 337.221 406.889 337.674 405.658 338.241C403.085 339.488 399.28 341.077 394.467 343.008C384.954 346.757 371.518 351.086 355.944 353.968C348.326 355.577 340.932 357.184 334.665 359.907C328.399 362.63 323.258 366.245 319.689 370.076C316.119 373.907 314.231 377.617 313.236 380.426C312.24 383.01 312.248 384.58 312.248 384.58Z" fill="white"/>
<path d="M299.898 359.633C299.898 359.633 299.891 358.287 300.327 355.818C300.876 353.46 302.205 350.089 305.104 346.71C308.003 343.331 312.361 340.281 317.62 337.899C322.992 335.629 329.15 333.692 335.533 331.753C342.027 329.702 348.186 327.764 353.445 325.382C358.928 323 363.4 320.286 366.863 317.464C370.438 314.755 372.891 312.051 374.34 310.137C375.12 309.124 375.676 308.336 376.01 307.774C376.344 307.211 376.567 306.986 376.454 306.874C376.341 306.763 375.563 308 374.002 309.802C372.441 311.605 369.874 314.197 366.299 316.907C362.836 319.503 358.139 322.219 352.88 324.6C347.508 326.87 341.463 328.919 334.968 330.971C328.474 333.022 322.315 334.735 316.944 337.23C311.461 339.612 307.102 342.662 304.205 346.266C301.418 349.756 299.978 353.24 299.542 355.71C299.554 358.177 299.898 359.633 299.898 359.633Z" fill="white"/>
<path d="M332.783 298.01C332.783 298.01 333.232 298.008 334.016 297.892C334.465 297.89 334.912 297.663 335.472 297.548C336.033 297.433 336.704 297.206 337.376 296.978C338.831 296.41 340.398 295.729 342.075 294.711C343.752 293.693 345.54 292.339 347.213 290.648C348.887 288.957 350.225 287.381 351.337 285.581C352.338 283.893 353.227 282.319 353.781 280.858C354.002 280.184 354.223 279.51 354.443 278.836C354.553 278.275 354.775 277.825 354.773 277.376C354.881 276.591 354.99 276.03 354.99 276.03C354.766 276.031 354.551 277.826 353.218 280.524C352.552 281.874 351.775 283.335 350.774 285.023C349.66 286.598 348.323 288.399 346.649 289.866C345.086 291.444 343.299 292.799 341.622 293.816C339.945 294.834 338.379 295.739 337.036 296.195C334.575 297.553 332.782 297.786 332.783 298.01Z" fill="white"/>
<path d="M277.522 348.195C277.522 348.195 277.746 348.193 278.306 348.078C278.867 347.964 279.651 347.847 280.659 347.506C282.562 346.936 285.36 345.688 288.151 343.319C290.943 340.949 293.842 337.57 296.401 333.408C298.959 329.246 301.065 324.413 303.845 319.576C309.179 309.905 316.545 302.69 322.355 298.399C325.259 296.142 327.831 294.671 329.508 293.653C331.185 292.635 332.192 292.069 332.192 292.069C332.192 292.069 331.856 292.183 331.409 292.41C330.961 292.636 330.178 292.977 329.283 293.43C327.493 294.336 324.921 295.807 321.904 297.953C315.981 302.132 308.504 309.46 303.058 319.244C300.391 324.192 298.172 328.913 295.838 333.074C293.504 337.236 290.717 340.502 287.925 342.871C285.133 345.24 282.56 346.487 280.657 347.282C278.642 347.965 277.409 348.083 277.522 348.195Z" fill="white"/>
<path d="M261.62 330.443C261.62 330.443 261.956 330.329 262.403 329.878C262.849 329.428 263.631 328.863 264.637 328.073C266.422 326.269 269.1 323.564 271.66 319.851C274.221 316.137 277.113 311.412 280.003 306.239C283.004 300.952 286.228 295.217 290.575 289.924C291.802 288.684 292.804 287.221 294.033 286.205C294.591 285.642 295.26 284.966 295.931 284.514C296.601 284.062 297.159 283.498 297.83 283.046C300.4 281.127 303.083 279.543 305.768 278.184C311.25 275.577 316.287 273.645 320.314 271.606C324.341 269.567 327.471 267.533 329.369 265.841C330.375 265.051 330.931 264.263 331.489 263.699C331.936 263.248 332.159 263.023 332.046 262.911C332.046 262.911 331.823 263.137 331.376 263.588C330.93 264.039 330.261 264.715 329.255 265.505C327.245 267.085 324.227 269.231 320.199 271.046C316.059 272.973 311.022 274.905 305.54 277.512C302.856 278.871 300.059 280.343 297.378 282.376C296.707 282.828 296.149 283.391 295.367 283.956C294.809 284.519 294.14 285.196 293.469 285.648C292.129 286.776 291.127 288.239 289.9 289.479C285.441 294.884 282.33 300.732 279.216 305.906C276.215 311.192 273.659 315.803 270.986 319.63C268.426 323.343 265.972 326.047 264.187 327.851C263.294 328.752 262.512 329.317 262.066 329.768C261.844 330.218 261.62 330.443 261.62 330.443Z" fill="white"/>
<path d="M220.143 311.699C220.144 311.923 222.838 312.358 226.997 314.244C231.043 316.018 236.332 319.692 240.285 325.167C244.238 330.643 245.84 336.915 246.422 341.286C246.893 345.769 246.458 348.463 246.683 348.462C246.683 348.462 246.904 347.788 247.01 346.554C247.115 345.32 247.218 343.413 246.982 341.171C246.736 336.686 245.021 330.302 241.067 324.603C237.001 318.791 231.488 315.343 227.442 313.569C225.419 312.682 223.509 312.131 222.387 311.912C220.928 311.807 220.143 311.699 220.143 311.699Z" fill="white"/>
<path d="M282.665 255.758C282.665 255.758 283.112 255.532 283.895 254.967C284.677 254.402 285.682 253.612 287.022 252.484C288.138 251.357 289.589 249.892 290.813 247.979C292.037 246.066 292.697 243.596 292.683 240.904C292.783 238.324 292.21 235.972 292.087 233.842C291.964 231.712 292.067 229.805 292.507 228.232C293.276 224.976 295.176 223.733 294.952 223.734C294.952 223.734 294.505 223.961 293.835 224.637C293.166 225.313 292.387 226.551 291.946 228.123C291.505 229.695 291.291 231.715 291.303 233.958C291.426 236.088 291.887 238.553 291.899 241.02C291.911 243.487 291.25 245.734 290.25 247.645C289.138 249.445 287.911 250.909 286.684 252.149C284.004 254.406 282.552 255.647 282.665 255.758Z" fill="white"/>
<path d="M185.212 586.078L118.328 563.914C113.028 562.148 107.204 562.709 102.267 565.481L-31.935 641.718C-41.541 647.186 -44.8557 659.373 -39.3291 668.945L15.5302 763.425C21.0231 772.939 33.2006 776.103 42.7146 770.61L175.515 693.16C180.476 690.295 183.924 685.348 185.036 679.725L198.462 608.624C200.292 598.852 194.639 589.196 185.212 586.078ZM172.093 615.521C173.353 624.444 167.087 632.731 158.164 633.991C149.242 635.252 140.955 628.985 139.694 620.063C138.434 611.14 144.7 602.853 153.623 601.593C162.546 600.332 170.833 606.599 172.093 615.521Z" fill="white"/>
<g opacity="0.4">
<path d="M185.212 586.078L118.328 563.914C113.028 562.148 107.204 562.709 102.267 565.481L-31.935 641.718C-41.541 647.186 -44.8557 659.373 -39.3291 668.945L15.5302 763.425C21.0231 772.939 33.2006 776.103 42.7146 770.61L175.515 693.16C180.476 690.295 183.924 685.348 185.036 679.725L198.462 608.624C200.292 598.852 194.639 589.196 185.212 586.078ZM172.093 615.521C173.353 624.444 167.087 632.731 158.164 633.991C149.242 635.252 140.955 628.985 139.694 620.063C138.434 611.14 144.7 602.853 153.623 601.593C162.546 600.332 170.833 606.599 172.093 615.521Z" fill="#FF5922"/>
</g>
<path d="M192.215 582.034L125.331 559.87C120.031 558.104 114.207 558.665 109.27 561.437L-24.8735 637.64C-34.4795 643.108 -37.7942 655.295 -32.2676 664.867L22.5917 759.347C28.0846 768.861 40.2621 772.026 49.7761 766.533L182.577 689.082C187.538 686.218 190.985 681.27 192.097 675.647L205.524 604.546C207.353 594.774 201.642 585.152 192.215 582.034ZM179.155 611.444C180.415 620.366 174.149 628.653 165.226 629.914C156.303 631.174 148.016 624.908 146.756 615.985C145.496 607.062 151.762 598.775 160.684 597.515C169.641 596.313 177.894 602.521 179.155 611.444Z" fill="white"/>
<path d="M30.6426 671.117C24.1544 659.609 27.0383 648.294 36.9946 642.623C46.9845 637.011 57.9923 640.306 64.5479 651.931C71.1035 663.555 68.269 674.686 58.3127 680.356C48.3227 685.968 37.1309 682.624 30.6426 671.117ZM54.7667 657.5C50.6127 650.17 45.7891 648.286 41.4946 650.687C37.2583 653.055 36.3956 658.301 40.5159 665.572C44.6025 672.785 49.5518 674.753 53.788 672.385C58.0489 669.925 58.9207 664.83 54.7667 657.5ZM78.176 620.404L89.8003 613.848L81.7205 708.633L70.0962 715.189L78.176 620.404ZM95.3486 677.107C88.8603 665.599 91.7442 654.284 101.584 648.681C111.574 643.069 122.766 646.413 129.254 657.921C135.776 669.486 132.858 680.743 122.902 686.414C113.029 691.958 101.837 688.614 95.3486 677.107ZM119.414 663.524C115.328 656.311 110.437 654.309 106.142 656.711C101.906 659.079 101.009 664.266 105.163 671.596C109.317 678.925 114.199 680.776 118.436 678.408C122.696 675.948 123.501 670.737 119.414 663.524Z" fill="#FF5922"/>
<path d="M204.057 612.787C204.082 612.695 204.692 612.81 205.939 612.946C207.126 613.117 208.959 613.46 211.276 613.834C213.569 614.3 216.38 614.856 219.652 615.535C222.899 616.307 226.606 617.201 230.583 618.563C234.618 619.891 238.914 621.535 243.28 623.84C243.841 624.138 244.403 624.437 244.964 624.735C245.526 625.034 246.029 625.366 246.624 625.723C247.747 626.32 248.82 627.101 249.894 627.882C252.041 629.444 254.181 631.399 255.689 633.875C256.488 635.125 257.055 636.51 257.329 638.064C257.662 639.584 257.635 641.156 257.333 642.654C256.703 645.741 255.026 648.499 252.678 650.633C250.33 652.767 247.369 654.243 244.347 655.209C241.292 656.117 238.092 656.642 234.875 656.865C228.348 657.287 222.007 656.278 216.173 654.666C213.227 653.877 210.446 652.836 207.691 651.703C205.028 650.594 202.423 649.452 199.876 648.276C189.84 643.564 181.165 638.378 174.537 633.099C172.918 631.777 171.391 630.48 169.955 629.207C169.284 628.583 168.579 627.901 167.965 627.243C167.352 626.586 166.714 626.02 166.184 625.237C165.133 623.82 164.607 622.1 164.818 620.578C165.028 619.055 165.708 617.807 166.532 616.942C166.956 616.464 167.389 616.136 167.789 615.749C168.256 615.48 168.631 615.186 169.073 615.008C169.89 614.536 170.667 614.399 171.293 614.271C171.953 614.201 172.438 614.232 172.715 614.306C173.049 614.347 173.175 614.43 173.175 614.43C173.175 614.43 172.966 614.472 172.665 614.491C172.331 614.45 171.913 614.536 171.345 614.63C170.752 614.817 170.068 614.979 169.309 615.417C168.959 615.619 168.584 615.913 168.15 616.241C167.809 616.594 167.376 616.922 167.01 617.366C166.337 618.222 165.74 619.345 165.579 620.683C165.476 621.988 165.925 623.44 166.842 624.623C167.271 625.232 167.942 625.856 168.522 626.455C169.135 627.113 169.831 627.645 170.503 628.269C171.904 629.483 173.432 630.78 175.076 632.01C181.661 637.08 190.293 642.058 200.262 646.653C202.775 647.77 205.38 648.912 208.043 650.021C210.706 651.129 213.453 652.112 216.307 652.876C222.049 654.464 228.172 655.365 234.398 654.961C237.524 654.713 240.606 654.256 243.453 653.391C246.3 652.525 249.028 651.184 251.117 649.277C253.207 647.37 254.718 644.864 255.316 642.261C255.881 639.6 255.267 636.92 253.928 634.735C252.556 632.493 250.667 630.704 248.612 629.166C247.572 628.444 246.532 627.721 245.434 627.032C244.931 626.7 244.37 626.402 243.867 626.069C243.305 625.771 242.802 625.439 242.274 625.199C237.967 622.86 233.729 621.182 229.811 619.787C225.892 618.392 222.268 617.371 219.079 616.566C215.857 615.703 213.07 615.055 210.836 614.555C208.568 613.996 206.794 613.62 205.597 613.299C204.643 612.994 204.057 612.787 204.057 612.787Z" fill="#FF5922"/>
<path d="M86.0762 554.828C86.0179 554.862 77.3923 543.966 66.9157 530.403C56.3807 516.873 47.9885 505.842 48.0132 505.75C48.0716 505.717 56.6972 516.613 67.1738 530.176C77.6841 543.797 86.1346 554.794 86.0762 554.828Z" fill="white"/>
<path d="M98.6647 460.708C98.6647 460.708 98.6984 460.766 98.7074 460.917C98.7165 461.067 98.7592 461.276 98.8356 461.543C98.9301 462.111 99.0426 462.98 99.2563 464.024C99.5668 466.18 100.057 469.321 100.618 473.122C101.806 480.841 103.5 491.459 105.5 503.145C107.533 514.89 109.553 525.397 111.008 533.04C111.719 536.832 112.326 539.906 112.787 542.052C113.001 543.096 113.172 543.931 113.266 544.499C113.343 544.767 113.385 544.975 113.394 545.126C113.403 545.276 113.437 545.335 113.437 545.335C113.437 545.335 113.403 545.276 113.394 545.126C113.385 544.975 113.343 544.767 113.266 544.499C113.172 543.931 112.942 543.13 112.729 542.086C112.268 539.939 111.602 536.9 110.858 533.049C109.31 525.382 107.291 514.874 105.257 503.129C103.257 491.443 101.563 480.825 100.434 473.072C99.8395 469.213 99.4411 466.097 99.1305 463.941C98.9753 462.863 98.8964 462.053 98.8019 461.485C98.7839 461.184 98.7411 460.975 98.7321 460.825C98.64 460.8 98.6647 460.708 98.6647 460.708Z" fill="white"/>
<path d="M161.681 486.819C161.773 486.844 157.019 498.694 151.04 513.275C145.002 527.889 140.122 539.657 140.03 539.632C139.938 539.607 144.692 527.757 150.671 513.176C156.651 498.595 161.589 486.794 161.681 486.819Z" fill="white"/>
<path d="M66.262 569.303C66.2374 569.395 60.3583 567.03 53.2059 564.078C46.0199 561.067 40.2239 558.576 40.2485 558.484C40.2732 558.392 46.1523 560.757 53.3046 563.709C60.4907 566.72 66.2867 569.211 66.262 569.303Z" fill="white"/>
<path d="M188.774 543.319C188.808 543.377 182.596 545.019 174.946 546.867C167.297 548.715 161.042 550.147 161.008 550.089C160.975 550.03 167.187 548.389 174.836 546.541C182.51 544.601 188.765 543.169 188.774 543.319Z" fill="white"/>
<path d="M287.261 447L291.858 454.918L300.032 459.261L291.858 463.858L287.772 472.032L283.174 464.114L275 459.771L282.918 455.174L287.261 447Z" fill="white"/>
<path d="M198.451 764L198.706 769.364L202.027 773.451L196.663 773.962L192.321 777.027L192.065 771.918L189 767.576L194.109 767.321L198.451 764Z" fill="white"/>
<path d="M283.451 587L283.706 592.364L286.771 596.451L281.663 596.962L277.321 600.027L277.065 594.663L274 590.576L279.109 590.065L283.451 587Z" fill="white"/>
<path d="M151.451 436L151.706 441.364L154.771 445.451L149.663 445.962L145.321 449.027L145.065 443.663L142 439.576L147.109 439.065L151.451 436Z" fill="white"/>
<path d="M327.26 718L331.858 725.918L340.032 730.261L331.858 734.858L327.771 743.032L323.173 735.114L315 730.771L322.918 726.174L327.26 718Z" fill="white"/>
</g>
<defs>
<clipPath id="clip0_29_5685">
<rect width="375" height="812" fill="white"/>
</clipPath>
</defs>
</svg>
