<svg width="325" height="325" viewBox="0 0 325 325" fill="none" xmlns="http://www.w3.org/2000/svg">
<path d="M271.44 277.355H273.65L278.46 270.595V266.175C278.46 266.175 281.905 265.98 281.515 271.765C281.125 277.55 281.58 276.055 281.58 276.055C281.58 276.055 288.86 276.055 289.445 276.705C289.9 277.16 290.095 284.375 290.16 288.34C290.225 290.29 288.99 292.175 287.17 292.63C286.91 292.695 286.65 292.76 286.39 292.76C284.57 292.76 275.275 291.265 275.275 291.265H271.44V277.355Z" fill="#E0E0E0"/>
<path d="M265.07 276.12L266.435 291.265H270.27V276.445L265.07 276.12Z" fill="#E0E0E0"/>
<path d="M158.015 49.205L167.57 62.855C168.61 64.35 170.82 64.285 171.86 62.79L181.09 48.555L158.015 49.205Z" fill="#E0E0E0"/>
<path d="M182.195 56.745H155.35C151.19 56.745 147.81 53.365 147.81 49.205V33.8C147.81 29.64 151.19 26.26 155.35 26.26H182.195C186.355 26.26 189.735 29.64 189.735 33.8V49.205C189.735 53.365 186.355 56.745 182.195 56.745Z" fill="#E0E0E0"/>
<path d="M176.995 38.74C175.63 36.27 173.42 35.88 171.925 36.465C170.3 37.05 169.455 38.74 169.455 38.74C169.455 38.74 168.61 37.05 166.985 36.465C165.49 35.88 163.28 36.27 161.915 38.74C159.12 43.875 169.455 50.505 169.455 50.505C169.455 50.505 179.79 43.875 176.995 38.74Z" fill="white"/>
<path d="M53.105 262.145H75.14C80.015 262.145 84.045 266.11 84.045 271.05V282.23C84.045 287.105 80.08 291.135 75.14 291.135H69.355L65.325 296.92C64.35 298.35 62.205 298.285 61.295 296.855L57.59 291.135H53.17C48.295 291.135 44.265 287.17 44.265 282.23V271.05C44.2 266.175 48.165 262.145 53.105 262.145Z" fill="#E0E0E0"/>
<path d="M63.31 271.05V282.49L55.12 276.77L63.31 271.05Z" fill="white"/>
<path d="M74.23 283.4C74.23 283.4 73.71 275.275 67.21 275.145H63.05V278.655L67.145 278.72C67.145 278.655 71.435 278.59 74.23 283.4Z" fill="white"/>
<path d="M66.3252 142.71C67.0702 139.566 65.1257 136.414 61.9821 135.669C58.8385 134.924 55.6861 136.868 54.9411 140.012C54.196 143.155 56.1405 146.308 59.2841 147.053C62.4277 147.798 65.5801 145.853 66.3252 142.71Z" fill="#E0E0E0"/>
<path d="M60.645 146.445C55.12 146.445 50.635 150.93 50.635 156.455H70.59C70.655 150.93 66.17 146.445 60.645 146.445Z" fill="#E0E0E0"/>
<path d="M224.315 31.525C224.315 33.8 222.495 35.62 220.22 35.62C217.945 35.62 216.125 33.8 216.125 31.525C216.125 29.25 217.945 27.43 220.22 27.43C222.495 27.43 224.315 29.315 224.315 31.525Z" fill="#E0E0E0"/>
<path d="M235.56 41.08C235.56 43.355 233.74 45.175 231.465 45.175C229.19 45.175 227.37 43.355 227.37 41.08C227.37 38.805 229.19 36.985 231.465 36.985C233.74 36.985 235.56 38.805 235.56 41.08Z" fill="#E0E0E0"/>
<path d="M224.38 50.765C224.38 53.04 222.56 54.86 220.285 54.86C218.01 54.86 216.19 53.04 216.19 50.765C216.19 48.49 218.01 46.67 220.285 46.67C222.56 46.67 224.38 48.49 224.38 50.765Z" fill="#E0E0E0"/>
<path d="M220.285 31.525L231.53 41.08L220.35 50.765" stroke="#E0E0E0" stroke-miterlimit="10"/>
<path d="M294.45 126.88C292.695 123.695 289.77 123.175 287.82 123.89C285.675 124.67 284.57 126.88 284.57 126.88C284.57 126.88 283.465 124.67 281.32 123.89C279.37 123.175 276.445 123.63 274.69 126.88C271.05 133.575 284.57 142.285 284.57 142.285C284.57 142.285 298.09 133.575 294.45 126.88Z" fill="#E0E0E0"/>
<path d="M278.46 158.08C277.225 155.805 275.145 155.415 273.715 155.935C272.22 156.52 271.44 158.08 271.44 158.08C271.44 158.08 270.66 156.52 269.165 155.935C267.8 155.415 265.72 155.74 264.42 158.08C261.82 162.825 271.44 169.065 271.44 169.065C271.44 169.065 281.06 162.825 278.46 158.08Z" fill="#E0E0E0"/>
<path d="M288.99 47.32H245.635C240.305 47.32 236.015 51.61 236.015 56.94V83.2C236.015 88.53 240.305 92.82 245.635 92.82H259.025L266.565 103.545C267.605 105.04 269.75 104.975 270.725 103.48L277.68 92.82H288.99C294.32 92.82 298.61 88.53 298.61 83.2V56.94C298.61 51.61 294.32 47.32 288.99 47.32Z" fill="white"/>
<path d="M288.99 47.32C288.99 47.32 289.12 47.32 289.315 47.32C289.51 47.32 289.835 47.32 290.29 47.385C291.135 47.45 292.37 47.71 293.8 48.555C295.23 49.335 296.79 50.765 297.83 52.91C298.35 53.95 298.675 55.25 298.74 56.55C298.805 57.915 298.74 59.28 298.74 60.775C298.74 66.755 298.74 73.97 298.805 82.225C298.805 83.265 298.805 84.305 298.545 85.345C298.35 86.385 297.895 87.425 297.31 88.335C296.14 90.22 294.32 91.715 292.045 92.43C290.94 92.82 289.77 92.95 288.6 92.885C287.43 92.885 286.26 92.885 285.025 92.885C282.62 92.885 280.215 92.885 277.68 92.885L277.81 92.82C276.51 94.835 275.21 96.85 273.845 98.93C273.195 99.97 272.48 101.01 271.765 102.05C271.44 102.57 271.115 103.09 270.725 103.675C270.335 104.195 269.685 104.585 268.97 104.65C268.32 104.715 267.605 104.585 267.02 104.195C266.76 104 266.5 103.74 266.305 103.48L265.72 102.7C264.94 101.66 264.225 100.555 263.445 99.45C261.95 97.305 260.39 95.095 258.83 92.82L258.96 92.885C256.62 92.885 254.15 92.885 251.615 92.885C249.795 92.885 247.975 92.885 246.155 92.885C245.245 92.885 244.335 92.82 243.425 92.625C242.515 92.43 241.67 92.105 240.89 91.65C239.33 90.805 237.965 89.505 237.055 87.945C236.145 86.385 235.69 84.63 235.755 82.875C235.755 75.985 235.755 69.355 235.755 62.985C235.755 61.425 235.755 59.865 235.755 58.305C235.755 57.525 235.755 56.745 235.82 55.965C235.82 55.575 235.95 55.185 235.95 54.795C236.015 54.405 236.145 54.08 236.275 53.69C236.73 52.26 237.575 50.96 238.615 49.855C239.655 48.815 240.89 48.035 242.255 47.515C242.58 47.385 242.905 47.32 243.295 47.19C243.62 47.06 244.01 47.06 244.335 46.995C245.05 46.93 245.7 46.93 246.415 46.93C247.78 46.93 249.08 46.93 250.445 46.93C253.045 46.93 255.58 46.93 257.985 46.93C267.54 46.93 275.34 46.995 280.67 46.995C283.335 46.995 285.415 46.995 286.845 46.995C287.56 46.995 288.08 46.995 288.47 46.995C288.795 47.32 288.99 47.32 288.99 47.32C288.99 47.32 288.795 47.32 288.47 47.32C288.08 47.32 287.56 47.32 286.845 47.32C285.415 47.32 283.335 47.32 280.67 47.32C275.275 47.32 267.54 47.32 257.985 47.385C255.58 47.385 253.11 47.385 250.445 47.385C249.145 47.385 247.78 47.385 246.415 47.385C245.7 47.385 245.05 47.385 244.4 47.45C244.075 47.515 243.75 47.515 243.36 47.645C243.035 47.71 242.71 47.84 242.385 47.97C241.085 48.425 239.85 49.205 238.875 50.245C237.9 51.285 237.12 52.52 236.6 53.95C236.47 54.275 236.405 54.665 236.34 55.055C236.275 55.445 236.21 55.77 236.21 56.16C236.145 56.875 236.145 57.655 236.145 58.435C236.145 59.995 236.145 61.555 236.145 63.115C236.145 69.42 236.145 76.115 236.145 83.005C236.145 84.695 236.535 86.45 237.445 87.88C238.29 89.375 239.59 90.61 241.15 91.455C241.93 91.845 242.775 92.17 243.62 92.365C244.465 92.56 245.375 92.625 246.285 92.56C248.105 92.56 249.925 92.56 251.745 92.56C254.28 92.56 256.75 92.56 259.09 92.56H259.155L259.22 92.625C260.78 94.835 262.34 97.045 263.835 99.255C264.615 100.36 265.33 101.4 266.11 102.505L266.695 103.285C266.89 103.545 267.085 103.805 267.345 103.935C267.865 104.325 268.45 104.455 269.035 104.325C269.62 104.26 270.205 103.935 270.53 103.415C270.855 102.895 271.245 102.375 271.57 101.855C272.285 100.815 272.935 99.775 273.65 98.735C275.015 96.655 276.315 94.64 277.615 92.625L277.68 92.56H277.745C280.215 92.56 282.685 92.56 285.09 92.56C286.26 92.56 287.495 92.56 288.665 92.56C289.835 92.56 290.94 92.43 292.045 92.105C294.19 91.39 296.01 89.96 297.115 88.14C297.7 87.23 298.09 86.255 298.35 85.215C298.61 84.175 298.61 83.2 298.61 82.16C298.61 73.97 298.61 66.69 298.675 60.71C298.675 59.215 298.675 57.785 298.675 56.485C298.61 55.185 298.285 53.95 297.83 52.91C296.855 50.765 295.295 49.4 293.93 48.62C292.5 47.775 291.265 47.515 290.485 47.45C290.095 47.385 289.77 47.385 289.51 47.385C289.12 47.32 288.99 47.32 288.99 47.32Z" fill="#3F3F40"/>
<path d="M268.58 61.295V79.235L281.385 70.265L268.58 61.295Z" fill="#FF5922"/>
<path d="M251.355 80.665C251.355 80.665 252.2 67.925 262.405 67.73H268.905V73.19L262.47 73.255C262.535 73.255 255.775 73.125 251.355 80.665Z" fill="#FF5922"/>
<path d="M32.565 110.565H122.005C127.01 110.565 131.105 106.47 131.105 101.465V32.305C131.105 27.3 127.01 23.205 122.005 23.205H32.565C27.56 23.205 23.465 27.3 23.465 32.305V101.465C23.465 106.535 27.56 110.565 32.565 110.565Z" fill="white"/>
<path d="M72.93 107.9C71.825 110.565 50.505 130.65 50.505 130.65V107.9H72.93Z" fill="#455A64"/>
<path d="M99.06 61.555C99.125 57.005 99.84 52.455 99.645 47.905C99.45 43.355 98.28 38.61 95.095 35.36C91.91 32.11 86.385 30.875 82.68 33.475L81.9 37.375C83.395 54.925 84.825 72.54 86.32 90.09C86.515 92.43 86.71 94.77 87.75 96.85C88.79 98.93 90.935 100.62 93.21 100.49C96.265 100.295 98.215 97.24 99.19 94.38C102.57 83.85 98.93 72.54 99.06 61.555Z" fill="#3F3F40"/>
<path d="M88.075 37.895C87.425 36.79 86.71 35.62 85.735 34.775C84.76 33.93 83.46 33.345 82.16 33.605C81.575 33.735 80.925 34.06 80.73 34.645C80.535 35.23 80.99 36.01 81.575 35.945L81.705 36.075C83.07 37.31 84.435 38.48 85.865 39.585C86.19 39.845 86.58 40.17 87.035 40.3C87.49 40.43 88.01 40.365 88.335 40.04C88.855 39.455 88.465 38.545 88.075 37.895Z" fill="#FF5922"/>
<path d="M90.675 42.38C86.125 36.855 80.015 33.605 72.865 33.54C68.835 33.475 67.145 34.32 64.22 35.1C61.295 35.88 58.695 37.44 56.94 39.91C54.86 42.835 53.17 46.15 52.78 49.66C52.39 53.3 52 57.005 52.26 60.71C52.52 64.415 53.56 68.055 55.705 71.045L65.065 72.67C70.2 72.865 75.465 72.995 80.47 71.825C85.475 70.655 90.415 67.925 93.08 63.505C96.785 57.46 95.225 47.97 90.675 42.38Z" fill="#3F3F40"/>
<path d="M64.935 89.245C65 85.995 65.13 81.835 65.13 81.9C65.13 81.9 57.525 81.055 55.38 71.305C54.34 66.43 54.145 58.37 54.21 51.805C54.275 45.89 59.28 37.83 66.625 37.765L69.875 37.375L82.355 42.315C84.175 42.38 85.605 43.875 85.67 45.63L86.125 88.595L78.13 101.92L63.83 90.87L64.935 89.245Z" fill="#FFBE9D"/>
<path d="M70.07 69.03C70.005 68.51 69.745 68.055 69.355 67.73C68.64 67.08 67.535 67.015 66.755 67.6C65.975 68.12 65.52 69.225 65.65 70.265C66.105 70.85 66.755 71.305 67.47 71.37C67.6 71.37 67.73 71.37 67.795 71.37C68.38 71.37 68.9 71.175 69.355 70.72C69.875 70.265 70.135 69.615 70.07 69.03Z" fill="#EB996E"/>
<path d="M58.175 59.41C58.175 60.06 58.76 60.6451 59.475 60.6451C60.19 60.6451 60.71 60.125 60.71 59.41C60.71 58.76 60.125 58.175 59.41 58.175C58.695 58.175 58.11 58.76 58.175 59.41Z" fill="#3F3F40"/>
<path d="M56.42 55.055C56.615 55.185 57.525 54.47 58.89 54.405C60.255 54.34 61.295 54.99 61.425 54.795C61.49 54.73 61.295 54.405 60.84 54.145C60.385 53.885 59.67 53.56 58.825 53.625C57.98 53.69 57.265 54.015 56.875 54.34C56.485 54.73 56.355 54.99 56.42 55.055Z" fill="#3F3F40"/>
<path d="M65.195 65.78C65.195 65.715 64.35 65.585 62.985 65.52C62.66 65.52 62.335 65.455 62.205 65.195C62.14 64.935 62.205 64.545 62.4 64.155C62.66 63.31 62.985 62.4 63.31 61.425C64.545 57.59 65.39 54.405 65.26 54.405C65.13 54.34 63.96 57.46 62.79 61.295C62.53 62.27 62.205 63.115 61.945 64.025C61.815 64.415 61.62 64.87 61.815 65.39C61.945 65.65 62.205 65.845 62.4 65.845C62.595 65.91 62.79 65.91 62.985 65.91C64.35 65.845 65.195 65.845 65.195 65.78Z" fill="#3F3F40"/>
<path d="M65.13 81.9C65.13 81.9 71.76 81.965 78.13 77.675C78.13 77.675 75.01 84.695 65.065 84.305L65.13 81.9Z" fill="#EB996E"/>
<path d="M69.225 66.495C69.03 66.495 69.095 67.99 67.86 69.095C66.625 70.2 65.065 70.135 65.065 70.33C65.065 70.395 65.455 70.59 66.105 70.59C66.755 70.59 67.665 70.33 68.445 69.615C69.16 68.9 69.485 68.055 69.485 67.47C69.55 66.82 69.355 66.43 69.225 66.495Z" fill="#3F3F40"/>
<path d="M56.94 50.31C57.2 50.635 58.24 50.375 59.41 50.375C60.645 50.375 61.685 50.7 61.88 50.375C62.01 50.245 61.815 49.92 61.425 49.595C60.97 49.27 60.255 49.01 59.41 49.01C58.565 49.01 57.85 49.27 57.395 49.53C56.94 49.855 56.81 50.18 56.94 50.31Z" fill="#3F3F40"/>
<path d="M73.645 59.085C73.71 59.735 73.125 60.32 72.475 60.385C71.76 60.45 71.175 59.93 71.175 59.28C71.11 58.63 71.695 58.045 72.345 57.98C72.995 57.915 73.58 58.435 73.645 59.085Z" fill="#3F3F40"/>
<path d="M74.88 54.535C74.75 54.73 73.775 54.015 72.41 54.015C71.045 54.015 70.07 54.73 69.94 54.6C69.875 54.535 70.005 54.21 70.46 53.885C70.915 53.56 71.63 53.235 72.475 53.235C73.32 53.235 74.035 53.495 74.49 53.82C74.75 54.21 74.945 54.47 74.88 54.535Z" fill="#3F3F40"/>
<path d="M74.035 50.18C73.775 50.505 72.735 50.18 71.435 50.18C70.2 50.115 69.095 50.44 68.835 50.115C68.705 49.985 68.9 49.66 69.355 49.335C69.81 49.01 70.59 48.815 71.435 48.815C72.28 48.815 73.06 49.075 73.515 49.4C73.97 49.725 74.165 50.05 74.035 50.18Z" fill="#3F3F40"/>
<path d="M83.98 62.205C83.915 61.49 84.695 59.67 85.41 59.54C87.36 59.15 90.805 59.085 91.13 64.025C91.52 70.72 84.695 69.745 84.695 69.55C84.63 69.42 84.11 64.74 83.98 62.205Z" fill="#FFBE9D"/>
<path d="M86.385 67.015C86.385 67.015 86.515 67.08 86.71 67.145C86.905 67.21 87.23 67.275 87.555 67.08C88.27 66.755 88.79 65.585 88.725 64.415C88.725 63.83 88.53 63.245 88.27 62.79C88.01 62.335 87.685 62.01 87.36 61.945C86.97 61.88 86.775 62.14 86.71 62.335C86.645 62.53 86.71 62.66 86.645 62.66C86.645 62.66 86.515 62.53 86.515 62.27C86.515 62.14 86.58 61.945 86.775 61.815C86.905 61.685 87.165 61.62 87.425 61.62C87.945 61.62 88.465 62.075 88.725 62.595C89.05 63.115 89.245 63.765 89.245 64.415C89.31 65.78 88.66 67.08 87.685 67.405C87.23 67.535 86.84 67.47 86.58 67.275C86.385 67.21 86.32 67.015 86.385 67.015Z" fill="#EB996E"/>
<path d="M85.67 59.605L83.98 61.36C76.635 54.34 62.205 36.66 63.05 37.7C63.05 37.7 68.12 35.62 73.58 36.53C79.04 37.44 89.44 40.235 89.31 46.67C89.05 53.17 85.67 59.605 85.67 59.605Z" fill="#3F3F40"/>
<path d="M95.42 58.11C95.42 58.11 95.42 57.98 95.29 57.72C95.225 57.46 95.095 57.135 94.835 56.68C94.38 55.77 93.47 54.6 92.04 53.495C90.61 52.39 88.66 51.48 86.385 50.765C84.11 50.05 81.575 49.465 79.105 48.425C76.635 47.385 74.36 46.085 72.475 44.72C70.59 43.355 69.03 41.925 67.795 40.625C66.56 39.325 65.715 38.22 65.065 37.44C64.805 37.05 64.545 36.725 64.415 36.53C64.285 36.335 64.155 36.205 64.155 36.205C64.155 36.205 64.22 36.335 64.35 36.53C64.48 36.725 64.675 37.115 65 37.505C65.585 38.35 66.43 39.52 67.665 40.82C68.9 42.12 70.46 43.615 72.345 44.98C74.23 46.345 76.505 47.71 79.04 48.75C81.575 49.855 84.11 50.375 86.32 51.09C88.53 51.805 90.48 52.65 91.91 53.69C93.34 54.73 94.25 55.9 94.77 56.745C95.225 57.59 95.355 58.11 95.42 58.11Z" fill="#455A64"/>
<path d="M93.47 59.15C93.47 59.15 93.535 58.63 93.21 57.655C92.885 56.745 92.105 55.51 90.675 54.47C89.245 53.43 87.295 52.78 85.085 52.26C82.875 51.74 80.47 51.155 78.13 50.05C75.79 48.945 73.645 47.645 71.955 46.215C70.2 44.785 68.77 43.355 67.73 42.055C66.625 40.755 65.91 39.585 65.325 38.805C65.065 38.415 64.935 38.09 64.74 37.895C64.61 37.7 64.545 37.57 64.545 37.57C64.545 37.57 64.61 37.7 64.675 37.895C64.805 38.155 65 38.48 65.195 38.87C65.715 39.715 66.43 40.885 67.47 42.185C68.575 43.55 69.94 45.045 71.695 46.475C73.45 47.905 75.595 49.27 77.935 50.375C80.34 51.48 82.745 52.13 84.955 52.585C87.165 53.04 89.115 53.69 90.48 54.665C91.845 55.64 92.69 56.81 93.015 57.655C93.405 58.63 93.405 59.15 93.47 59.15Z" fill="#455A64"/>
<path d="M85.41 70.98C85.41 70.915 85.995 70.85 86.97 70.59C87.945 70.33 89.375 69.68 90.74 68.51C92.105 67.34 93.34 65.455 94.25 63.18C95.095 60.905 95.615 58.24 95.68 55.445C95.68 54.015 95.615 52.65 95.355 51.35C95.095 50.05 94.705 48.815 94.25 47.71C93.275 45.5 92.04 43.68 90.74 42.315C88.27 39.585 86.19 38.48 86.255 38.415C86.255 38.415 86.385 38.48 86.645 38.61C86.905 38.74 87.23 38.935 87.685 39.26C88.53 39.845 89.765 40.755 91.065 42.12C92.365 43.485 93.665 45.305 94.705 47.58C95.16 48.75 95.615 49.985 95.875 51.285C96.135 52.585 96.265 54.015 96.2 55.445C96.135 58.305 95.615 61.035 94.705 63.31C93.795 65.65 92.495 67.535 91.065 68.77C89.635 70.005 88.14 70.59 87.165 70.785C86.645 70.915 86.255 70.915 85.995 70.98C85.605 70.98 85.41 70.98 85.41 70.98Z" fill="#455A64"/>
<path d="M43.55 100.035L43.745 99.84C51.155 92.04 64.74 89.375 64.74 89.375C64.74 89.375 65.585 94.51 73.19 95.095C80.795 95.68 86.45 87.88 86.45 87.88L96.655 89.31C96.655 89.31 101.79 89.895 104.975 91.78C112.19 96.005 115.96 110.565 115.96 110.565L37.44 110.89L43.55 100.035Z" fill="#455A64"/>
<path d="M36.335 23.205C36.335 23.205 36.14 23.205 35.815 23.27C35.62 23.27 35.425 23.27 35.165 23.335C34.905 23.335 34.58 23.4 34.255 23.465C32.89 23.725 30.745 24.31 28.535 26C27.43 26.845 26.39 27.95 25.48 29.38C24.57 30.81 23.92 32.565 23.66 34.515C23.53 35.49 23.53 36.53 23.53 37.635C23.53 38.675 23.53 39.78 23.53 40.95C23.53 43.225 23.53 45.63 23.53 48.23C23.53 58.435 23.53 70.85 23.595 84.955C23.595 88.465 23.595 92.105 23.595 95.875C23.595 96.785 23.595 97.76 23.66 98.67C23.725 99.58 23.92 100.555 24.18 101.465C24.765 103.285 25.74 104.975 27.04 106.405C27.69 107.12 28.47 107.77 29.25 108.29C30.095 108.81 30.94 109.33 31.915 109.655L32.63 109.915L33.345 110.11C33.8 110.24 34.32 110.305 34.84 110.37C35.36 110.435 35.815 110.435 36.335 110.5C36.855 110.5 37.375 110.5 37.895 110.5C41.99 110.5 46.215 110.5 50.505 110.5H50.635V110.63C50.635 117 50.635 123.76 50.635 130.715L50.375 130.585C53.69 127.465 57.07 124.215 60.515 120.9C63.895 117.585 67.405 114.14 70.72 110.565L70.785 110.5H70.85C81.51 110.5 92.69 110.5 104 110.5C107.445 110.5 110.825 110.5 114.205 110.5C115.05 110.5 115.895 110.5 116.74 110.5C117.585 110.5 118.43 110.5 119.275 110.435C120.9 110.305 122.525 109.85 124.02 109.07C126.945 107.575 129.22 104.91 130.26 101.855C130.78 100.295 130.975 98.735 130.975 97.11C130.975 95.485 130.975 93.86 130.975 92.235C130.975 79.365 130.975 66.885 130.975 55.055C130.975 49.14 130.975 43.355 130.975 37.765C130.975 36.335 130.975 34.97 130.715 33.605C130.455 32.24 129.935 31.005 129.285 29.835C128.635 28.665 127.79 27.625 126.75 26.715C125.775 25.805 124.67 25.09 123.5 24.57C122.33 24.05 121.095 23.66 119.795 23.53C118.56 23.4 117.26 23.4 115.96 23.4C113.425 23.4 110.955 23.4 108.485 23.4C103.61 23.4 98.93 23.4 94.445 23.4C76.505 23.4 62.01 23.335 52 23.335C46.995 23.335 43.095 23.335 40.43 23.335C39.13 23.335 38.09 23.335 37.44 23.335C36.725 23.205 36.335 23.205 36.335 23.205C36.335 23.205 36.66 23.205 37.375 23.205C38.025 23.205 39.065 23.205 40.365 23.205C43.03 23.205 46.93 23.205 51.935 23.205C61.945 23.205 76.44 23.205 94.38 23.14C98.865 23.14 103.545 23.14 108.42 23.14C110.89 23.14 113.36 23.14 115.895 23.14C117.195 23.14 118.43 23.075 119.73 23.27C121.03 23.4 122.33 23.79 123.5 24.31C124.735 24.83 125.84 25.61 126.88 26.52C127.855 27.43 128.765 28.47 129.415 29.705C130.065 30.875 130.585 32.24 130.91 33.605C131.17 34.97 131.17 36.4 131.17 37.765C131.17 43.355 131.17 49.14 131.17 55.055C131.17 66.885 131.17 79.365 131.17 92.235C131.17 93.86 131.17 95.485 131.17 97.11C131.17 98.735 131.04 100.425 130.455 101.985C129.415 105.105 127.075 107.835 124.02 109.395C122.525 110.175 120.835 110.63 119.145 110.76C118.3 110.825 117.455 110.825 116.61 110.825C115.765 110.825 114.92 110.825 114.075 110.825C110.695 110.825 107.315 110.825 103.87 110.825C92.495 110.825 81.38 110.825 70.72 110.825L70.85 110.76C67.535 114.4 64.025 117.78 60.645 121.16C57.2 124.475 53.82 127.725 50.505 130.845L50.245 131.105V130.715C50.245 123.76 50.245 117 50.245 110.63L50.375 110.76C46.085 110.76 41.86 110.76 37.765 110.76C37.245 110.76 36.725 110.76 36.205 110.76C35.685 110.695 35.165 110.76 34.645 110.63C34.125 110.565 33.605 110.5 33.15 110.37L32.435 110.175L31.72 109.915C30.745 109.59 29.9 109.07 28.99 108.55C28.145 107.965 27.365 107.315 26.715 106.6C25.35 105.17 24.375 103.415 23.79 101.53C23.53 100.62 23.335 99.645 23.27 98.67C23.205 97.695 23.205 96.785 23.205 95.81C23.205 92.04 23.205 88.4 23.205 84.89C23.205 70.785 23.205 58.37 23.27 48.165C23.27 45.63 23.27 43.16 23.27 40.885C23.27 39.715 23.27 38.61 23.27 37.57C23.27 36.53 23.27 35.49 23.4 34.45C23.66 32.435 24.375 30.68 25.285 29.25C26.195 27.82 27.3 26.65 28.405 25.805C30.615 24.115 32.76 23.53 34.125 23.335C34.45 23.27 34.775 23.205 35.035 23.205C35.295 23.205 35.555 23.205 35.685 23.205C36.205 23.205 36.335 23.205 36.335 23.205Z" fill="#3F3F40"/>
<path d="M202.085 301.925L120.965 301.86C111.215 301.86 103.285 294.32 103.285 285.025L103.35 91.26C103.35 81.965 111.28 74.425 121.03 74.425L202.15 74.49C211.9 74.49 219.83 82.03 219.83 91.325L219.765 285.09C219.765 294.385 211.835 301.925 202.085 301.925Z" fill="#3F3F40"/>
<path d="M202.02 81.38H186.29C184.21 81.38 182.455 83.07 182.455 85.15V87.88C182.455 89.96 180.765 91.715 178.62 91.65H147.94C145.86 91.65 144.105 89.96 144.105 87.815V85.085C144.105 83.005 142.415 81.25 140.27 81.25H134.745H120.965C114.14 81.25 108.615 86.515 108.615 93.015L108.55 282.1C108.55 288.6 114.075 293.865 120.9 293.865L201.825 293.93C208.65 293.93 214.175 288.665 214.175 282.165L214.24 93.015C214.435 86.645 208.845 81.38 202.02 81.38Z" fill="white"/>
<path d="M158.86 128.505C161.135 128.31 163.085 126.295 163.15 124.02C163.215 121.745 161.33 119.6 159.12 119.34C160.225 117.65 160.095 115.31 158.86 113.75C157.625 112.19 155.35 111.54 153.465 112.19C153.01 110.24 151.515 108.615 149.63 108.03C147.745 107.445 145.535 107.9 144.105 109.2C141.635 107.77 138.125 108.355 136.24 110.565C134.29 110.565 132.405 111.995 131.885 113.815C131.3 115.7 132.145 117.845 133.77 118.95" fill="#3F3F40"/>
<path d="M159.64 129.025C156.91 119.21 147.095 113.1 137.085 114.985L136.11 115.18C125.515 117.845 121.81 128.375 124.8 138.905L132.21 177.19L154.115 194.09L159.77 179.985L157.56 167.245C157.56 167.245 167.57 163.67 165.75 153.335C164.84 148.33 162.175 138.19 159.64 129.025Z" fill="#FFBE9D"/>
<path d="M157.625 167.18C157.625 167.18 151.125 168.805 143.325 165.815C143.325 165.815 147.81 172.835 157.95 169.975L157.625 167.18Z" fill="#EB996E"/>
<path d="M158.73 138.905C158.925 139.685 158.405 140.465 157.56 140.66C156.78 140.855 155.935 140.4 155.805 139.62C155.61 138.84 156.13 138.06 156.91 137.865C157.755 137.67 158.535 138.125 158.73 138.905Z" fill="#3F3F40"/>
<path d="M158.34 134.485C158.21 134.68 156.91 134.095 155.35 134.42C153.79 134.68 152.75 135.72 152.555 135.59C152.425 135.525 152.555 135.135 153.01 134.68C153.465 134.225 154.245 133.705 155.22 133.51C156.195 133.315 157.105 133.51 157.69 133.835C158.21 134.095 158.47 134.42 158.34 134.485Z" fill="#3F3F40"/>
<path d="M144.3 141.96C144.495 142.74 143.975 143.52 143.13 143.715C142.35 143.91 141.505 143.455 141.375 142.675C141.18 141.895 141.7 141.115 142.48 140.92C143.325 140.725 144.105 141.18 144.3 141.96Z" fill="#3F3F40"/>
<path d="M142.805 137.735C142.675 137.93 141.375 137.345 139.815 137.67C138.255 137.93 137.215 138.97 137.02 138.84C136.89 138.775 137.02 138.385 137.475 137.93C137.93 137.475 138.71 136.955 139.685 136.76C140.66 136.565 141.57 136.76 142.155 137.085C142.675 137.345 142.935 137.67 142.805 137.735Z" fill="#3F3F40"/>
<path d="M150.8 148.46C150.8 148.395 151.71 148.005 153.27 147.485C153.66 147.355 154.05 147.225 154.05 146.9C154.115 146.575 153.855 146.185 153.53 145.73C152.945 144.82 152.36 143.845 151.775 142.87C149.305 138.775 147.355 135.395 147.55 135.33C147.745 135.2 149.89 138.45 152.36 142.545C152.945 143.52 153.53 144.495 154.115 145.405C154.375 145.86 154.7 146.315 154.635 146.965C154.57 147.29 154.31 147.55 154.05 147.68C153.79 147.81 153.595 147.875 153.4 147.875C151.84 148.33 150.865 148.525 150.8 148.46Z" fill="#3F3F40"/>
<path d="M142.285 132.275C142.155 132.73 140.725 132.535 139.035 132.795C137.345 132.99 135.98 133.575 135.785 133.185C135.655 132.99 135.915 132.6 136.435 132.145C136.955 131.69 137.865 131.3 138.84 131.17C139.88 131.04 140.79 131.17 141.375 131.43C142.025 131.69 142.35 132.08 142.285 132.275Z" fill="#3F3F40"/>
<path d="M157.495 128.83C157.235 129.285 155.87 129.155 154.245 129.415C152.685 129.675 151.385 130.195 150.995 129.87C150.8 129.74 150.995 129.285 151.515 128.83C152.035 128.375 152.945 127.92 154.05 127.725C155.155 127.53 156.13 127.725 156.78 127.985C157.365 128.31 157.625 128.635 157.495 128.83Z" fill="#3F3F40"/>
<path d="M128.31 148.655C127.92 147.095 126.36 146.055 124.8 146.51C122.915 147.03 120.965 148.59 121.875 152.49C123.435 159.51 130.195 156.455 130.13 156.26C130.065 156.195 129.025 151.58 128.31 148.655Z" fill="#FFBE9D"/>
<path d="M127.985 153.985C127.92 153.985 127.855 154.115 127.725 154.245C127.53 154.375 127.205 154.505 126.815 154.44C126.035 154.31 125.125 153.27 124.8 152.035C124.67 151.385 124.605 150.735 124.735 150.215C124.865 149.63 125.06 149.24 125.45 149.045C125.775 148.85 126.1 149.045 126.23 149.24C126.36 149.435 126.36 149.565 126.425 149.565C126.425 149.565 126.555 149.435 126.425 149.11C126.36 148.98 126.23 148.85 126.035 148.72C125.84 148.59 125.58 148.59 125.32 148.72C124.8 148.85 124.41 149.5 124.28 150.085C124.15 150.67 124.085 151.45 124.28 152.165C124.67 153.595 125.645 154.7 126.75 154.765C127.27 154.765 127.66 154.57 127.855 154.31C128.05 154.18 128.05 153.985 127.985 153.985Z" fill="#EB996E"/>
<path d="M150.995 115.44C150.93 115.245 150.8 115.115 150.67 114.985C149.695 113.945 148.2 113.49 146.77 113.62C145.86 113.36 144.95 113.165 144.105 113.035C142.805 111.54 140.79 110.695 138.84 110.825C136.565 111.02 134.55 112.515 133.64 114.595C133.38 114.66 133.055 114.79 132.795 114.92C131.17 114.14 129.155 114.075 127.465 114.855C125.58 115.7 124.15 117.455 123.76 119.47C121.94 119.34 120.12 120.38 119.275 122.005C118.43 123.63 118.69 125.71 119.86 127.075C118.755 128.05 117.91 129.48 118.105 130.975C118.365 132.34 119.86 133.445 121.16 133.055C121.55 136.5 122.655 140.4 123.5 143.845C124.085 146.315 127.53 147.16 128.05 148.785C130.78 157.17 132.665 151.905 130.39 133.965C130.52 133.77 130.715 133.64 130.845 133.38C131.17 132.99 131.17 132.535 131.43 132.08C131.755 131.56 132.47 131.56 133.055 131.495C135.135 131.3 136.955 129.48 137.085 127.4C137.735 128.115 138.97 127.79 139.685 127.14C140.4 126.49 140.725 125.515 141.245 124.735C141.7 123.89 142.48 123.11 143.455 123.045C143.975 123.045 144.56 123.24 145.08 123.11C145.99 122.85 146.25 121.68 146.185 120.705C146.185 119.925 146.12 119.015 146.51 118.365C147.03 117.975 147.55 117.715 148.2 117.52C148.59 117.52 148.915 117.52 149.305 117.455C149.5 117.455 149.63 117.455 149.825 117.39C150.02 117.39 150.28 117.455 150.54 117.52C153.92 118.43 157.885 124.41 157.885 124.41C157.17 120.315 154.31 117.325 150.995 115.44Z" fill="#3F3F40"/>
<path d="M118.95 127.595C118.95 127.595 118.95 127.53 119.015 127.465C119.08 127.4 119.08 127.27 119.21 127.14C119.405 126.88 119.665 126.49 120.185 126.1C120.64 125.775 121.355 125.385 122.2 125.255C123.045 125.125 124.085 125.19 124.995 125.71L124.8 125.775C124.865 124.345 125.645 122.785 127.075 121.68C127.725 121.16 128.57 120.705 129.48 120.445C130.39 120.185 131.365 120.055 132.275 120.12C134.16 120.185 135.915 120.77 137.41 121.42L137.215 121.55C137.54 119.795 138.58 118.43 139.75 117.585C140.92 116.74 142.22 116.48 143.26 116.48C144.3 116.48 145.145 116.74 145.665 116.935C145.925 117.065 146.12 117.13 146.25 117.195C146.38 117.26 146.445 117.325 146.445 117.325C146.445 117.325 146.185 117.195 145.665 117C145.145 116.805 144.365 116.61 143.325 116.61C142.285 116.61 141.05 116.935 139.945 117.78C138.84 118.625 137.865 119.925 137.54 121.55L137.475 121.745L137.345 121.68C135.85 121.03 134.16 120.445 132.275 120.38C131.365 120.315 130.39 120.445 129.545 120.705C128.7 120.965 127.92 121.355 127.27 121.875C125.97 122.915 125.125 124.41 125.06 125.775V125.97L124.865 125.84C124.02 125.32 123.045 125.19 122.2 125.32C121.355 125.45 120.705 125.775 120.25 126.1C119.21 126.945 119.015 127.66 118.95 127.595Z" fill="#455A64"/>
<path d="M146.38 117.975C146.38 117.975 146.38 118.105 146.315 118.3C146.25 118.495 146.25 118.755 146.185 119.145C146.185 119.535 146.185 119.99 146.12 120.575C146.055 121.095 146.12 121.81 145.73 122.46C145.535 122.785 145.21 123.045 144.82 123.175C144.43 123.305 144.04 123.305 143.585 123.305C143.195 123.305 142.74 123.37 142.415 123.63C142.09 123.89 141.765 124.215 141.57 124.605C141.31 124.995 141.115 125.45 140.855 125.905C140.595 126.36 140.4 126.815 140.01 127.205C139.62 127.595 139.1 127.855 138.58 128.05C138.32 128.115 137.995 128.18 137.735 128.18C137.41 128.18 137.085 128.05 136.89 127.79L137.15 127.725C137.15 128.18 137.085 128.57 136.89 129.025C136.76 129.415 136.5 129.805 136.24 130.195C135.655 130.91 134.875 131.43 133.965 131.69C133.575 131.82 133.25 131.885 132.86 131.95C132.47 132.015 132.145 131.95 131.82 132.145C131.495 132.275 131.3 132.535 131.17 132.86C130.975 133.185 130.78 133.51 130.585 133.77C129.74 134.94 128.635 135.915 127.27 136.175C125.905 136.37 124.67 135.98 123.695 135.395C122.72 134.745 122.005 133.9 121.615 132.99L121.745 133.055C120.9 133.445 119.99 133.25 119.34 132.925C118.69 132.6 118.3 132.015 118.105 131.56C117.91 131.105 117.91 130.715 117.91 130.455C117.91 130.325 117.91 130.195 117.975 130.13C117.975 130.065 117.975 130 117.975 130.065C118.04 130.065 117.845 130.65 118.235 131.56C118.43 132.015 118.82 132.535 119.405 132.795C119.99 133.12 120.835 133.185 121.68 132.86L121.745 132.795L121.81 132.86C122.2 133.705 122.85 134.55 123.825 135.135C124.735 135.72 125.97 136.11 127.205 135.85C128.44 135.59 129.545 134.68 130.325 133.575C130.52 133.315 130.715 132.99 130.845 132.665C130.975 132.34 131.235 131.95 131.625 131.82C131.82 131.755 132.015 131.69 132.21 131.625L132.795 131.56C133.185 131.495 133.51 131.43 133.835 131.3C134.68 131.04 135.46 130.52 135.98 129.87C136.24 129.545 136.435 129.155 136.63 128.765C136.76 128.375 136.825 127.985 136.89 127.595V127.27L137.15 127.53C137.475 127.92 138.06 127.855 138.58 127.725C139.1 127.595 139.555 127.335 139.945 127.01C140.335 126.685 140.53 126.165 140.725 125.775C140.985 125.32 141.18 124.93 141.44 124.475C141.7 124.085 142.025 123.695 142.415 123.435C142.805 123.175 143.325 123.11 143.715 123.11C144.105 123.11 144.56 123.11 144.885 122.98C145.21 122.915 145.535 122.655 145.665 122.395C145.99 121.81 145.99 121.16 146.055 120.64C146.055 120.12 146.12 119.6 146.12 119.21C146.185 118.82 146.25 118.56 146.25 118.365C146.315 118.04 146.38 117.975 146.38 117.975Z" fill="#455A64"/>
<path d="M146.38 152.165C146.12 154.115 146.9 156 148.785 156.65C149.435 156.91 150.15 156.845 150.8 156.52C151.515 156.13 152.165 155.61 152.36 154.765C152.555 153.985 152.62 153.14 152.425 152.295C150.735 152.23 148.07 152.23 146.38 152.165Z" fill="#EB996E"/>
<path d="M152.035 155.545C152.035 155.545 152.035 155.61 151.97 155.675C151.905 155.74 151.84 155.87 151.71 156C151.45 156.26 150.93 156.585 150.28 156.715C149.565 156.845 148.72 156.715 147.94 156.26C147.16 155.74 146.51 154.83 146.38 153.79C146.315 153.53 146.315 153.27 146.315 153.01C146.315 152.75 146.38 152.49 146.51 152.23C146.575 152.1 146.705 151.97 146.9 151.97C147.03 151.905 147.16 151.905 147.29 151.905C147.55 151.905 147.745 151.905 148.005 151.905C148.915 151.97 149.695 152.035 150.345 152.1C151.71 152.23 152.49 152.295 152.49 152.36C152.49 152.425 151.645 152.425 150.28 152.36C149.63 152.295 148.785 152.23 147.94 152.23C147.745 152.23 147.485 152.23 147.29 152.23C147.03 152.23 146.9 152.295 146.835 152.425C146.705 152.555 146.705 152.815 146.705 153.075C146.705 153.335 146.705 153.53 146.77 153.79C146.9 154.765 147.485 155.61 148.2 156.065C148.915 156.52 149.695 156.65 150.345 156.585C150.995 156.52 151.45 156.26 151.775 156C151.84 155.675 151.97 155.48 152.035 155.545Z" fill="#3F3F40"/>
<path d="M191.295 133.12C191.295 133.12 199.55 132.08 211.9 122.265C224.25 112.45 231.01 98.41 232.375 98.605C233.74 98.8 240.11 96.59 249.275 122.72C258.44 148.915 253.37 154.31 251.095 154.05C248.82 153.79 233.61 147.94 223.795 148.135C213.98 148.33 200.98 152.23 200.98 152.23L191.295 133.12Z" fill="#FF5922"/>
<path d="M176.475 152.685L180.83 151.71L178.49 145.925L174.72 147.81L176.475 152.685Z" fill="#455A64"/>
<path d="M176.995 145.795L178.62 150.67L179.66 153.14C181.025 156.52 184.86 158.21 188.305 156.975L206.18 151.97L198.38 129.35L180.635 136.825C177.19 138.255 175.5 142.285 176.995 145.795Z" fill="#3F3F40"/>
<path d="M183.365 153.27L189.345 163.865L192.075 162.955L210.73 176.865L215.345 166.79C215.345 166.79 204.49 162.63 202.345 158.925C200.2 155.22 202.475 154.245 202.475 154.245L197.21 148.72L183.365 153.27Z" fill="#3F3F40"/>
<path d="M248.235 123.11C253.11 137.28 254.54 149.63 251.42 150.735C248.3 151.775 241.865 141.18 236.99 127.01C232.115 112.84 230.685 100.49 233.805 99.385C236.925 98.28 243.425 108.94 248.235 123.11Z" fill="#3F3F40"/>
<path d="M236.015 118.885C236.015 118.885 243.425 115.18 246.35 125.06C249.275 134.875 241.8 135.785 241.8 135.785C239.2 130.78 237.25 125.19 236.015 118.885Z" fill="#FAFAFA"/>
<path d="M229.645 106.925C229.58 106.925 229.645 107.575 229.775 108.745C229.905 109.915 230.035 111.605 230.295 113.75C230.49 114.79 230.685 115.96 230.945 117.13C231.075 117.715 231.205 118.365 231.335 119.015C231.4 119.34 231.465 119.665 231.53 119.99C231.595 120.315 231.725 120.64 231.79 120.965C232.18 122.33 232.57 123.76 232.96 125.19C233.09 125.58 233.155 125.905 233.285 126.295C233.415 126.685 233.545 127.01 233.675 127.4C233.935 128.115 234.26 128.895 234.52 129.675C234.78 130.455 235.105 131.17 235.365 131.95C235.495 132.34 235.625 132.665 235.82 133.055C236.015 133.38 236.145 133.77 236.34 134.095C236.99 135.46 237.64 136.825 238.225 138.06C238.355 138.385 238.485 138.71 238.68 138.97C238.875 139.295 239.005 139.555 239.2 139.88C239.525 140.465 239.85 140.985 240.175 141.57C240.825 142.675 241.41 143.65 241.93 144.56C243.1 146.315 244.14 147.68 244.79 148.655C245.505 149.63 245.895 150.15 245.895 150.085C245.96 150.085 245.57 149.5 244.985 148.525C244.335 147.485 243.425 146.055 242.255 144.3C241.735 143.39 241.215 142.35 240.565 141.31C240.24 140.79 239.98 140.205 239.655 139.62C239.525 139.36 239.33 139.035 239.135 138.775C239.005 138.45 238.875 138.125 238.68 137.865C238.095 136.63 237.51 135.265 236.86 133.9C236.73 133.575 236.535 133.185 236.405 132.86C236.21 132.535 236.145 132.145 235.95 131.755C235.69 131.04 235.43 130.26 235.105 129.545C234.845 128.765 234.52 128.05 234.26 127.335C234.13 126.945 234 126.62 233.87 126.23C233.74 125.84 233.675 125.515 233.545 125.125C233.09 123.695 232.7 122.265 232.31 120.9C232.245 120.575 232.115 120.25 232.05 119.925C231.985 119.6 231.92 119.275 231.855 118.95C231.725 118.3 231.595 117.65 231.465 117.065C231.205 115.83 230.945 114.725 230.75 113.685C230.425 111.605 230.23 109.915 230.035 108.745C229.775 107.575 229.645 106.925 229.645 106.925Z" fill="#3F3F40"/>
<path d="M206.05 151.97C206.05 151.97 205.79 152.1 205.27 152.23C204.685 152.36 203.97 152.555 203.06 152.815C201.175 153.27 198.64 153.985 195.78 154.765C192.92 155.545 190.385 156.26 188.5 156.715C187.59 156.975 186.81 157.105 186.29 157.235C185.77 157.365 185.445 157.365 185.445 157.365C185.445 157.365 185.705 157.235 186.225 157.105C186.81 156.91 187.525 156.715 188.435 156.455C190.385 155.935 192.92 155.22 195.715 154.375C198.575 153.595 201.175 152.945 203.06 152.49C204.035 152.295 204.75 152.1 205.27 152.035C205.79 151.97 206.05 151.97 206.05 151.97Z" fill="#455A64"/>
<path d="M195.585 148.265C195.585 148.33 194.935 148.59 193.83 148.98C192.725 149.37 191.23 149.89 189.475 150.41C187.785 150.93 186.225 151.32 185.055 151.58C183.885 151.84 183.17 151.97 183.17 151.905C183.17 151.84 183.885 151.645 184.99 151.32C186.095 150.995 187.655 150.54 189.345 150.085C191.035 149.565 192.595 149.11 193.7 148.72C194.87 148.46 195.585 148.2 195.585 148.265Z" fill="#455A64"/>
<path d="M192.725 143.13C192.725 143.195 190.255 144.04 187.2 144.95C184.145 145.86 181.61 146.575 181.61 146.445C181.61 146.38 184.08 145.535 187.135 144.625C190.19 143.715 192.725 143 192.725 143.13Z" fill="#455A64"/>
<path d="M189.995 138.125C190.06 138.19 187.915 139.23 185.315 140.335C182.715 141.505 180.505 142.35 180.505 142.285C180.44 142.22 182.585 141.18 185.185 140.075C187.785 138.905 189.93 138.06 189.995 138.125Z" fill="#455A64"/>
<path d="M169.91 194.09L159.055 175.825L131.04 174.655V177.19C131.04 177.19 123.37 184.925 120.835 195.455C118.95 203.45 126.88 233.935 129.09 244.465C131.82 257.465 135.59 273.91 135.59 273.91C135.005 276.835 131.3 279.175 131.56 283.075L193.895 282.36L190.71 269.75L169.91 194.09Z" fill="#FF5922"/>
<path d="M191.49 274.625C191.49 274.69 179.075 274.82 163.8 274.82C148.525 274.82 136.11 274.755 136.11 274.625C136.11 274.495 148.525 274.43 163.8 274.43C179.075 274.43 191.49 274.56 191.49 274.625Z" fill="white"/>
<path d="M187.2 259.025C187.2 259.09 174.915 259.22 159.77 259.22C144.625 259.22 132.34 259.155 132.34 259.025C132.34 258.895 144.625 258.83 159.77 258.83C174.915 258.83 187.2 258.895 187.2 259.025Z" fill="white"/>
<path d="M182.975 241.995C182.975 242.06 170.95 242.19 156.13 242.19C141.31 242.19 129.285 242.125 129.285 241.995C129.285 241.865 141.31 241.8 156.13 241.8C170.95 241.865 182.975 241.93 182.975 241.995Z" fill="white"/>
<path d="M179.985 224.9C179.985 224.965 167.57 225.095 152.295 225.095C137.02 225.095 124.605 225.03 124.605 224.9C124.605 224.835 137.02 224.705 152.295 224.705C167.635 224.705 179.985 224.835 179.985 224.9Z" fill="white"/>
<path d="M173.485 203.71C173.485 203.775 161.785 203.905 147.29 203.905C132.86 203.905 121.095 203.84 121.095 203.71C121.095 203.645 132.795 203.515 147.29 203.515C161.72 203.515 173.485 203.58 173.485 203.71Z" fill="white"/>
<path d="M164.515 184.275C164.515 184.34 155.87 184.47 145.21 184.47C134.55 184.47 125.905 184.405 125.905 184.275C125.905 184.145 134.55 184.08 145.21 184.08C155.87 184.08 164.515 184.145 164.515 184.275Z" fill="white"/>
<path opacity="0.3" d="M128.83 205.335C128.83 205.335 132.795 212.355 139.035 217.555C145.275 222.755 164.32 232.05 164.32 232.05L165.88 228.735L180.115 232.05L177.45 223.275L128.83 205.335Z" fill="#3F3F40"/>
<path d="M195.65 182.26L190.71 209.17L148.2 189.02L141.375 213.005C158.08 221.195 191.88 234.78 196.235 234.39C202.41 233.805 206.7 230.165 208.65 221.065C209.82 215.475 209.3 177.84 209.3 177.84L195.65 182.26Z" fill="#FFBE9D"/>
<path d="M150.995 185.38C150.995 185.38 135.135 175.565 128.18 187.915C123.24 200.005 128.7 209.625 140.92 215.605C146.835 218.465 154.83 222.04 162.955 225.42L174.785 199.16L150.995 185.38Z" fill="#FF5922"/>
<path d="M150.995 185.38C150.995 185.38 151.125 185.445 151.45 185.64C151.775 185.835 152.165 186.03 152.685 186.355C153.79 187.005 155.415 187.915 157.495 189.085C161.655 191.49 167.635 194.935 174.85 199.095L174.98 199.16L174.915 199.29C171.535 206.765 167.505 215.735 163.15 225.55L163.085 225.68L162.955 225.615C158.795 223.86 154.505 222.04 150.15 220.09C148.2 219.245 146.315 218.335 144.43 217.49C142.545 216.58 140.725 215.735 138.905 214.76C138.06 214.24 137.15 213.72 136.37 213.2C135.59 212.615 134.745 212.095 133.965 211.445C132.405 210.21 131.105 208.78 129.935 207.35C129.675 206.96 129.415 206.57 129.155 206.18C128.895 205.79 128.7 205.4 128.44 205.01C127.92 204.23 127.66 203.385 127.27 202.54C127.14 202.085 127.01 201.695 126.88 201.24L126.685 200.59C126.62 200.395 126.62 200.135 126.555 199.94C126.49 199.485 126.425 199.095 126.36 198.64C126.295 198.185 126.295 197.795 126.295 197.34C126.23 196.495 126.295 195.65 126.36 194.805C126.425 193.96 126.62 193.18 126.685 192.4C126.88 191.62 127.075 190.84 127.27 190.125C127.53 189.41 127.79 188.695 128.05 187.98C129.025 186.225 130.325 184.795 131.82 183.755C133.315 182.715 134.94 182.13 136.565 181.87C139.75 181.415 142.48 182 144.625 182.65C146.77 183.3 148.395 184.08 149.435 184.6C149.955 184.86 150.345 185.12 150.605 185.25C150.865 185.315 150.995 185.38 150.995 185.38C150.995 185.38 150.865 185.315 150.605 185.185C150.345 185.055 149.955 184.86 149.435 184.6C148.395 184.08 146.77 183.365 144.625 182.715C142.48 182.13 139.75 181.545 136.63 182C135.07 182.26 133.445 182.845 132.015 183.82C130.585 184.86 129.285 186.29 128.375 187.98C128.115 188.695 127.855 189.41 127.595 190.125C127.4 190.84 127.205 191.62 127.01 192.4C126.88 193.18 126.75 193.96 126.685 194.805C126.685 195.65 126.555 196.43 126.62 197.275C126.62 197.665 126.685 198.12 126.685 198.575C126.75 198.965 126.815 199.42 126.88 199.875C126.945 200.07 126.945 200.33 127.01 200.525L127.205 201.175C127.335 201.565 127.465 202.02 127.595 202.41C127.92 203.19 128.245 204.1 128.765 204.815C129.025 205.205 129.155 205.66 129.48 205.985C129.74 206.375 130 206.765 130.26 207.09C131.43 208.52 132.73 209.95 134.225 211.12C134.94 211.77 135.785 212.29 136.565 212.875C137.41 213.395 138.255 213.915 139.1 214.435C140.855 215.41 142.675 216.255 144.56 217.165C146.445 218.01 148.33 218.92 150.28 219.765C154.635 221.715 158.925 223.535 163.085 225.29L162.89 225.355C167.31 215.605 171.34 206.635 174.72 199.16L174.785 199.355C167.57 195.13 161.59 191.62 157.43 189.215C155.35 187.98 153.79 187.07 152.685 186.42C152.165 186.095 151.71 185.835 151.45 185.705C151.125 185.51 150.995 185.38 150.995 185.38Z" fill="#3F3F40"/>
<path d="M195 186.875L195.975 176.865C195.975 176.865 192.14 169.13 192.205 168.35C192.27 167.57 192.53 163.345 192.53 163.345L202.15 154.7C202.15 154.7 205.27 154.7 205.335 157.755C205.335 157.755 208.325 157.105 208.39 160.68C208.39 160.68 211.64 160.81 211.705 163.41C211.705 163.41 213.655 163.15 213.59 165.88C213.525 167.83 212.68 175.37 212.68 175.37L208.65 182.325L208.325 189.28L195 186.875Z" fill="#FFBE9D"/>
<path d="M195.975 219.05C195.845 219.115 195.13 216.645 193.7 213.915C192.27 211.185 190.58 209.3 190.645 209.235C190.645 209.235 191.1 209.625 191.75 210.47C192.4 211.25 193.245 212.42 193.96 213.785C194.675 215.15 195.195 216.515 195.52 217.49C195.91 218.4 196.04 219.05 195.975 219.05Z" fill="#EB996E"/>
<path d="M141.375 182.065C141.375 182.065 141.245 182.39 140.985 182.975C140.725 183.56 140.27 184.405 139.685 185.38C138.58 187.395 137.02 190.19 135.265 193.245C133.51 196.3 131.95 199.03 130.78 201.045C130.195 202.02 129.74 202.8 129.415 203.385C129.09 203.97 128.895 204.23 128.895 204.23C128.895 204.23 129.025 203.905 129.285 203.32C129.545 202.735 130 201.89 130.585 200.915C131.69 198.9 133.25 196.105 135.005 193.05C136.76 189.995 138.32 187.265 139.49 185.25C140.075 184.275 140.53 183.495 140.855 182.91C141.18 182.325 141.31 182.065 141.375 182.065Z" fill="white"/>
<path d="M154.31 187.72C154.31 187.72 154.31 187.85 154.18 188.045C154.05 188.24 153.985 188.565 153.855 188.89C153.53 189.605 153.075 190.58 152.49 191.815C151.32 194.285 149.565 197.665 147.55 201.37C145.535 205.075 143.65 208.39 142.22 210.73C141.505 211.9 140.92 212.875 140.53 213.525C140.335 213.85 140.205 214.045 140.075 214.24C139.945 214.435 139.88 214.5 139.88 214.5C139.88 214.5 139.945 214.37 140.01 214.24C140.14 214.045 140.27 213.785 140.465 213.46C140.855 212.745 141.44 211.77 142.09 210.6C143.455 208.195 145.34 204.88 147.355 201.175C149.37 197.47 151.125 194.09 152.36 191.62C152.945 190.45 153.465 189.475 153.855 188.695C154.05 188.37 154.18 188.11 154.245 187.915C154.245 187.85 154.31 187.72 154.31 187.72Z" fill="white"/>
<path d="M168.805 195.845C168.805 195.845 168.675 196.235 168.415 196.95C168.155 197.665 167.7 198.64 167.18 199.81C166.14 202.215 164.515 205.465 162.565 208.975C160.615 212.485 158.665 215.54 157.17 217.75C156.455 218.855 155.805 219.7 155.35 220.285C154.895 220.87 154.635 221.195 154.635 221.195C154.635 221.195 154.83 220.805 155.22 220.22C155.675 219.57 156.26 218.66 156.91 217.62C158.34 215.41 160.225 212.355 162.175 208.845C164.125 205.335 165.75 202.085 166.855 199.745C167.375 198.575 167.83 197.665 168.155 196.95C168.61 196.235 168.805 195.845 168.805 195.845Z" fill="white"/>
<path d="M131.04 295.1L132.405 283.075L191.815 282.425L193.375 295.1H131.04Z" fill="#3F3F40"/>
<path d="M204.685 294.06C204.685 294.125 186.355 294.255 163.8 294.255C141.18 294.255 122.915 294.19 122.915 294.06C122.915 293.995 141.245 293.865 163.8 293.865C186.355 293.865 204.685 293.995 204.685 294.06Z" fill="#455A64"/>
<path d="M171.535 87.75H149.435C148.72 87.75 148.135 87.165 148.135 86.45V85.475C148.135 84.76 148.72 84.175 149.435 84.175H171.535C172.25 84.175 172.835 84.76 172.835 85.475V86.45C172.835 87.165 172.25 87.75 171.535 87.75Z" fill="#455A64"/>
<path d="M178.88 85.93C178.88 86.905 178.1 87.75 177.06 87.75C176.02 87.75 175.24 86.97 175.24 85.93C175.24 84.955 176.02 84.11 177.06 84.11C178.1 84.11 178.88 84.955 178.88 85.93Z" fill="#455A64"/>
<path d="M105.43 142.285H103.935C101.725 142.285 99.905 140.465 99.905 138.255V116.155C99.905 113.945 101.725 112.125 103.935 112.125H105.43V142.285Z" fill="#3F3F40"/>
<path d="M105.04 186.095H103.545C101.335 186.095 99.515 184.275 99.515 182.065V159.965C99.515 157.755 101.335 155.935 103.545 155.935H105.04V186.095Z" fill="#3F3F40"/>
<path d="M103.675 200.655C103.61 200.655 103.48 178.75 103.48 151.775C103.48 124.735 103.545 102.895 103.675 102.895C103.74 102.895 103.87 124.8 103.87 151.775C103.87 178.75 103.805 200.655 103.675 200.655Z" fill="#455A64"/>
<path d="M83.395 235.755H20.735C16.64 235.755 13.325 232.44 13.325 228.345V180.245C13.325 176.15 16.64 172.835 20.735 172.835H83.395C87.49 172.835 90.805 176.15 90.805 180.245V228.345C90.805 232.44 87.49 235.755 83.395 235.755Z" fill="white"/>
<path d="M55.185 233.87C55.965 235.82 71.37 250.25 71.37 250.25V233.87H55.185Z" fill="#FF5922"/>
<path d="M65.975 186.81C65.26 184.34 63.44 182.26 61.165 181.09C58.63 179.79 55.64 179.725 52.91 180.31C50.18 180.96 47.645 182.26 45.24 183.755C43.875 184.6 42.575 185.51 41.6 186.745C39.845 189.085 38.22 192.79 38.09 195.715C38.025 198.055 39.065 203.84 40.105 205.92C40.495 206.635 41.34 207.35 42.38 207.87C43.485 209.95 44.98 211.77 46.735 213.33C47.255 211.77 47.71 210.145 48.23 208.585L65.975 186.81Z" fill="#3F3F40"/>
<path d="M64.545 184.015L59.93 183.3C62.595 189.215 63.7 202.865 65.325 209.105C66.95 206.57 70.655 199.03 70.395 196.04C70.07 193.115 70.005 183.365 64.545 184.015Z" fill="#3F3F40"/>
<path d="M43.03 194.545C43.16 191.035 45.37 188.11 48.75 187.135L59.215 184.145C63.765 183.495 66.95 189.085 67.405 193.635C67.86 198.705 68.25 204.1 67.73 207.935C66.755 215.605 60.905 216.775 60.905 216.775C60.905 216.775 61.035 220.415 61.035 222.625L59.345 232.635L45.5 220.805L42.965 194.61C43.03 194.545 43.03 194.74 43.03 194.545Z" fill="#FFBF9D"/>
<path d="M65.13 200.005C65.195 200.525 64.74 200.98 64.22 201.045C63.7 201.11 63.245 200.72 63.18 200.2C63.115 199.68 63.57 199.225 64.09 199.16C64.61 199.16 65.13 199.485 65.13 200.005Z" fill="#3F3F40"/>
<path d="M66.365 196.69C66.235 196.82 65.52 196.3 64.415 196.3C63.375 196.3 62.595 196.885 62.465 196.755C62.4 196.69 62.53 196.495 62.855 196.235C63.18 195.975 63.765 195.715 64.415 195.715C65.065 195.715 65.65 195.91 65.975 196.17C66.3 196.43 66.43 196.625 66.365 196.69Z" fill="#3F3F40"/>
<path d="M55.64 200.005C55.705 200.525 55.25 200.98 54.73 201.045C54.21 201.11 53.755 200.72 53.69 200.2C53.625 199.68 54.08 199.225 54.6 199.16C55.12 199.16 55.575 199.485 55.64 200.005Z" fill="#3F3F40"/>
<path d="M56.355 197.015C56.225 197.145 55.445 196.625 54.405 196.625C53.365 196.625 52.585 197.21 52.455 197.08C52.39 197.015 52.52 196.82 52.845 196.56C53.17 196.3 53.755 196.04 54.405 196.04C55.055 196.04 55.64 196.235 55.965 196.495C56.29 196.69 56.42 196.95 56.355 197.015Z" fill="#3F3F40"/>
<path d="M59.865 205.205C59.865 205.14 60.515 205.01 61.555 204.815C61.815 204.75 62.075 204.75 62.14 204.555C62.205 204.36 62.075 204.1 61.945 203.775C61.685 203.125 61.36 202.475 61.1 201.76C59.93 198.9 59.02 196.495 59.15 196.43C59.28 196.365 60.32 198.705 61.555 201.565C61.815 202.28 62.14 202.93 62.4 203.58C62.53 203.905 62.725 204.23 62.595 204.62C62.53 204.815 62.335 204.945 62.14 205.01C61.945 205.075 61.815 205.075 61.685 205.075C60.58 205.205 59.93 205.27 59.865 205.205Z" fill="#3F3F40"/>
<path d="M50.765 214.37C50.765 214.37 53.43 219.57 61.035 218.595L60.97 216.775C60.97 216.775 55.965 217.23 50.765 214.37Z" fill="#FF9A6C"/>
<path d="M55.9 193.18C55.835 193.44 54.73 193.375 53.495 193.57C52.26 193.765 51.285 194.155 51.09 193.895C51.025 193.765 51.155 193.505 51.545 193.18C51.935 192.92 52.585 192.595 53.3 192.53C54.015 192.4 54.73 192.53 55.185 192.66C55.705 192.855 55.965 193.05 55.9 193.18Z" fill="#3F3F40"/>
<path d="M65.975 193.505C65.78 193.765 65.065 193.505 64.22 193.57C63.375 193.57 62.595 193.765 62.465 193.505C62.4 193.375 62.465 193.115 62.79 192.92C63.115 192.66 63.635 192.465 64.22 192.465C64.805 192.465 65.325 192.66 65.65 192.92C65.91 193.115 66.04 193.375 65.975 193.505Z" fill="#3F3F40"/>
<path d="M65.195 186.745C64.675 185.64 63.44 184.925 62.14 184.925C60.905 184.925 59.67 185.38 58.63 186.03C54.145 188.76 52 195.195 47.58 198.055C46.475 198.77 45.045 198.185 44.135 199.095C43.225 200.005 42.64 201.435 43.225 202.605C42.575 201.825 41.99 200.98 41.6 200.005C41.21 199.03 41.145 197.925 41.665 197.015C42.055 196.3 42.705 195.78 42.9 195.065C43.03 194.415 42.77 193.7 42.77 193.05C42.77 192.335 43.095 191.685 43.42 191.1C45.11 187.915 47.45 185.055 50.505 183.235C52.52 182 54.795 181.285 57.135 181.285C59.475 181.285 61.815 182.065 63.57 183.625C64.545 184.535 65.65 185.445 65.195 186.745Z" fill="#3F3F40"/>
<path d="M44.265 200.07C44.2 199.875 40.17 198.51 40.235 202.8C40.3 206.895 44.46 205.985 44.46 205.855C44.395 205.725 44.265 200.07 44.265 200.07Z" fill="#FFBF9D"/>
<path d="M43.095 204.295C43.095 204.295 43.03 204.36 42.9 204.425C42.77 204.49 42.575 204.555 42.38 204.425C41.925 204.295 41.535 203.58 41.535 202.865C41.535 202.475 41.6 202.15 41.73 201.825C41.86 201.5 42.055 201.305 42.25 201.24C42.445 201.175 42.64 201.305 42.705 201.435C42.77 201.565 42.77 201.63 42.77 201.63C42.77 201.63 42.835 201.565 42.835 201.37C42.835 201.305 42.77 201.175 42.64 201.11C42.51 201.045 42.38 200.98 42.25 201.045C41.925 201.045 41.665 201.37 41.535 201.695C41.405 202.02 41.275 202.41 41.34 202.865C41.405 203.71 41.795 204.49 42.445 204.62C42.705 204.685 42.965 204.62 43.095 204.49C43.095 204.425 43.16 204.295 43.095 204.295Z" fill="#FF9A6C"/>
<path d="M42.575 197.99C42.575 197.99 42.64 197.925 42.835 197.86C42.965 197.73 43.225 197.6 43.485 197.405C44.07 196.95 44.85 196.3 45.63 195.325C46.475 194.35 47.32 193.115 48.23 191.685C49.14 190.32 50.18 188.76 51.48 187.33C52.13 186.615 52.845 186.03 53.625 185.51C54.405 184.99 55.185 184.665 55.965 184.34C57.525 183.755 59.085 183.625 60.32 183.69C61.555 183.755 62.595 183.95 63.245 184.21C63.57 184.275 63.83 184.405 64.025 184.47C64.285 184.6 64.35 184.6 64.35 184.6C64.35 184.6 64.285 184.535 64.09 184.47C63.895 184.405 63.635 184.275 63.31 184.145C62.66 183.885 61.62 183.625 60.385 183.625C59.085 183.56 57.59 183.69 55.965 184.275C55.185 184.535 54.34 184.925 53.56 185.445C52.78 185.965 52.065 186.55 51.35 187.265C49.985 188.695 49.01 190.255 48.035 191.62C47.125 193.05 46.28 194.285 45.435 195.26C44.655 196.235 43.875 196.95 43.355 197.405C43.095 197.6 42.835 197.795 42.705 197.86C42.64 197.925 42.575 197.99 42.575 197.99Z" fill="white"/>
<path d="M43.615 199.16C43.615 200.265 43.55 201.5 44.135 202.475C44.655 203.45 46.02 204.1 46.995 203.515C47.775 203.06 47.97 202.02 48.1 201.11C48.425 198.445 48.49 195.845 48.88 193.18L43.615 199.16Z" fill="#3F3F40"/>
<path d="M64.09 184.795C64.09 184.795 63.7 184.73 63.05 184.73C62.4 184.73 61.425 184.86 60.32 185.315C59.8 185.575 59.215 185.835 58.63 186.225C58.045 186.615 57.46 187.07 56.875 187.59C55.705 188.63 54.535 189.93 53.56 191.425C53.04 192.205 52.585 192.92 52.13 193.635C51.675 194.35 51.09 195 50.505 195.52C49.335 196.625 48.1 197.34 47.06 197.925C46.02 198.51 45.175 198.9 44.525 199.225C44.265 199.355 44.005 199.485 43.81 199.55C43.68 199.615 43.55 199.68 43.55 199.615C43.55 199.615 43.615 199.55 43.81 199.485C44.005 199.42 44.2 199.29 44.46 199.095C45.045 198.77 45.89 198.315 46.93 197.73C47.97 197.145 49.14 196.365 50.31 195.26C50.895 194.74 51.415 194.09 51.87 193.375C52.325 192.66 52.78 191.88 53.3 191.165C54.34 189.67 55.51 188.37 56.68 187.33C57.265 186.81 57.85 186.355 58.435 185.965C59.02 185.575 59.605 185.25 60.19 185.055C61.295 184.6 62.27 184.535 62.985 184.535C63.31 184.535 63.57 184.6 63.765 184.6C64.025 184.795 64.09 184.795 64.09 184.795Z" fill="#455A64"/>
<path d="M43.42 196.625C43.42 196.625 43.29 196.755 43.095 196.885C42.835 197.08 42.445 197.275 42.055 197.535C41.925 197.6 41.86 197.665 41.73 197.73C41.6 197.795 41.47 197.86 41.275 197.86C41.21 197.86 41.08 197.86 41.015 197.795C40.95 197.73 40.885 197.665 40.885 197.535C40.885 197.34 40.95 197.145 41.08 197.015C41.405 196.43 41.795 195.715 42.25 195.065L42.445 195.195C42.055 195.52 41.6 195.715 41.145 195.91C40.69 196.04 40.17 196.17 39.65 196.105C39.52 196.105 39.39 196.105 39.26 196.04C39.13 195.975 39 195.91 38.935 195.78C38.87 195.65 38.935 195.455 39 195.39C39.065 195.26 39.13 195.195 39.195 195.13C39.78 194.545 40.235 193.895 40.56 193.31C41.21 192.205 41.34 191.36 41.405 191.36C41.405 191.36 41.405 191.555 41.275 191.945C41.145 192.27 41.015 192.79 40.69 193.375C40.365 193.96 39.975 194.61 39.325 195.26C39.195 195.39 39 195.585 39.065 195.715C39.13 195.845 39.325 195.91 39.585 195.91C40.04 195.91 40.495 195.845 40.95 195.715C41.405 195.585 41.86 195.325 42.185 195.065L42.64 194.675L42.315 195.195C41.925 195.91 41.47 196.56 41.145 197.145C41.08 197.275 40.95 197.405 40.95 197.535C40.95 197.665 41.08 197.73 41.21 197.73C41.47 197.73 41.73 197.535 41.925 197.405C42.315 197.145 42.705 196.95 42.965 196.82C43.29 196.69 43.42 196.625 43.42 196.625Z" fill="white"/>
<path d="M55.965 207.22C56.095 206.57 56.745 206.115 57.33 206.115C57.785 206.18 58.24 206.44 58.435 206.895C58.63 207.285 58.695 207.805 58.565 208.26V208.39C58.175 208.91 57.395 209.04 56.81 208.845C56.225 208.585 55.835 207.87 55.965 207.22Z" fill="#FF9A6C"/>
<path d="M59.28 208.39C59.28 208.26 58.24 208.325 57.395 207.48C56.55 206.635 56.615 205.465 56.42 205.465C56.355 205.465 56.225 205.725 56.225 206.245C56.225 206.7 56.42 207.415 56.94 207.935C57.46 208.455 58.11 208.65 58.5 208.65C59.085 208.585 59.345 208.455 59.28 208.39Z" fill="#3F3F40"/>
<path d="M76.31 228.215L76.18 228.085C70.85 222.43 61.035 220.545 61.035 220.545C61.035 220.545 60.45 224.25 54.925 224.64C49.4 225.03 45.37 219.44 45.37 219.44L38.025 220.48C38.025 220.48 34.32 220.935 32.045 222.235C26.845 225.29 24.115 235.755 24.115 235.755L80.665 236.015L76.31 228.215Z" fill="#FF5922"/>
<path d="M81.51 172.9C81.51 172.9 81.64 172.9 81.9 172.9C82.16 172.9 82.55 172.9 83.07 173.03C84.045 173.225 85.605 173.615 87.23 174.85C88.01 175.435 88.79 176.28 89.44 177.32C90.09 178.36 90.61 179.66 90.805 181.09C90.87 181.805 90.87 182.585 90.87 183.3C90.87 184.08 90.87 184.86 90.87 185.705C90.87 187.33 90.87 189.085 90.87 190.905C90.87 198.25 90.87 207.155 90.935 217.36C90.935 219.895 90.935 222.495 90.935 225.225C90.935 225.875 90.935 226.59 90.87 227.24C90.805 227.955 90.675 228.605 90.48 229.32C90.09 230.685 89.31 231.92 88.335 232.96C87.36 234 86.125 234.845 84.76 235.365L84.24 235.56L83.72 235.69C83.395 235.82 83.005 235.82 82.615 235.885C81.9 235.95 81.12 235.95 80.405 235.95C77.415 235.95 74.425 235.95 71.305 235.95L71.435 235.82C71.435 240.37 71.435 245.245 71.435 250.25V250.64L71.175 250.38C68.77 248.105 66.365 245.765 63.895 243.425C61.425 241.02 58.955 238.55 56.55 235.95L56.68 236.015C49.01 236.015 40.95 236.015 32.825 236.015C30.355 236.015 27.885 236.015 25.48 236.015H23.66C23.075 236.015 22.425 236.015 21.84 235.95C20.605 235.82 19.435 235.495 18.33 234.975C16.12 233.87 14.43 231.92 13.715 229.645C13.325 228.54 13.195 227.305 13.195 226.135C13.195 224.965 13.195 223.795 13.195 222.625C13.195 213.33 13.195 204.36 13.195 195.845C13.195 191.555 13.195 187.395 13.195 183.365C13.195 182.39 13.195 181.35 13.39 180.31C13.585 179.335 13.975 178.36 14.43 177.515C14.885 176.67 15.535 175.89 16.315 175.24C17.03 174.59 17.875 174.005 18.72 173.615C19.63 173.225 20.54 172.965 21.45 172.835C22.425 172.705 23.335 172.77 24.245 172.77C26.065 172.77 27.885 172.77 29.64 172.77C33.15 172.77 36.53 172.77 39.78 172.77C52.65 172.77 63.115 172.835 70.33 172.835C73.905 172.835 76.7 172.835 78.65 172.835C79.625 172.835 80.34 172.835 80.795 172.835C81.25 172.835 81.51 172.9 81.51 172.9C81.51 172.9 81.25 172.9 80.795 172.9C80.275 172.9 79.56 172.9 78.65 172.9C76.765 172.9 73.97 172.9 70.33 172.9C63.115 172.9 52.65 172.9 39.78 172.965C36.53 172.965 33.15 172.965 29.64 172.965C27.885 172.965 26.065 172.965 24.245 172.965C23.335 172.965 22.425 172.965 21.515 173.03C20.605 173.095 19.695 173.42 18.85 173.81C18.005 174.2 17.225 174.72 16.51 175.37C15.795 176.02 15.21 176.735 14.69 177.58C14.235 178.425 13.845 179.335 13.65 180.31C13.455 181.285 13.455 182.26 13.455 183.3C13.455 187.33 13.455 191.49 13.455 195.78C13.455 204.295 13.455 213.265 13.455 222.56C13.455 223.73 13.455 224.9 13.455 226.07C13.455 227.24 13.585 228.41 13.975 229.515C14.69 231.725 16.38 233.61 18.46 234.65C19.5 235.17 20.67 235.495 21.84 235.625C22.425 235.69 23.01 235.69 23.66 235.69H25.48C27.885 235.69 30.355 235.69 32.825 235.69C41.015 235.69 49.01 235.69 56.68 235.69H56.745L56.81 235.755C59.215 238.355 61.685 240.825 64.155 243.23C66.625 245.635 69.03 247.975 71.435 250.185L71.175 250.315C71.175 245.31 71.175 240.435 71.175 235.885V235.755H71.305C74.425 235.755 77.415 235.755 80.405 235.755C81.12 235.755 81.9 235.755 82.615 235.69C82.94 235.625 83.33 235.625 83.655 235.495L84.175 235.365L84.695 235.17C86.06 234.65 87.23 233.87 88.205 232.83C89.18 231.79 89.895 230.555 90.285 229.255C90.48 228.605 90.61 227.955 90.675 227.24C90.74 226.59 90.675 225.875 90.74 225.225C90.74 222.56 90.74 219.895 90.74 217.36C90.74 207.22 90.74 198.315 90.805 190.905C90.805 189.085 90.805 187.33 90.805 185.705C90.805 184.86 90.805 184.08 90.805 183.3C90.805 182.52 90.805 181.805 90.74 181.09C90.545 179.66 90.09 178.425 89.44 177.385C88.79 176.345 88.01 175.565 87.23 174.915C85.67 173.68 84.11 173.29 83.135 173.095C82.615 173.03 82.225 172.965 81.965 172.965C81.64 172.9 81.51 172.9 81.51 172.9Z" fill="#3F3F40"/>
<path d="M230.425 251.745H304.265C308.36 251.745 311.74 248.43 311.74 244.27V187.135C311.74 183.04 308.425 179.66 304.265 179.66H230.425C226.33 179.66 222.95 182.975 222.95 187.135V244.27C222.95 248.365 226.265 251.745 230.425 251.745Z" fill="white"/>
<path d="M263.77 249.535C262.86 251.745 245.245 268.255 245.245 268.255V249.535H263.77Z" fill="#455A64"/>
<path d="M256.945 234.455C256.945 232.18 256.945 230.295 256.945 230.035C256.945 230.035 249.275 229.32 248.69 221.715C248.43 218.01 248.495 210.405 248.625 203.515C248.755 196.105 254.605 190.06 262.015 189.605L262.73 189.54C270.66 189.54 275.145 196.3 274.95 204.23L274.69 234.065L261.82 244.4L260.91 244.335L256.945 234.455Z" fill="#FFBF9D"/>
<path d="M256.945 230.035C256.945 230.035 261.755 230.035 266.695 226.525C266.695 226.525 264.615 232.245 256.945 231.985V230.035Z" fill="#FF9A6C"/>
<path d="M261.625 206.765C261.755 206.895 262.665 206.245 263.965 206.18C265.265 206.115 266.175 206.83 266.305 206.635C266.37 206.57 266.24 206.31 265.785 205.985C265.395 205.66 264.68 205.4 263.9 205.4C263.12 205.4 262.47 205.725 262.08 206.05C261.625 206.44 261.495 206.7 261.625 206.765Z" fill="#3F3F40"/>
<path d="M262.535 210.275C262.535 210.795 262.99 211.25 263.575 211.25C264.16 211.25 264.615 210.795 264.55 210.275C264.55 209.755 264.095 209.3 263.51 209.3C262.99 209.235 262.535 209.69 262.535 210.275Z" fill="#3F3F40"/>
<path d="M258.31 215.605C258.31 215.54 257.595 215.475 256.36 215.345C256.035 215.345 255.775 215.28 255.71 215.085C255.645 214.89 255.71 214.565 255.84 214.175C256.1 213.46 256.295 212.68 256.62 211.835C257.66 208.52 258.375 205.79 258.245 205.79C258.115 205.725 257.14 208.39 256.1 211.705C255.84 212.55 255.645 213.33 255.385 214.045C255.32 214.37 255.125 214.76 255.32 215.215C255.385 215.41 255.645 215.605 255.84 215.605C256.035 215.67 256.23 215.67 256.36 215.67C257.53 215.67 258.31 215.67 258.31 215.605Z" fill="#3F3F40"/>
<path d="M262.21 202.67C262.34 202.93 263.38 202.735 264.55 202.865C265.785 202.93 266.76 203.255 266.89 202.93C266.955 202.8 266.76 202.54 266.37 202.28C265.98 202.02 265.33 201.825 264.615 201.76C263.9 201.695 263.25 201.89 262.795 202.085C262.405 202.28 262.145 202.54 262.21 202.67Z" fill="#3F3F40"/>
<path d="M250.25 203.385C250.38 203.645 251.355 203.385 252.59 203.32C253.825 203.255 254.8 203.45 254.93 203.255C254.995 203.125 254.8 202.93 254.345 202.735C253.955 202.54 253.305 202.41 252.59 202.41C251.875 202.41 251.225 202.605 250.835 202.8C250.38 203.06 250.185 203.32 250.25 203.385Z" fill="#3F3F40"/>
<path d="M274.69 209.885C274.82 209.82 279.825 208 279.955 213.265C280.085 218.465 274.82 217.555 274.82 217.425C274.82 217.23 274.69 209.885 274.69 209.885Z" fill="#FFBF9D"/>
<path d="M276.38 215.41C276.38 215.41 276.445 215.475 276.64 215.54C276.77 215.605 277.03 215.67 277.29 215.54C277.81 215.345 278.265 214.435 278.265 213.46C278.265 213.005 278.135 212.55 278.005 212.16C277.81 211.77 277.55 211.51 277.29 211.51C277.03 211.445 276.835 211.64 276.77 211.77C276.705 211.9 276.77 212.03 276.705 212.03C276.705 212.03 276.575 211.965 276.64 211.705C276.64 211.575 276.705 211.445 276.835 211.38C276.965 211.25 277.16 211.25 277.355 211.25C277.745 211.25 278.135 211.64 278.33 212.03C278.525 212.42 278.655 212.94 278.655 213.46C278.655 214.5 278.135 215.54 277.42 215.735C277.03 215.865 276.77 215.735 276.575 215.605C276.38 215.54 276.315 215.41 276.38 215.41Z" fill="#FF9A6C"/>
<path d="M259.935 220.025C259.87 219.895 260.91 219.57 261.625 218.66C262.015 218.205 262.21 217.685 262.34 217.295C262.47 216.905 262.6 216.71 262.665 216.71C262.73 216.71 262.73 216.97 262.6 217.425C262.535 217.815 262.34 218.4 261.885 218.92C261.495 219.44 260.91 219.765 260.52 219.895C260.195 220.09 259.935 220.09 259.935 220.025Z" fill="#3F3F40"/>
<path d="M281.71 201.565C280.67 199.68 280.41 197.535 279.825 195.455C279.24 193.375 278.135 191.23 276.12 190.515H276.055C274.235 189.735 272.025 189.735 270.53 190.97C270.205 188.24 267.865 186.095 265.2 185.315C262.535 184.6 258.31 184.925 255.775 185.965C253.825 186.745 251.875 188.305 249.535 190.645C248.56 191.62 247.65 192.725 246.805 193.83L244.4 200.915L246.35 204.685C246.48 204.945 246.61 205.205 246.74 205.465L248.43 213.33C248.56 211.185 248.495 203.71 248.625 201.565C251.94 201.435 254.93 200.2 257.205 197.73C258.375 196.43 259.35 194.87 260.91 194.09C262.925 193.115 265.33 193.895 267.475 194.61L267.41 194.545C268.515 195.065 269.49 195.78 270.335 196.69C269.815 200.915 270.205 205.205 271.44 209.3C271.635 209.885 272.155 211.185 272.74 211.38C273.91 211.835 274.235 210.665 274.95 210.015C275.47 209.56 276.25 209.495 277.095 209.495C277.615 208.195 278.135 205.985 278.59 204.1C279.305 204.295 280.02 204.36 280.8 204.295C280.605 203.775 280.345 203.19 280.15 202.67C280.41 202.865 280.735 203.06 281.06 203.125C281.385 203.19 281.775 203.06 281.97 202.735C282.165 202.41 281.905 201.955 281.71 201.565Z" fill="#3F3F40"/>
<path d="M268.19 191.815C268.19 191.815 268.515 192.01 268.97 192.53C269.425 193.05 269.88 193.895 270.075 195.065C270.205 195.65 270.27 196.3 270.27 197.015C270.27 197.73 270.205 198.445 270.14 199.225C270.075 200.005 270.01 200.85 270.075 201.695C270.075 202.15 270.14 202.54 270.205 202.995C270.27 203.45 270.4 203.905 270.725 204.295C270.985 204.62 271.44 204.75 271.765 204.685C272.155 204.62 272.48 204.425 272.74 204.165C273.26 203.58 273.39 202.865 273.52 202.215H273.39C273.65 202.8 273.91 203.385 274.3 203.84C274.69 204.295 275.21 204.62 275.795 204.685C276.055 204.685 276.315 204.685 276.575 204.555C276.835 204.425 276.965 204.23 277.095 204.035C277.225 203.84 277.29 203.58 277.29 203.385C277.29 203.19 277.225 202.93 277.03 202.8L276.965 202.865C277.55 203.515 278.135 203.905 278.59 204.1C278.785 204.23 278.98 204.295 279.11 204.295C279.24 204.36 279.305 204.36 279.305 204.36C279.305 204.36 279.24 204.36 279.11 204.295C278.98 204.23 278.85 204.165 278.59 204.1C278.2 203.905 277.55 203.515 277.03 202.865L276.965 202.93C277.225 203.19 277.225 203.71 277.03 204.035C276.9 204.23 276.77 204.425 276.51 204.49C276.315 204.62 276.055 204.62 275.795 204.62C275.275 204.555 274.82 204.295 274.43 203.84C274.04 203.385 273.78 202.865 273.585 202.28L273.455 202.02L273.39 202.28C273.26 202.93 273.13 203.58 272.675 204.1C272.48 204.36 272.155 204.555 271.83 204.555C271.505 204.62 271.115 204.49 270.92 204.23C270.66 203.905 270.53 203.45 270.465 203.06C270.4 202.605 270.335 202.215 270.335 201.76C270.27 200.915 270.335 200.07 270.4 199.29C270.465 198.51 270.53 197.73 270.53 197.015C270.53 196.3 270.465 195.65 270.335 195.065C270.075 193.895 269.555 192.985 269.1 192.53C268.515 191.945 268.19 191.815 268.19 191.815Z" fill="#455A64"/>
<path d="M244.53 198.9C244.66 198.965 244.725 199.03 244.79 199.095C244.855 199.16 244.985 199.225 245.115 199.29C245.245 199.355 245.375 199.485 245.57 199.55C246.285 199.875 247.39 200.265 248.82 200.2C250.25 200.135 251.94 199.68 253.435 198.575C254.995 197.47 256.295 195.91 257.465 194.09C258.05 193.18 258.505 192.205 259.025 191.36C259.545 190.515 260.065 189.67 260.78 189.085C261.43 188.435 262.21 187.98 262.99 187.785C263.38 187.655 263.77 187.655 264.16 187.655C264.55 187.655 264.875 187.785 265.2 187.85C265.85 188.11 266.37 188.435 266.76 188.825C267.15 189.215 267.41 189.605 267.605 189.93C267.93 190.645 267.93 191.1 267.995 191.1C267.995 191.1 267.995 191.1 267.995 191.035C267.995 190.97 267.995 190.905 267.93 190.775C267.865 190.58 267.8 190.255 267.67 189.93C267.475 189.605 267.215 189.15 266.825 188.76C266.435 188.37 265.915 187.98 265.2 187.72C264.875 187.59 264.485 187.525 264.095 187.46C263.705 187.46 263.315 187.46 262.86 187.59C262.015 187.785 261.235 188.305 260.585 188.89C259.87 189.54 259.35 190.32 258.83 191.23C258.31 192.075 257.855 193.05 257.27 193.96C256.165 195.78 254.8 197.34 253.305 198.445C251.81 199.55 250.185 200.005 248.755 200.07C247.39 200.135 246.22 199.81 245.57 199.485C244.92 199.16 244.53 198.9 244.53 198.9Z" fill="#455A64"/>
<path d="M249.99 207.09C250.12 207.22 251.03 206.57 252.33 206.505C253.63 206.44 254.54 207.155 254.67 206.96C254.735 206.895 254.605 206.635 254.15 206.31C253.76 205.985 253.045 205.725 252.265 205.725C251.485 205.725 250.835 206.05 250.445 206.375C249.99 206.765 249.925 207.025 249.99 207.09Z" fill="#3F3F40"/>
<path d="M251.94 210.405C251.94 210.925 252.395 211.38 252.98 211.38C253.565 211.38 254.02 210.925 253.955 210.405C253.955 209.885 253.5 209.43 252.915 209.43C252.33 209.43 251.875 209.885 251.94 210.405Z" fill="#3F3F40"/>
<path d="M247.52 192.985C246.87 193.83 245.895 194.61 244.79 194.48C244.465 194.415 243.685 194.155 243.685 194.155C243.295 194.35 243.425 195.65 243.685 196.04C243.945 196.365 244.465 196.885 244.465 196.885C243.23 197.535 242.06 197.21 240.76 196.755C241.02 199.03 242.515 201.11 244.66 202.02C245.31 202.28 246.155 202.475 246.74 202.085C247.26 201.76 247.52 201.045 247.65 200.46C248.235 198.185 248.56 195.845 248.56 193.44L247.52 192.985Z" fill="#3F3F40"/>
<path d="M239.525 243.035L239.655 242.84C245.765 236.405 257.01 234.195 257.01 234.195C257.01 234.195 257.725 238.42 263.965 238.875C270.27 239.33 274.885 232.96 274.885 232.96L283.27 234.13C283.27 234.13 287.495 234.65 290.095 236.145C296.01 239.655 299.195 251.68 299.195 251.68L234.455 251.94L239.525 243.035Z" fill="#455A64"/>
<path d="M233.61 179.66C233.61 179.66 233.48 179.66 233.155 179.725C233.025 179.725 232.83 179.725 232.57 179.79C232.375 179.79 232.115 179.855 231.79 179.92C230.62 180.115 228.865 180.57 227.11 182C226.2 182.715 225.355 183.625 224.575 184.795C223.86 185.965 223.275 187.395 223.08 189.02C222.95 189.8 223.015 190.71 223.015 191.555C223.015 192.465 223.015 193.375 223.015 194.285C223.015 196.17 223.015 198.185 223.015 200.265C223.015 208.715 223.015 218.92 223.08 230.555C223.08 233.48 223.08 236.47 223.08 239.525C223.08 240.305 223.08 241.085 223.145 241.865C223.21 242.645 223.34 243.425 223.535 244.14C223.99 245.635 224.835 247.065 225.875 248.235C226.98 249.405 228.345 250.38 229.905 250.9L230.49 251.095L231.075 251.225C231.465 251.355 231.855 251.355 232.31 251.42C233.155 251.485 234 251.485 234.845 251.485C238.225 251.485 241.735 251.485 245.245 251.485H245.375V251.615C245.375 256.815 245.375 262.405 245.375 268.125L245.115 267.995C247.845 265.395 250.64 262.73 253.435 260C256.23 257.27 259.09 254.475 261.885 251.485L261.95 251.42H262.015C270.79 251.42 280.02 251.42 289.38 251.42C292.175 251.42 294.97 251.42 297.765 251.42C298.48 251.42 299.13 251.42 299.845 251.42C300.56 251.42 301.21 251.42 301.925 251.355C303.29 251.225 304.59 250.835 305.825 250.25C308.23 249.015 310.115 246.87 310.96 244.335C311.415 243.1 311.545 241.735 311.545 240.435C311.545 239.07 311.545 237.77 311.545 236.405C311.545 225.745 311.545 215.54 311.545 205.725C311.545 200.85 311.545 196.105 311.545 191.425C311.545 190.255 311.545 189.15 311.35 188.045C311.09 186.94 310.7 185.9 310.18 184.925C309.66 183.95 308.945 183.105 308.1 182.39C307.32 181.675 306.41 181.025 305.435 180.635C304.46 180.18 303.42 179.855 302.38 179.79C301.34 179.66 300.3 179.725 299.26 179.725C297.18 179.725 295.1 179.725 293.085 179.725C289.055 179.725 285.155 179.725 281.515 179.725C266.76 179.725 254.8 179.66 246.545 179.66C242.45 179.66 239.2 179.66 237.055 179.66C235.95 179.66 235.17 179.66 234.585 179.66C233.87 179.725 233.61 179.66 233.61 179.66C233.61 179.66 233.87 179.66 234.455 179.66C235.04 179.66 235.82 179.66 236.925 179.66C239.135 179.66 242.32 179.66 246.415 179.66C254.67 179.66 266.63 179.66 281.385 179.595C285.09 179.595 288.925 179.595 292.955 179.595C294.97 179.595 297.05 179.595 299.13 179.595C300.17 179.595 301.21 179.53 302.315 179.66C303.42 179.79 304.46 180.115 305.435 180.57C306.475 181.025 307.385 181.675 308.23 182.39C309.075 183.17 309.79 184.015 310.375 184.99C310.96 185.965 311.35 187.07 311.61 188.175C311.87 189.28 311.805 190.515 311.805 191.62C311.805 196.235 311.805 200.98 311.805 205.92C311.805 215.67 311.805 225.94 311.805 236.6C311.805 237.9 311.805 239.265 311.805 240.63C311.805 241.995 311.675 243.36 311.22 244.66C310.31 247.26 308.425 249.535 305.89 250.77C304.655 251.42 303.29 251.81 301.86 251.94C301.145 252.005 300.43 252.005 299.78 252.005C299.065 252.005 298.415 252.005 297.7 252.005C294.905 252.005 292.11 252.005 289.315 252.005C279.955 252.005 270.79 252.005 261.95 252.005L262.08 251.94C259.35 254.93 256.425 257.725 253.63 260.52C250.835 263.25 248.04 265.915 245.245 268.515L244.985 268.775V268.385C244.985 262.665 244.985 257.075 244.985 251.875L245.115 252.005C241.54 252.005 238.095 252.005 234.715 252.005C233.87 252.005 233.025 252.005 232.18 251.94C231.79 251.875 231.335 251.81 230.945 251.68L230.36 251.55L229.775 251.355C228.215 250.77 226.785 249.795 225.68 248.625C224.575 247.39 223.73 245.96 223.275 244.465C223.08 243.685 222.885 242.905 222.82 242.125C222.755 241.345 222.755 240.565 222.755 239.785C222.755 236.73 222.755 233.675 222.755 230.815C222.755 219.18 222.755 208.975 222.82 200.525C222.82 198.445 222.82 196.43 222.82 194.545C222.82 193.635 222.82 192.66 222.82 191.815C222.82 190.905 222.82 190.06 222.95 189.28C223.145 187.655 223.73 186.16 224.51 184.99C225.225 183.82 226.135 182.845 227.045 182.195C228.865 180.765 230.62 180.31 231.79 180.115C232.115 180.05 232.31 180.05 232.57 179.985C232.765 179.985 232.96 179.985 233.155 179.985C233.415 179.66 233.61 179.66 233.61 179.66Z" fill="#3F3F40"/>
</svg>
