<svg width="301" height="291" viewBox="0 0 301 291" fill="none" xmlns="http://www.w3.org/2000/svg">
<path d="M272.05 99.8267L241.933 65.9833C239.55 63.2967 236.127 61.7367 232.487 61.6933L133.253 61C126.147 60.9567 120.383 66.6767 120.383 73.7833L120.557 144.027C120.557 151.09 126.32 156.767 133.383 156.767L232.227 156.333C235.91 156.333 239.42 154.687 241.847 151.913L272.18 116.64C276.34 111.787 276.297 104.593 272.05 99.8267ZM255.28 112.003C253.113 117.377 246.96 119.977 241.587 117.81C236.213 115.643 233.613 109.49 235.78 104.117C237.947 98.7433 244.1 96.1433 249.473 98.31C254.847 100.477 257.447 106.63 255.28 112.003Z" fill="#FF5922"/>
<g opacity="0.4">
<path d="M272.05 99.8267L241.933 65.9833C239.55 63.2967 236.127 61.7367 232.487 61.6933L133.253 61C126.147 60.9567 120.383 66.6767 120.383 73.7833L120.557 144.027C120.557 151.09 126.32 156.767 133.383 156.767L232.227 156.333C235.91 156.333 239.42 154.687 241.847 151.913L272.18 116.64C276.34 111.787 276.297 104.593 272.05 99.8267ZM255.28 112.003C253.113 117.377 246.96 119.977 241.587 117.81C236.213 115.643 233.613 109.49 235.78 104.117C237.947 98.7433 244.1 96.1433 249.473 98.31C254.847 100.477 257.447 106.63 255.28 112.003Z" fill="#3F3F40"/>
</g>
<path d="M277.25 99.8267L247.133 65.9833C244.75 63.2967 241.327 61.7367 237.687 61.6933L138.497 61C131.39 60.9567 125.627 66.6767 125.627 73.7833L125.8 144.027C125.8 151.09 131.563 156.767 138.627 156.767L237.47 156.333C241.153 156.333 244.663 154.687 247.09 151.913L277.423 116.64C281.583 111.787 281.497 104.593 277.25 99.8267ZM260.523 112.003C258.357 117.377 252.203 119.977 246.83 117.81C241.457 115.643 238.857 109.49 241.023 104.117C243.19 98.7433 249.343 96.1433 254.717 98.31C260.09 100.52 262.69 106.63 260.523 112.003Z" fill="#FF5922"/>
<path d="M158.647 97.4867C158.733 88.9933 163.977 83.62 171.343 83.6633C178.71 83.75 183.78 89.1233 183.693 97.7033C183.607 106.283 178.45 111.57 171.083 111.527C163.717 111.44 158.56 105.98 158.647 97.4867ZM176.457 97.66C176.5 92.2433 174.42 89.6433 171.257 89.6C168.137 89.5566 165.97 92.2 165.927 97.5733C165.883 102.903 168.007 105.59 171.127 105.633C174.29 105.633 176.413 103.077 176.457 97.66ZM201.417 84.53L209.997 84.6166L175.027 134.797L166.447 134.71L201.417 84.53ZM192.75 121.623C192.837 113.13 198.08 107.757 205.36 107.8C212.727 107.887 217.883 113.347 217.797 121.84C217.71 130.377 212.467 135.707 205.1 135.663C197.82 135.577 192.663 130.117 192.75 121.623ZM210.517 121.797C210.56 116.467 208.48 113.78 205.317 113.737C202.197 113.693 200.03 116.293 199.987 121.71C199.943 127.127 202.067 129.727 205.187 129.77C208.35 129.77 210.473 127.127 210.517 121.797Z" fill="white"/>
<path d="M273.957 120.757C274 120.713 274.303 120.973 274.953 121.45C275.56 121.927 276.47 122.707 277.64 123.66C278.767 124.657 280.153 125.87 281.757 127.3C283.317 128.773 285.093 130.463 286.87 132.5C288.69 134.537 290.553 136.833 292.243 139.52C292.46 139.867 292.677 140.213 292.893 140.56C293.11 140.907 293.283 141.253 293.5 141.643C293.933 142.337 294.28 143.117 294.627 143.897C295.32 145.457 295.883 147.233 295.927 149.097C295.97 150.05 295.84 151.003 295.493 151.957C295.19 152.91 294.67 153.777 294.02 154.513C292.677 156.03 290.857 157.027 288.863 157.46C286.87 157.893 284.747 157.763 282.753 157.33C280.76 156.853 278.81 156.117 276.947 155.207C273.177 153.343 269.97 150.743 267.24 147.97C265.853 146.583 264.64 145.11 263.47 143.593C262.343 142.12 261.26 140.647 260.22 139.173C256.147 133.323 252.983 127.647 250.99 122.577C250.513 121.32 250.08 120.107 249.69 118.937C249.517 118.373 249.343 117.767 249.213 117.203C249.083 116.64 248.91 116.12 248.867 115.513C248.737 114.387 248.997 113.26 249.603 112.48C250.21 111.7 250.99 111.223 251.727 111.007C252.117 110.877 252.463 110.833 252.81 110.747C253.157 110.747 253.46 110.703 253.763 110.747C254.37 110.747 254.847 110.92 255.237 111.05C255.627 111.223 255.887 111.397 256.017 111.527C256.19 111.657 256.233 111.743 256.233 111.743C256.233 111.743 256.103 111.7 255.93 111.613C255.757 111.483 255.497 111.397 255.15 111.267C254.76 111.18 254.327 111.05 253.763 111.05C253.503 111.05 253.2 111.093 252.853 111.137C252.55 111.223 252.203 111.267 251.857 111.397C251.207 111.657 250.513 112.09 249.993 112.783C249.517 113.477 249.3 114.43 249.43 115.383C249.473 115.86 249.647 116.423 249.777 116.943C249.907 117.507 250.123 118.027 250.297 118.59C250.687 119.717 251.12 120.93 251.64 122.143C253.677 127.083 256.883 132.63 260.957 138.393C261.997 139.823 263.08 141.297 264.207 142.77C265.333 144.243 266.547 145.673 267.89 147.017C270.577 149.747 273.697 152.217 277.293 153.993C279.113 154.86 280.977 155.597 282.84 156.03C284.703 156.463 286.653 156.593 288.43 156.203C290.207 155.813 291.853 154.903 293.023 153.647C294.193 152.347 294.713 150.657 294.67 149.01C294.627 147.32 294.15 145.717 293.5 144.2C293.153 143.463 292.807 142.727 292.417 141.99C292.243 141.643 292.027 141.297 291.853 140.95C291.637 140.603 291.463 140.257 291.247 139.953C289.6 137.267 287.78 134.97 286.047 132.933C284.313 130.897 282.623 129.163 281.107 127.69C279.59 126.173 278.247 124.917 277.163 123.92C276.08 122.88 275.213 122.1 274.65 121.537C274.217 121.06 273.957 120.757 273.957 120.757Z" fill="#3F3F40"/>
<path d="M226.897 50.5566C226.853 50.5566 225.553 41.7167 224.08 30.7967C222.563 19.8767 221.437 11.0366 221.48 10.9933C221.523 10.9933 222.823 19.8333 224.297 30.7533C225.77 41.7167 226.94 50.5566 226.897 50.5566Z" fill="#3F3F40"/>
<path d="M264.163 2.19666C264.163 2.19666 264.163 2.23999 264.12 2.32665C264.077 2.41332 264.033 2.54332 263.99 2.71666C263.86 3.06332 263.643 3.58332 263.427 4.23332C262.907 5.53332 262.17 7.43999 261.26 9.73666C259.44 14.4167 256.97 20.8733 254.327 28.0233C251.683 35.2167 249.43 41.7167 247.783 46.44C246.96 48.78 246.31 50.6867 245.877 52.03C245.66 52.68 245.487 53.2 245.357 53.5467C245.313 53.72 245.27 53.85 245.227 53.9367C245.183 54.0233 245.183 54.0667 245.183 54.0667C245.183 54.0667 245.183 54.0233 245.227 53.9367C245.27 53.85 245.313 53.72 245.357 53.5467C245.487 53.2 245.617 52.68 245.833 52.03C246.267 50.6867 246.873 48.78 247.697 46.3967C249.3 41.63 251.553 35.13 254.197 27.9367C256.84 20.7867 259.31 14.33 261.173 9.64999C262.083 7.30999 262.863 5.44666 263.383 4.14666C263.643 3.49666 263.86 3.01999 263.99 2.67332C264.077 2.49999 264.12 2.36999 264.163 2.28332C264.12 2.23999 264.163 2.19666 264.163 2.19666Z" fill="#3F3F40"/>
<path d="M290.857 36.9933C290.9 37.0367 284.443 42.1067 276.427 48.3033C268.367 54.5 261.867 59.4833 261.823 59.44C261.78 59.3967 268.237 54.3267 276.253 48.13C284.27 41.9333 290.813 36.95 290.857 36.9933Z" fill="#3F3F40"/>
<path d="M211.21 52.2467C211.167 52.29 208.653 49.0833 205.62 45.14C202.587 41.1533 200.16 37.9033 200.203 37.86C200.247 37.8167 202.76 41.0233 205.793 44.9667C208.827 48.9533 211.253 52.2033 211.21 52.2467Z" fill="#3F3F40"/>
<path d="M287.78 77.1633C287.78 77.2067 283.793 76.1233 278.94 74.6933C274.087 73.2633 270.143 72.05 270.143 72.0067C270.143 71.9633 274.13 73.0467 278.983 74.4767C283.88 75.8633 287.823 77.0767 287.78 77.1633Z" fill="#3F3F40"/>
<path d="M148.29 45.79L149.157 47.35L150.717 48.2167L149.157 49.0833L148.29 50.6433L147.423 49.0833L145.863 48.2167L147.423 47.35L148.29 45.79Z" fill="#FF5922"/>
<path d="M154.01 24.2967L154.92 24.2533L155.613 23.7333L155.7 24.6L156.22 25.3367L155.31 25.38L154.617 25.9L154.53 25.0333L154.01 24.2967Z" fill="#FF5922"/>
<path d="M298.57 95.6233L299.48 95.58L300.173 95.0167L300.26 95.9267L300.78 96.6633L299.913 96.7067L299.177 97.2267L299.133 96.36L298.57 95.6233Z" fill="#FF5922"/>
<path d="M196.737 50.99L197.647 50.9467L198.34 50.4267L198.427 51.2933L198.947 52.03L198.037 52.0733L197.343 52.5933L197.257 51.7267L196.737 50.99Z" fill="#FF5922"/>
<path d="M202.197 12.8133L203.063 12.77L203.8 12.2067L203.843 13.1167L204.363 13.8533L203.497 13.8967L202.76 14.4167L202.717 13.55L202.197 12.8133Z" fill="#FF5922"/>
<path d="M174.81 36.5167L176.153 35.7367L176.89 34.35L177.67 35.6933L179.057 36.43L177.713 37.21L176.977 38.5967L176.197 37.2533L174.81 36.5167Z" fill="#FF5922"/>
<path d="M288.733 113.563L290.077 112.783L290.813 111.397L291.593 112.783L292.98 113.477L291.637 114.257L290.9 115.643L290.12 114.3L288.733 113.563Z" fill="#FF5922"/>
<path d="M281.93 88.7767L283.273 87.9967L284.01 86.61L284.79 87.9967L286.177 88.69L284.833 89.47L284.097 90.8566L283.317 89.5133L281.93 88.7767Z" fill="#FF5922"/>
<path d="M251.857 167.643L252.29 169.16L250.903 178.91L248.347 179.603L249.69 170.287L246.31 171.24L246.787 172.887L244.663 173.45L243.667 169.853L251.857 167.643Z" fill="#E0E0E0"/>
<path d="M262.3 172.28C262.82 174.1 261.91 176.05 259.007 176.83C257.577 177.22 255.973 177.263 254.803 176.83L255.237 174.75C256.19 175.14 257.317 175.14 258.4 174.88C259.57 174.533 260.177 173.84 259.96 173.017C259.743 172.193 259.05 171.847 257.23 172.367L254.63 173.103L253.547 167.21L259.787 165.477L260.307 167.383L256.06 168.553L256.45 170.547L257.273 170.33C260.22 169.42 261.823 170.46 262.3 172.28Z" fill="#E0E0E0"/>
<path d="M262.127 167.687C261.65 166.04 262.3 164.653 263.643 164.263C264.987 163.873 266.243 164.697 266.72 166.387C267.197 168.077 266.547 169.42 265.203 169.81C263.817 170.2 262.603 169.333 262.127 167.687ZM266.027 166.603C265.637 165.26 264.813 164.653 263.86 164.913C262.907 165.173 262.517 166.17 262.863 167.47C263.21 168.77 264.077 169.42 265.03 169.16C265.983 168.9 266.373 167.947 266.027 166.603ZM269.883 162.617L270.75 162.357L266.633 174.533L265.767 174.793L269.883 162.617ZM269.71 170.763C269.233 169.117 269.883 167.73 271.227 167.34C272.613 166.95 273.827 167.817 274.303 169.463C274.78 171.11 274.13 172.497 272.787 172.887C271.443 173.277 270.187 172.41 269.71 170.763ZM273.61 169.68C273.263 168.38 272.397 167.73 271.443 167.99C270.49 168.25 270.1 169.203 270.447 170.547C270.837 171.89 271.66 172.497 272.613 172.237C273.567 171.977 273.957 170.98 273.61 169.68Z" fill="#E0E0E0"/>
<path d="M236.603 286.72L285.396 287.101L285.877 225.524L237.084 225.144L236.603 286.72Z" fill="#EBEBEB"/>
<path d="M266.807 227.357L265.94 286.983L258.227 286.897L259.873 227.27L266.807 227.357Z" fill="#FAFAFA"/>
<path d="M209.087 226.88L237.08 227.097L285.873 227.487L237.037 233.9L236.603 286.723L208.653 286.507L209.087 226.88Z" fill="#E0E0E0"/>
<path d="M224.34 227.01L223.213 286.637L214.937 286.55L216.28 226.967L224.34 227.01Z" fill="#FAFAFA"/>
<path d="M246.483 208.853C246.483 208.983 245.66 209.113 244.143 209.287C242.627 209.417 240.46 209.59 237.73 209.59C235 209.547 231.793 209.373 228.197 208.333C227.72 208.16 227.243 207.987 226.81 207.727C226.333 207.467 225.857 207.077 225.553 206.513C225.207 205.993 225.033 205.3 225.033 204.737C225.033 204.13 225.12 203.61 225.25 203.09C225.727 201.183 226.203 199.233 227.07 197.24C227.503 196.243 228.023 195.29 228.63 194.423C229.28 193.557 229.973 192.733 230.97 192.127C231.447 191.823 232.01 191.563 232.573 191.477C233.18 191.347 233.787 191.39 234.35 191.52C235.477 191.823 236.343 192.43 237.037 192.993C239.897 195.29 241.977 197.89 243.407 200.23C244.837 202.57 245.573 204.693 245.963 206.167C246.353 207.64 246.397 208.507 246.267 208.507C245.963 208.593 245.27 205.257 242.323 200.923C240.85 198.757 238.77 196.373 235.997 194.293C235.347 193.773 234.61 193.34 233.917 193.167C233.223 192.993 232.53 193.167 231.88 193.6C231.23 194.033 230.623 194.727 230.06 195.463C229.54 196.2 229.063 197.067 228.673 197.933C227.893 199.71 227.417 201.66 226.94 203.48C226.723 204.347 226.68 205.083 226.983 205.56C227.287 206.08 227.98 206.47 228.717 206.73C229.453 206.99 230.32 207.207 231.1 207.38C231.88 207.553 232.703 207.683 233.44 207.813C234.957 208.03 236.43 208.203 237.73 208.29C240.373 208.463 242.54 208.507 244.057 208.593C245.66 208.637 246.483 208.723 246.483 208.853Z" fill="#E0E0E0"/>
<path d="M245.487 209.33C245.487 209.2 246.353 208.94 248 208.55C249.647 208.16 252.03 207.683 254.933 206.99C257.837 206.297 261.303 205.343 264.9 203.827C265.81 203.437 266.677 203.047 267.413 202.483C267.76 202.223 268.063 201.92 268.237 201.617C268.41 201.313 268.453 201.01 268.367 200.62C268.28 200.23 268.107 199.797 267.89 199.32C267.673 198.843 267.413 198.323 267.197 197.847C266.72 196.85 266.2 195.897 265.593 194.987C264.987 194.077 264.337 193.253 263.557 192.56C262.777 191.867 261.953 191.26 261.087 190.957C260.22 190.653 259.31 190.567 258.53 190.827C257.707 191.087 256.927 191.607 256.233 192.213C253.33 194.77 251.077 197.543 249.56 200.057C248 202.57 247.133 204.823 246.613 206.383C246.093 207.943 245.877 208.897 245.747 208.853C245.66 208.853 245.617 207.9 245.92 206.21C246.267 204.52 246.96 202.137 248.477 199.407C249.95 196.677 252.16 193.73 255.15 190.913C255.93 190.22 256.84 189.527 258.01 189.137C259.18 188.747 260.523 188.79 261.693 189.223C262.3 189.44 262.82 189.7 263.34 190.047C263.817 190.393 264.337 190.74 264.77 191.13C265.68 191.91 266.46 192.863 267.11 193.903C267.76 194.9 268.323 195.94 268.8 196.98C269.06 197.5 269.277 198.02 269.493 198.497C269.71 199.017 269.97 199.58 270.1 200.273C270.23 200.967 270.1 201.747 269.753 202.397C269.407 203.047 268.93 203.48 268.453 203.827C267.5 204.52 266.503 204.953 265.55 205.343C261.78 206.817 258.227 207.64 255.237 208.203C252.247 208.767 249.82 209.027 248.13 209.2C246.44 209.417 245.487 209.417 245.487 209.33Z" fill="#FAFAFA"/>
<path d="M200.209 226.81L271.925 227.37L272.084 207.004L200.368 206.444L200.209 226.81Z" fill="#E0E0E0"/>
<path d="M226.553 227.022L291.38 227.528L291.539 207.161L226.712 206.655L226.553 227.022Z" fill="#EBEBEB"/>
<path d="M271.66 206.99L271.227 227.487L263.643 227.313L264.207 206.947L271.66 206.99Z" fill="#FAFAFA"/>
<path d="M217.97 206.687L217.233 226.967L208.913 226.923L209.39 206.513L217.97 206.687Z" fill="#FAFAFA"/>
<path d="M261.458 287.231L285.464 287.418L285.701 257.085L261.695 256.897L261.458 287.231Z" fill="#EBEBEB"/>
<path d="M276.297 257.993L275.907 287.373L272.093 287.33L272.917 257.993H276.297Z" fill="#FAFAFA"/>
<path d="M247.913 257.777L261.693 257.907L285.7 258.08L261.65 261.243L261.433 287.243L247.653 287.157L247.913 257.777Z" fill="#E0E0E0"/>
<path d="M255.41 257.863L254.847 287.2L250.773 287.157L251.423 257.82L255.41 257.863Z" fill="#FAFAFA"/>
<path d="M266.287 248.893C266.287 249.153 264.683 249.5 261.997 249.63C260.61 249.673 259.05 249.63 257.143 249.11C256.667 248.937 256.017 248.72 255.54 248.027C255.323 247.68 255.193 247.247 255.193 246.9C255.193 246.553 255.237 246.25 255.323 245.99C255.54 245.037 255.8 244.04 256.233 243C256.45 242.48 256.753 242.003 257.057 241.527C257.403 241.093 257.793 240.617 258.357 240.27C258.877 239.923 259.7 239.707 260.393 239.923C261.087 240.097 261.52 240.443 261.91 240.747C263.34 241.917 264.38 243.26 265.073 244.517C266.417 246.987 266.417 248.763 266.2 248.807C265.897 248.893 265.42 247.29 263.947 245.253C263.21 244.257 262.17 243.13 260.87 242.177C260.567 241.96 260.263 241.787 260.047 241.743C259.83 241.7 259.7 241.743 259.44 241.917C259.18 242.09 258.92 242.35 258.703 242.697C258.487 243.043 258.27 243.39 258.097 243.823C257.75 244.647 257.49 245.557 257.273 246.467C257.143 246.9 257.187 247.073 257.23 247.117C257.273 247.203 257.49 247.377 257.837 247.507C258.53 247.767 259.353 247.94 260.09 248.07C260.827 248.2 261.52 248.287 262.17 248.373C264.64 248.503 266.287 248.633 266.287 248.893Z" fill="#E0E0E0"/>
<path d="M265.81 249.11C265.767 248.85 267.587 248.373 270.403 247.593C271.833 247.203 273.48 246.727 275.213 245.947C275.647 245.773 276.037 245.557 276.34 245.34C276.47 245.253 276.557 245.123 276.6 245.08C276.643 245.037 276.643 245.037 276.6 244.907C276.557 244.733 276.297 244.127 276.037 243.65C275.82 243.173 275.56 242.74 275.3 242.307C275.04 241.873 274.737 241.527 274.39 241.223C274.043 240.92 273.697 240.66 273.35 240.53C273.003 240.4 272.7 240.4 272.397 240.487C272.093 240.573 271.747 240.79 271.443 241.05C270.057 242.263 268.93 243.563 268.15 244.733C266.59 247.117 266.243 248.937 265.94 248.893C265.81 248.893 265.723 248.417 265.853 247.55C265.94 246.683 266.287 245.47 266.98 244.083C267.673 242.697 268.757 241.18 270.273 239.75C270.663 239.403 271.183 238.97 271.877 238.753C272.57 238.493 273.35 238.537 274.043 238.797C274.39 238.927 274.693 239.057 274.953 239.273C275.213 239.447 275.473 239.663 275.733 239.88C276.21 240.313 276.643 240.833 276.99 241.353C277.337 241.873 277.597 242.437 277.857 242.913C277.987 243.173 278.073 243.433 278.203 243.693C278.333 243.953 278.463 244.3 278.55 244.69C278.637 245.123 278.55 245.643 278.333 246.077C278.117 246.467 277.813 246.727 277.553 246.943C276.99 247.333 276.47 247.55 275.993 247.723C274.087 248.46 272.31 248.807 270.793 249.023C267.717 249.413 265.853 249.37 265.81 249.11Z" fill="#FAFAFA"/>
<path d="M243.489 257.741L278.805 258.017L278.884 247.964L243.567 247.688L243.489 257.741Z" fill="#E0E0E0"/>
<path d="M256.486 257.844L288.423 258.094L288.502 248.04L256.565 247.791L256.486 257.844Z" fill="#EBEBEB"/>
<path d="M278.723 247.983L278.463 258.08L274.78 257.993L275.04 247.94L278.723 247.983Z" fill="#FAFAFA"/>
<path d="M252.247 247.853L251.9 257.82L247.827 257.777L248.043 247.767L252.247 247.853Z" fill="#FAFAFA"/>
<path d="M33.7062 287.072L68.1961 287.611L68.8763 244.065L34.3864 243.526L33.7062 287.072Z" fill="#EBEBEB"/>
<path d="M55.3833 245.21L54.43 287.417L48.97 287.33L50.4867 245.167L55.3833 245.21Z" fill="#FAFAFA"/>
<path d="M14.5633 244.603L34.3233 244.907L68.86 245.427L34.28 249.717L33.6733 287.07L13.9133 286.767L14.5633 244.603Z" fill="#E0E0E0"/>
<path d="M25.31 244.733L24.2267 286.94L18.3333 286.853L19.6333 244.647L25.31 244.733Z" fill="#FAFAFA"/>
<path d="M41.0833 232.037C41.0833 232.253 40.52 232.47 39.4367 232.687C38.3533 232.903 36.8367 233.077 34.8867 233.163C33.89 233.207 32.85 233.163 31.68 233.077C31.1167 233.033 30.51 232.947 29.86 232.86C29.21 232.73 28.6467 232.643 27.91 232.427C27.5633 232.297 27.1733 232.167 26.74 231.907C26.35 231.647 25.8733 231.3 25.57 230.78C25.2233 230.26 25.0933 229.61 25.0933 229.047C25.0933 228.527 25.18 228.05 25.2667 227.66C25.6133 226.273 25.96 224.887 26.61 223.37C26.9567 222.633 27.3467 221.897 27.8667 221.203C28.1267 220.857 28.3867 220.553 28.69 220.25C28.9933 219.947 29.3833 219.643 29.7733 219.383C30.2067 219.123 30.6833 218.907 31.2033 218.82C31.7233 218.733 32.33 218.733 32.85 218.863C33.89 219.123 34.54 219.687 35.06 220.12C37.14 221.853 38.57 223.847 39.5233 225.58C40.4767 227.357 40.91 228.917 41.0833 230.043C41.2567 231.17 41.17 231.777 40.9533 231.82C40.4767 231.95 39.7833 229.653 37.66 226.75C36.5767 225.32 35.1467 223.717 33.24 222.33C32.8067 221.983 32.3733 221.767 32.1133 221.723C31.8533 221.68 31.68 221.723 31.3333 221.94C31.16 222.07 30.9867 222.2 30.8133 222.373C30.64 222.547 30.4667 222.807 30.2933 223.023C29.9467 223.5 29.6867 224.02 29.4267 224.583C28.9067 225.753 28.56 227.053 28.2133 228.353C28.1267 228.613 28.0833 228.873 28.0833 229.003C28.0833 229.133 28.0833 229.133 28.0833 229.177C28.0833 229.263 28.3867 229.523 28.8633 229.697C29.2967 229.87 29.9033 230.043 30.4233 230.173C30.9867 230.303 31.5067 230.433 32.0267 230.52C33.0667 230.737 34.0633 230.867 34.9733 230.997C36.8367 231.213 38.3533 231.343 39.3933 231.517C40.4767 231.647 41.0833 231.82 41.0833 232.037Z" fill="#E0E0E0"/>
<path d="M40.39 232.34C40.3033 231.907 42.9033 231.213 46.9767 230.13C49.0133 229.567 51.3967 228.873 53.8667 227.79C54.4733 227.53 55.0367 227.27 55.4267 226.967C55.6 226.837 55.73 226.663 55.73 226.62C55.73 226.577 55.73 226.62 55.73 226.49C55.6867 226.36 55.6 226.1 55.47 225.797C55.2967 225.45 55.1667 225.103 54.9933 224.757C54.6467 224.063 54.3433 223.413 53.9533 222.807C53.5633 222.2 53.13 221.68 52.6533 221.247C52.4367 221.03 52.1767 220.813 51.9167 220.64C51.7 220.467 51.44 220.337 51.2233 220.25C50.7467 220.077 50.3567 220.033 49.9667 220.163C49.5767 220.25 49.1 220.553 48.6233 220.943C46.63 222.633 44.9833 224.497 43.8567 226.143C41.56 229.48 40.9967 232.123 40.52 232.037C40.3033 231.993 40.1733 231.3 40.3033 230.087C40.4333 228.83 40.91 227.053 41.9067 225.06C42.9033 223.067 44.4633 220.857 46.6733 218.777C47.28 218.257 48.0167 217.65 49.0133 217.347C50.01 217 51.2233 217.043 52.1767 217.433C52.6533 217.607 53.13 217.823 53.52 218.127C53.91 218.387 54.3 218.69 54.6467 218.993C55.34 219.643 55.9467 220.38 56.4667 221.117C56.9433 221.897 57.3767 222.677 57.7233 223.413C57.8967 223.803 58.07 224.15 58.2 224.54C58.3733 224.93 58.59 225.407 58.6767 226.013C58.8067 226.62 58.6767 227.487 58.33 228.093C57.9833 228.7 57.55 229.09 57.16 229.393C56.3367 229.957 55.5567 230.26 54.8633 230.52C52.09 231.517 49.49 232.037 47.3667 232.34C45.2 232.643 43.4667 232.73 42.2533 232.73C41.0833 232.687 40.39 232.557 40.39 232.34Z" fill="#FAFAFA"/>
<path d="M8.25582 244.473L58.9941 245.265L59.2194 230.837L8.48118 230.044L8.25582 244.473Z" fill="#E0E0E0"/>
<path d="M26.9049 244.757L72.747 245.473L72.9724 231.045L27.1303 230.329L26.9049 244.757Z" fill="#EBEBEB"/>
<path d="M58.9367 230.867L58.5033 245.34L53.13 245.21L53.6067 230.78L58.9367 230.867Z" fill="#FAFAFA"/>
<path d="M20.9333 230.347L20.2833 244.69L14.4333 244.603L14.8667 230.173L20.9333 230.347Z" fill="#FAFAFA"/>
<path d="M98.0233 47.9566L98.4567 49.6033L91.8267 51.2933L91.48 49.9933L94.0367 45.92C94.6433 44.9666 94.6433 44.49 94.5133 44.0566C94.34 43.3633 93.7767 43.1033 92.8233 43.32C92.0867 43.4933 91.5233 43.97 91.22 44.6633L89.4867 44.1C89.92 42.93 90.96 41.9766 92.5633 41.5866C94.5133 41.0666 96.0733 41.76 96.4633 43.32C96.68 44.1866 96.6367 45.01 95.7267 46.44L94.21 48.8666L98.0233 47.9566Z" fill="#E0E0E0"/>
<path d="M98.11 45.01C97.3733 42.1067 98.5433 40.07 100.71 39.5066C102.877 38.9433 104.87 40.2 105.607 43.06C106.343 45.9633 105.173 48 103.007 48.5633C100.883 49.1267 98.89 47.9133 98.11 45.01ZM103.57 43.6233C103.05 41.63 102.14 40.98 101.143 41.24C100.147 41.5 99.67 42.4966 100.147 44.49C100.667 46.4833 101.577 47.1333 102.573 46.8733C103.613 46.6133 104.09 45.6166 103.57 43.6233Z" fill="#E0E0E0"/>
<path d="M106.127 40.7633C105.78 39.3333 106.3 38.1633 107.47 37.9033C108.64 37.6 109.68 38.3367 110.07 39.7667C110.46 41.1967 109.853 42.3667 108.727 42.6267C107.513 42.93 106.473 42.1933 106.127 40.7633ZM109.463 39.8967C109.16 38.77 108.467 38.2067 107.643 38.4233C106.82 38.64 106.473 39.4633 106.777 40.59C107.08 41.7167 107.773 42.28 108.597 42.0633C109.377 41.8467 109.723 41.0667 109.463 39.8967ZM112.8 36.6033L113.537 36.43L109.81 46.7L109.073 46.8733L112.8 36.6033ZM112.54 43.5367C112.193 42.1067 112.757 40.9367 113.883 40.6767C115.053 40.3733 116.093 41.11 116.483 42.54C116.83 43.97 116.31 45.14 115.14 45.4C113.97 45.7033 112.93 44.9233 112.54 43.5367ZM115.877 42.67C115.573 41.5433 114.88 40.98 114.057 41.1967C113.233 41.4133 112.887 42.2367 113.19 43.3633C113.493 44.49 114.187 45.0533 115.01 44.8367C115.79 44.62 116.137 43.7967 115.877 42.67Z" fill="#E0E0E0"/>
<path d="M87.6667 118.417C87.71 120.193 86.3667 121.883 83.3333 121.927C81.86 121.97 80.3 121.58 79.26 120.843L80.17 118.937C80.9933 119.543 82.12 119.847 83.2033 119.847C84.4167 119.847 85.1967 119.327 85.1533 118.46C85.1533 117.637 84.5467 117.16 83.16 117.203H82.0333V115.6L84.1567 113.087L79.65 113.173L79.6067 111.223L87.0167 111.093L87.06 112.697L84.72 115.47C86.67 115.687 87.6233 116.857 87.6667 118.417Z" fill="#E0E0E0"/>
<path d="M88.75 116.337C88.7067 112.827 90.6134 110.833 93.2134 110.79C95.8134 110.747 97.8067 112.697 97.85 116.207C97.8934 119.717 96.03 121.71 93.3867 121.753C90.7867 121.797 88.8367 119.847 88.75 116.337ZM95.38 116.207C95.3367 113.78 94.47 112.827 93.2567 112.827C92.0434 112.827 91.22 113.867 91.2634 116.25C91.3067 118.677 92.1734 119.63 93.3867 119.63C94.6 119.63 95.4234 118.633 95.38 116.207Z" fill="#E0E0E0"/>
<path d="M99.0633 113.65C99.02 111.917 99.9733 110.747 101.403 110.747C102.833 110.703 103.83 111.83 103.83 113.563C103.83 115.297 102.877 116.467 101.49 116.467C100.06 116.51 99.0633 115.383 99.0633 113.65ZM103.093 113.607C103.05 112.22 102.4 111.44 101.403 111.44C100.407 111.44 99.8 112.307 99.8 113.65C99.8433 114.993 100.493 115.817 101.49 115.817C102.487 115.817 103.093 114.95 103.093 113.607ZM107.817 110.703H108.727L101.663 121.45H100.753L107.817 110.703ZM105.65 118.547C105.607 116.813 106.603 115.643 107.99 115.643C109.42 115.6 110.417 116.77 110.417 118.46C110.46 120.193 109.507 121.363 108.077 121.363C106.69 121.407 105.65 120.28 105.65 118.547ZM109.68 118.46C109.637 117.117 108.987 116.293 107.99 116.293C106.993 116.293 106.387 117.16 106.387 118.503C106.43 119.89 107.08 120.67 108.077 120.67C109.073 120.67 109.68 119.847 109.68 118.46Z" fill="#E0E0E0"/>
<path d="M44.7233 11.9466C44.5067 13.29 43.3367 14.33 41.17 13.9833C40.13 13.81 39.0467 13.3766 38.3967 12.7266L39.3067 11.47C39.8267 11.99 40.5633 12.38 41.3867 12.51C42.2533 12.64 42.86 12.3366 42.99 11.73C43.0767 11.1233 42.73 10.69 41.3433 10.4733L39.3933 10.17L40.4333 5.92331L45.1133 6.61664L44.8967 8.04664L41.69 7.56998L41.3 8.99998L41.9067 9.08664C44.2033 9.43331 44.94 10.6033 44.7233 11.9466Z" fill="#F5F5F5"/>
<path d="M45.6767 10.6466C46.0667 8.13331 47.67 6.91998 49.5767 7.17998C51.4834 7.48331 52.6534 9.12998 52.2634 11.6433C51.8734 14.1566 50.27 15.37 48.3634 15.11C46.4567 14.8066 45.2867 13.16 45.6767 10.6466ZM50.4434 11.34C50.7034 9.60665 50.2267 8.78331 49.3167 8.65331C48.45 8.52331 47.7133 9.12998 47.4533 10.8633C47.1933 12.5966 47.67 13.42 48.58 13.55C49.4467 13.7233 50.1834 13.1166 50.4434 11.34Z" fill="#F5F5F5"/>
<path d="M53.39 9.95332C53.5633 8.69666 54.3867 8.00332 55.4267 8.13332C56.4233 8.30666 57.03 9.21666 56.8133 10.4733C56.64 11.73 55.7733 12.4233 54.7767 12.2933C53.78 12.1633 53.2167 11.21 53.39 9.95332ZM60.0633 8.91332L60.7133 8.99999L54.3 15.8467L53.65 15.76L60.0633 8.91332ZM56.2933 10.43C56.4667 9.43332 56.0767 8.78332 55.34 8.65332C54.6033 8.52332 54.0833 9.08666 53.91 10.04C53.78 11.0367 54.1267 11.6867 54.8633 11.8167C55.6 11.9033 56.1633 11.3833 56.2933 10.43ZM57.5067 14.2867C57.68 13.03 58.5467 12.3367 59.5433 12.4667C60.5833 12.64 61.1467 13.55 60.93 14.8067C60.7567 16.0633 59.9333 16.7567 58.8933 16.6267C57.94 16.4533 57.3333 15.5433 57.5067 14.2867ZM60.4533 14.72C60.5833 13.7233 60.2367 13.0733 59.5 12.9433C58.8067 12.8567 58.2433 13.3333 58.07 14.33C57.8967 15.3267 58.2867 15.9767 59.0233 16.1067C59.7167 16.2367 60.28 15.7167 60.4533 14.72Z" fill="#F5F5F5"/>
<path d="M126.927 1.11332L125.323 7.87332L123.763 7.52665L125.063 2.02332L123.72 1.71999L124.023 0.463318L126.927 1.11332Z" fill="#F5F5F5"/>
<path d="M127.273 4.79665C127.793 2.54331 129.353 1.58998 131 1.97998C132.69 2.36998 133.6 3.92998 133.08 6.18331C132.56 8.43665 131.043 9.38998 129.353 8.99998C127.707 8.56665 126.753 7.00665 127.273 4.79665ZM131.52 5.74998C131.867 4.18998 131.477 3.45331 130.697 3.27998C129.917 3.10665 129.223 3.62665 128.877 5.14331C128.53 6.70331 128.92 7.43998 129.7 7.61331C130.48 7.82998 131.173 7.30998 131.52 5.74998Z" fill="#F5F5F5"/>
<path d="M140.317 4.27664L140.88 4.40664L134.683 10.0833L134.12 9.95331L140.317 4.27664ZM134.25 4.70997C134.51 3.62664 135.29 3.01998 136.2 3.23664C137.11 3.45331 137.543 4.31997 137.283 5.44664C137.023 6.57331 136.243 7.13664 135.333 6.91998C134.467 6.70331 133.99 5.83664 134.25 4.70997ZM136.85 5.31664C137.067 4.44997 136.763 3.79998 136.113 3.66998C135.463 3.53998 134.943 3.97331 134.727 4.83998C134.51 5.70664 134.813 6.35664 135.463 6.48664C136.113 6.61664 136.633 6.22664 136.85 5.31664ZM137.673 8.91331C137.933 7.82997 138.713 7.22331 139.623 7.43998C140.533 7.65664 140.967 8.52331 140.707 9.64997C140.447 10.7333 139.667 11.34 138.757 11.1233C137.847 10.8633 137.413 9.99664 137.673 8.91331ZM140.23 9.47664C140.447 8.60997 140.143 7.95997 139.493 7.82997C138.843 7.69997 138.323 8.08997 138.107 8.99997C137.89 9.86664 138.193 10.5166 138.843 10.6466C139.493 10.82 140.057 10.3866 140.23 9.47664Z" fill="#F5F5F5"/>
<path d="M59.0667 199.753C47.93 188.357 30.51 183.59 15.1267 187.707C28.4733 196.677 43.51 201.443 59.5867 201.573" fill="#FF5922"/>
<path d="M44.16 147.017C45.98 134.06 40.9533 119.5 31.29 110.097C30.9433 122.923 36.36 137.353 44.16 147.017Z" fill="#FF5922"/>
<path d="M51.9167 171.457C45.0267 158.24 33.6733 147.407 20.1533 141.123C24.1833 156.03 36.9667 168.207 52.0033 171.587" fill="#FF5922"/>
<path d="M53.52 176.18C45.72 176.397 37.79 176.137 30.25 174.143C22.71 172.15 15.43 168.293 10.4033 162.313C25.6133 162.313 40.78 166.95 53.39 175.443" fill="#FF5922"/>
<path d="M49.5333 160.623C53.52 145.76 60.0633 135.447 71.72 127.127C72.5867 134.363 70.81 141.903 66.78 147.97C62.7933 154.08 56.5533 158.63 49.5333 160.623Z" fill="#FF5922"/>
<path d="M79.0433 186.277C79.26 177.653 73.67 169.16 65.6533 165.867C66.3467 173.58 72.37 182.463 79.0433 186.277Z" fill="#FF5922"/>
<path d="M82.8133 173.753C83.68 161.317 92.52 149.833 104.307 145.76C101.577 158.197 94.3833 168.553 82.8133 173.753Z" fill="#FF5922"/>
<path d="M77.18 195.983C79.9533 192.04 84.4167 189.57 89.0967 188.357C93.7333 187.143 98.63 187.013 103.44 186.927C96.94 194.077 87.19 198.107 77.57 197.717" fill="#FF5922"/>
<path d="M71.59 227.703C80.2567 225.017 89.92 225.71 98.11 229.61C106.3 233.51 112.973 240.53 116.397 248.937C100.103 245.86 84.07 238.623 71.59 227.703Z" fill="#FF5922"/>
<path d="M53.6933 216.697C56.38 224.713 55.86 234.377 49.88 241.267C47.4533 233.033 48.8833 223.76 53.6933 216.697Z" fill="#FF5922"/>
<path d="M43.1634 212.233C42.4267 222.503 35.84 232.167 26.5667 236.63C26.09 236.847 25.57 237.063 25.0933 236.89C24.3567 236.587 24.3133 235.59 24.4 234.81C25.5267 224.583 33.11 214.66 43.1634 212.233Z" fill="#FF5922"/>
<path d="M36.23 211.193C31.6367 216.133 25.0067 219.08 18.2467 219.123C11.53 219.167 4.81333 216.307 0.176666 211.41C11.66 210.153 24.8767 209.287 36.23 211.193Z" fill="#FF5922"/>
<path d="M34.54 119.63C34.54 119.63 34.5833 119.76 34.6267 119.977C34.7133 120.193 34.8433 120.54 34.9733 120.93C35.2767 121.797 35.7533 123.053 36.36 124.657C36.9667 126.26 37.7033 128.253 38.5267 130.55C38.96 131.72 39.3933 132.933 39.87 134.233C40.3033 135.533 40.78 136.92 41.3 138.393C43.3367 144.2 45.59 151.133 48.0167 158.89C50.4 166.647 52.9133 175.227 55.3833 184.283C57.81 193.34 59.9767 202.007 61.7967 209.937C63.5733 217.867 65.1333 225.017 66.2167 231.04C66.52 232.557 66.78 233.987 67.04 235.33C67.2567 236.673 67.4733 237.973 67.69 239.187C68.1233 241.613 68.47 243.65 68.6867 245.383C68.9467 247.073 69.1633 248.373 69.2933 249.283C69.38 249.717 69.4233 250.063 69.4667 250.28C69.51 250.497 69.51 250.627 69.5533 250.627C69.5533 250.627 69.5533 250.497 69.51 250.28C69.4667 250.02 69.4233 249.673 69.38 249.24C69.25 248.33 69.0767 246.987 68.86 245.297C68.6433 243.607 68.2967 241.527 67.9067 239.1C67.7333 237.887 67.5167 236.587 67.3 235.243C67.04 233.9 66.78 232.427 66.52 230.91C65.4367 224.843 63.9633 217.693 62.1867 209.763C60.3667 201.833 58.2433 193.167 55.7733 184.11C53.3033 175.053 50.79 166.473 48.3633 158.717C45.8933 150.96 43.64 144.027 41.56 138.22C41.04 136.79 40.5633 135.403 40.0867 134.103C39.61 132.803 39.1333 131.59 38.7433 130.42C37.8767 128.123 37.1833 126.173 36.5333 124.57C35.9267 123.01 35.4067 121.753 35.06 120.887C34.8867 120.497 34.7567 120.15 34.67 119.933C34.5833 119.76 34.54 119.63 34.54 119.63Z" fill="#3F3F40"/>
<path d="M97.46 152.39C97.46 152.39 97.3733 152.433 97.2433 152.563C97.1133 152.693 96.94 152.91 96.68 153.127C96.2033 153.647 95.51 154.383 94.6433 155.423C92.91 157.417 90.4833 160.407 87.8833 164.437C85.3267 168.423 82.6833 173.493 80.82 179.517C78.9133 185.54 77.7433 192.343 76.5733 199.493C74.2333 213.793 71.3733 226.577 69.3367 235.807C68.2967 240.4 67.43 244.127 66.8667 246.77C66.5633 248.027 66.3467 249.023 66.2167 249.76C66.13 250.063 66.0867 250.323 66.0433 250.54C66 250.713 66 250.8 66 250.8C66 250.8 66.0433 250.713 66.0867 250.54C66.13 250.323 66.2167 250.107 66.3033 249.76C66.4767 249.067 66.7367 248.07 67.04 246.813C67.6467 244.213 68.5567 240.487 69.64 235.893C71.8067 226.663 74.71 213.88 77.0067 199.58C78.1767 192.43 79.3467 185.627 81.21 179.647C83.03 173.667 85.5867 168.597 88.1433 164.61C90.6567 160.623 93.0833 157.59 94.7733 155.553C95.5967 154.513 96.29 153.733 96.7667 153.213C96.9833 152.953 97.1567 152.78 97.2867 152.607C97.4167 152.477 97.46 152.39 97.46 152.39Z" fill="#3F3F40"/>
<path d="M32.85 210.717C32.85 210.717 32.98 210.76 33.2833 210.803C33.5867 210.847 33.9767 210.89 34.4533 210.933C34.7133 210.977 35.0167 210.977 35.32 211.02C35.6233 211.063 35.97 211.107 36.3167 211.193C37.0533 211.28 37.8767 211.41 38.7867 211.627C39.22 211.713 39.6967 211.8 40.2167 211.93C40.6933 212.06 41.2133 212.19 41.7333 212.32C42.7733 212.58 43.9 212.927 45.07 213.317C47.3667 214.14 49.8367 215.18 52.3067 216.523C54.7767 217.91 56.9433 219.47 58.8067 221.03C59.7167 221.853 60.5833 222.633 61.32 223.413C62.1 224.193 62.7067 224.973 63.3133 225.71C63.92 226.403 64.3533 227.14 64.7867 227.703C65.22 228.31 65.5233 228.83 65.7833 229.307C66.0433 229.697 66.2167 230.043 66.39 230.347C66.52 230.563 66.6067 230.693 66.65 230.693C66.65 230.693 66.6067 230.563 66.4767 230.303C66.3467 230 66.1733 229.653 65.9567 229.22C65.74 228.743 65.4367 228.18 65.0033 227.573C64.57 226.967 64.18 226.23 63.5733 225.493C63.01 224.757 62.4033 223.933 61.6233 223.153C60.8867 222.33 60.02 221.55 59.11 220.683C57.2467 219.08 55.0367 217.477 52.5667 216.09C50.0533 214.747 47.54 213.707 45.2433 212.883C44.0733 212.537 42.9467 212.147 41.8633 211.93C41.3433 211.8 40.8233 211.67 40.3033 211.583C39.8267 211.497 39.3067 211.41 38.8733 211.323C37.9633 211.15 37.14 211.063 36.4033 210.977C36.0567 210.933 35.71 210.89 35.3633 210.847C35.06 210.847 34.7567 210.803 34.4967 210.803C34.02 210.803 33.63 210.76 33.2833 210.76C32.98 210.717 32.85 210.717 32.85 210.717Z" fill="#3F3F40"/>
<path d="M29.5567 152.693C29.5567 152.737 29.8167 152.997 30.38 153.473C30.9867 153.993 31.81 154.687 32.72 155.51C34.7133 157.243 37.53 159.583 40.6067 162.14C43.6833 164.697 46.5 166.993 48.58 168.683C49.5767 169.463 50.4 170.113 51.0067 170.633C51.57 171.067 51.9167 171.327 51.96 171.283C51.96 171.24 51.7 170.98 51.1367 170.503C50.53 169.983 49.7067 169.29 48.7967 168.467C46.8033 166.733 43.9867 164.393 40.91 161.837C37.8333 159.28 35.0167 156.983 32.9367 155.337C31.94 154.557 31.1167 153.907 30.51 153.387C29.9033 152.91 29.6 152.65 29.5567 152.693Z" fill="#3F3F40"/>
<path d="M26.74 167.817C26.6967 167.947 32.72 169.81 40.1733 172.02C47.6267 174.23 53.6933 175.92 53.7367 175.79C53.78 175.66 47.7567 173.797 40.3033 171.587C32.85 169.42 26.7833 167.73 26.74 167.817Z" fill="#3F3F40"/>
<path d="M48.97 161.793C49.0133 161.793 49.23 161.49 49.5767 160.927C50.01 160.277 50.53 159.453 51.18 158.5C52.5233 156.463 54.43 153.69 56.6833 150.743C58.9367 147.797 61.1033 145.197 62.7066 143.377C63.4433 142.51 64.0933 141.773 64.6133 141.21C65.0467 140.69 65.3067 140.387 65.2633 140.387C65.22 140.387 64.96 140.603 64.4833 141.08C64.0067 141.557 63.3133 142.25 62.49 143.16C60.8433 144.937 58.59 147.493 56.3366 150.483C54.0833 153.43 52.1767 156.247 50.92 158.327C50.27 159.367 49.7933 160.233 49.4467 160.84C49.1 161.447 48.9267 161.793 48.97 161.793Z" fill="#3F3F40"/>
<path d="M69.8566 170.2C69.8133 170.243 70.3766 171.11 71.2866 172.54C72.1966 173.97 73.41 175.92 74.6666 178.13C75.9233 180.34 77.0066 182.42 77.7433 183.893C78.48 185.367 78.9566 186.32 79 186.277C79.0433 186.233 78.6966 185.28 78.0033 183.763C77.31 182.247 76.27 180.167 75.0133 177.913C73.7566 175.703 72.4566 173.753 71.5033 172.367C70.55 170.98 69.9 170.157 69.8566 170.2Z" fill="#3F3F40"/>
<path d="M77.0066 196.417C77.05 196.46 78.1766 195.897 80.0833 195.073C81.9466 194.207 84.59 193.123 87.5366 192.083C90.4833 191.043 93.2566 190.263 95.25 189.787C97.2433 189.267 98.5 189.007 98.5 188.92C98.5 188.877 98.1966 188.92 97.59 189.007C97.0266 189.093 96.2033 189.267 95.2066 189.483C93.17 189.917 90.3966 190.653 87.45 191.693C84.46 192.733 81.86 193.903 79.9967 194.813C79.0867 195.29 78.35 195.68 77.83 195.94C77.2667 196.2 76.9633 196.373 77.0066 196.417Z" fill="#3F3F40"/>
<path d="M71.3733 227.747C71.3733 227.747 71.5033 227.79 71.7633 227.877C72.0667 227.963 72.4133 228.05 72.8467 228.137C73.8433 228.353 75.23 228.7 76.8333 229.047C80.2133 229.827 84.8933 230.823 89.8767 232.513C94.86 234.203 99.15 236.37 102.053 238.233C103.527 239.143 104.653 239.967 105.39 240.573C106.17 241.18 106.56 241.483 106.603 241.483C106.603 241.483 106.517 241.353 106.343 241.18C106.17 241.007 105.867 240.747 105.52 240.443C104.783 239.793 103.657 238.927 102.227 237.973C99.3233 236.023 95.0333 233.813 90.0067 232.08C84.98 230.39 80.2567 229.437 76.8767 228.743C75.23 228.44 73.8867 228.137 72.8467 227.963C71.8933 227.79 71.3733 227.703 71.3733 227.747Z" fill="#3F3F40"/>
<path d="M51.0067 235.46C51.1367 235.46 51.83 231.257 52.61 226.057C53.39 220.813 53.91 216.61 53.78 216.567C53.65 216.567 52.9567 220.77 52.1767 225.97C51.44 231.213 50.92 235.46 51.0067 235.46Z" fill="#3F3F40"/>
<path d="M29.86 227.79C29.9033 227.833 30.64 226.967 31.7667 225.537C32.8933 224.107 34.4967 222.157 36.2733 220.033C38.05 217.91 39.74 216.003 40.9533 214.617C42.1667 213.23 42.9033 212.407 42.86 212.363C42.8167 212.363 42.6433 212.537 42.2533 212.883C41.8633 213.23 41.3433 213.75 40.7367 214.443C39.48 215.787 37.7467 217.65 35.97 219.773C34.1933 221.897 32.6333 223.933 31.55 225.407C30.9867 226.143 30.5967 226.75 30.2933 227.183C29.9467 227.53 29.8167 227.747 29.86 227.79Z" fill="#3F3F40"/>
<path d="M85.89 247.42V257.907H83.29L73.9733 287.243H53.3467L44.3333 258.167L40.8233 257.907V247.42H85.89Z" fill="#455A64"/>
<path d="M42.6 258.167C42.6 258.297 51.7 258.383 62.9233 258.383C74.1467 258.383 83.2467 258.297 83.2467 258.167C83.2467 258.037 74.1467 257.95 62.9233 257.95C51.7 257.95 42.6 258.08 42.6 258.167Z" fill="#3F3F40"/>
<path d="M27.7367 190.87C27.7367 190.913 28.2133 191.043 29.08 191.217C29.99 191.433 31.2467 191.737 32.72 192.083C35.7533 192.82 39.9567 193.99 44.5067 195.507C49.0567 197.023 53.0867 198.67 55.99 199.883C57.3767 200.49 58.5467 201.01 59.4133 201.357C60.2367 201.703 60.67 201.877 60.67 201.877C60.67 201.833 60.2367 201.617 59.4567 201.227C58.6767 200.837 57.5067 200.273 56.0767 199.623C53.2167 198.323 49.1867 196.633 44.6367 195.117C40.0867 193.6 35.84 192.473 32.7633 191.78C31.2467 191.433 29.99 191.173 29.1233 191.043C28.2567 190.913 27.7367 190.827 27.7367 190.87Z" fill="#3F3F40"/>
<path d="M49.4467 274.503C49.4467 274.633 55.8167 274.72 63.7033 274.72C71.59 274.72 77.96 274.633 77.96 274.503C77.96 274.373 71.59 274.287 63.7033 274.287C55.8167 274.287 49.4467 274.373 49.4467 274.503Z" fill="#FAFAFA"/>
<path d="M48.6233 272.077C48.6233 272.207 55.3833 272.293 63.7467 272.293C72.11 272.293 78.87 272.207 78.87 272.077C78.87 271.947 72.11 271.86 63.7467 271.86C55.4267 271.86 48.6233 271.947 48.6233 272.077Z" fill="#FAFAFA"/>
<path d="M224.947 210.76L227.763 209.113L229.28 206.253L230.883 209.07L233.787 210.543L230.97 212.147L229.453 215.05L227.85 212.233L224.947 210.76Z" fill="white"/>
<path d="M209.737 206.253L210.733 205.69L211.253 204.693L211.817 205.69L212.813 206.21L211.817 206.773L211.297 207.77L210.733 206.773L209.737 206.253Z" fill="white"/>
<path d="M219.443 226.187L221.35 225.06L222.39 223.11L223.473 225.017L225.423 226.057L223.517 227.14L222.52 229.09L221.393 227.183L219.443 226.187Z" fill="white"/>
<path d="M299.437 287.243C299.437 287.287 232.617 287.373 150.153 287.373C67.69 287.373 0.869995 287.33 0.869995 287.243C0.869995 287.157 67.69 287.113 150.153 287.113C232.573 287.113 299.437 287.2 299.437 287.243Z" fill="#3F3F40"/>
<path d="M111.63 274.157C111.63 274.157 84.6333 281.653 83.55 282C81.9033 282.563 82.2067 288.543 84.72 288.457C85.9333 288.413 105.477 289.193 107.947 289.02C110.417 288.847 117.047 286.247 117.047 286.247L111.63 274.157Z" fill="#455A64"/>
<path d="M100.363 284.427C100.233 284.427 100.06 282.997 99.1933 281.523C98.3267 280.007 97.2 279.14 97.2867 279.053C97.33 278.967 98.6733 279.703 99.5833 281.307C100.493 282.91 100.493 284.47 100.363 284.427Z" fill="#3F3F40"/>
<path d="M103.18 283.17C103.05 283.213 102.79 281.913 102.053 280.527C101.36 279.097 100.493 278.143 100.58 278.057C100.667 277.97 101.707 278.837 102.443 280.353C103.223 281.783 103.31 283.17 103.18 283.17Z" fill="#3F3F40"/>
<path d="M105.823 282.477C105.693 282.477 105.78 281.133 105.173 279.617C104.61 278.1 103.613 277.19 103.7 277.103C103.743 277.017 104.957 277.84 105.607 279.443C106.257 281.047 105.953 282.52 105.823 282.477Z" fill="#3F3F40"/>
<path d="M105.347 278.967C105.303 278.967 105.043 278.23 105.043 276.973C105.043 276.323 105.13 275.587 105.303 274.763C105.39 274.373 105.52 273.94 105.693 273.507C105.78 273.29 105.867 273.03 106.127 272.857C106.387 272.64 106.82 272.683 107.037 272.9C107.297 273.117 107.383 273.42 107.383 273.68C107.427 273.94 107.427 274.157 107.427 274.373C107.427 274.85 107.34 275.283 107.253 275.717C107.037 276.54 106.733 277.233 106.43 277.797C105.78 278.88 105.26 279.443 105.217 279.443C105.173 279.4 105.607 278.75 106.127 277.667C106.387 277.103 106.69 276.453 106.82 275.673C106.907 275.283 106.95 274.85 106.95 274.46C106.95 274.027 106.95 273.507 106.69 273.333C106.56 273.247 106.43 273.203 106.343 273.29C106.213 273.377 106.127 273.55 106.04 273.767C105.867 274.157 105.737 274.59 105.65 274.98C105.433 275.76 105.347 276.497 105.303 277.103C105.303 278.187 105.433 278.967 105.347 278.967Z" fill="#3F3F40"/>
<path d="M105.39 278.707C105.39 278.663 106.04 278.447 107.123 278.447C107.687 278.447 108.337 278.49 109.03 278.663C109.377 278.75 109.767 278.837 110.113 279.053C110.503 279.227 110.85 279.747 110.72 280.267C110.59 280.787 110.157 281.133 109.767 281.22C109.333 281.35 108.9 281.307 108.553 281.22C107.817 281.047 107.253 280.7 106.82 280.353C105.953 279.66 105.52 279.14 105.563 279.097C105.607 279.053 106.127 279.487 106.993 280.05C107.427 280.353 107.99 280.657 108.64 280.787C108.987 280.83 109.333 280.873 109.637 280.787C109.94 280.7 110.2 280.44 110.287 280.137C110.373 279.833 110.2 279.573 109.897 279.4C109.593 279.227 109.247 279.097 108.9 279.01C108.25 278.837 107.6 278.75 107.08 278.707C106.083 278.663 105.39 278.75 105.39 278.707Z" fill="#3F3F40"/>
<path d="M96.2467 284.73C96.1167 284.73 96.2467 283.56 95.7267 282.303C95.2067 281.047 94.34 280.31 94.3833 280.18C94.4267 280.05 95.5533 280.7 96.1167 282.13C96.68 283.517 96.3333 284.773 96.2467 284.73Z" fill="#3F3F40"/>
<path d="M115.053 285.987C115.053 286.03 114.707 286.203 114.013 286.463C113.32 286.723 112.323 287.113 111.023 287.373C108.423 288.023 104.74 288.413 100.71 288.37C96.68 288.327 92.9967 288.153 90.3534 288.023C89.0967 287.937 88.0567 287.893 87.2334 287.85C86.4967 287.807 86.1067 287.763 86.1067 287.72C86.1067 287.677 86.4967 287.677 87.2767 287.677C88.1 287.677 89.14 287.677 90.3967 287.72C93.1267 287.763 96.7234 287.85 100.71 287.937C104.74 287.98 108.38 287.677 110.937 287.113C113.537 286.55 115.053 285.9 115.053 285.987Z" fill="#3F3F40"/>
<path d="M115.877 286.593C115.833 286.637 115.097 286.203 113.84 285.683C112.627 285.163 110.763 284.513 108.727 284.817C106.69 285.12 105.26 286.507 104.307 287.46C103.353 288.457 102.79 289.107 102.747 289.063C102.703 289.02 103.18 288.327 104.09 287.243C104.567 286.723 105.13 286.117 105.867 285.553C106.603 284.99 107.6 284.557 108.64 284.383C110.807 284.037 112.757 284.773 113.97 285.38C115.227 286.03 115.92 286.55 115.877 286.593Z" fill="#3F3F40"/>
<path d="M88.7934 287.763C88.75 287.72 88.9667 287.373 89.1834 286.723C89.4 286.117 89.5734 285.163 89.4 284.167C89.2267 283.17 88.75 282.39 88.3167 281.87C87.8834 281.35 87.5367 281.09 87.58 281.047C87.58 281.003 88.0133 281.177 88.49 281.697C88.9667 282.173 89.5734 283.04 89.7467 284.123C89.9634 285.207 89.7034 286.203 89.4434 286.81C89.14 287.46 88.7934 287.807 88.7934 287.763Z" fill="#3F3F40"/>
<path d="M139.797 274.937C139.797 274.937 167.487 279.14 168.613 279.4C170.303 279.79 170.737 285.727 168.223 285.943C167.01 286.03 147.727 289.15 145.257 289.28C142.787 289.41 135.03 287.373 135.03 287.373L139.797 274.937Z" fill="#455A64"/>
<path d="M152.19 283.82C152.32 283.82 152.32 282.39 153.013 280.787C153.663 279.183 154.703 278.187 154.617 278.1C154.573 278.013 153.317 278.923 152.58 280.613C151.887 282.347 152.103 283.863 152.19 283.82Z" fill="#3F3F40"/>
<path d="M149.243 282.91C149.373 282.91 149.503 281.61 150.023 280.137C150.543 278.663 151.28 277.58 151.193 277.493C151.107 277.407 150.153 278.403 149.59 280.007C149.07 281.523 149.157 282.91 149.243 282.91Z" fill="#3F3F40"/>
<path d="M146.557 282.52C146.687 282.477 146.427 281.177 146.86 279.617C147.25 278.057 148.117 277.017 148.03 276.93C147.943 276.843 146.86 277.797 146.427 279.487C145.95 281.177 146.47 282.563 146.557 282.52Z" fill="#3F3F40"/>
<path d="M146.6 279.01C146.643 279.01 146.817 278.23 146.643 276.973C146.557 276.367 146.383 275.587 146.123 274.807C145.993 274.417 145.777 274.027 145.56 273.593C145.43 273.377 145.3 273.16 145.04 272.987C144.78 272.813 144.303 272.9 144.13 273.16C143.913 273.42 143.87 273.723 143.87 273.94C143.87 274.2 143.87 274.417 143.913 274.633C143.957 275.11 144.087 275.543 144.217 275.933C144.52 276.713 144.91 277.363 145.3 277.883C146.037 278.88 146.643 279.4 146.687 279.357C146.73 279.313 146.21 278.75 145.56 277.71C145.213 277.19 144.867 276.54 144.607 275.803C144.477 275.413 144.39 275.023 144.347 274.59C144.303 274.157 144.26 273.68 144.477 273.42C144.607 273.29 144.693 273.29 144.823 273.333C144.953 273.42 145.083 273.593 145.17 273.767C145.387 274.157 145.56 274.547 145.733 274.893C146.037 275.63 146.21 276.323 146.34 276.93C146.557 278.23 146.557 279.01 146.6 279.01Z" fill="#3F3F40"/>
<path d="M146.557 278.707C146.557 278.663 145.907 278.49 144.78 278.62C144.217 278.663 143.567 278.837 142.917 279.097C142.57 279.227 142.223 279.357 141.877 279.617C141.53 279.833 141.227 280.397 141.4 280.917C141.573 281.393 142.05 281.697 142.483 281.74C142.917 281.827 143.35 281.697 143.697 281.61C144.433 281.35 144.953 280.917 145.343 280.527C146.123 279.747 146.47 279.183 146.427 279.14C146.383 279.097 145.907 279.573 145.127 280.267C144.737 280.613 144.217 280.96 143.567 281.177C143.263 281.263 142.917 281.35 142.57 281.263C142.223 281.22 141.963 281.003 141.833 280.7C141.703 280.397 141.877 280.093 142.137 279.92C142.397 279.703 142.743 279.573 143.047 279.443C143.697 279.183 144.303 279.01 144.823 278.923C145.863 278.75 146.557 278.793 146.557 278.707Z" fill="#3F3F40"/>
<path d="M156.35 283.647C156.48 283.603 156.22 282.477 156.61 281.177C156.957 279.833 157.78 279.01 157.65 278.923C157.607 278.837 156.567 279.573 156.133 281.047C155.743 282.477 156.263 283.69 156.35 283.647Z" fill="#3F3F40"/>
<path d="M137.803 287.113C137.803 287.157 138.193 287.287 138.887 287.46C139.623 287.633 140.663 287.893 141.963 288.023C144.607 288.37 148.29 288.283 152.32 287.763C156.35 287.243 159.947 286.637 162.547 286.203C163.803 285.987 164.8 285.813 165.623 285.683C166.36 285.553 166.75 285.467 166.75 285.423C166.75 285.38 166.317 285.423 165.58 285.51C164.757 285.597 163.717 285.727 162.46 285.9C159.73 286.29 156.177 286.767 152.233 287.33C148.247 287.85 144.607 287.98 141.963 287.72C139.407 287.503 137.803 287.027 137.803 287.113Z" fill="#3F3F40"/>
<path d="M137.067 287.807C137.11 287.85 137.803 287.33 138.973 286.637C140.143 285.943 141.877 285.12 143.957 285.207C145.993 285.293 147.597 286.463 148.637 287.287C149.677 288.153 150.327 288.717 150.37 288.673C150.413 288.63 149.85 287.98 148.853 287.027C148.333 286.55 147.683 286.03 146.86 285.597C146.037 285.12 145.04 284.773 143.957 284.773C141.747 284.687 139.927 285.64 138.8 286.42C137.673 287.157 137.067 287.763 137.067 287.807Z" fill="#3F3F40"/>
<path d="M225.987 161.1C225.77 160.58 225.163 160.32 225.163 160.32L225.813 158.977C225.813 158.977 225.77 158.197 225.423 157.633C225.12 157.07 223.95 157.113 223.95 157.113L224.123 156.723C224.383 156.203 224.297 155.553 223.993 155.077C223.95 154.99 223.907 154.947 223.82 154.86C223.343 154.297 222.39 154.123 222.39 154.123C222.39 154.123 223.04 152.867 222.737 152.347C222.347 151.653 221.003 150.917 219.963 151.263C218.88 151.61 216.54 152.78 214.937 153.647C214.287 153.993 213.507 153.69 213.247 153.04C212.77 151.74 211.903 149.79 210.777 148.447C209.563 146.973 208.437 147.103 207.743 147.363C207.44 147.493 207.31 147.883 207.483 148.143C208.003 148.967 209 150.657 209.26 151.35C209.563 152.173 209.91 158.587 209.91 158.587L208.177 161.923L190.54 189.787C190.54 189.787 163.933 171.847 164.02 171.413L162.763 191.997L182.827 205.3C186.293 207.597 190.627 208.247 194.657 207.077C198.643 205.907 201.893 203.003 203.583 199.19L217.103 169.897L218.75 167.513L225.12 163.44C225.163 163.44 226.203 161.62 225.987 161.1Z" fill="#FFBE9D"/>
<path d="M223.083 154.21C223.083 154.21 223.04 154.253 222.953 154.34C222.867 154.427 222.737 154.513 222.563 154.643C222.217 154.903 221.74 155.293 221.133 155.727C220.527 156.203 219.79 156.723 219.01 157.33C218.62 157.633 218.187 157.98 217.71 158.24C217.233 158.543 216.627 158.717 216.02 158.457C215.717 158.327 215.5 158.067 215.413 157.807C215.283 157.547 215.24 157.243 215.283 156.94C215.327 156.377 215.63 155.857 215.977 155.51C216.323 155.12 216.713 154.817 217.017 154.557C217.363 154.253 217.667 153.993 217.97 153.777C218.533 153.3 219.01 152.91 219.357 152.65C219.53 152.52 219.66 152.433 219.747 152.347C219.833 152.26 219.877 152.26 219.877 152.26C219.877 152.26 219.833 152.303 219.747 152.39C219.66 152.477 219.53 152.607 219.4 152.737C219.053 153.04 218.62 153.43 218.057 153.907C217.753 154.167 217.45 154.427 217.103 154.73C216.757 155.033 216.41 155.337 216.063 155.683C215.76 156.073 215.457 156.507 215.457 157.027C215.413 157.547 215.63 158.153 216.15 158.37C216.41 158.5 216.67 158.5 216.93 158.457C217.19 158.413 217.45 158.283 217.667 158.153C218.143 157.893 218.533 157.547 218.923 157.243C219.747 156.637 220.44 156.117 221.047 155.64C221.653 155.207 222.13 154.86 222.52 154.557C222.693 154.427 222.823 154.34 222.91 154.253C222.997 154.253 223.04 154.21 223.083 154.21Z" fill="#EB996E"/>
<path d="M224.47 157.2C224.47 157.2 224.383 157.287 224.167 157.46C223.95 157.59 223.69 157.807 223.343 158.067C222.607 158.587 221.61 159.237 220.44 159.93C220.137 160.103 219.877 160.277 219.573 160.407C219.27 160.537 218.967 160.623 218.663 160.58C218.057 160.493 217.58 160.06 217.45 159.627C217.32 159.193 217.407 158.803 217.537 158.587C217.58 158.457 217.667 158.413 217.71 158.327C217.753 158.283 217.797 158.24 217.797 158.24C217.797 158.24 217.71 158.37 217.623 158.587C217.537 158.803 217.45 159.15 217.58 159.583C217.71 159.973 218.143 160.363 218.663 160.45C218.923 160.493 219.227 160.407 219.53 160.277C219.79 160.147 220.093 159.973 220.397 159.8C221.567 159.107 222.563 158.457 223.3 157.98C223.647 157.763 223.95 157.547 224.167 157.417C224.34 157.287 224.47 157.2 224.47 157.2Z" fill="#EB996E"/>
<path d="M225.293 160.147C225.293 160.147 225.207 160.233 224.99 160.32C224.773 160.45 224.47 160.58 224.123 160.753C223.387 161.1 222.39 161.62 221.263 162.14C221.003 162.27 220.7 162.4 220.44 162.487C220.137 162.573 219.833 162.617 219.573 162.573C219.313 162.53 219.053 162.357 218.923 162.097C218.793 161.88 218.793 161.62 218.837 161.403C218.923 160.97 219.183 160.71 219.357 160.58C219.53 160.45 219.66 160.363 219.66 160.363C219.66 160.363 219.573 160.45 219.4 160.623C219.27 160.797 219.01 161.057 218.967 161.447C218.923 161.62 218.967 161.837 219.053 162.053C219.14 162.227 219.357 162.4 219.617 162.443C219.877 162.487 220.137 162.443 220.397 162.357C220.657 162.27 220.917 162.14 221.22 162.01C222.347 161.49 223.343 161.013 224.123 160.667C224.47 160.493 224.773 160.363 224.99 160.277C225.163 160.19 225.293 160.147 225.293 160.147Z" fill="#EB996E"/>
<path d="M225.77 162.833C225.77 162.877 225.38 162.963 224.773 163.093C224.123 163.223 223.257 163.44 222.303 163.613C222.043 163.657 221.827 163.7 221.61 163.743C221.393 163.787 221.177 163.83 220.917 163.83C220.7 163.83 220.483 163.743 220.31 163.613C220.137 163.483 220.093 163.267 220.093 163.093C220.137 162.747 220.353 162.53 220.483 162.4C220.657 162.313 220.743 162.27 220.743 162.27C220.743 162.27 220.657 162.313 220.527 162.443C220.397 162.573 220.223 162.79 220.223 163.093C220.223 163.223 220.267 163.397 220.44 163.483C220.57 163.57 220.743 163.657 220.96 163.657C221.177 163.657 221.393 163.613 221.61 163.57C221.827 163.527 222.087 163.483 222.303 163.44C223.257 163.223 224.123 163.093 224.773 162.963C225.423 162.833 225.77 162.833 225.77 162.833Z" fill="#EB996E"/>
<path d="M218.88 161.577C218.88 161.62 218.057 161.36 217.06 161.403C216.063 161.447 215.283 161.793 215.283 161.75C215.24 161.707 216.02 161.273 217.06 161.23C218.1 161.143 218.88 161.533 218.88 161.577Z" fill="#EB996E"/>
<path d="M123.807 155.467C123.807 155.467 114.837 147.927 116.917 142.727C118.997 137.527 124.717 134.927 127.577 125.48C129.83 117.94 143.263 103.38 159.21 114.3C159.21 114.3 164.583 113.433 167.66 115.903C170.737 118.373 171.473 123.27 172.773 128.947C174.767 137.657 175.893 144.373 171.993 148.663C168.093 152.91 166.707 154.08 166.88 158.933C167.14 165.26 169.957 164.437 167.53 169.03L154.183 164.653L154.053 160.97L152.71 164.437L144.953 161.62L123.807 155.467Z" fill="#3F3F40"/>
<path d="M168.31 123.617C167.443 125.61 168.137 127.907 168.96 129.943C169.783 131.937 170.737 134.103 170.303 136.227C169.567 139.997 164.887 142.12 164.367 145.933C164.107 147.97 165.103 150.05 164.713 152.087C164.323 154.037 162.677 155.51 160.943 156.507C159.21 157.503 157.26 158.153 155.657 159.28C155.657 159.28 152.06 162.227 145.863 157.373" fill="#3F3F40"/>
<path d="M142.96 118.677C141.313 118.287 139.623 119.24 139.06 120.843L126.233 163.483C124.587 168.467 130.827 173.797 136.2 175.53C141.617 177.263 142.7 174.707 144.433 170.027C147.293 162.183 148.333 159.237 148.333 159.28C148.333 159.28 155.483 160.493 159.99 152.173C162.2 148.013 164.497 140.733 166.187 134.71C167.703 129.293 166.447 121.537 160.943 120.28L142.96 118.677Z" fill="#FFBE9D"/>
<path d="M161.593 139.13C161.42 139.737 160.727 140.083 160.12 139.91C159.47 139.737 159.123 139.087 159.297 138.48C159.47 137.873 160.163 137.527 160.77 137.7C161.42 137.873 161.767 138.523 161.593 139.13Z" fill="#3F3F40"/>
<path d="M163.37 137.613C163.197 137.7 162.547 136.79 161.333 136.357C160.12 135.923 158.993 136.227 158.907 136.053C158.863 135.967 159.08 135.75 159.6 135.62C160.077 135.49 160.813 135.403 161.593 135.707C162.373 135.967 162.893 136.487 163.153 136.877C163.413 137.223 163.457 137.57 163.37 137.613Z" fill="#3F3F40"/>
<path d="M149.46 135.273C149.287 135.88 148.593 136.227 147.987 136.053C147.337 135.88 146.99 135.23 147.163 134.623C147.337 134.017 148.03 133.67 148.637 133.843C149.287 134.017 149.677 134.667 149.46 135.273Z" fill="#3F3F40"/>
<path d="M151.193 133.93C151.02 134.017 150.37 133.107 149.157 132.673C147.943 132.24 146.817 132.543 146.73 132.37C146.687 132.283 146.903 132.067 147.423 131.937C147.9 131.807 148.637 131.72 149.417 132.023C150.197 132.283 150.717 132.803 150.977 133.193C151.237 133.583 151.28 133.887 151.193 133.93Z" fill="#3F3F40"/>
<path d="M152.45 144.547C152.45 144.46 153.273 144.59 154.573 144.893C154.877 144.98 155.223 145.023 155.353 144.807C155.527 144.59 155.483 144.243 155.483 143.81C155.44 142.943 155.44 142.077 155.397 141.123C155.31 137.31 155.31 134.19 155.483 134.19C155.657 134.19 155.83 137.267 155.96 141.123C155.96 142.077 156.003 142.943 156.003 143.81C156.003 144.2 156.047 144.677 155.743 145.11C155.57 145.327 155.31 145.413 155.093 145.37C154.877 145.37 154.703 145.283 154.53 145.24C153.23 144.85 152.45 144.59 152.45 144.547Z" fill="#3F3F40"/>
<path d="M148.29 159.28C148.29 159.28 142.223 157.59 137.543 152C137.543 152 138.41 159.107 147.553 161.36L148.29 159.28Z" fill="#EB996E"/>
<path d="M150.933 147.277C150.717 146.54 150.023 145.977 149.243 145.76C148.68 145.63 148.073 145.717 147.597 146.02C147.12 146.323 146.86 146.93 146.99 147.45C147.163 148.013 147.813 148.36 148.463 148.403C149.113 148.447 149.72 148.23 150.327 148.013C150.5 147.97 150.673 147.883 150.803 147.753C150.933 147.623 151.02 147.45 150.977 147.32" fill="#EB996E"/>
<path d="M152.103 130.463C151.93 130.767 150.673 130.377 149.157 130.29C147.64 130.16 146.34 130.377 146.21 130.03C146.167 129.857 146.427 129.597 146.99 129.337C147.553 129.077 148.377 128.903 149.287 128.99C150.197 129.077 150.977 129.38 151.497 129.683C151.93 129.987 152.19 130.29 152.103 130.463Z" fill="#3F3F40"/>
<path d="M165.103 133.54C164.757 133.757 163.803 133.15 162.59 132.803C161.377 132.413 160.25 132.37 160.077 131.98C159.99 131.807 160.25 131.59 160.77 131.417C161.29 131.287 162.113 131.287 162.937 131.547C163.76 131.807 164.453 132.283 164.8 132.673C165.19 133.107 165.277 133.453 165.103 133.54Z" fill="#3F3F40"/>
<path d="M128.01 146.627C130.437 138.567 132.82 130.507 135.247 122.447C135.723 120.8 136.33 119.023 137.673 117.983C138.973 116.987 140.707 116.9 142.353 116.857C149.373 116.727 156.437 117.42 163.327 118.937C163.673 120.583 162.243 122.143 160.64 122.663C159.037 123.183 157.347 123.01 155.657 123.01C153.967 123.01 152.147 123.313 151.02 124.57C149.807 125.87 149.677 127.907 148.55 129.293C146.6 131.633 142.483 131.157 140.533 133.54C139.06 135.317 139.45 137.96 138.973 140.213C138.41 142.77 138.41 142.77 136.417 146.54C135.203 148.88 138.28 153.3 135.203 159.02L129.223 157.33L131.867 148.447L128.313 156.767L128.01 146.627Z" fill="#3F3F40"/>
<path d="M148.853 144.373C148.983 144.46 148.897 144.763 148.897 145.24C148.897 145.717 148.94 146.323 149.243 146.887C149.547 147.45 150.023 147.883 150.413 148.143C150.803 148.403 151.107 148.533 151.107 148.663C151.107 148.793 150.76 148.923 150.153 148.793C149.59 148.663 148.81 148.23 148.377 147.363C147.943 146.497 147.987 145.63 148.203 145.067C148.42 144.547 148.723 144.33 148.853 144.373Z" fill="#3F3F40"/>
<path d="M147.033 124.96C147.033 124.96 146.903 125.047 146.687 125.133C146.47 125.22 146.123 125.393 145.733 125.653C144.91 126.13 143.827 126.953 142.787 128.297C141.747 129.597 140.75 131.417 140.447 133.627C140.273 134.71 140.317 135.88 140.49 137.093C140.62 138.307 140.793 139.563 140.707 140.907C140.663 141.557 140.533 142.207 140.273 142.813C140.057 143.42 139.71 143.983 139.407 144.503C138.757 145.543 138.193 146.583 138.063 147.667C137.89 148.75 138.02 149.833 138.15 150.787C138.28 151.783 138.453 152.693 138.54 153.56C138.67 155.25 138.41 156.68 137.933 157.547C137.717 157.98 137.457 158.24 137.283 158.457C137.11 158.63 136.98 158.717 136.98 158.717C136.937 158.673 137.37 158.37 137.803 157.503C138.237 156.68 138.453 155.293 138.28 153.603C138.193 152.78 138.02 151.87 137.847 150.873C137.717 149.877 137.587 148.793 137.717 147.667C137.977 145.283 140.273 143.55 140.317 140.907C140.403 139.65 140.23 138.393 140.1 137.18C139.97 135.967 139.927 134.753 140.1 133.627C140.447 131.373 141.487 129.51 142.57 128.167C143.653 126.823 144.823 126 145.647 125.567C146.08 125.35 146.383 125.177 146.643 125.09C146.947 124.96 147.033 124.917 147.033 124.96Z" fill="#3F3F40"/>
<path d="M176.023 161.317C176.023 161.317 175.98 161.36 175.937 161.403C175.85 161.447 175.763 161.533 175.59 161.62C175.287 161.793 174.81 162.053 174.117 162.227C173.467 162.4 172.6 162.487 171.603 162.313C170.65 162.14 169.523 161.707 168.613 160.84C167.703 159.973 167.01 158.717 166.837 157.243C166.75 156.507 166.75 155.727 166.967 154.99C167.183 154.21 167.53 153.517 168.05 152.823C169.003 151.48 170.347 150.397 171.603 149.183C172.253 148.577 172.86 147.927 173.38 147.19C173.9 146.453 174.29 145.63 174.593 144.763C175.2 143.03 175.33 141.167 175.287 139.433C175.243 137.7 175.027 136.01 174.767 134.407C174.247 131.2 173.423 128.383 172.6 126.087C171.777 123.79 170.953 121.97 170.347 120.757C170.043 120.15 169.783 119.673 169.61 119.37C169.437 119.067 169.35 118.893 169.393 118.893C169.393 118.893 169.523 119.067 169.697 119.37C169.87 119.673 170.13 120.15 170.477 120.757C171.127 121.97 171.993 123.747 172.86 126.087C173.727 128.383 174.55 131.2 175.113 134.407C175.373 136.01 175.59 137.7 175.677 139.477C175.72 141.253 175.59 143.117 174.983 144.937C174.68 145.847 174.247 146.67 173.727 147.45C173.207 148.23 172.557 148.88 171.907 149.487C170.607 150.7 169.307 151.783 168.353 153.083C167.877 153.733 167.53 154.427 167.313 155.163C167.097 155.9 167.053 156.637 167.14 157.33C167.313 158.717 167.963 159.973 168.83 160.797C169.697 161.663 170.737 162.097 171.69 162.27C172.643 162.443 173.467 162.4 174.16 162.227C175.417 161.793 176.023 161.273 176.023 161.317Z" fill="#3F3F40"/>
<path d="M121.033 152.563C120.99 152.52 121.9 152.477 123.113 151.523C124.283 150.613 125.583 148.663 125.887 145.977C126.06 144.633 126.017 143.16 126.017 141.557C126.017 139.953 125.973 138.22 126.407 136.443C126.623 135.577 126.97 134.667 127.447 133.843C127.967 133.02 128.617 132.283 129.483 131.763C131.217 130.68 133.383 130.723 135.29 130.073C136.243 129.77 137.067 129.163 137.76 128.47C138.453 127.733 138.973 126.91 139.493 126.087C140.533 124.44 141.53 122.75 143.09 121.753C143.87 121.233 144.737 120.973 145.603 120.843C146.47 120.713 147.293 120.713 148.117 120.713C149.72 120.757 151.193 120.887 152.537 120.67C155.223 120.323 157.173 119.197 158.387 118.33C158.993 117.897 159.427 117.507 159.73 117.247C159.86 117.117 159.99 117.03 160.077 116.943C160.163 116.857 160.207 116.857 160.207 116.857C160.207 116.857 159.687 117.55 158.473 118.46C157.26 119.37 155.267 120.54 152.58 120.93C151.237 121.147 149.72 121.06 148.117 121.017C146.557 120.973 144.78 121.06 143.307 122.013C141.833 122.967 140.837 124.657 139.797 126.303C139.277 127.127 138.713 127.993 138.02 128.73C137.327 129.467 136.417 130.117 135.42 130.42C133.427 131.113 131.303 131.07 129.657 132.067C128.01 133.063 127.143 134.84 126.71 136.53C126.277 138.263 126.277 139.953 126.277 141.557C126.277 143.16 126.32 144.633 126.103 146.02C125.757 148.75 124.413 150.743 123.2 151.653C122.593 152.13 122.03 152.347 121.64 152.477C121.467 152.563 121.293 152.563 121.207 152.563C121.077 152.563 121.033 152.563 121.033 152.563Z" fill="#455A64"/>
<path d="M127.49 125.74C127.49 125.697 127.923 125.957 128.747 126.087C129.57 126.217 130.87 126.13 132.257 125.523C133.643 124.917 135.03 123.703 136.417 122.23C137.11 121.493 137.847 120.713 138.713 120.02C139.537 119.283 140.533 118.59 141.617 118.157C142.743 117.723 143.913 117.55 145.04 117.55C146.167 117.55 147.25 117.637 148.247 117.723C149.243 117.81 150.197 117.94 151.107 117.94C152.017 117.94 152.84 117.897 153.577 117.723C155.093 117.463 156.177 116.857 156.827 116.293C157.477 115.73 157.693 115.297 157.737 115.34C157.737 115.34 157.693 115.47 157.563 115.643C157.52 115.73 157.433 115.86 157.303 115.99C157.217 116.12 157.087 116.25 156.913 116.423C156.307 117.03 155.137 117.68 153.62 117.983C152.84 118.157 152.017 118.243 151.107 118.243C150.197 118.243 149.243 118.157 148.203 118.07C147.207 117.983 146.123 117.897 145.04 117.897C143.957 117.94 142.83 118.07 141.747 118.503C139.623 119.37 138.063 121.103 136.633 122.49C135.203 123.92 133.773 125.177 132.343 125.783C130.913 126.39 129.57 126.433 128.747 126.26C128.313 126.173 128.01 126.043 127.793 125.957C127.577 125.827 127.49 125.74 127.49 125.74Z" fill="#455A64"/>
<path d="M174.29 143.897C174.247 143.897 174.507 143.463 174.593 142.683C174.68 141.86 174.463 140.647 173.683 139.433C172.947 138.177 171.56 137.05 170.13 135.663C169.437 134.97 168.743 134.147 168.267 133.193C167.79 132.197 167.53 131.07 167.487 129.943C167.357 127.647 167.747 125.48 167.66 123.573C167.66 121.623 167.183 119.89 166.23 118.763C165.32 117.593 164.193 117.073 163.37 116.943C162.547 116.813 162.113 116.943 162.113 116.9C162.113 116.9 162.243 116.857 162.46 116.813C162.677 116.77 163.023 116.77 163.413 116.813C164.237 116.9 165.45 117.42 166.403 118.633C167.4 119.803 167.92 121.623 167.963 123.617C168.05 125.61 167.66 127.733 167.79 129.987C167.877 131.113 168.093 132.197 168.57 133.107C169.003 134.06 169.697 134.84 170.39 135.533C171.777 136.92 173.163 138.047 173.943 139.39C174.723 140.69 174.94 141.947 174.81 142.813C174.767 143.247 174.637 143.55 174.55 143.723C174.377 143.81 174.29 143.897 174.29 143.897Z" fill="#455A64"/>
<path d="M117.047 147.753C117.047 147.753 116.917 147.667 116.613 147.537C116.353 147.363 116.007 147.103 115.617 146.627C114.837 145.76 114.057 144.027 114.36 141.903C114.447 141.383 114.62 140.82 114.923 140.343C115.227 139.823 115.617 139.347 116.05 138.913C117.003 138.047 118.173 137.44 119.43 136.833C120.643 136.227 121.987 135.577 123.027 134.537C124.067 133.497 124.673 132.023 125.063 130.507C125.453 128.99 125.713 127.43 126.233 126C126.71 124.57 127.36 123.227 128.097 122.057C129.57 119.673 131.347 117.853 133.037 116.597C134.683 115.297 136.243 114.517 137.327 114.083C137.847 113.823 138.28 113.693 138.583 113.607C138.887 113.52 139.017 113.477 139.017 113.477C139.017 113.52 138.41 113.693 137.37 114.213C136.33 114.69 134.813 115.513 133.167 116.813C131.52 118.113 129.787 119.89 128.357 122.23C127.663 123.4 127.013 124.7 126.537 126.13C126.06 127.56 125.8 129.077 125.367 130.637C124.977 132.197 124.37 133.713 123.243 134.797C122.16 135.88 120.773 136.53 119.56 137.137C118.303 137.743 117.133 138.35 116.267 139.13C115.833 139.52 115.443 139.997 115.183 140.473C114.923 140.95 114.75 141.47 114.62 141.99C114.447 142.987 114.533 143.94 114.793 144.72C115.01 145.5 115.4 146.107 115.747 146.583C116.44 147.45 117.09 147.71 117.047 147.753Z" fill="#3F3F40"/>
<path d="M176.11 144.503C176.067 144.46 176.37 144.2 176.803 143.593C177.237 142.987 177.713 142.033 177.93 140.733C178.19 139.433 178.19 137.83 177.757 136.183C177.367 134.493 176.5 132.76 175.46 131.027C174.377 129.293 173.25 127.777 172.297 126.303C171.343 124.83 170.52 123.443 170 122.23C169.48 121.017 169.177 119.933 169.047 119.197C169.003 118.807 168.96 118.547 168.96 118.33C168.96 118.113 168.96 118.027 168.96 118.027C169.003 118.027 169.047 118.417 169.177 119.153C169.35 119.89 169.653 120.887 170.217 122.1C170.78 123.313 171.56 124.657 172.557 126.13C173.553 127.603 174.68 129.12 175.763 130.853C176.847 132.587 177.67 134.363 178.103 136.097C178.493 137.83 178.493 139.477 178.19 140.777C177.887 142.077 177.367 143.073 176.933 143.68C176.717 143.983 176.5 144.2 176.37 144.33C176.197 144.417 176.11 144.503 176.11 144.503Z" fill="#3F3F40"/>
<path d="M108.943 234.637L103.613 243.867C103.613 243.867 77.2233 234.203 61.7533 237.02C55.86 238.103 49.5767 251.407 58.1567 259.987C66.52 268.35 81.4267 280.137 109.463 283.95C110.157 284.037 121.64 286.507 120.947 286.42C120.253 286.333 137.023 288.977 137.023 288.977L140.967 274.07L172.253 278.967C190.713 277.71 199.727 257.993 188.633 251.623C178.277 245.687 158.777 245.21 158.777 245.21L151.713 234.117L108.943 234.637Z" fill="#3F3F40"/>
<path d="M137.673 289.583C137.76 289.063 137.977 287.72 138.453 284.947C138.713 283.473 139.017 281.653 139.407 279.573C139.623 278.533 139.84 277.407 140.1 276.237C140.23 275.673 140.36 275.067 140.533 274.46C140.62 274.157 140.707 273.853 140.837 273.55C140.967 273.247 141.053 272.943 141.313 272.64L141.357 272.857C134.683 270.473 126.363 267.353 117.48 263.627C112.02 261.287 106.863 258.947 102.357 256.52C100.103 255.307 97.98 254.05 96.16 252.663C94.2967 251.32 92.6933 249.933 91.1333 248.763C88.1 246.38 85.3267 244.82 83.2467 244.127C82.7267 243.953 82.25 243.823 81.86 243.737C81.47 243.607 81.1233 243.563 80.82 243.52C80.56 243.477 80.3433 243.433 80.17 243.39C80.04 243.347 79.9533 243.347 79.9533 243.347C79.9533 243.347 80.04 243.347 80.17 243.347C80.3433 243.347 80.56 243.39 80.82 243.433C81.1233 243.477 81.47 243.52 81.86 243.607C82.25 243.693 82.7267 243.78 83.2467 243.997C84.2867 244.3 85.5 244.863 86.8867 245.6C88.23 246.337 89.7033 247.377 91.22 248.547C92.78 249.717 94.4267 251.06 96.2467 252.403C98.0667 253.79 100.19 255.003 102.443 256.217C106.95 258.643 112.107 260.983 117.567 263.28C126.45 267.007 134.77 270.17 141.4 272.553L141.573 272.64L141.443 272.813C141.27 273.03 141.14 273.333 141.053 273.637C140.923 273.94 140.837 274.243 140.75 274.547C140.577 275.153 140.447 275.76 140.273 276.323C140.013 277.493 139.753 278.577 139.58 279.617C139.147 281.697 138.843 283.517 138.583 284.99C138.323 286.463 138.107 287.59 137.933 288.413C137.847 288.803 137.803 289.107 137.76 289.323C137.717 289.497 137.673 289.583 137.673 289.583Z" fill="#455A64"/>
<path d="M182.567 253.53C182.567 253.53 182.523 253.53 182.393 253.53C182.263 253.53 182.09 253.487 181.917 253.443C181.483 253.4 180.877 253.227 180.053 253.14C178.407 252.88 176.023 252.75 173.12 252.88C170.173 253.01 166.707 253.573 162.937 254.57C161.073 255.09 159.123 255.653 157.087 256.347C155.093 257.04 153.057 257.82 150.977 258.687C148.897 259.553 146.773 260.203 144.737 260.767C142.7 261.33 140.707 261.763 138.757 262.153C134.943 262.89 131.433 263.367 128.53 263.713C125.583 264.06 123.243 264.32 121.597 264.493C120.817 264.58 120.167 264.623 119.69 264.667C119.473 264.667 119.343 264.71 119.213 264.71C119.083 264.71 119.04 264.71 119.04 264.71C119.04 264.71 119.083 264.71 119.213 264.667C119.343 264.667 119.517 264.623 119.69 264.58C120.167 264.537 120.773 264.45 121.553 264.32C123.2 264.103 125.583 263.8 128.487 263.453C131.39 263.063 134.9 262.587 138.713 261.807C140.62 261.417 142.613 260.983 144.65 260.42C146.687 259.857 148.767 259.207 150.847 258.383C152.927 257.56 154.963 256.737 157 256.043C158.993 255.35 160.987 254.787 162.85 254.267C166.62 253.313 170.13 252.75 173.077 252.663C176.023 252.533 178.407 252.75 180.053 253.01C180.877 253.097 181.483 253.27 181.917 253.357C182.133 253.4 182.263 253.443 182.393 253.487C182.523 253.487 182.61 253.53 182.567 253.53Z" fill="#455A64"/>
<path d="M134.38 248.157C134.38 248.373 132.993 248.72 130.653 248.937C128.313 249.153 125.063 249.197 121.467 248.807C117.87 248.417 114.707 247.68 112.453 246.987C110.2 246.293 108.9 245.643 108.943 245.427C109.073 244.95 114.62 246.423 121.597 247.16C128.573 247.94 134.337 247.637 134.38 248.157Z" fill="#3F3F40"/>
<path d="M159.123 245.513C159.123 245.557 158.777 245.643 158.083 245.773C157.737 245.86 157.347 245.947 156.87 246.077C156.393 246.207 155.873 246.337 155.31 246.553C154.14 246.9 152.797 247.463 151.323 248.157C149.85 248.85 148.29 249.673 146.687 250.627C143.48 252.577 140.75 254.613 138.843 256.13C137.89 256.91 137.11 257.517 136.59 257.95C136.07 258.383 135.767 258.643 135.767 258.6C135.767 258.6 136.027 258.297 136.503 257.863C137.023 257.387 137.76 256.737 138.713 255.957C140.577 254.353 143.307 252.273 146.513 250.323C148.117 249.37 149.72 248.547 151.193 247.853C152.71 247.203 154.053 246.64 155.267 246.337C155.873 246.163 156.393 246.033 156.87 245.903C157.347 245.773 157.737 245.687 158.083 245.643C158.733 245.557 159.123 245.513 159.123 245.513Z" fill="#455A64"/>
<path d="M129.743 258.687C129.743 258.73 129.007 258.557 127.88 258.167C126.753 257.777 125.237 257.083 123.633 256.26C122.073 255.437 120.687 254.7 119.517 254.093C118.477 253.53 117.827 253.227 117.827 253.183C117.827 253.14 118.52 253.4 119.603 253.877C120.687 254.353 122.16 255.133 123.763 255.957C125.367 256.78 126.84 257.473 127.923 257.95C129.093 258.383 129.787 258.643 129.743 258.687Z" fill="#455A64"/>
<path d="M132.603 235.763C132.647 235.763 132.56 236.717 132.473 238.277C132.387 239.837 132.3 242.003 132.343 244.387C132.387 246.77 132.56 248.937 132.733 250.453C132.907 252.013 133.037 252.967 132.95 252.967C132.907 252.967 132.863 252.75 132.777 252.317C132.69 251.883 132.603 251.277 132.473 250.497C132.257 248.937 132.04 246.77 131.997 244.387C131.953 242.003 132.083 239.837 132.257 238.277C132.343 237.497 132.43 236.847 132.473 236.413C132.56 235.98 132.603 235.763 132.603 235.763Z" fill="#455A64"/>
<path d="M135.55 236.717C135.55 236.76 135.42 236.803 135.29 237.02C135.117 237.193 134.943 237.54 134.857 237.973C134.813 238.407 134.9 238.97 135.247 239.403C135.637 239.837 136.33 239.967 136.937 239.707C137.543 239.49 138.02 238.927 138.02 238.363C138.02 237.8 137.717 237.323 137.413 237.02C137.067 236.717 136.72 236.587 136.46 236.587C136.2 236.543 136.07 236.587 136.07 236.543C136.07 236.543 136.2 236.457 136.46 236.457C136.72 236.457 137.153 236.543 137.543 236.847C137.933 237.15 138.323 237.67 138.323 238.363C138.323 239.057 137.803 239.75 137.067 240.01C136.33 240.27 135.463 240.14 135.03 239.577C134.597 239.057 134.51 238.407 134.64 237.93C134.727 237.453 134.987 237.107 135.203 236.933C135.42 236.717 135.55 236.717 135.55 236.717Z" fill="#455A64"/>
<path d="M143.61 226.057C143.61 226.057 143.437 226.317 143.09 226.707C142.743 227.14 142.223 227.703 141.53 228.353C140.837 229.003 139.97 229.74 138.93 230.477C137.89 231.213 136.72 231.95 135.42 232.6C134.12 233.25 132.82 233.77 131.607 234.117C130.393 234.463 129.267 234.723 128.357 234.897C127.403 235.07 126.623 235.113 126.103 235.157C125.583 235.2 125.28 235.2 125.28 235.157C125.28 235.113 126.45 235.027 128.313 234.68C129.223 234.507 130.35 234.203 131.52 233.857C132.69 233.467 133.99 232.947 135.29 232.297C136.59 231.647 137.76 230.91 138.8 230.217C139.84 229.48 140.707 228.787 141.4 228.137C142.787 226.923 143.567 226.013 143.61 226.057Z" fill="#3F3F40"/>
<path d="M155.397 233.25C155.397 233.337 154.227 233.337 152.84 233.683C151.453 234.03 150.413 234.55 150.37 234.463C150.327 234.377 151.323 233.683 152.753 233.337C154.227 232.99 155.397 233.163 155.397 233.25Z" fill="#3F3F40"/>
<g opacity="0.3">
<path d="M128.27 234.853C133.86 233.857 139.017 230.867 142.7 226.533C143.393 228.57 142.83 230.953 141.27 232.47C142.917 233.25 144.823 232.73 146.643 232.47C148.463 232.21 150.63 232.47 151.497 234.073C143.437 234.81 135.377 235.07 127.273 234.767" fill="#3F3F40"/>
</g>
<path d="M112.193 222.2C112.15 222.287 111.327 221.16 109.42 220.38C108.467 219.99 107.253 219.73 105.867 219.773C104.523 219.817 103.007 220.163 101.62 220.9C98.8034 222.373 97.1134 224.843 95.8567 226.447C95.25 227.27 94.86 228.05 94.6 228.57C94.34 229.09 94.1667 229.35 94.1667 229.35C94.1667 229.35 94.2534 229.047 94.5134 228.483C94.7734 227.963 95.12 227.183 95.7267 226.317C96.3334 225.45 97.1134 224.497 97.98 223.413C98.89 222.373 100.103 221.333 101.533 220.597C102.963 219.817 104.523 219.47 105.91 219.47C107.297 219.427 108.553 219.73 109.55 220.163C110.547 220.553 111.24 221.117 111.63 221.507C111.847 221.723 112.02 221.897 112.107 221.983C112.15 222.113 112.193 222.157 112.193 222.2Z" fill="#3F3F40"/>
<path d="M129.137 160.147L120.08 162.053L124.63 178.953L140.62 182.377L151.583 174.62L153.057 165.303L143.653 161.75L129.137 160.147Z" fill="#FFBE9D"/>
<path d="M122.767 161.36C122.767 161.36 128.877 179.127 140.187 177.48C151.497 175.833 150.543 164.35 150.543 164.35C150.543 164.35 162.33 167.947 165.97 171.76C169.61 175.573 167.487 183.893 167.487 183.893L164.41 198.93L157.78 227.703C157.78 227.703 160.337 235.547 153.837 237.497L151.8 234.29L112.8 235.373C112.8 235.373 104.48 244.993 101.88 241.657C99.28 238.32 96.7667 231.863 96.7667 231.863L114.663 163.483L122.767 161.36Z" fill="#455A64"/>
<path d="M162.85 169.463C163.153 169.637 190.54 189.527 190.54 189.527C190.54 189.527 188.373 205.863 201.503 203.263C201.503 203.263 196.217 216.957 189.023 214.053C186.987 213.23 161.767 197.283 161.767 197.283L156.393 185.887L162.85 169.463Z" fill="#455A64"/>
<path d="M122.767 162.227C122.767 162.227 122.16 162.227 121.12 162.357C115.747 162.877 95.9867 166.95 94.1667 180.903C93.2133 188.183 92.9533 209.547 91.9133 218.473C91.9133 218.473 93.56 230.91 94.1667 233.207C95.25 237.323 115.097 230.737 115.097 230.737L115.14 191.26L122.16 162.227" fill="#455A64"/>
<path d="M110.243 198.063C110.243 198.063 110.287 198.193 110.287 198.367C110.287 198.583 110.287 198.887 110.33 199.277C110.417 200.057 110.677 201.183 111.153 202.527C111.673 203.87 112.41 205.387 113.19 207.12C113.58 207.987 113.927 208.94 114.23 209.937C114.49 210.933 114.663 212.017 114.75 213.1C114.923 215.31 114.75 217.39 114.577 219.253C114.403 221.117 114.273 222.85 114.013 224.237C113.797 225.667 113.493 226.793 113.233 227.53C113.103 227.92 113.017 228.223 112.93 228.397C112.843 228.57 112.8 228.7 112.8 228.7C112.757 228.7 112.93 228.267 113.147 227.487C113.363 226.707 113.623 225.58 113.797 224.193C114.013 222.763 114.143 221.073 114.273 219.21C114.403 217.347 114.577 215.267 114.403 213.1C114.317 212.017 114.143 210.977 113.883 209.98C113.623 208.983 113.233 208.073 112.887 207.207C112.15 205.473 111.37 203.957 110.893 202.57C110.417 201.227 110.2 200.057 110.157 199.233C110.113 198.843 110.157 198.54 110.157 198.323C110.243 198.193 110.243 198.063 110.243 198.063Z" fill="#3F3F40"/>
<path d="M111.153 193.123C111.197 193.123 111.24 194.12 111.5 195.723C111.717 197.327 112.15 199.537 112.93 201.877C113.147 202.44 113.32 203.047 113.537 203.567C113.58 203.697 113.623 203.87 113.71 203.957C113.797 204.087 113.883 204.217 113.927 204.303C114.057 204.563 114.23 204.78 114.36 205.04C114.88 205.993 115.097 206.99 115.097 207.857C115.097 208.68 114.88 209.33 114.707 209.763C114.49 210.197 114.36 210.37 114.36 210.37C114.273 210.327 114.923 209.46 114.88 207.857C114.837 207.077 114.62 206.123 114.1 205.213C113.97 204.997 113.84 204.737 113.71 204.52C113.623 204.39 113.537 204.303 113.493 204.173C113.407 204 113.363 203.913 113.32 203.74C113.103 203.177 112.887 202.613 112.67 202.05C111.89 199.667 111.457 197.457 111.327 195.81C111.24 194.987 111.197 194.337 111.197 193.903C111.11 193.34 111.11 193.123 111.153 193.123Z" fill="#3F3F40"/>
<path d="M111.977 187.187C111.933 187.187 111.63 186.363 111.023 185.107C110.46 183.85 109.507 182.117 108.293 180.383C107.037 178.65 105.737 177.22 104.697 176.267C103.7 175.313 103.007 174.75 103.05 174.707C103.05 174.707 103.267 174.793 103.57 175.053C103.873 175.27 104.35 175.66 104.87 176.093C105.953 177.047 107.297 178.433 108.553 180.21C109.81 181.987 110.72 183.72 111.24 185.063C111.5 185.713 111.717 186.277 111.803 186.623C111.933 186.97 111.977 187.187 111.977 187.187Z" fill="#3F3F40"/>
<path d="M168.007 175.573C168.05 175.573 168.007 176.18 167.877 177.133C167.747 178.087 167.617 179.43 167.443 180.903C167.27 182.377 167.183 183.72 167.097 184.673C167.01 185.627 166.967 186.233 166.923 186.233C166.88 186.233 166.837 185.627 166.88 184.673C166.923 183.72 166.967 182.377 167.14 180.903C167.313 179.43 167.487 178.087 167.66 177.133C167.833 176.18 167.963 175.573 168.007 175.573Z" fill="#3F3F40"/>
<path d="M173.64 192.213C173.64 192.257 172.773 192.343 171.473 192.733C170.173 193.08 168.397 193.903 166.923 195.42C166.187 196.157 165.623 197.023 165.19 197.803C164.757 198.583 164.41 199.363 164.193 200.013C164.063 200.317 163.977 200.62 163.89 200.88C163.803 201.14 163.76 201.357 163.673 201.573C163.543 201.963 163.5 202.137 163.457 202.137C163.413 202.137 163.457 201.92 163.543 201.53C163.587 201.313 163.63 201.097 163.717 200.837C163.803 200.577 163.89 200.273 163.977 199.927C164.193 199.277 164.497 198.497 164.93 197.673C165.363 196.85 165.97 195.983 166.707 195.203C168.223 193.643 170.087 192.863 171.43 192.517C171.777 192.43 172.08 192.387 172.34 192.343C172.6 192.3 172.86 192.257 173.033 192.257C173.423 192.17 173.64 192.17 173.64 192.213Z" fill="#3F3F40"/>
<path d="M191.753 210.197C191.753 210.197 191.58 209.937 191.32 209.46C191.19 209.243 191.017 208.94 190.887 208.593C190.713 208.247 190.54 207.857 190.367 207.38C189.977 206.47 189.63 205.387 189.327 204.13C189.023 202.873 188.807 201.487 188.677 199.97C188.59 198.497 188.633 197.067 188.763 195.767C188.893 194.467 189.11 193.34 189.37 192.387C189.457 191.91 189.63 191.477 189.717 191.13C189.803 190.74 189.933 190.437 190.063 190.177C190.28 189.657 190.367 189.397 190.41 189.397C190.453 189.44 190.02 190.523 189.63 192.43C189.413 193.383 189.24 194.51 189.11 195.767C189.023 197.023 188.98 198.453 189.067 199.927C189.153 201.4 189.413 202.787 189.673 204.043C189.977 205.3 190.28 206.383 190.627 207.293C191.233 209.113 191.84 210.153 191.753 210.197Z" fill="#3F3F40"/>
<path d="M184.647 205.343C184.603 205.343 184.517 205.083 184.387 204.65C184.257 204.217 184.083 203.523 183.997 202.7C183.78 201.01 183.823 198.627 184.603 196.113C185.383 193.6 186.727 191.607 187.897 190.393C188.503 189.787 189.153 189.44 189.673 189.44C189.933 189.44 190.107 189.483 190.237 189.527C190.367 189.57 190.41 189.613 190.41 189.657C190.41 189.7 190.15 189.527 189.717 189.57C189.283 189.613 188.677 189.96 188.113 190.567C187.03 191.823 185.73 193.773 184.95 196.2C184.17 198.627 184.083 200.967 184.257 202.657C184.387 204.303 184.733 205.343 184.647 205.343Z" fill="#3F3F40"/>
<path d="M140.187 202.137C140.23 202.137 140.143 202.397 140.013 202.917C139.97 203.177 139.883 203.48 139.753 203.783C139.623 204.13 139.493 204.52 139.32 204.91C138.973 205.733 138.497 206.687 137.847 207.727C137.197 208.723 136.373 209.763 135.42 210.76C134.467 211.757 133.427 212.58 132.43 213.273C131.433 213.923 130.48 214.443 129.657 214.833C129.267 215.05 128.877 215.18 128.53 215.31C128.183 215.44 127.88 215.527 127.663 215.613C127.187 215.743 126.927 215.83 126.883 215.787C126.883 215.7 127.923 215.44 129.57 214.66C130.393 214.27 131.303 213.75 132.257 213.057C133.21 212.363 134.207 211.54 135.16 210.587C136.113 209.59 136.893 208.593 137.543 207.597C138.193 206.6 138.713 205.69 139.06 204.867C139.84 203.177 140.1 202.093 140.187 202.137Z" fill="#3F3F40"/>
<g opacity="0.3">
<path d="M117.783 208.507C116.527 203.957 115.313 199.45 114.057 194.9C113.883 194.25 113.58 193.47 112.887 193.34C112.237 193.21 111.673 193.817 111.543 194.467C111.413 195.117 111.457 195.81 111.5 196.46C111.803 199.407 112.02 201.443 113.407 203.697C116.093 208.16 114.317 210.327 114.317 210.327C114.533 215.743 114.057 223.153 112.367 228.743L113.97 235.46C115.487 230.477 118.953 226.273 119.517 221.073C120.037 216.87 118.91 212.623 117.783 208.507Z" fill="#3F3F40"/>
</g>
<g opacity="0.3">
<path d="M164.41 198.973C168.83 201.27 172.773 204.477 177.107 206.903C175.417 203.393 172.6 199.883 169.177 198.02C168.267 197.5 167.227 197.067 166.187 197.24C165.147 197.37 164.41 197.977 164.54 199.017" fill="#3F3F40"/>
</g>
<g opacity="0.3">
<path d="M189.803 189.223C188.287 189.18 187.16 190.567 186.423 191.867C184.343 195.593 183.477 199.97 183.997 204.217C184.083 204.997 184.387 205.907 185.123 206.037C185.687 206.123 186.207 205.733 186.467 205.257C186.727 204.737 186.727 204.173 186.727 203.61C186.727 201.01 186.553 198.41 186.9 195.853C187.29 193.297 188.243 190.697 190.15 188.963" fill="#3F3F40"/>
</g>
<path d="M121.38 194.077C121.38 194.077 121.423 194.077 121.553 194.077C121.683 194.077 121.813 194.077 121.987 194.033C122.42 193.99 122.983 193.99 123.72 193.947C125.28 193.86 127.49 193.773 130.35 193.643C136.07 193.383 144.173 193.037 153.793 192.647H153.967V192.82C154.14 200.707 154.4 209.807 154.617 219.383C154.617 219.687 154.617 220.033 154.66 220.337V220.51H154.487C143.87 220.64 133.947 221.507 125.583 222.677H125.453L125.41 222.547C123.113 214.097 122.29 206.817 121.987 201.747C121.813 199.19 121.813 197.197 121.813 195.853C121.813 195.16 121.813 194.64 121.813 194.293C121.813 194.12 121.813 193.99 121.813 193.903C121.813 193.817 121.813 193.773 121.813 193.773C121.813 193.773 121.813 193.817 121.813 193.903C121.813 193.99 121.813 194.12 121.813 194.293C121.813 194.64 121.813 195.16 121.857 195.853C121.9 197.197 121.943 199.233 122.117 201.747C122.463 206.817 123.33 214.053 125.67 222.503L125.497 222.417C133.86 221.247 143.783 220.337 154.4 220.207L154.227 220.38C154.227 220.077 154.227 219.73 154.183 219.427C153.967 209.807 153.75 200.75 153.577 192.863L153.75 192.993C144.087 193.34 135.983 193.643 130.307 193.86C127.49 193.947 125.237 194.033 123.677 194.077C122.94 194.077 122.333 194.12 121.943 194.12C121.77 194.12 121.597 194.12 121.51 194.12C121.423 194.12 121.38 194.12 121.38 194.077Z" fill="white"/>
<path d="M129.917 213.707C129.83 213.707 129.007 209.33 128.097 203.957C127.187 198.54 126.537 194.163 126.623 194.12C126.71 194.12 127.533 198.453 128.443 203.87C129.353 209.287 130.003 213.707 129.917 213.707Z" fill="white"/>
<path d="M130.87 222.027C130.783 222.027 130.437 220.467 130.133 218.517C129.83 216.567 129.657 214.963 129.743 214.92C129.83 214.92 130.177 216.48 130.48 218.43C130.783 220.423 130.957 222.027 130.87 222.027Z" fill="white"/>
<path d="M136.46 209.373C136.417 209.373 136.373 209.157 136.287 208.767C136.2 208.377 136.07 207.813 135.94 207.12C135.68 205.69 135.377 203.74 135.16 201.53C134.943 199.363 134.857 197.37 134.857 195.897C134.857 195.16 134.857 194.597 134.857 194.207C134.857 193.817 134.9 193.6 134.9 193.6C134.943 193.6 134.987 194.51 135.073 195.94C135.16 197.37 135.29 199.363 135.507 201.53C135.723 203.697 135.983 205.69 136.2 207.077C136.373 208.507 136.503 209.373 136.46 209.373Z" fill="white"/>
<path d="M135.723 221.203C135.637 221.203 135.29 219.167 134.987 216.653C134.683 214.097 134.51 212.06 134.597 212.06C134.683 212.06 135.03 214.097 135.333 216.61C135.637 219.123 135.81 221.16 135.723 221.203Z" fill="white"/>
<path d="M143.003 220.64C142.96 220.64 142.917 220.25 142.873 219.557C142.83 218.82 142.743 217.823 142.613 216.653C142.397 214.183 142.093 210.803 141.66 207.077C141.227 203.35 140.75 199.97 140.403 197.543C140.23 196.373 140.1 195.377 139.97 194.64C139.883 193.947 139.84 193.557 139.84 193.557C139.883 193.557 139.97 193.903 140.1 194.597C140.23 195.29 140.403 196.243 140.62 197.457C141.053 199.883 141.53 203.263 141.963 206.99C142.397 210.717 142.657 214.14 142.83 216.61C142.917 217.823 142.96 218.82 142.96 219.513C143.047 220.293 143.047 220.64 143.003 220.64Z" fill="white"/>
<path d="M149.243 220.987C149.2 220.987 149.2 220.597 149.2 219.903C149.2 219.167 149.2 218.17 149.157 216.957C149.113 214.443 149.07 211.02 148.897 207.207C148.723 203.393 148.463 199.97 148.247 197.457C148.16 196.243 148.073 195.247 147.987 194.51C147.943 193.817 147.9 193.427 147.943 193.427C147.987 193.427 148.03 193.817 148.117 194.51C148.203 195.203 148.333 196.2 148.463 197.457C148.723 199.927 149.027 203.393 149.2 207.207C149.373 211.02 149.417 214.487 149.373 216.957C149.373 218.213 149.33 219.21 149.287 219.903C149.287 220.64 149.243 220.987 149.243 220.987Z" fill="white"/>
<g opacity="0.3">
<path d="M127.403 215.743C128.4 216.393 129.613 216.653 130.827 216.567C131.997 216.48 133.167 216.133 134.25 215.657C135.723 215.05 137.11 214.27 138.15 213.1C139.277 211.843 139.84 210.197 140.143 208.507C140.403 206.86 140.36 205.127 140.317 203.48C140.317 203.393 140.317 203.307 140.273 203.263C140.187 203.133 140.013 203.177 139.927 203.263C139.84 203.35 139.753 203.48 139.71 203.61C137.803 209.243 132.95 213.793 127.23 215.397" fill="#3F3F40"/>
</g>
<path d="M123.373 269.953L119.43 262.543L110.547 220.943C110.547 220.943 102.357 216.263 95.6833 226.533C95.4233 226.967 104.87 256.737 107.557 265.013L107.947 272.943C107.947 272.943 107.47 282.347 107.947 283.17C108.423 283.993 109.593 284.47 109.593 284.47C109.593 284.47 109.247 286.81 111.933 287.07C111.933 287.07 112.15 289.67 114.143 289.28C116.137 288.933 116.83 287.633 116.83 287.633C116.83 287.633 116.83 290.927 118.607 290.58C120.383 290.233 120.643 288.803 120.99 288.37C121.337 287.893 121.683 283.083 121.683 283.083L121.64 275.153L126.233 278.88C127.577 279.53 129.483 280.353 130.61 279.357L123.373 269.953Z" fill="#FFBE9D"/>
<path d="M121.64 274.677C121.727 274.677 122.03 276.583 121.9 278.967C121.857 280.05 121.813 281.09 121.77 282C121.727 282.78 121.683 283.257 121.64 283.257C121.553 283.257 121.467 281.35 121.553 278.967C121.64 276.627 121.553 274.72 121.64 274.677Z" fill="#EB996E"/>
<path d="M116.57 280.223C116.657 280.223 116.743 282 116.787 284.167C116.83 286.333 116.743 288.11 116.657 288.11C116.57 288.11 116.483 286.333 116.44 284.167C116.44 282 116.483 280.223 116.57 280.223Z" fill="#EB996E"/>
<path d="M112.367 281.653C112.453 281.653 112.627 282.867 112.453 284.427C112.323 285.943 111.933 287.157 111.847 287.113C111.76 287.07 111.977 285.9 112.107 284.383C112.237 282.91 112.237 281.697 112.367 281.653Z" fill="#EB996E"/>
<path d="M109.637 280.743C109.723 280.743 109.723 281.567 109.637 282.52C109.55 283.517 109.377 284.297 109.29 284.253C109.203 284.253 109.203 283.43 109.29 282.477C109.377 281.523 109.55 280.743 109.637 280.743Z" fill="#EB996E"/>
<path d="M72.89 102.08L66.39 90.5966C69.25 85.9166 70.94 80.4133 70.94 74.52C70.94 57.5766 57.2034 43.84 40.26 43.84C23.3167 43.84 9.58002 57.5766 9.58002 74.52C9.58002 91.4633 23.3167 105.2 40.26 105.2C47.3234 105.2 53.8667 102.817 59.0233 98.7866L72.89 102.08Z" fill="white"/>
<path d="M72.89 102.08C72.24 101.95 67.82 100.91 58.98 98.9167C58.9367 98.9167 58.8933 98.8733 58.8933 98.7867V98.7433L59.0233 98.8733C57.29 100.217 55.1667 101.56 52.6967 102.687C50.2267 103.77 47.41 104.68 44.29 105.07C42.73 105.287 41.0833 105.417 39.4367 105.33C38.6133 105.287 37.7467 105.243 36.88 105.2C36.0133 105.07 35.1467 104.94 34.28 104.81C30.8133 104.117 27.26 102.817 23.9233 100.737C20.63 98.7 17.5533 95.8833 15.0833 92.5033C12.6133 89.08 10.75 85.05 9.88334 80.63C9.01667 76.2533 9.10334 71.53 10.23 66.98C11.4 62.43 13.5667 58.01 16.8167 54.37L18.0733 52.9833C18.5067 52.5067 18.9833 52.1167 19.4167 51.7267C19.8933 51.3367 20.3267 50.86 20.8033 50.5133L22.2767 49.43C22.7533 49.04 23.2733 48.7367 23.7933 48.4333C24.3133 48.13 24.8333 47.7833 25.3533 47.48C25.9167 47.22 26.4367 46.96 27 46.7C27.5633 46.44 28.0833 46.1367 28.6467 45.9633C33.11 44.1867 37.8767 43.5366 42.4267 43.84C46.9767 44.1866 51.31 45.4867 55.0367 47.5667C58.7633 49.6467 61.9267 52.42 64.3967 55.54C66.8233 58.66 68.5567 62.0833 69.64 65.5067C70.68 68.93 70.9833 72.3533 70.9833 75.4733C70.8967 78.6367 70.3333 81.54 69.4667 84.0967C68.6433 86.6533 67.5167 88.8633 66.39 90.6833V90.5967C70.5933 97.92 72.5867 101.56 72.89 102.08C72.5867 101.517 70.5067 97.9633 66.3033 90.64C66.3033 90.5967 66.3033 90.5967 66.3033 90.5533C67.43 88.69 68.5133 86.5233 69.3367 83.9667C70.16 81.41 70.7233 78.55 70.81 75.3867C70.81 72.2667 70.5067 68.8867 69.4667 65.5067C68.3833 62.1266 66.6933 58.7467 64.2667 55.67C61.84 52.5933 58.72 49.8633 54.9933 47.7833C51.31 45.7033 46.9767 44.4467 42.5133 44.1C38.0067 43.7967 33.3267 44.4467 28.9067 46.18C28.3433 46.3533 27.8233 46.6567 27.26 46.9167C26.74 47.1767 26.1767 47.4367 25.6567 47.6967C25.1367 48 24.6167 48.3033 24.0967 48.65C23.5767 48.9533 23.0567 49.2567 22.58 49.6467L21.1067 50.73C20.63 51.0767 20.1967 51.5533 19.72 51.9433C19.2867 52.3767 18.81 52.7233 18.3767 53.2L17.12 54.5433C13.9133 58.14 11.7467 62.5167 10.62 67.0233C9.49334 71.53 9.40667 76.1667 10.2733 80.5C11.14 84.8333 12.96 88.8633 15.3867 92.2433C17.8133 95.6233 20.8467 98.3967 24.0967 100.433C27.39 102.47 30.9 103.77 34.3233 104.463C35.19 104.593 36.0567 104.723 36.88 104.853C37.7467 104.94 38.57 104.94 39.3933 104.983C41.04 105.07 42.6867 104.94 44.2033 104.767C47.28 104.377 50.0967 103.51 52.5667 102.427C55.0367 101.343 57.1167 100 58.85 98.7C58.8933 98.6567 58.9367 98.6567 58.98 98.7C59.0233 98.7433 59.0233 98.7867 58.98 98.83L58.9367 98.7C67.8633 100.867 72.2833 101.95 72.89 102.08Z" fill="#3F3F40"/>
<path d="M31.2467 68.7133C30.8133 68.4533 30.25 68.3667 29.73 68.3233C28.0833 68.1067 26.6967 68.5833 25.5267 69.8833C28.8633 71.79 33.37 74.3467 36.62 76.21L40.6933 73.87C37.7033 72.2233 34.02 70.1867 31.2467 68.7133Z" fill="#FF5922"/>
<g opacity="0.3">
<path d="M31.2467 68.7133C30.8133 68.4533 30.25 68.3667 29.73 68.3233C28.0833 68.1067 26.6967 68.5833 25.5267 69.8833C28.8633 71.79 33.37 74.3467 36.62 76.21L40.6933 73.87C37.7033 72.2233 34.02 70.1867 31.2467 68.7133Z" fill="#3F3F40"/>
</g>
<path d="M43.7267 80.5C43.64 80.4133 43.5967 80.37 43.5967 80.37C42.6 79.7633 41.5167 78.68 40.4767 78.68C40.0867 78.68 39.6533 79.0267 38.6567 79.59C36.9667 80.5433 34.15 82.19 32.46 83.1433C31.03 83.9233 29.2533 84.53 27.6067 84.01C26.7833 83.75 26.1767 83.3167 25.31 82.6233C31.6367 78.94 37.66 75.4733 43.77 71.92C43.6833 71.66 43.5967 71.4 43.4667 71.0967C42.73 68.8867 43.51 66.46 45.4167 65.0733C47.3667 63.73 49.9667 63.8167 51.83 65.3333C53.65 66.8067 54.2567 69.32 53.3467 71.4867C52.4367 73.6533 50.2267 74.91 47.8867 74.6933C47.4967 74.65 47.02 74.78 46.6733 74.9533C45.98 75.3 45.33 75.7333 44.4633 76.21C45.8933 76.86 46.8467 77.8567 48.4933 77.7267C50.79 77.51 52.8267 79.1567 53.52 81.41C54.2133 83.5767 53.39 85.9167 51.57 87.26C49.7067 88.6033 47.15 88.56 45.33 87.1733C43.51 85.83 42.7733 83.4033 43.51 81.28C43.5533 81.02 43.64 80.76 43.7267 80.5ZM48.45 72.0067C49.88 72.0067 51.0067 70.88 51.0067 69.45C51.0067 68.0633 49.8367 66.9367 48.4933 66.9367C47.1067 66.9367 45.8933 68.15 45.9367 69.5367C45.9367 70.8367 47.0633 71.9633 48.45 72.0067ZM48.4067 85.4833C49.7933 85.5267 50.9633 84.4 51.0067 83.0133C51.05 81.5833 49.9233 80.4133 48.4933 80.37C47.1067 80.37 45.9367 81.4533 45.8933 82.84C45.85 84.2267 47.02 85.4833 48.4067 85.4833Z" fill="#FF5922"/>
<path d="M41.6033 76.08C41.56 76.08 41.56 75.6033 41.04 75.2133C40.78 75.04 40.39 74.9533 40.0433 75.0833C39.6967 75.2133 39.3933 75.6033 39.3933 76.0367C39.3933 76.47 39.6967 76.86 40.0433 76.99C40.39 77.12 40.78 77.0333 41.04 76.86C41.56 76.6 41.5167 76.08 41.6033 76.08C41.6033 76.08 41.6467 76.1667 41.6467 76.3833C41.6033 76.6 41.5167 76.9033 41.2133 77.12C40.91 77.38 40.4333 77.51 39.9567 77.3367C39.48 77.1633 39.0467 76.6433 39.0467 76.0367C39.0467 75.43 39.48 74.91 39.9567 74.7367C40.4333 74.5633 40.9533 74.7367 41.2133 74.9533C41.5167 75.2133 41.6033 75.5167 41.6467 75.69C41.6467 75.9933 41.6033 76.08 41.6033 76.08Z" fill="#3F3F40"/>
<path d="M46.11 75.2133C46.11 75.2133 45.98 75.3 45.72 75.4733C45.4167 75.69 45.07 75.8633 44.68 76.1233C43.6833 76.73 42.47 77.4233 41.17 78.16C39.87 78.8967 38.6567 79.59 37.66 80.1533C37.27 80.37 36.9233 80.5433 36.5767 80.76C36.3167 80.89 36.1867 80.9767 36.1867 80.9767C36.1867 80.9767 36.3167 80.89 36.5767 80.7166C36.88 80.5 37.2267 80.3266 37.6167 80.0666C38.6133 79.46 39.8267 78.7667 41.1267 78.03C42.4267 77.2933 43.5967 76.6 44.6367 76.0366C45.0267 75.82 45.3733 75.6467 45.72 75.43C45.9367 75.2567 46.11 75.2133 46.11 75.2133Z" fill="#3F3F40"/>
<path d="M43.0333 72.3533C43.0333 72.3533 42.99 72.3967 42.86 72.4833C42.6867 72.57 42.5567 72.7 42.34 72.7867C41.82 73.09 41.2133 73.48 40.4767 73.9133C38.8733 74.8667 36.7067 76.1667 34.2367 77.5967C31.81 78.9833 29.6 80.24 27.91 81.1933C27.1733 81.6267 26.5233 81.9733 26.0033 82.2767C25.83 82.3633 25.6567 82.4933 25.4833 82.58C25.3533 82.6233 25.31 82.6667 25.31 82.6667C25.31 82.6667 25.3533 82.6233 25.4833 82.5367C25.6567 82.45 25.7867 82.3633 26.0033 82.2333C26.5233 81.93 27.1733 81.54 27.91 81.1067C29.6 80.1533 31.7667 78.8967 34.1933 77.51C36.6633 76.1233 38.8733 74.8233 40.4767 73.87C41.2133 73.4367 41.8633 73.09 42.3833 72.7867C42.5567 72.6567 42.73 72.57 42.9033 72.4833C42.9467 72.3967 43.0333 72.3533 43.0333 72.3533Z" fill="#3F3F40"/>
</svg>
